<?xml version="1.0" encoding="utf-8"?>
<!-- Generator: Adobe Illustrator 21.0.2, SVG Export Plug-In . SVG Version: 6.00 Build 0)  -->
<!DOCTYPE svg PUBLIC "-//W3C//DTD SVG 1.1//EN" "http://www.w3.org/Graphics/SVG/1.1/DTD/svg11.dtd">
<svg version="1.1" id="Layer_1" xmlns="http://www.w3.org/2000/svg" xmlns:xlink="http://www.w3.org/1999/xlink" x="0px" y="0px"
	 viewBox="0 0 99.2 17.4" enable-background="new 0 0 99.2 17.4" xml:space="preserve">
<g>
	<rect x="28.5" fill="#231F20" width="4.2" height="17.4"/>
	<polygon fill="#231F20" points="48.6,17.4 38.1,0 42.9,0 50.3,12.6 57.2,0 61.6,0 51.5,17.4 	"/>
	<rect x="66.5" fill="#231F20" width="4.2" height="17.4"/>
	<path fill="#231F20" d="M98,1.1C97.3,0.6,96.4,0,94.7,0H81.2c-1.8,0-2.7,0.6-3.3,1.1c-0.6,0.5-1.2,1.4-1.2,3v9.2
		c0,1.6,0.6,2.4,1.2,3c0.6,0.6,1.5,1.1,3.3,1.1h13.4c1.7,0,2.6-0.6,3.3-1.1c0.6-0.6,1.3-1.4,1.3-3V4.1C99.2,2.5,98.6,1.7,98,1.1z
		 M94.9,12.7c0,0.8-0.8,1.4-1.8,1.4H82.8c-1,0-1.8-0.6-1.8-1.4V4.6c0-0.8,0.8-1.4,1.8-1.4h10.3c1,0,1.8,0.6,1.8,1.4V12.7z"/>
	<path fill="#231F20" d="M0,0v17.4h0h18c1.7,0,2.6-0.6,3.3-1.1c0.6-0.6,1.3-1.4,1.3-3V4.1c0-1.6-0.6-2.5-1.2-3C20.6,0.6,19.7,0,18,0
		L0,0L0,0z M18.2,12.7c0,0.8-0.8,1.4-1.8,1.4H4.3l0-1.4V4.6l0-1.4h12.1c1,0,1.8,0.6,1.8,1.4V12.7z"/>
</g>
</svg>
