<svg xmlns="http://www.w3.org/2000/svg" xmlns:xlink="http://www.w3.org/1999/xlink" width="0" height="0" style="position:absolute">
	
		<symbol id="agency" viewBox="0 0 61 61">
			<title>agency</title><path d="M25.693 38.15h-.99c-.558 0-1.01.444-1.01 1 0 .553.451 1 1.01 1h.99v5.996a1 1 0 1 0 2 .008V40.15h6v6.072c0 .547.444.99 1 .99.553 0 1-.44 1-.994V40.15h1.026c.558 0 1.01-.443 1.01-1 0-.552-.451-1-1.01-1h-1.026v-.062h-10v.062zM.483.452h60v60h-60v-60zm21.711 9.833l17.03.003v37c0 .544.448.997 1 .997.556 0 1-.446 1-.997v-37c0-1.114-.89-2.003-1.996-2.003H22.194c-1.1 0-1.996.9-1.996 2.003v37c0 .544.448.997 1 .997.556 0 1-.446 1-.997 0 0 .002-37.003-.004-37.003zm21.001 9h8.003v30.004c0 .558.448.996 1 .996.556 0 1-.446 1-.997v-30.01a2 2 0 0 0-1.996-1.993h-8.006a.999.999 0 0 0-.998 1c0 .556.446 1 .997 1zm-33.997 31c.552 0 1-.438 1-.996V19.292c0-.003 5.997-.006 5.997-.006a1 1 0 0 0 1.003-1.001c0-.552-.438-1-1.004-1h-6c-1.099 0-1.996.902-1.996 2.007V49.29c0 .55.444.996 1 .996zm18.41-15.336a1.5 1.5 0 1 0 0-3 1.5 1.5 0 0 0 0 3zm0-8.572a1.5 1.5 0 1 0 0-3 1.5 1.5 0 0 0 0 3zm0-8.572a1.5 1.5 0 1 0 0-3 1.5 1.5 0 0 0 0 3zm6.17 17.144a1.5 1.5 0 1 0 0-3 1.5 1.5 0 0 0 0 3zm0-8.572a1.5 1.5 0 1 0 0-3 1.5 1.5 0 0 0 0 3zm0-8.572a1.5 1.5 0 1 0 0-3 1.5 1.5 0 0 0 0 3z" fill="#FFF" fill-rule="evenodd"></path>
		</symbol>
	
		<symbol id="apple" viewBox="0 0 60 70">
			<title>apple</title><g transform="translate(-1)"><path fill="none" opacity=".506" d="M0 0h63v70H0z"></path><path d="M58.691 23.361c-3.58-4.468-8.607-7.062-13.35-7.062-6.277 0-8.931 2.991-13.29 2.991-4.491 0-7.899-2.99-13.334-2.99-5.332 0-11.007 3.249-14.606 8.798-1.323 2.052-2.22 4.6-2.708 7.438-1.357 7.962.67 18.334 6.714 27.543 2.939 4.468 6.856 9.502 11.974 9.545 4.559.045 5.852-2.915 12.024-2.945 6.18-.035 7.352 2.975 11.904 2.932 5.12-.043 9.252-5.613 12.191-10.08 2.093-3.207 2.885-4.827 4.512-8.452-8.274-3.12-11.677-12.237-9.01-19.655 1.153-3.216 3.437-6.11 6.98-8.063z"></path><path d="M40.578 11.304C42.858 8.38 44.59 4.244 43.961 0c-3.726.261-8.085 2.637-10.626 5.735-2.305 2.807-4.219 6.973-3.477 11.02 4.07.128 8.274-2.308 10.72-5.45"></path></g>
		</symbol>
	
		<symbol id="arrow-down" viewBox="0 0 7 4">
			<title>Icon/ arrowDown</title><path d="M.579.362a.5.5 0 0 0 0 .708l2.567 2.568a.5.5 0 0 0 .708 0L6.42 1.07a.5.5 0 1 0-.707-.707L3.5 2.576 1.286.362a.5.5 0 0 0-.707 0z" fill-rule="nonzero" fill="#43454C"></path>
		</symbol>
	
		<symbol id="arrow-down-circle" viewBox="0 0 16 16">
			<title>Icon/ arrowDownCircle</title><g fill-rule="nonzero" fill="#0BF"><path d="M8 15.575A7.62 7.62 0 1 1 8 .336a7.62 7.62 0 0 1 0 15.239zm0-1A6.62 6.62 0 1 0 8 1.336a6.62 6.62 0 0 0 0 13.239z"></path><path d="M5.079 6.495a.5.5 0 0 0 0 .707L7.646 9.77a.5.5 0 0 0 .708 0l2.567-2.568a.5.5 0 0 0-.707-.707L8 8.709 5.786 6.495a.5.5 0 0 0-.707 0z"></path></g>
		</symbol>
	
		<symbol id="arrow-right" viewBox="0 0 7 11">
			<title>arrowRight</title><path d="M1.01 8.896a.999.999 0 0 0-.001 1.416c.39.391 1.03.384 1.418-.004L6.71 6.024a1.01 1.01 0 0 0 0-1.423L2.427.317A1 1 0 0 0 1.009.312c-.391.391-.385 1.03.001 1.416l3.584 3.584L1.01 8.896z" fill-rule="evenodd"></path>
		</symbol>
	
		<symbol id="bookmark" viewBox="0 0 61 61">
			<title>bookmark</title><g transform="translate(.085 -.065)" fill="#FFF" fill-rule="evenodd"><path d="M.42.842h60v60h-60v-60zm41.464 49.653a.819.819 0 0 0 .819-.819V12.008a.82.82 0 0 0-.819-.82H18.956a.82.82 0 0 0-.819.82v37.668c0 .33.2.63.506.755.306.129.658.057.893-.177L30.42 39.369l10.884 10.886c.158.156.367.24.58.24z"></path><path d="M30.42 37.393c-.21 0-.42.08-.58.24L19.775 47.7V12.827h21.29v34.87L31 37.632a.823.823 0 0 0-.58-.24zm4.813-4.84a.817.817 0 0 0 .78-1.071l-1.654-5.092 4.332-3.147a.82.82 0 0 0-.481-1.482h-5.356L31.2 16.668c-.22-.675-1.339-.675-1.558 0l-1.654 5.091h-5.355a.82.82 0 0 0-.78.567c-.11.336.01.706.298.914l4.33 3.148-1.654 5.091a.82.82 0 0 0 1.261.916l4.332-3.146 4.332 3.146a.817.817 0 0 0 .481.157z"></path><path d="M30.42 27.419c.169 0 .337.052.481.157l2.775 2.014-1.06-3.26a.817.817 0 0 1 .298-.916l2.775-2.016h-3.43a.82.82 0 0 1-.78-.566L30.42 19.57l-1.06 3.26a.82.82 0 0 1-.78.567h-3.427l2.774 2.016a.82.82 0 0 1 .298.916l-1.06 3.26 2.775-2.014a.798.798 0 0 1 .48-.157z"></path></g>
		</symbol>
	
		<symbol id="chat" viewBox="0 0 21 18">
			<title>Icon/ chat</title><g transform="translate(.914 .471)"><path d="M19.265 10.821V2.265A2.155 2.155 0 0 0 17.114.114H2.627a2.155 2.155 0 0 0-2.15 2.15v8.557c0 1.185.965 2.151 2.15 2.151h.614v2.58a.862.862 0 0 0 1.518.561l2.718-3.145h9.641a2.146 2.146 0 0 0 2.147-2.147zm-12.06.985a.586.586 0 0 0-.442.2l-2.36 2.727v-2.346a.585.585 0 0 0-.586-.585h-1.19a.987.987 0 0 1-.985-.985V2.265c0-.543.443-.985.985-.985h14.487c.542 0 .984.442.984.985v8.556a.987.987 0 0 1-.984.985H7.205z"></path><path d="M10.565 6.748a.695.695 0 1 1-1.39 0 .695.695 0 0 1 1.39 0zM12.892 6.748a.695.695 0 1 1-1.39 0 .695.695 0 0 1 1.39 0zM8.238 6.748a.695.695 0 1 1-1.39 0 .695.695 0 0 1 1.39 0z"></path></g>
		</symbol>
	
		<symbol id="check" viewBox="0 0 14 10">
			<title>check</title><path d="M1.062 5.495a.545.545 0 0 1-.149-.354c0-.1.049-.25.15-.35l.704-.704a.485.485 0 0 1 .704 0l.05.051 2.764 2.964c.1.1.25.1.35 0L12.368.117h.052a.49.49 0 0 1 .704 0l.702.704a.486.486 0 0 1 0 .704L5.788 9.867c-.1.1-.202.15-.354.15a.454.454 0 0 1-.35-.15L1.163 5.645l-.1-.15z"></path>
		</symbol>
	
		<symbol id="close" viewBox="0 0 10 10">
			<title>CloseIcon</title><path d="M5.23 4.03L2.402 1.205A.999.999 0 1 0 .988 2.618l2.827 2.827L.988 8.272a.999.999 0 1 0 1.415 1.414l2.826-2.827 2.827 2.827A.999.999 0 1 0 9.47 8.272L6.644 5.445 9.47 2.618a.999.999 0 1 0-1.414-1.414L5.229 4.031z"></path>
		</symbol>
	
		<symbol id="cloud" viewBox="0 0 99 99">
			<title>cloud</title><g fill="#FFF" fill-rule="evenodd"><path d="M49.412 98.5C22.229 98.5.193 76.462.193 49.28.193 22.098 22.23.062 49.412.062S98.63 22.098 98.63 49.28c0 27.183-22.036 49.22-49.22 49.22zm.54-32.585l.93-33.674s-1.533-.156-2.316-.156a16.857 16.857 0 0 0-15.935 11.287c-5.66.624-10.056 5.43-10.056 11.238 0 6.232 5.072 11.305 11.304 11.305h16.073zm14.01-16.322c.133-1.323-1.16-2.591-2.5-2.617-1.413-.028-2.693 1.225-2.696 2.64-.004 1.361 1.187 2.568 2.56 2.565 1.634-.003 2.492-1.145 2.636-2.588zm-5.186-6.66c.065 1.187.917 2.647 2.755 2.543 1.54.077 2.358-1.26 2.443-2.546.092-1.387-1.198-2.666-2.587-2.655-1.403.011-2.686 1.273-2.61 2.657zm-6.875 6.508c.096 1.79 1.212 2.67 2.626 2.692 1.385-.01 2.564-1.133 2.579-2.455a2.731 2.731 0 0 0-2.698-2.751c-1.108-.02-2.567 1.372-2.507 2.514zm6.852 13.902c-.008 1.357 1.205 2.56 2.593 2.572 1.436.012 2.635-1.19 2.613-2.62-.021-1.396-1.204-2.586-2.569-2.586-1.395-.001-2.627 1.23-2.637 2.634zm-6.857-20.394c-.027 1.156 1.311 2.54 2.449 2.532 1.466-.009 2.73-1.193 2.757-2.584.027-1.397-1.217-2.643-2.62-2.621-1.41.02-2.55 1.2-2.586 2.673zm.032 20.375a2.586 2.586 0 0 0 2.647 2.59c1.39-.016 2.568-1.215 2.559-2.604-.01-1.42-1.239-2.623-2.659-2.602-1.377.021-2.556 1.232-2.547 2.616zM63.96 56.6c.02-1.375-1.162-2.596-2.53-2.615-1.42-.019-2.636 1.15-2.675 2.573-.036 1.325 1.276 2.638 2.632 2.633 1.335-.004 2.554-1.232 2.573-2.591zM51.928 36.002c-.02 1.46 1.138 2.613 2.617 2.605a2.612 2.612 0 0 0 2.589-2.561c.019-1.387-1.246-2.66-2.628-2.645-1.37.015-2.558 1.214-2.578 2.601zm.004 20.551c-.02 1.414 1.205 2.651 2.613 2.642 1.346-.01 2.572-1.234 2.593-2.59.022-1.409-1.212-2.636-2.63-2.616a2.598 2.598 0 0 0-2.576 2.564zm25.483-6.96c.133-1.323-1.16-2.591-2.5-2.617-1.413-.028-2.693 1.225-2.696 2.64-.004 1.361 1.187 2.568 2.56 2.565 1.635-.003 2.492-1.145 2.636-2.588zm-12.06-.152c.095 1.79 1.211 2.67 2.625 2.692 1.385-.01 2.564-1.133 2.579-2.455a2.731 2.731 0 0 0-2.698-2.751c-1.108-.02-2.567 1.372-2.507 2.514zm6.852 13.902c-.01 1.357 1.204 2.56 2.592 2.572 1.436.012 2.635-1.19 2.613-2.62-.021-1.396-1.204-2.586-2.569-2.586-1.395-.001-2.627 1.23-2.636 2.634zm-6.826-.02a2.586 2.586 0 0 0 2.647 2.59c1.39-.015 2.568-1.214 2.559-2.603-.01-1.42-1.239-2.623-2.659-2.602-1.377.021-2.556 1.232-2.547 2.616zm.004-20.308a2.586 2.586 0 0 0 2.648 2.59c1.39-.016 2.568-1.215 2.558-2.604-.01-1.42-1.239-2.623-2.658-2.602-1.378.021-2.557 1.231-2.548 2.616zM77.413 56.6c.02-1.375-1.162-2.596-2.53-2.615-1.42-.019-2.636 1.15-2.675 2.573-.036 1.325 1.276 2.638 2.632 2.633 1.335-.004 2.554-1.232 2.573-2.591zm-12.028-.047c-.02 1.414 1.205 2.651 2.613 2.642 1.346-.01 2.572-1.234 2.593-2.59.022-1.409-1.212-2.636-2.63-2.616a2.598 2.598 0 0 0-2.576 2.564z"></path><path d="M50.85 35.204s-1.16-.379-2.284-.379a14.119 14.119 0 0 0-13.597 10.23l-.278.968-1.007.023c-4.642.105-8.369 3.911-8.369 8.564 0 4.72 3.845 8.565 8.564 8.565h16.073c2.35 0 .898-14.175.898-14.175V35.204z"></path></g>
		</symbol>
	
		<symbol id="code" viewBox="0 0 99 99">
			<title>code</title><g fill="#FFF" fill-rule="evenodd"><path d="M49.412 98.5C22.229 98.5.193 76.462.193 49.28.193 22.098 22.23.062 49.412.062S98.63 22.098 98.63 49.28c0 27.183-22.036 49.22-49.22 49.22zm20.005-69.15H30.583a6.366 6.366 0 0 0-6.358 6.358v24.63c0 3.5 2.847 6.359 6.358 6.359h17.972v6.069h-8.96a1.44 1.44 0 0 0-1.445 1.445c0 .803.643 1.444 1.446 1.444h20.808c.803 0 1.445-.641 1.445-1.444a1.44 1.44 0 0 0-1.445-1.445h-8.959v-6.07h17.972c3.5 0 6.358-2.847 6.358-6.358v-24.63a6.36 6.36 0 0 0-6.358-6.358z"></path><path d="M69.412 63.806H30.577a3.474 3.474 0 0 1-3.468-3.468v-1.156h45.77v1.156a3.474 3.474 0 0 1-3.467 3.468zM30.577 32.24h38.845c1.905 0 3.469 1.739 3.469 3.885v23.057H27.109V36.125c0-2.146 1.552-3.885 3.468-3.885zm16.046 16.806v-1.24c-.093-.206-.181-.416-.28-.62-.63-1.28-2.07-1.898-3.407-1.466-1.388.45-2.171 1.745-1.947 3.223.2 1.324 1.418 2.327 2.826 2.311 1.497-.016 2.313-.91 2.808-2.208zm6.3 6.144v-1.24c-.092-.206-.18-.416-.28-.62-.628-1.28-2.07-1.899-3.406-1.466-1.388.45-2.171 1.745-1.947 3.223.2 1.324 1.418 2.326 2.826 2.311 1.497-.016 2.313-.91 2.808-2.208zm.084-12.528v-1.24c-.093-.206-.181-.416-.281-.62-.628-1.28-2.069-1.898-3.406-1.466-1.388.45-2.171 1.745-1.947 3.223.2 1.324 1.418 2.327 2.826 2.311 1.497-.016 2.313-.91 2.808-2.208zm6.386 6.059v-1.24c-.093-.206-.181-.416-.281-.62-.628-1.28-2.069-1.899-3.406-1.466-1.388.45-2.171 1.745-1.947 3.223.2 1.324 1.418 2.326 2.826 2.31 1.497-.015 2.313-.91 2.808-2.207z"></path></g>
		</symbol>
	
		<symbol id="content" viewBox="0 0 99 99">
			<title>content</title><g fill="#FFF" fill-rule="evenodd"><path d="M49.412 98.5C22.229 98.5.193 76.462.193 49.28.193 22.098 22.23.062 49.412.062S98.63 22.098 98.63 49.28c0 27.183-22.036 49.22-49.22 49.22zM23.285 47.85v17.566c0 2.9 2.348 5.244 5.244 5.244h28.098a5.249 5.249 0 0 0 5.245-5.244V47.849c0-2.9-2.348-5.244-5.245-5.244H28.53a5.249 5.249 0 0 0-5.244 5.244zM41.328 37.82c-.007-1.393-1.088-2.456-2.496-2.455-1.422 0-2.515 1.117-2.496 2.55.019 1.342 1.189 2.464 2.545 2.441 1.36-.023 2.454-1.158 2.447-2.536zm0-8.025c-.007-1.393-1.088-2.456-2.496-2.456-1.422.001-2.515 1.118-2.496 2.55.019 1.342 1.189 2.465 2.545 2.442 1.36-.023 2.454-1.158 2.447-2.536zm7.077 0c-.007-1.393-1.088-2.456-2.496-2.456-1.421.001-2.515 1.118-2.495 2.55.018 1.342 1.188 2.465 2.544 2.442 1.36-.023 2.455-1.158 2.447-2.536zm7.078 0c-.007-1.393-1.088-2.456-2.496-2.456-1.422.001-2.515 1.118-2.496 2.55.019 1.342 1.189 2.465 2.545 2.442 1.36-.023 2.454-1.158 2.447-2.536zm7.077 0c-.007-1.393-1.088-2.456-2.496-2.456-1.421.001-2.515 1.118-2.495 2.55.018 1.342 1.188 2.465 2.544 2.442 1.36-.023 2.455-1.158 2.447-2.536zm7.078 0c-.007-1.393-1.088-2.456-2.496-2.456-1.422.001-2.515 1.118-2.496 2.55.019 1.342 1.188 2.465 2.545 2.442 1.359-.023 2.454-1.158 2.447-2.536zm7.077 0c-.007-1.393-1.088-2.456-2.496-2.456-1.422.001-2.515 1.118-2.495 2.55.018 1.342 1.188 2.465 2.544 2.442 1.36-.023 2.454-1.158 2.447-2.536zm0 8.025c-.007-1.393-1.088-2.456-2.496-2.455-1.422 0-2.515 1.117-2.495 2.55.018 1.342 1.188 2.464 2.544 2.441 1.36-.023 2.454-1.158 2.447-2.536zm0 8.026c-.007-1.393-1.088-2.457-2.496-2.456-1.422 0-2.515 1.117-2.495 2.55.018 1.342 1.188 2.464 2.544 2.441 1.36-.023 2.454-1.158 2.447-2.535zm0 8.025c-.007-1.393-1.088-2.457-2.496-2.456-1.422 0-2.515 1.117-2.495 2.55.018 1.342 1.188 2.464 2.544 2.441 1.36-.023 2.454-1.157 2.447-2.535zm-7.077 0c-.007-1.393-1.088-2.457-2.496-2.456-1.422 0-2.515 1.117-2.496 2.55.019 1.342 1.188 2.464 2.545 2.441 1.359-.023 2.454-1.157 2.447-2.535z"></path><path d="M25.912 47.85v17.566a2.614 2.614 0 0 0 2.617 2.616h28.098a2.622 2.622 0 0 0 2.617-2.616V47.849a2.614 2.614 0 0 0-2.617-2.616H28.53a2.622 2.622 0 0 0-2.617 2.616z"></path></g>
		</symbol>
	
		<symbol id="control" viewBox="0 0 99 99">
			<title>control</title><path d="M49.412 98.5C22.229 98.5.193 76.462.193 49.28.193 22.098 22.23.062 49.412.062S98.63 22.098 98.63 49.28c0 27.183-22.036 49.22-49.22 49.22zM29.036 61.137a2.628 2.628 0 0 0-1.294 2.265c.014.431.122.881.364 1.28v.02a2.597 2.597 0 0 0 2.23 1.28 2.83 2.83 0 0 0 1.315-.343 2.633 2.633 0 0 0 1.293-2.272 2.626 2.626 0 0 0-.364-1.28c-.707-1.247-2.297-1.657-3.544-.95zm41.979-.08a2.61 2.61 0 0 0-3.556.959 2.492 2.492 0 0 0-.344 1.297c0 .907.465 1.772 1.298 2.258.418.244.85.344 1.304.344a2.599 2.599 0 0 0 2.6-2.602c0-.884-.472-1.762-1.302-2.256zm-40.818-5.532a2.625 2.625 0 0 0-3.023-2.103 2.59 2.59 0 0 0-2.097 3.023 2.603 2.603 0 0 0 2.549 2.157c.156 0 .311-.021.467-.054 1.406-.244 2.346-1.603 2.104-3.023zM72.85 53.33c-1.423-.241-2.771.717-3.015 2.112a2.622 2.622 0 0 0 2.112 3.015c.156.02.31.035.453.035 1.246 0 2.34-.885 2.562-2.145.243-1.418-.708-2.773-2.112-3.017zM27.17 50.654c.135.033.297.054.432.054 1.25 0 2.357-.905 2.567-2.17.034-.155.034-.309.034-.464 0-1.23-.9-2.325-2.148-2.534-1.427-.244-2.777.695-3.02 2.113-.02.156-.034.312-.034.467a2.595 2.595 0 0 0 2.169 2.534zm42.617-2.668c0 .155.02.31.053.472.209 1.237 1.313 2.14 2.544 2.14.155 0 .31-.021.464-.054 1.245-.21 2.127-1.292 2.141-2.537 0-.155-.014-.296-.055-.451a2.568 2.568 0 0 0-3-2.105c-1.245.22-2.127 1.31-2.147 2.535zm-40.795-5.06c.4.228.85.344 1.282.344a2.57 2.57 0 0 0 2.255-1.316v.02a2.586 2.586 0 0 0-.952-3.55 2.587 2.587 0 0 0-3.556.952 2.603 2.603 0 0 0 .971 3.55zm40.697.268c.446 0 .899-.121 1.296-.344 1.25-.73 1.681-2.33.952-3.558-.708-1.24-2.301-1.66-3.55-.95-1.23.729-1.668 2.32-.953 3.556a2.626 2.626 0 0 0 2.255 1.296zM35.33 37.207c.607 0 1.194-.195 1.679-.606.622-.52.93-1.27.919-2.031 0-.574-.21-1.161-.608-1.646a2.583 2.583 0 0 0-3.656-.29 2.6 2.6 0 0 0-.938 2.003c.02.594.209 1.18.627 1.646.52.608 1.249.924 1.977.924zm29.279-.057c.742 0 1.485-.311 1.989-.938a2.456 2.456 0 0 0 .608-1.646 2.587 2.587 0 0 0-.917-2.003c-1.114-.917-2.74-.782-3.656.323-.42.473-.608 1.06-.629 1.647 0 .748.318 1.49.938 2.01a2.634 2.634 0 0 0 1.667.607zm-22.457-3.915c.29 0 .602-.054.899-.156a2.63 2.63 0 0 0 1.546-3.351 2.61 2.61 0 0 0-3.35-1.525c-1.35.485-2.027 1.978-1.54 3.329a2.604 2.604 0 0 0 2.445 1.703zm14.732-.199c.296.102.592.155.9.155 1.052 0 2.04-.66 2.439-1.709a2.591 2.591 0 0 0-1.556-3.318 2.613 2.613 0 0 0-3.337 1.556 2.597 2.597 0 0 0 1.554 3.316zm-7.026-1.31h.12a2.538 2.538 0 0 0 2.54-2.541 2.538 2.538 0 0 0-2.54-2.541h-.139c-1.387 0-2.523 1.147-2.523 2.56 0 1.386 1.15 2.522 2.542 2.522zm8.103 8.806l-7.687 9.159a1.97 1.97 0 0 0 .272 2.802l-.172-.14c.863.7 2.14.578 2.852-.271l7.688-9.16a1.97 1.97 0 0 0-.273-2.802l.173.14a2.052 2.052 0 0 0-2.853.272z" fill="#FFF" fill-rule="evenodd"></path>
		</symbol>
	
		<symbol id="divio" viewBox="0 0 79 14">
			<title>divio</title><path d="M22.72 13.82h3.299V.207h-3.3zM38.448 13.821L30.218.207h3.759l5.754 9.886L45.164.207h3.44L40.73 13.82h-2.282M52.772 13.82h3.3V.207h-3.3zM75.04 10.146c0 .608-.636 1.1-1.42 1.1h-8.075c-.784 0-1.42-.492-1.42-1.1V3.82c0-.606.636-1.099 1.42-1.099h8.075c.784 0 1.42.493 1.42 1.1v6.325zm2.366-9.062c-.492-.43-1.198-.872-2.567-.872h-10.51c-1.373 0-2.078.443-2.57.872-.493.428-.967 1.06-.967 2.346v7.18c0 1.264.474 1.892.968 2.331.491.44 1.196.886 2.57.886h10.509c1.35 0 2.048-.446 2.552-.886.506-.44.982-1.067.982-2.331V3.43c0-1.286-.473-1.918-.967-2.346zM14.704 10.146c0 .608-.636 1.1-1.42 1.1H3.79V3.82l.004-1.099h9.491c.784 0 1.42.493 1.42 1.1v6.325zM.456.21v13.616h14.047c1.35 0 2.049-.446 2.552-.886.506-.44.983-1.067.983-2.331V3.43c0-1.286-.474-1.918-.968-2.346-.492-.43-1.197-.872-2.567-.872H.456z"></path>
		</symbol>
	
		<symbol id="download-icon" viewBox="0 0 14 17">
			<title>downloadIcon</title><g transform="translate(-.067 -.183)"><path d="M1.067 10.774c-.552 0-1 .442-1 .998v1.997c0 1.66 1.35 3.005 3.009 3.005h7.983a3.004 3.004 0 0 0 3.008-3.005v-1.997a.996.996 0 0 0-1-.998c-.552 0-1 .442-1 .998v1.997c0 .557-.45 1.005-1.008 1.005H3.076a1.008 1.008 0 0 1-1.009-1.005v-1.997a.996.996 0 0 0-1-.998z"></path><path d="M6.066 8.364L3.482 5.78A.999.999 0 1 0 2.07 7.197l4.285 4.284a1.01 1.01 0 0 0 1.422 0l4.285-4.284a1 1 0 0 0 .004-1.419 1.006 1.006 0 0 0-1.416.002L8.066 8.364V1.543a.995.995 0 0 0-1-.995c-.552 0-1 .455-1 .995v6.821z"></path></g>
		</symbol>
	
		<symbol id="email" viewBox="0 0 19 15">
			<title>Icon/ email</title><path d="M2.437 2.003L16.15 1.98 9.3 8.129 2.437 2.003zm9.606 7.287l4.247 4.07-13.994.024 4.28-4.094a.578.578 0 0 0-.71-.914l-4.685 4.409L1.167 2.53 8.974 9.31a.577.577 0 0 0 .658-.001l7.788-6.804.015 10.28-4.683-4.408a.578.578 0 0 0-.71.914zM17.419.82L1.165.848c-.31 0-.6.121-.818.34a1.15 1.15 0 0 0-.337.818l.015 11.38c0 .31.121.6.34.818.218.218.508.338.817.338l16.255-.028c.637 0 1.155-.52 1.155-1.158l-.016-11.38c-.001-.638-.52-1.156-1.157-1.156z"></path>
		</symbol>
	
		<symbol id="find-agency" viewBox="0 0 61 61">
			<title>find-agency</title><g transform="translate(-.192 .44)" fill="#FFF" fill-rule="evenodd"><path d="M24.843 48.009c.487.004 1.828-.002 1.828-.002.556-.002 1.447-.003 1.999-.003.556 0 1-.448 1-1v-10.05c0-1.11-.901-2-2.01-2h-2.535v-5.65c0-.537-.45-.992-1.007-.992h-9.985a.998.998 0 0 0-1.008.991v5.692a1.001 1.001 0 0 0-.284-.041h-1.995c-1.108 0-2.009.89-2.009 2v10.05c0 .552.444 1 1 1 .552 0 1.443.001 2 .003 0 0 .989.005 1.576.003.183.185.438.302.72.302h9.985c.285 0 .542-.117.725-.303zm.282-1.85v-9.205h2.545v9.11c0 .106-1.706.103-2.545.095zm-12 .002c-.887.006-2.288 0-2.288-.096v-9.11l2.001-.001c.1 0 .196-.015.287-.042v9.25zm36.11-14.776c.486.005 1.827-.001 1.827-.001.556-.002 1.446-.004 1.999-.004.556 0 1-.447 1-1V20.331c0-1.11-.901-2-2.01-2h-2.535v-5.65c0-.537-.451-.993-1.007-.993h-9.986a.998.998 0 0 0-1.007.992v5.691a1.001 1.001 0 0 0-.284-.04h-1.995c-1.108 0-2.01.89-2.01 2v10.05c0 .552.445 1 1 1 .553 0 1.444.001 2 .003 0 0 .99.004 1.577.003.183.185.438.301.72.301h9.985c.285 0 .542-.116.725-.303zm.281-1.849v-9.205h2.545v9.11c0 .106-1.706.103-2.545.095zm-12 .002c-.887.006-2.288-.001-2.288-.096V20.33h2.001c.1 0 .196-.015.287-.042v9.25zM.449 0h60v60h-60V0zm17.66 21.007a1.513 1.513 0 0 0 .065-2.12 1.489 1.489 0 0 0-2.115-.068 1.5 1.5 0 0 0-.24 1.908c.049.075.108.144.173.21.559.603 1.51.632 2.118.07zm18.223 25.71a1.51 1.51 0 0 0-1.969-.793 1.513 1.513 0 0 0-.795 1.969c.038.081.08.16.125.23a1.498 1.498 0 0 0 1.843.564 1.508 1.508 0 0 0 .796-1.97zm-15.8-29.366c.026.076.067.16.11.226a1.502 1.502 0 0 0 2.09.431c.594-.386.84-1.164.55-1.834a1.5 1.5 0 0 0-1.97-.797 1.496 1.496 0 0 0-.78 1.974zM38.97 42.898a1.375 1.375 0 0 0-.212.175 1.498 1.498 0 0 0-.238 1.904c.05.075.108.143.172.207a1.493 1.493 0 0 0 1.902.237c.075-.049.14-.1.202-.169.612-.563.65-1.513.077-2.114a1.514 1.514 0 0 0-1.903-.24zM26.023 15.531c.015.265.101.52.237.728.282.434.785.716 1.345.677l-.01.006a1.492 1.492 0 0 0 1.418-1.575 1.492 1.492 0 0 0-1.577-1.42 1.502 1.502 0 0 0-1.413 1.584zm15.963 24.845c.14.216.34.397.573.519.746.375 1.656.08 2.022-.658a1.501 1.501 0 0 0-.655-2.016 1.516 1.516 0 0 0-2.021.657c-.25.497-.197 1.07.08 1.498z"></path><path d="M39.516 29.688h8v-16h-8zM15.125 46.312h8v-16h-8z"></path></g>
		</symbol>
	
		<symbol id="info" viewBox="0 0 32 32">
			<title>info</title><path d="M14 9.5c0-.825.675-1.5 1.5-1.5h1c.825 0 1.5.675 1.5 1.5v1c0 .825-.675 1.5-1.5 1.5h-1c-.825 0-1.5-.675-1.5-1.5v-1zM20 24h-8v-2h2v-6h-2v-2h6v8h2z"></path><path d="M16 0C7.163 0 0 7.163 0 16s7.163 16 16 16 16-7.163 16-16S24.837 0 16 0zm0 29C8.82 29 3 23.18 3 16S8.82 3 16 3s13 5.82 13 13-5.82 13-13 13z"></path>
		</symbol>
	
		<symbol id="learn" viewBox="0 0 85 76">
			<title>learn</title><g transform="translate(.04)"><path d="M41.211 35.996h2.503v-2.503h-2.503zM41.211 30.99h2.503v-2.503h-2.503zM41.211 25.985h2.503v-2.503h-2.503zM41.211 51.012h2.503v-2.503h-2.503zM41.211 46.006h2.503v-2.502h-2.503zM41.211 41h2.503v-2.502h-2.503zM41.211 56.017h2.503v-2.502h-2.503z"></path><path d="M50.137 57.77c-2.433 0-4.534.58-6.077 1.68a7.057 7.057 0 0 0-.389.3l-.11.094c-.09.078-.178.157-.263.239l-.104.1c-.107.107-.21.216-.309.329l-.016.017c-.103.12-.2.243-.293.368l-.03.038-.03-.037a6.242 6.242 0 0 0-.292-.369l-.017-.017a6.308 6.308 0 0 0-.309-.329l-.104-.1a6.783 6.783 0 0 0-.263-.239l-.11-.093a6.984 6.984 0 0 0-.39-.301c-1.542-1.1-3.643-1.68-6.077-1.68-8.217 0-14.556-2.564-18.426-4.715-3.281-1.823-5.398-3.668-6.184-4.406V4.393c3.87 1.956 13.234 5.991 24.61 5.991 2.337 0 6.257.597 6.257 4.589h2.503c0-3.992 3.92-4.589 6.257-4.589h31.784V57.77H50.137zm31.618 4.838H57.979v2.502h23.776v3.004H50.137c-2.433 0-4.534.58-6.077 1.68-.12.086-.233.177-.346.268v-5.035h.083c0-4.292 4.434-4.755 6.34-4.755h31.618v2.336zm-46.8 5.506H2.502V65.11h24.443v-2.502H2.503v-2.336h32.451c1.755 0 5.649.395 6.257 3.805v5.856c-.06-.046-.117-.094-.18-.139-1.542-1.1-3.643-1.68-6.077-1.68zM49.97 7.882c-3.488 0-6.082 1.071-7.508 2.994l-.032-.04a5.95 5.95 0 0 0-.214-.267l-.043-.052a6.077 6.077 0 0 0-.28-.3l-.083-.08a6.277 6.277 0 0 0-.562-.484l-.105-.08a6.787 6.787 0 0 0-.35-.242l-.022-.013a7.415 7.415 0 0 0-.352-.21l-.126-.069a8.158 8.158 0 0 0-.724-.343l-.118-.05a8.944 8.944 0 0 0-.439-.161l-.098-.031a9.902 9.902 0 0 0-.862-.24l-.165-.038c-.133-.03-.27-.056-.407-.08l-.1-.02A12.28 12.28 0 0 0 36.856 8c-.05-.007-.1-.011-.15-.017-.131-.016-.265-.03-.4-.042l-.19-.015a15.43 15.43 0 0 0-.4-.024l-.177-.008a16.68 16.68 0 0 0-.585-.011C20.98 7.882 9.85 1.287 9.74 1.22L7.842.077v49.599l.344.362c.1.106 2.518 2.628 7.033 5.152a39.508 39.508 0 0 0 5.616 2.579H2.503V10.384h2.419V7.882H0v62.734h34.954c1.907 0 6.34.463 6.34 4.755h2.503c0-4.292 4.434-4.755 6.34-4.755h34.12V7.882H49.972z"></path><path d="M51.64 19.227h24.025v-2.502H51.64zM51.64 24.4h24.025v-2.503H51.64zM51.64 31.24h24.025v-2.502H51.64zM51.64 37.914h24.025v-2.502H51.64zM51.64 44.588h24.025v-2.503H51.64zM51.64 51.262h11.678v-2.503H51.64z"></path></g>
		</symbol>
	
		<symbol id="linux" viewBox="0 0 61 70">
			<title>linux</title><g transform="translate(-3)"><path fill="none" opacity=".506" d="M.574.001h63v70h-63z"></path><path d="M44.293 47.744a2.578 2.578 0 0 0-.238.002c-.318.018-.64.11-.882.317-.261.225-.402.564-.453.905-.051.34-.023.687.002 1.031a35.918 35.918 0 0 1-.014 5.552c-.017.204-.036.407-.058.61-.12 1.125-.308 2.242-.506 3.355-.237 1.34-.49 2.687-.488 4.048 0 .139.005.278.013.418l.002.056c.01.143.023.286.042.428.02.138.046.275.078.41l.01.041c.015.062.032.123.05.184l.016.046a2.775 2.775 0 0 0 .29.64c.404.651 1.08 1.09 1.783 1.396 1.003.437 2.12.647 3.203.484.89-.133 1.732-.515 2.461-1.042.723-.521 1.334-1.18 1.979-1.795.753-.72 1.56-1.389 2.432-1.959 1.303-.85 2.74-1.47 4.126-2.176.813-.414 1.63-.874 2.217-1.572.266-.316.48-.676.63-1.062a1.52 1.52 0 0 0-.152-1.08 2.124 2.124 0 0 0-.548-.609c-.215-.17-.45-.315-.676-.47a17.65 17.65 0 0 1-1.381-1.082c-.45-.378-.9-.76-1.276-1.211-.377-.451-.68-.977-.79-1.553-.068-.351-.063-.71-.093-1.067a4.16 4.16 0 0 0-.262-1.175 2.033 2.033 0 0 0-.42-.688c-.25-.253-.585-.407-.924-.514l-.05-.013c-.031.051-.062.104-.095.155-.108.396-.31.764-.543 1.103a6.404 6.404 0 0 1-3.21 2.414 4.118 4.118 0 0 1-2.433.035c-.458-.136-.903-.36-1.217-.721-.388-.447-.537-1.055-.584-1.645a4.932 4.932 0 0 1 .2-1.88l-.04-.007a21.228 21.228 0 0 0-.716-.116l-.773-.112c-.236-.035-.474-.071-.712-.08zm-29.137-1.213a2.112 2.112 0 0 0-.26.004 1.936 1.936 0 0 0-.363.059l-.047.013a1.748 1.748 0 0 0-.183.063c-.348.144-.643.397-.883.687-.07.084-.134.171-.196.26-.153.22-.288.453-.418.686-.184.33-.363.662-.585.967-.221.304-.489.582-.816.77-.344.196-.74.285-1.135.317-.395.033-.792.011-1.188.002-.396-.009-.796-.005-1.184.076-.387.08-.766.244-1.052.519-.31.298-.49.71-.573 1.132-.081.422-.07.856-.041 1.285.066.96.222 1.913.27 2.874.048.961-.016 1.947-.373 2.84-.22.547-.543 1.049-.744 1.603-.1.277-.17.568-.173.863a1.63 1.63 0 0 0 .208.848c.193.328.518.563.865.72.347.158.72.247 1.088.348.828.227 1.636.52 2.458.767 2.673.805 5.49 1.129 8.085 2.162 1.273.507 2.524 1.192 3.893 1.243a4.489 4.489 0 0 0 2.468-.643 4.72 4.72 0 0 0 2.15-2.992 4.974 4.974 0 0 0 .13-1.066c0-.035-.003-.07-.003-.106a4.998 4.998 0 0 0-.034-.573l-.001-.011v-.003a4.81 4.81 0 0 0-.065-.385 4.874 4.874 0 0 0-.19-.681l-.055-.142a5.924 5.924 0 0 0-.127-.304c-.014-.03-.026-.06-.04-.088a7.778 7.778 0 0 0-.43-.79c-.168-.271-.348-.535-.538-.79-.49-.663-1.032-1.287-1.534-1.942-.072-.093-.146-.185-.216-.28-.855-1.164-1.536-2.446-2.276-3.686-.913-1.53-1.92-3-2.967-4.441-.456-.628-.931-1.262-1.573-1.698a2.818 2.818 0 0 0-1.063-.453 2.22 2.22 0 0 0-.288-.034zM44.76 32.464c.809.656 1.776 1.106 2.588 1.76 1.372 1.102 2.23 2.758 2.495 4.48.375 2.425-.36 4.851-1.19 7.183a2.626 2.626 0 0 0-1.167.628c-.264.24-.48.53-.651.842.073-.039.145-.08.215-.123.33-.202.633-.452.982-.617.44-.208.932-.274 1.416-.32a15.654 15.654 0 0 1 2.471-.053l-.253-.046c-.488-.092-.972-.203-1.461-.286a5.402 5.402 0 0 0-.965-.092 3.18 3.18 0 0 0-.24.014l.06-.006c.378-1.022.75-2.045 1.038-3.1.446-1.636.396-2.813.163-4.22-.292-1.768-1.321-3.401-2.779-4.48-.84-.62-1.801-1.061-2.722-1.564zM38.568 22.02a1.308 1.308 0 0 1-.228.239 1.732 1.732 0 0 1-.418.244c-.281.12-.55.173-.776.245-1.03.328-1.893 1.187-2.98 1.81-.578.33-1.199.572-1.833.743-.693.186-1.425.294-2.164.229-.627-.056-1.257-.24-1.8-.598-.74-.488-1.208-1.203-1.713-1.78a8.344 8.344 0 0 0-.623-.637l-.002.03c-.029.751.017 1.516-.181 2.241-.03.109-.066.214-.105.319l-.037.091c-.031.076-.064.152-.099.227l-.037.077a5.482 5.482 0 0 1-.135.256l-.016.03c-.057.099-.116.198-.177.296-.173.274-.362.54-.55.805-.807 1.133-1.623 2.296-2.022 3.629a6.444 6.444 0 0 0-.234 2.5 26.465 26.465 0 0 0-2.335 4.207c-.982 2.227-1.657 4.598-1.894 7.02-.07.714-.1 1.433-.09 2.15-.022-.034-.046-.068-.067-.104a7.042 7.042 0 0 1-.753-1.802c-.413-1.574-.258-3.266.287-4.8.237-.667.546-1.307.827-1.958.461-1.066.847-2.162 1.22-3.262-.042.06-.087.119-.128.18-.637.94-1.095 1.988-1.58 3.016-.279.593-.568 1.183-.787 1.8-.56 1.58-.64 3.312-.327 4.958.114.6.283 1.198.595 1.723.2.337.457.633.732.914a15.305 15.305 0 0 0 .507.493c.273.255.551.504.829.754a74.152 74.152 0 0 0 4.252 3.557c.813.63 1.658 1.265 2.194 2.144.219.36.382.759.428 1.178.046.418-.031.857-.26 1.21a1.78 1.78 0 0 1-.78.647c-.237.104-.491.162-.749.181.397.488.82.986 1.228 1.531a10.15 10.15 0 0 1 1.035 1.658c3.232 1.272 7.019 1.137 10.085-.497 1.751-.934 3.23-2.298 4.654-3.679l.166-.162c.188-1.895.179-3.82.047-5.744-.024-.337-.064-.75.01-1.225.075-.49.276-1.033.752-1.443.445-.384.967-.51 1.425-.534.112-.006.22-.007.323-.003.309.011.58.058.81.092l.764.11c.014-.108.03-.215.043-.321.477-3.995.492-8.214-1.26-11.836a13.056 13.056 0 0 0-2.37-3.39 18.584 18.584 0 0 0-1.498-5.05c-.087-.188-.18-.372-.271-.557-.315-.64-.65-1.27-.962-1.91l-.067-.135-.089-.19c-.098-.209-.195-.42-.284-.633-.18-.427-.341-.862-.532-1.284zM26.64 17.517l.083.067.007-.006-.09-.06zm2.316-1.01a.175.175 0 0 1 .08.005c.077.025.093.199.026.246-.1.071-.176.254-.269.304-.06.034-.15-.03-.18-.079a.178.178 0 0 1-.014-.137.424.424 0 0 1 .077-.15.475.475 0 0 1 .28-.188zm3.011-.118c.161-.008.335.031.48.088.18.07.461.19.436.383-.02.145-.25.202-.396.198-.154-.005-.264-.159-.401-.23a.595.595 0 0 0-.133-.044l-.016-.003-.102-.024a.809.809 0 0 1-.092-.026.28.28 0 0 1-.095-.06l-.01-.013a.16.16 0 0 1-.028-.05c-.017-.054.039-.121.089-.149a.604.604 0 0 1 .268-.07zm-.701-.742c-.155-.004-.31 0-.465.012a5.442 5.442 0 0 0-1.673.409 6.279 6.279 0 0 0-1.215.664l-.018.013c-.105.074-.208.15-.309.23l-.02.018a6.17 6.17 0 0 0-.827.802c-.168.113-.328.24-.483.371a5.3 5.3 0 0 0-.338.314l-.012.012-.013.012c0 .001 0 .002-.002.003l-.1.105a4.945 4.945 0 0 0-.347.417 2.206 2.206 0 0 0-.32.59c-.074.224-.1.46-.147.692-.018.087-.039.173-.038.262 0 .044.005.088.02.13.003.012.01.024.015.035a.61.61 0 0 0 .181.295l-.007-.017a.708.708 0 0 1-.022-.133c.03.013.06.023.092.03.071.014.145.016.218.025a1.389 1.389 0 0 1 .196.038c.004 0 .007.002.01.003.004 0 .006 0 .01.002.037.01.074.025.11.038.036.013.072.025.107.04.045.02.089.041.133.064l.06.03.001.002c.052.028.102.058.152.09.002 0 .003 0 .005.002l.004.003c.038.023.076.046.113.072.272.187.522.404.802.58.616.39 1.35.564 2.079.592.728.028 1.455-.083 2.17-.226.569-.113 1.135-.248 1.674-.46.825-.326 1.57-.827 2.28-1.357.292-.218.578-.443.844-.69.03-.027.06-.053.088-.08.098-.095.193-.194.299-.28.105-.088.223-.164.353-.206a.97.97 0 0 1 .307-.042c.104.001.21.014.312.031l.172.03a.524.524 0 0 1-.054.219.562.562 0 0 1-.147.182c-.05.04-.093.066-.123.084-.096.057-.19.106-.284.153l-.13.064-.086.043-.089.044-.005.002c-.124.06-.242.12-.347.186-.297.187-.571.462-.889.738-.7.61-1.51 1.097-2.385 1.42-.569.21-1.149.345-1.716.472-.722.163-1.477.326-2.265.313-.792-.013-1.621-.217-2.27-.745-.24-.195-.424-.405-.608-.57a1.982 1.982 0 0 0-.335-.24l-.002-.001h-.001a1.028 1.028 0 0 0-.137-.062c.09.069.178.143.263.219.295.263.558.564.801.877.51.658.963 1.389 1.645 1.868a3.468 3.468 0 0 0 1.644.59c.688.069 1.384-.042 2.047-.238A7.23 7.23 0 0 0 34 24.061c1.037-.639 1.903-1.574 3.045-1.996.25-.092.509-.158.75-.272.18-.085.353-.202.477-.357a.912.912 0 0 0 .104-.164c.112-.23.11-.496.143-.75.042-.327.145-.646.184-.974.02-.164.024-.332-.005-.495l-.001-.008c-.018-.1-.05-.196-.093-.287l-.003-.004a1.116 1.116 0 0 0-.092-.155l-.01-.01a.622.622 0 0 0-.049-.112c-.104-.178-.286-.299-.474-.382a2.026 2.026 0 0 0-.17-.066h-.002a2.955 2.955 0 0 0-.153-.049c-.16-.046-.325-.084-.488-.123a11.515 11.515 0 0 1-1.6-.518c-.13-.053-.26-.106-.388-.163a10.322 10.322 0 0 1-.454-.21c-.046-.023-.091-.048-.137-.072-.339-.173-.671-.358-1.006-.537l-.254-.133-.004-.002h-.001a7.823 7.823 0 0 0-.422-.202 5.872 5.872 0 0 0-.145-.062l-.01-.004a5.047 5.047 0 0 0-.093-.038h-.002a4.089 4.089 0 0 0-1.38-.27zm-3.743-1.902c-.063-.008-.123 0-.167.039-.057.05-.049.158-.022.23.042.118.186.16.265.254.077.092.158.186.2.3.08.217-.08.538.089.692.053.048.158.049.21 0 .203-.193.158-.58.078-.853a1.027 1.027 0 0 0-.475-.601.552.552 0 0 0-.178-.06zm8.36-.172c-.104.004-.213.038-.258.131-.04.081.009.199.062.267.087.112.25.096.365.167.111.068.228.139.313.247.163.207.119.636.346.733.072.03.18-.014.215-.092.135-.304-.054-.717-.237-.986-.166-.245-.436-.428-.705-.463a.622.622 0 0 0-.1-.004zm-8.891-2.44c-.399.022-.78.205-1.072.478-.292.273-.498.63-.624 1.009-.253.758-.196 1.58-.139 2.376.052.722.105 1.458.375 2.129.13.32.31.62.545.872.192-.175.388-.345.588-.51 0-.002.002-.003.003-.004.11-.128.226-.25.345-.369a1.992 1.992 0 0 1-.365-.316 2.525 2.525 0 0 1-.531-.851c-.173-.48-.17-1.007-.087-1.51.038-.23.093-.458.2-.664.107-.205.27-.388.481-.484a.883.883 0 0 1 .302-.075c.105-.008.21.002.312.026.203.048.39.154.55.288.335.282.548.685.678 1.103.128.416.176.86.126 1.291.234-.116.474-.218.72-.304l.046-.014c.11-.167.223-.334.343-.494a5.988 5.988 0 0 0-.276-1.662 4.116 4.116 0 0 0-.934-1.588 2.637 2.637 0 0 0-.717-.536 1.766 1.766 0 0 0-.869-.191zm8.581-.495a2.397 2.397 0 0 0-.905.159 3.045 3.045 0 0 0-.616.336c-.623.428-1.145 1.024-1.4 1.736-.225.626-.23 1.305-.107 1.964.131.171.243.36.337.556.054.114.106.23.16.346.2.093.395.195.587.298l.532.288a2.09 2.09 0 0 1-.095-.226 2.808 2.808 0 0 1-.142-1.041c.02-.47.136-.944.402-1.331a1.74 1.74 0 0 1 .5-.488 1.439 1.439 0 0 1 .826-.224c.165.008.328.045.483.102.476.175.87.547 1.103.998.233.451.307.976.241 1.48a2.4 2.4 0 0 1-.254.819c-.135.253-.326.48-.562.643a1.638 1.638 0 0 1-.396.2c.304.101.61.194.92.27.234.056.478.108.715.198.188-.215.345-.457.464-.715.25-.54.356-1.136.39-1.73.042-.756-.032-1.524-.28-2.24-.27-.776-.76-1.493-1.45-1.94a2.835 2.835 0 0 0-1.145-.434 2.555 2.555 0 0 0-.308-.024zm-8.439-.932c-.04-.001-.081.003-.122.005l-.08.004c.24.021.48.083.697.177.297.128.58.31.833.518.469.385.817.86 1.053 1.362-.058-.387-.167-.762-.386-1.091-.072-.107-.185-.19-.293-.27a4.465 4.465 0 0 0-.866-.519 2.224 2.224 0 0 0-.836-.186zm9.51-.515a2.777 2.777 0 0 0-.246.003c-.126.006-.291-.015-.356.121.407.088.797.256 1.144.487.673.446 1.184 1.1 1.542 1.826.084-.093.015-.392-.056-.57-.26-.644-.6-1.173-1.296-1.636a1.356 1.356 0 0 0-.731-.23zM32.712.8a11.447 11.447 0 0 1 5.26 1.197c1.917.966 3.536 2.595 4.65 4.662 1.121 2.08 1.384 3.392 1.585 7.965.11 2.499.169 3.767.267 4.515.097.733.218.957.503 1.484.28.517.889 1.782 1.377 2.856 1.14 2.508 1.858 3.575 4.096 6.089.594.667 1.264 1.493 1.553 1.93 1.96 2.964 3.694 8.406 3.868 12.112v-.002c.047 1.118-.04 2.281-.439 3.656l-.194.508.326.16c.532.26.97.679 1.263 1.224.297.554.47 1.237.563 2.092.029.266.09.556.147.792a9.424 9.424 0 0 0 .114.429c.003.01-.004.003.023.06.044.092.062.105.102.16.041.057.094.125.158.203.13.156.305.352.517.555.414.397.956.85 1.567 1.301.954.705 1.51 1.146 1.872 1.62.343.449.458.975.464 1.534.01.848-.354 1.63-1.108 2.458-.683.749-1.462 1.23-3.945 2.468-2.447 1.22-3.447 1.893-5.018 3.373-.679.639-1.446 1.321-1.797 1.587a7.45 7.45 0 0 1-2.792 1.276c-1.188.251-2.388.175-3.61-.226-1.817-.594-3.038-1.64-3.51-3.085a7.409 7.409 0 0 0-.048-.142c-.061-.182-.136-.22-.322-.289-.764-.206-2.917-.597-4.235-.764-1.275-.162-2.934-.246-4.446-.264-1.513-.018-2.853.026-3.573.148l-.243.042-.071.236c-.006.02-.012.033-.08.258-.786 2.585-3.27 4.288-5.988 4.11-1.101-.072-1.578-.203-3.54-.995-1.75-.706-2.128-.817-5.442-1.599a92.675 92.675 0 0 1-4.379-1.159 53.023 53.023 0 0 1-1.777-.546c-.494-.164-.827-.282-1.064-.403-1.194-.615-1.796-1.96-1.497-3.302.09-.402.338-1.018.607-1.594.318-.685.509-1.173.576-1.772.067-.6.017-1.276-.092-2.4-.224-2.295-.183-3.302.24-4.165.301-.617.73-1.102 1.314-1.38.6-.287 1.339-.395 2.362-.427.372-.012.737-.027 1.022-.043.143-.008.265-.017.357-.024.057-.005.108-.012.13-.014h.002-.022.022l.003-.001h.018l.026-.006.02-.005.026-.008.036-.014.039-.021.083-.066.058-.082c.04-.037.079-.069.14-.13.181-.179.427-.457.653-.846.248-.43.552-.907.748-1.158.011-.013.022-.025.03-.04l.037-.043c.012-.012.044-.054.044-.054l.044-.084.016-.078v-.001l.008-.04v-.07-.145a12.052 12.052 0 0 0-.02-.528c-.037-.657-.015-1.174.205-1.831.224-.669.63-1.496 1.372-2.95 1.418-2.782 1.896-3.954 2.506-6.141.374-1.339.588-2.077 1.145-3.005.56-.932 1.44-2.035 3.173-4.209a83.35 83.35 0 0 0 1.76-2.276 24.601 24.601 0 0 0 .762-1.09c.045-.07.064-.095.1-.165l.313-.624-.118-3.667a251.023 251.023 0 0 0-.235-5.585c-.136-2.171-.075-4.417.172-5.793.207-1.15.719-2.58 1.264-3.506.554-.943 1.93-2.322 2.87-2.875C29.16 1.26 30.916.82 32.711.8zM33.103 0l-.402.005c-1.917.023-3.807.49-5.419 1.438-1.126.661-2.49 2.03-3.152 3.156-.613 1.042-1.135 2.51-1.36 3.768-.27 1.498-.323 3.764-.185 5.983.061.972.169 3.503.235 5.56l.111 3.466-.223.443c.018-.035-.017.029-.058.092-.04.064-.099.15-.17.256-.142.209-.337.487-.562.792a81.794 81.794 0 0 1-1.742 2.254c-1.734 2.173-2.629 3.287-3.234 4.295-.607 1.012-.854 1.858-1.228 3.2-.602 2.155-1.04 3.228-2.45 5.994-.742 1.457-1.165 2.304-1.417 3.058-.257.766-.284 1.426-.244 2.128.012.222.017.386.019.494v.042l-.012.014c-.247.317-.55.8-.81 1.248-.18.314-.379.537-.523.68-.056.055-.095.089-.133.123-.079.006-.172.013-.292.02-.276.015-.635.03-1.002.042-1.065.033-1.923.142-2.68.503-.772.37-1.323 1.01-1.684 1.748-.521 1.065-.544 2.265-.317 4.591.108 1.115.148 1.748.093 2.234-.055.487-.198.862-.507 1.526-.278.599-.544 1.23-.66 1.757-.375 1.676.389 3.398 1.907 4.18.316.162.68.285 1.177.45.503.167 1.121.356 1.805.556 1.368.398 2.993.832 4.419 1.169 3.312.781 3.587.86 5.326 1.561 1.978.8 2.63.976 3.787 1.052 3.078.201 5.906-1.734 6.798-4.671v-.003c.648-.083 1.835-.134 3.198-.118 1.49.017 3.132.102 4.356.258 1.223.155 3.26.535 3.98.716.58 1.689 2.031 2.89 3.988 3.531 1.34.44 2.695.529 4.022.248a8.134 8.134 0 0 0 3.105-1.42c.424-.32 1.173-.993 1.862-1.642 1.538-1.449 2.408-2.034 4.829-3.24 2.498-1.245 3.404-1.796 4.177-2.645.84-.92 1.328-1.914 1.316-3-.007-.667-.154-1.388-.627-2.007-.453-.594-1.07-1.067-2.031-1.777a15.79 15.79 0 0 1-1.49-1.236 5.858 5.858 0 0 1-.583-.652c-.022-.03-.024-.034-.02-.026a6.242 6.242 0 0 1-.218-1.034c-.1-.915-.289-1.702-.654-2.382-.31-.578-.78-1.02-1.318-1.355.407-1.434.507-2.684.457-3.85v-.002c-.184-3.91-1.916-9.361-4-12.513-.342-.518-1.009-1.332-1.62-2.02-2.222-2.494-2.843-3.416-3.967-5.889-.494-1.086-1.094-2.337-1.402-2.905-.292-.54-.323-.524-.414-1.21-.088-.672-.151-1.949-.26-4.446-.203-4.6-.514-6.145-1.68-8.308-1.184-2.196-2.916-3.948-4.993-4.994C36.697.465 34.891.06 33.103.024V.001z"></path></g>
		</symbol>
	
		<symbol id="menu" viewBox="0 0 20 16">
			<title>icon / menu</title><g transform="translate(-.5)"><rect x=".5" y=".37" width="20" height="2" rx="1"></rect><rect x=".5" y="7" width="20" height="2" rx="1"></rect><rect x=".5" y="13.37" width="20" height="2" rx="1"></rect></g>
		</symbol>
	
		<symbol id="notification" viewBox="0 0 32 32">
			<title>notification</title><path d="M16 3c-3.472 0-6.737 1.352-9.192 3.808S3 12.528 3 16c0 3.472 1.352 6.737 3.808 9.192S12.528 29 16 29c3.472 0 6.737-1.352 9.192-3.808S29 19.472 29 16c0-3.472-1.352-6.737-3.808-9.192S19.472 3 16 3zm0-3c8.837 0 16 7.163 16 16s-7.163 16-16 16S0 24.837 0 16 7.163 0 16 0zm-2 22h4v4h-4zm0-16h4v12h-4z"></path>
		</symbol>
	
		<symbol id="phone" viewBox="0 0 17 18">
			<title>Icon/ phone</title><path d="M14.308 10.73c-.37-.386-.818-.593-1.291-.593-.47 0-.922.203-1.307.589l-1.208 1.204c-.1-.054-.2-.103-.295-.153-.137-.069-.267-.134-.378-.203-1.131-.718-2.16-1.655-3.146-2.866-.477-.604-.798-1.113-1.032-1.628.314-.287.604-.585.887-.872l.321-.325c.803-.802.803-1.842 0-2.645L5.816 2.195c-.119-.119-.241-.24-.356-.363-.229-.237-.47-.482-.718-.711C4.37.754 3.928.559 3.462.559c-.467 0-.918.195-1.3.562l-.008.007-1.3 1.312a2.796 2.796 0 0 0-.829 1.777c-.091 1.116.237 2.155.49 2.836.619 1.67 1.544 3.218 2.923 4.877a17.986 17.986 0 0 0 5.99 4.69c.879.416 2.052.91 3.363.993.08.004.164.008.24.008.884 0 1.625-.317 2.206-.948.004-.008.012-.011.016-.02.198-.24.428-.458.668-.69.165-.158.333-.322.497-.494.379-.394.577-.852.577-1.322 0-.474-.202-.93-.588-1.311l-2.099-2.106zm1.369 4.024c-.004 0-.004.004 0 0-.15.16-.302.306-.467.467-.248.237-.5.485-.737.764-.386.413-.841.608-1.437.608-.058 0-.119 0-.176-.004-1.135-.073-2.19-.516-2.981-.894a16.98 16.98 0 0 1-5.642-4.419c-1.303-1.57-2.175-3.023-2.752-4.582C1.13 5.742 1 5 1.057 4.3c.039-.447.21-.818.528-1.135l1.303-1.304c.187-.175.386-.271.581-.271.24 0 .436.145.558.268l.011.011c.234.218.455.443.689.684.118.123.24.245.363.371l1.043 1.043c.405.406.405.78 0 1.185-.11.111-.218.222-.329.329-.32.329-.627.634-.959.932-.008.008-.015.012-.02.02-.328.328-.267.65-.198.867l.012.035c.271.657.653 1.276 1.234 2.014l.004.004c1.055 1.3 2.167 2.312 3.394 3.088.157.1.317.18.47.256.138.069.268.134.378.203.016.007.031.019.046.026.13.065.253.096.379.096a.817.817 0 0 0 .58-.264l1.308-1.307c.13-.13.336-.287.577-.287.237 0 .432.15.55.28l2.114 2.113c.394.39.394.791.004 1.196z"></path>
		</symbol>
	
		<symbol id="question" viewBox="0 0 32 32">
			<title>question</title><path d="M14 22h4v4h-4zm8-14a2 2 0 0 1 2 2v6l-6 4h-4v-2l6-4v-2H10V8h12zm-6-5c-3.472 0-6.737 1.352-9.192 3.808S3 12.528 3 16c0 3.472 1.352 6.737 3.808 9.192S12.528 29 16 29c3.472 0 6.737-1.352 9.192-3.808S29 19.472 29 16c0-3.472-1.352-6.737-3.808-9.192S19.472 3 16 3zm0-3c8.837 0 16 7.163 16 16s-7.163 16-16 16S0 24.837 0 16 7.163 0 16 0z"></path>
		</symbol>
	
		<symbol id="quote" viewBox="0 0 12 10">
			<title>Icon/ quote</title><path d="M11.57 9.951H7.45c-.346-1.413-.52-2.733-.52-3.96 0-3.333 1.494-5 4.48-5v2c-1.28 0-1.92.76-1.92 2.28v.84h2.08v3.84zm-6.08 0H1.37C1.024 8.538.85 7.218.85 5.991c0-3.333 1.494-5 4.48-5v2c-1.28 0-1.92.76-1.92 2.28v.84h2.08v3.84z"></path>
		</symbol>
	
		<symbol id="shield" viewBox="0 0 19 22">
			<title>Icon/ shield</title><path d="M18.37 6.269a84.848 84.848 0 0 1-.022-1.633.74.74 0 0 0-.74-.74c-3.166 0-5.576-.91-7.585-2.863a.74.74 0 0 0-1.032 0C6.982 2.986 4.572 3.896 1.406 3.896a.74.74 0 0 0-.74.74c0 .522-.01 1.062-.021 1.633-.101 5.313-.24 12.59 8.62 15.661a.746.746 0 0 0 .484 0c8.86-3.07 8.721-10.348 8.62-15.661zM9.506 20.446c-7.599-2.76-7.484-8.807-7.382-14.149l.017-.936c2.964-.125 5.335-1.023 7.365-2.791 2.03 1.768 4.4 2.666 7.366 2.791.004.305.01.616.016.936.102 5.341.217 11.388-7.382 14.149z"></path><path d="M12.056 8.826L8.483 12.4l-1.525-1.525a.74.74 0 1 0-1.046 1.047l2.048 2.048a.738.738 0 0 0 1.047 0l4.095-4.096a.74.74 0 1 0-1.046-1.047z"></path>
		</symbol>
	
		<symbol id="social-facebook" viewBox="0 0 12 22">
			<title>Icon/ socialFacebook</title><path d="M11.316.5L8.554.494c-3.103 0-5.109 2.058-5.109 5.242v2.417H.668a.434.434 0 0 0-.434.433v3.503c0 .239.195.433.434.433h2.777v8.836c0 .24.195.434.435.434h3.622c.24 0 .435-.195.435-.434v-8.836h3.247c.24 0 .434-.194.434-.433l.002-3.503a.434.434 0 0 0-.435-.434H7.937V6.106c0-.985.235-1.485 1.517-1.485h1.86c.241 0 .435-.195.435-.435V.935a.434.434 0 0 0-.433-.436z"></path>
		</symbol>
	
		<symbol id="social-github" viewBox="0 0 19 23">
			<title>Icon/ socialGithub</title><path d="M18.696 9.868c.083-.524.134-1.1.147-1.744-.005-2.765-1.328-3.744-1.583-4.202.375-2.095-.062-3.048-.266-3.374-.75-.267-2.609.687-3.625 1.358-1.656-.485-5.157-.438-6.47.125C4.477.297 3.196.561 3.196.561s-.828 1.485-.219 3.658c-.796 1.016-1.39 1.734-1.39 3.638 0 .456.028.887.076 1.302.686 3.608 3.545 5.165 6.354 5.434-.422.32-.93.928-1 1.633-.531.343-1.6.457-2.43.195-1.164-.367-1.61-2.672-3.353-2.343-.377.07-.302.319.025.53.53.345 1.03.774 1.416 1.69.296.703.92 1.96 2.888 1.96.782 0 1.33-.093 1.33-.093s.014 1.792.014 2.491c0 .805-1.086 1.03-1.086 1.417 0 .153.36.168.649.168.57 0 1.758-.476 1.758-1.312 0-.664.01-2.897.01-3.288 0-.855.458-1.127.458-1.127s.056 4.561-.11 5.173c-.195.719-.548.617-.548.937 0 .477 1.428.116 1.901-.929.366-.816.202-5.29.202-5.29l.382-.008s.005 2.049-.008 2.985c-.014.97-.114 2.195.462 2.773.377.38 1.535 1.048 1.535.438 0-.354-.81-.646-.81-1.603v-4.412c.492 0 .594 1.45.594 1.45l.177 2.694s-.118.983 1.062 1.394c.417.145 1.308.185 1.35-.06.042-.245-1.073-.608-1.084-1.37-.005-.463.021-.734.021-2.75 0-2.014-.27-2.76-1.214-3.354 2.735-.28 5.576-1.502 6.088-4.714z"></path>
		</symbol>
	
		<symbol id="social-gplus" viewBox="0 0 29 22">
			<title>Icon/ socialGplus</title><path d="M22.146 10.016H12.15v3.331h6.098a7.141 7.141 0 0 1-13.951-2.141 7.14 7.14 0 0 1 12.215-5.02l2.418-2.629a10.673 10.673 0 0 0-7.494-3.06C5.523.497.728 5.29.728 11.206c0 5.914 4.795 10.708 10.71 10.708 5.18 0 9.716-3.679 10.708-8.566v-3.332zM28.636 10.01h-2.044V7.966h-1.753v2.044h-2.044v1.752h2.044v2.045h1.753v-2.045h2.044z"></path>
		</symbol>
	
		<symbol id="social-linkedin" viewBox="0 0 24 23">
			<title>Icon/ socialLinkedin</title><path d="M23.475 13.818v8.677h-5.033v-8.1c0-2.036-.726-3.42-2.547-3.42-1.393 0-2.215.937-2.582 1.838-.131.325-.172.78-.172 1.23v8.451H8.113s.067-13.713 0-15.134h5.03v2.145c-.007.018-.022.033-.03.052h.03v-.052c.671-1.03 1.862-2.5 4.535-2.5 3.318 0 5.797 2.163 5.797 6.813zM2.847.063C1.127.063 0 1.193 0 2.681 0 4.13 1.094 5.297 2.783 5.297h.03c1.759 0 2.849-1.167 2.849-2.616C5.627 1.192 4.572.063 2.847.063zM.3 22.495h5.03V7.36H.3v15.136z"></path>
		</symbol>
	
		<symbol id="social-twitter" viewBox="0 0 23 19">
			<title>Icon/ socialTwitter</title><path d="M22.36 2.78a9.165 9.165 0 0 1-2.634.725 4.62 4.62 0 0 0 2.019-2.54 9.14 9.14 0 0 1-2.92 1.113 4.586 4.586 0 0 0-7.928 3.139c0 .361.042.709.117 1.044a13.021 13.021 0 0 1-9.456-4.79 4.551 4.551 0 0 0-.622 2.306c0 1.59.812 2.996 2.04 3.813a4.517 4.517 0 0 1-2.073-.573v.056a4.598 4.598 0 0 0 3.676 4.503 4.733 4.733 0 0 1-2.073.075 4.602 4.602 0 0 0 4.285 3.186 9.218 9.218 0 0 1-5.698 1.958c-.368 0-.73-.021-1.091-.061a12.98 12.98 0 0 0 7.033 2.059c8.433 0 13.045-6.987 13.045-13.044l-.013-.594A9.238 9.238 0 0 0 22.36 2.78z"></path>
		</symbol>
	
		<symbol id="windows" viewBox="0 0 63 64">
			<title>windows</title><g transform="translate(-1.984 -4)"><path fill="none" opacity=".506" d="M.984.63h63v70h-63z"></path><path d="M64.079 34.71V4.628l-34.554 5.04V34.71zM27.092 10.024L2 13.684V34.71h25.092zM2 37.144v21.293l25.091 3.702V37.144zM29.526 62.5l34.553 5.097V37.144H29.526z"></path></g>
		</symbol>
	
</svg>
