<svg xmlns="http://www.w3.org/2000/svg" xmlns:xlink="http://www.w3.org/1999/xlink" width="0" height="0" style="position:absolute">
	
		<symbol id="arrowDown" viewBox="0 0 7 4">
			<title>Icon/ arrowDown</title><path d="M.579.362a.5.5 0 0 0 0 .708l2.567 2.568a.5.5 0 0 0 .708 0L6.42 1.07a.5.5 0 1 0-.707-.707L3.5 2.576 1.286.362a.5.5 0 0 0-.707 0z" fill-rule="nonzero" fill="#43454C"></path>
		</symbol>
	
		<symbol id="arrowDownCircle" viewBox="0 0 16 16">
			<title>Icon/ arrowDownCircle</title><g fill-rule="nonzero" fill="#0BF"><path d="M8 15.575A7.62 7.62 0 1 1 8 .336a7.62 7.62 0 0 1 0 15.239zm0-1A6.62 6.62 0 1 0 8 1.336a6.62 6.62 0 0 0 0 13.239z"></path><path d="M5.079 6.495a.5.5 0 0 0 0 .707L7.646 9.77a.5.5 0 0 0 .708 0l2.567-2.568a.5.5 0 0 0-.707-.707L8 8.709 5.786 6.495a.5.5 0 0 0-.707 0z"></path></g>
		</symbol>
	
		<symbol id="arrowRight" viewBox="0 0 7 11">
			<title>ArrowRight</title><path d="M1.01 8.896a.999.999 0 0 0-.001 1.416c.39.391 1.03.384 1.418-.004L6.71 6.024a1.01 1.01 0 0 0 0-1.423L2.427.317A1 1 0 0 0 1.009.312c-.391.391-.385 1.03.001 1.416l3.584 3.584L1.01 8.896z" fill-rule="nonzero" fill="#0BF"></path>
		</symbol>
	
		<symbol id="chat" viewBox="0 0 21 18">
			<title>Icon/ chat</title><g transform="translate(.914 .471)" fill="#8392A4" fill-rule="evenodd"><path d="M19.265 10.821V2.265A2.155 2.155 0 0 0 17.114.114H2.627a2.155 2.155 0 0 0-2.15 2.15v8.557c0 1.185.965 2.151 2.15 2.151h.614v2.58a.862.862 0 0 0 1.518.561l2.718-3.145h9.641a2.146 2.146 0 0 0 2.147-2.147zm-12.06.985a.586.586 0 0 0-.442.2l-2.36 2.727v-2.346a.585.585 0 0 0-.586-.585h-1.19a.987.987 0 0 1-.985-.985V2.265c0-.543.443-.985.985-.985h14.487c.542 0 .984.442.984.985v8.556a.987.987 0 0 1-.984.985H7.205z"></path><path d="M10.565 6.748a.695.695 0 1 1-1.39 0 .695.695 0 0 1 1.39 0zM12.892 6.748a.695.695 0 1 1-1.39 0 .695.695 0 0 1 1.39 0zM8.238 6.748a.695.695 0 1 1-1.39 0 .695.695 0 0 1 1.39 0z"></path></g>
		</symbol>
	
		<symbol id="check" viewBox="0 0 14 10">
			<title>check</title><path d="M1.062 5.495a.545.545 0 0 1-.149-.354c0-.1.049-.25.15-.35l.704-.704a.485.485 0 0 1 .704 0l.05.051 2.764 2.964c.1.1.25.1.35 0L12.368.117h.052a.49.49 0 0 1 .704 0l.702.704a.486.486 0 0 1 0 .704L5.788 9.867c-.1.1-.202.15-.354.15a.454.454 0 0 1-.35-.15L1.163 5.645l-.1-.15z" fill="#8392A4" fill-rule="evenodd"></path>
		</symbol>
	
		<symbol id="close" viewBox="0 0 10 10">
			<title>CloseIcon</title><path d="M5.23 4.03L2.402 1.205A.999.999 0 1 0 .988 2.618l2.827 2.827L.988 8.272a.999.999 0 1 0 1.415 1.414l2.826-2.827 2.827 2.827A.999.999 0 1 0 9.47 8.272L6.644 5.445 9.47 2.618a.999.999 0 1 0-1.414-1.414L5.229 4.031z" fill-rule="nonzero" fill="#0BF"></path>
		</symbol>
	
		<symbol id="cloud" viewBox="0 0 105 106">
			<title>CLOUD</title><defs><circle id="a" cx="33.106" cy="33.688" r="33"></circle><filter x="-53%" y="-37.9%" width="206.1%" height="206.1%" filterUnits="objectBoundingBox" id="b"><feOffset dy="10" in="SourceAlpha" result="shadowOffsetOuter1"></feOffset><feGaussianBlur stdDeviation="10" in="shadowOffsetOuter1" result="shadowBlurOuter1"></feGaussianBlur><feColorMatrix values="0 0 0 0 0 0 0 0 0 0 0 0 0 0 0 0 0 0 0.0621603261 0" in="shadowBlurOuter1"></feColorMatrix></filter><linearGradient x1="95.227%" y1="13.509%" x2="33.067%" y2="111.691%" id="d"><stop stop-color="#8834F8" offset="0%"></stop><stop stop-color="#00A3FF" offset="100%"></stop></linearGradient></defs><g transform="translate(19.046 9.22)" fill="none" fill-rule="evenodd"><mask id="c" fill="#fff"><use xlink:href="#a"></use></mask><use fill="#000" filter="url(#b)" xlink:href="#a"></use><use fill="#FFF" xlink:href="#a"></use><g mask="url(#c)"><path d="M20.622 2.64l.056-2.043S19.56.483 18.988.483A12.304 12.304 0 0 0 7.358 8.72c-4.132.456-7.34 3.964-7.34 8.203 0 4.549 3.7 8.251 8.25 8.251H20l.055-2.001a.823.823 0 0 1-.055.001H8.268c-3.444 0-6.25-2.807-6.25-6.251a6.257 6.257 0 0 1 6.108-6.25l.735-.018.203-.706a10.306 10.306 0 0 1 9.924-7.467c.447 0 1.116.082 1.634.156zm9.604 10.622c-.105 1.053-.731 1.886-1.924 1.89-1.003.002-1.872-.88-1.87-1.873.004-1.033.938-1.948 1.969-1.927.978.019 1.922.945 1.825 1.91zM26.441 8.4c-.055-1.01.882-1.93 1.906-1.939 1.013-.008 1.955.925 1.888 1.938-.062.939-.66 1.914-1.783 1.858-1.342.076-1.964-.99-2.011-1.857zm-5.018 4.75c-.045-.833 1.02-1.848 1.83-1.834a1.994 1.994 0 0 1 1.968 2.008c-.01.965-.87 1.785-1.882 1.792-1.032-.016-1.847-.658-1.916-1.965zm5.001 10.148c.007-1.024.906-1.923 1.925-1.923.996.001 1.86.87 1.875 1.888.016 1.044-.86 1.921-1.908 1.912-1.013-.008-1.898-.887-1.892-1.877zM21.42 8.413c.026-1.076.858-1.936 1.888-1.952 1.024-.015 1.932.894 1.911 1.914-.02 1.015-.942 1.88-2.012 1.886-.83.005-1.807-1.005-1.787-1.848zm.023 14.871c-.007-1.01.854-1.894 1.86-1.909 1.036-.015 1.933.863 1.94 1.899.007 1.014-.853 1.889-1.868 1.9a1.888 1.888 0 0 1-1.932-1.89zm8.783-4.908c-.014.992-.905 1.889-1.879 1.892-.99.003-1.947-.955-1.92-1.922a1.952 1.952 0 0 1 1.952-1.878c.998.014 1.86.905 1.847 1.908zM21.442 3.342c.015-1.013.882-1.888 1.882-1.899 1.009-.01 1.932.918 1.918 1.931a1.906 1.906 0 0 1-1.89 1.87c-1.08.005-1.925-.837-1.91-1.902zm.003 15a1.896 1.896 0 0 1 1.88-1.871c1.035-.015 1.936.881 1.92 1.91-.016.989-.91 1.883-1.893 1.89-1.028.006-1.921-.897-1.907-1.929zm18.6-5.08c-.105 1.053-.73 1.886-1.924 1.89-1.002.002-1.871-.88-1.869-1.873.003-1.033.937-1.948 1.968-1.927.978.019 1.922.945 1.826 1.91zm-8.803-.111c-.044-.834 1.021-1.849 1.83-1.835a1.994 1.994 0 0 1 1.969 2.008c-.01.965-.871 1.785-1.883 1.792-1.031-.016-1.846-.658-1.916-1.965zm5.002 10.147c.006-1.024.906-1.923 1.924-1.923.997.001 1.86.87 1.875 1.888.016 1.044-.859 1.921-1.907 1.912-1.013-.008-1.899-.887-1.892-1.877zm-4.982-.014c-.007-1.01.854-1.894 1.859-1.909 1.036-.015 1.934.863 1.94 1.899.007 1.014-.852 1.889-1.867 1.9a1.888 1.888 0 0 1-1.932-1.89zm.003-14.823c-.007-1.01.854-1.894 1.859-1.91 1.036-.015 1.934.863 1.94 1.9.007 1.013-.852 1.888-1.867 1.9a1.888 1.888 0 0 1-1.932-1.89zm8.78 9.915c-.015.992-.905 1.889-1.879 1.892-.99.003-1.948-.955-1.921-1.922a1.952 1.952 0 0 1 1.953-1.878c.998.014 1.86.905 1.846 1.908zm-8.78-.034a1.896 1.896 0 0 1 1.88-1.871c1.035-.015 1.935.881 1.92 1.91-.016.989-.911 1.883-1.893 1.89-1.028.006-1.922-.897-1.907-1.929z" fill="url(#d)" fill-rule="nonzero" transform="translate(14.164 19.508)"></path></g></g>
		</symbol>
	
		<symbol id="code" viewBox="0 0 99 99">
			<title>code</title><g fill="#FFF" fill-rule="evenodd"><path d="M49.412 98.5C22.229 98.5.193 76.462.193 49.28.193 22.098 22.23.062 49.412.062S98.63 22.098 98.63 49.28c0 27.183-22.036 49.22-49.22 49.22zm20.005-69.15H30.583a6.366 6.366 0 0 0-6.358 6.358v24.63c0 3.5 2.847 6.359 6.358 6.359h17.972v6.069h-8.96a1.44 1.44 0 0 0-1.445 1.445c0 .803.643 1.444 1.446 1.444h20.808c.803 0 1.445-.641 1.445-1.444a1.44 1.44 0 0 0-1.445-1.445h-8.959v-6.07h17.972c3.5 0 6.358-2.847 6.358-6.358v-24.63a6.36 6.36 0 0 0-6.358-6.358z"></path><path d="M69.412 63.806H30.577a3.474 3.474 0 0 1-3.468-3.468v-1.156h45.77v1.156a3.474 3.474 0 0 1-3.467 3.468zM30.577 32.24h38.845c1.905 0 3.469 1.739 3.469 3.885v23.057H27.109V36.125c0-2.146 1.552-3.885 3.468-3.885zm16.046 16.806v-1.24c-.093-.206-.181-.416-.28-.62-.63-1.28-2.07-1.898-3.407-1.466-1.388.45-2.171 1.745-1.947 3.223.2 1.324 1.418 2.327 2.826 2.311 1.497-.016 2.313-.91 2.808-2.208zm6.3 6.144v-1.24c-.092-.206-.18-.416-.28-.62-.628-1.28-2.07-1.899-3.406-1.466-1.388.45-2.171 1.745-1.947 3.223.2 1.324 1.418 2.326 2.826 2.311 1.497-.016 2.313-.91 2.808-2.208zm.084-12.528v-1.24c-.093-.206-.181-.416-.281-.62-.628-1.28-2.069-1.898-3.406-1.466-1.388.45-2.171 1.745-1.947 3.223.2 1.324 1.418 2.327 2.826 2.311 1.497-.016 2.313-.91 2.808-2.208zm6.386 6.059v-1.24c-.093-.206-.181-.416-.281-.62-.628-1.28-2.069-1.899-3.406-1.466-1.388.45-2.171 1.745-1.947 3.223.2 1.324 1.418 2.326 2.826 2.31 1.497-.015 2.313-.91 2.808-2.207z"></path></g>
		</symbol>
	
		<symbol id="content" viewBox="0 0 105 105">
			<title>CONTENT</title><defs><circle id="a" cx="33.378" cy="33.497" r="33"></circle><filter x="-53%" y="-37.9%" width="206.1%" height="206.1%" filterUnits="objectBoundingBox" id="b"><feOffset dy="10" in="SourceAlpha" result="shadowOffsetOuter1"></feOffset><feGaussianBlur stdDeviation="10" in="shadowOffsetOuter1" result="shadowBlurOuter1"></feGaussianBlur><feColorMatrix values="0 0 0 0 0 0 0 0 0 0 0 0 0 0 0 0 0 0 0.0621603261 0" in="shadowBlurOuter1"></feColorMatrix></filter><linearGradient x1="95.227%" y1="13.509%" x2="33.067%" y2="111.691%" id="c"><stop stop-color="#8834F8" offset="0%"></stop><stop stop-color="#00A3FF" offset="100%"></stop></linearGradient></defs><g transform="translate(19 9)" fill="none" fill-rule="evenodd"><g transform="translate(.444 .13)"><use fill="#000" filter="url(#b)" xlink:href="#a"></use><use fill="#FFF" xlink:href="#a"></use></g><path d="M12.999 33.975a3.996 3.996 0 0 1 3.992-3.992h21.39a3.99 3.99 0 0 1 3.992 3.992v13.372a3.996 3.996 0 0 1-3.992 3.992H16.99a3.99 3.99 0 0 1-3.992-3.992V33.975zm13.735-7.633c.006 1.049-.828 1.912-1.863 1.93-1.032.018-1.923-.837-1.937-1.859-.015-1.09.818-1.94 1.9-1.94 1.072-.001 1.895.808 1.9 1.869zm0-6.11c.006 1.05-.828 1.913-1.863 1.931-1.032.018-1.923-.837-1.937-1.859-.015-1.09.818-1.94 1.9-1.94 1.072-.001 1.895.808 1.9 1.869zm5.388 0c.005 1.05-.828 1.913-1.863 1.931-1.033.018-1.923-.837-1.937-1.859-.015-1.09.817-1.94 1.9-1.94 1.072-.001 1.894.808 1.9 1.869zm5.387 0c.006 1.05-.828 1.913-1.862 1.931-1.033.018-1.923-.837-1.937-1.859-.015-1.09.817-1.94 1.9-1.94 1.071-.001 1.894.808 1.9 1.869zm5.388 0c.005 1.05-.828 1.913-1.863 1.931-1.032.018-1.923-.837-1.937-1.859-.015-1.09.818-1.94 1.9-1.94 1.072-.001 1.894.808 1.9 1.869zm5.388 0c.005 1.05-.829 1.913-1.863 1.931-1.033.018-1.923-.837-1.937-1.859-.015-1.09.817-1.94 1.9-1.94 1.071-.001 1.894.808 1.9 1.869zm5.387 0c.006 1.05-.828 1.913-1.863 1.931-1.032.018-1.923-.837-1.937-1.859-.015-1.09.818-1.94 1.9-1.94 1.072-.001 1.895.808 1.9 1.869zm0 6.11c.006 1.049-.828 1.912-1.863 1.93-1.032.018-1.923-.837-1.937-1.859-.015-1.09.818-1.94 1.9-1.94 1.072-.001 1.895.808 1.9 1.869zm0 6.109c.006 1.049-.828 1.912-1.863 1.93-1.032.017-1.923-.837-1.937-1.859-.015-1.09.818-1.94 1.9-1.94 1.072-.001 1.895.808 1.9 1.869zm0 6.109c.006 1.049-.828 1.912-1.863 1.93-1.032.017-1.923-.837-1.937-1.859-.015-1.09.818-1.94 1.9-1.94 1.072-.001 1.895.808 1.9 1.869zm-5.387 0c.005 1.049-.829 1.912-1.863 1.93-1.033.017-1.923-.837-1.937-1.859-.015-1.09.817-1.94 1.9-1.94 1.071-.001 1.894.808 1.9 1.869zm-33.286-4.585v13.372a1.99 1.99 0 0 0 1.992 1.992h21.39a1.996 1.996 0 0 0 1.992-1.992V33.975a1.99 1.99 0 0 0-1.992-1.992H16.99a1.996 1.996 0 0 0-1.992 1.992z" fill="url(#c)" fill-rule="nonzero"></path></g>
		</symbol>
	
		<symbol id="control" viewBox="0 0 117 122">
			<title>Control</title><defs><filter x="-79.7%" y="-50%" width="259.4%" height="257.1%" filterUnits="objectBoundingBox" id="a"><feOffset dy="10" in="SourceAlpha" result="shadowOffsetOuter1"></feOffset><feGaussianBlur stdDeviation="10" in="shadowOffsetOuter1" result="shadowBlurOuter1"></feGaussianBlur><feColorMatrix values="0 0 0 0 0 0 0 0 0 0 0 0 0 0 0 0 0 0 0.04 0" in="shadowBlurOuter1" result="shadowMatrixOuter1"></feColorMatrix><feMerge><feMergeNode in="shadowMatrixOuter1"></feMergeNode><feMergeNode in="SourceGraphic"></feMergeNode></feMerge></filter><circle id="b" cx="34.339" cy="34.892" r="34.275"></circle><filter x="-51.1%" y="-36.5%" width="202.1%" height="202.1%" filterUnits="objectBoundingBox" id="c"><feOffset dy="10" in="SourceAlpha" result="shadowOffsetOuter1"></feOffset><feGaussianBlur stdDeviation="10" in="shadowOffsetOuter1" result="shadowBlurOuter1"></feGaussianBlur><feColorMatrix values="0 0 0 0 0 0 0 0 0 0 0 0 0 0 0 0 0 0 0.0621603261 0" in="shadowBlurOuter1"></feColorMatrix></filter><linearGradient x1="95.227%" y1="13.509%" x2="50%" y2="98.479%" id="e"><stop stop-color="#5C34F8" offset="0%"></stop><stop stop-color="#00A3FF" offset="100%"></stop></linearGradient></defs><g filter="url(#a)" transform="translate(24 9)" fill="none" fill-rule="evenodd"><mask id="d" fill="#fff"><use xlink:href="#b"></use></mask><use fill="#000" filter="url(#c)" xlink:href="#b"></use><use fill="#FFF" xlink:href="#b"></use><g mask="url(#d)" fill="url(#e)"><path d="M20.096 42.042c.91-.517 2.072-.217 2.589.694.176.29.256.62.266.935 0 .66-.34 1.304-.945 1.66-.305.16-.635.25-.96.25-.645 0-1.28-.34-1.63-.935v-.015a1.922 1.922 0 0 1-.265-.935c0-.655.34-1.3.945-1.654zm30.664-.058c.606.36.951 1.002.951 1.648a1.898 1.898 0 0 1-1.9 1.9c-.33 0-.646-.073-.952-.251a1.9 1.9 0 0 1-.948-1.65c0-.33.073-.645.252-.947a1.907 1.907 0 0 1 2.597-.7zm-29.816-4.041c.177 1.037-.51 2.03-1.537 2.208-.114.024-.227.039-.341.039-.9 0-1.699-.653-1.862-1.576a1.892 1.892 0 0 1 1.532-2.208 1.917 1.917 0 0 1 2.208 1.537zM52.1 36.339a1.91 1.91 0 0 1 1.543 2.203 1.897 1.897 0 0 1-1.872 1.567c-.103 0-.217-.01-.33-.026a1.915 1.915 0 0 1-1.543-2.202A1.912 1.912 0 0 1 52.1 36.34zm-33.368-1.955a1.895 1.895 0 0 1-1.559-2.192 1.9 1.9 0 0 1 2.206-1.544 1.887 1.887 0 0 1 1.569 1.85c0 .114 0 .227-.026.34a1.903 1.903 0 0 1-1.874 1.585c-.099 0-.218-.015-.316-.04zm31.13-1.95a1.915 1.915 0 0 1 1.568-1.851 1.876 1.876 0 0 1 2.192 1.537c.03.114.04.217.04.33-.01.91-.654 1.7-1.564 1.853a1.624 1.624 0 0 1-.338.04c-.9 0-1.707-.66-1.859-1.563a1.734 1.734 0 0 1-.039-.345zM20.063 28.74a1.902 1.902 0 0 1-.709-2.593 1.89 1.89 0 0 1 2.597-.696 1.89 1.89 0 0 1 .695 2.594v-.016c-.344.621-.99.962-1.646.962-.316 0-.645-.085-.937-.251zm29.728.195c-.647 0-1.292-.34-1.648-.947-.522-.902-.201-2.064.696-2.597.913-.519 2.076-.212 2.594.694.532.898.217 2.066-.696 2.599-.29.163-.62.251-.946.251zm-25.097-4.373c-.533 0-1.065-.231-1.445-.675-.305-.34-.443-.768-.458-1.202a1.9 1.9 0 0 1 .685-1.464 1.887 1.887 0 0 1 2.67.212c.291.355.445.784.445 1.203a1.88 1.88 0 0 1-.671 1.483c-.355.3-.784.443-1.226.443zm21.386-.042a1.91 1.91 0 0 1-1.902-1.911c.015-.429.153-.858.459-1.203a1.893 1.893 0 0 1 2.67-.236c.443.38.68.92.67 1.463 0 .434-.142.863-.444 1.202-.368.458-.91.685-1.453.685zm-16.404-2.86a1.902 1.902 0 0 1-1.786-1.244c-.355-.986.14-2.076 1.126-2.431a1.907 1.907 0 0 1 2.447 1.114 1.92 1.92 0 0 1-1.13 2.448 2.054 2.054 0 0 1-.657.114zm10.762-.144a1.897 1.897 0 0 1-1.136-2.423 1.91 1.91 0 0 1 2.438-1.137 1.893 1.893 0 0 1 1.137 2.424 1.918 1.918 0 0 1-1.781 1.249c-.226 0-.442-.04-.658-.113zm-5.133-.958a1.858 1.858 0 0 1-1.856-1.842c0-1.032.83-1.87 1.843-1.87h.1c1.028 0 1.857.83 1.857 1.856 0 1.027-.83 1.856-1.856 1.856h-.088zm5.927 6.424a1.493 1.493 0 0 1 2.077-.19l-.127-.102c.63.51.717 1.43.207 2.038l-5.63 6.709c-.517.615-1.446.7-2.077.189l.126.102a1.437 1.437 0 0 1-.206-2.038l5.63-6.708z"></path></g></g>
		</symbol>
	
		<symbol id="downloadIcon" viewBox="0 0 14 17">
			<title>downloadIcon</title><g transform="translate(-.067 -.183)" fill-rule="nonzero" fill="#0BF"><path d="M1.067 10.774c-.552 0-1 .442-1 .998v1.997c0 1.66 1.35 3.005 3.009 3.005h7.983a3.004 3.004 0 0 0 3.008-3.005v-1.997a.996.996 0 0 0-1-.998c-.552 0-1 .442-1 .998v1.997c0 .557-.45 1.005-1.008 1.005H3.076a1.008 1.008 0 0 1-1.009-1.005v-1.997a.996.996 0 0 0-1-.998z"></path><path d="M6.066 8.364L3.482 5.78A.999.999 0 1 0 2.07 7.197l4.285 4.284a1.01 1.01 0 0 0 1.422 0l4.285-4.284a1 1 0 0 0 .004-1.419 1.006 1.006 0 0 0-1.416.002L8.066 8.364V1.543a.995.995 0 0 0-1-.995c-.552 0-1 .455-1 .995v6.821z"></path></g>
		</symbol>
	
		<symbol id="email" viewBox="0 0 19 15">
			<title>Icon/ email</title><path d="M2.437 2.003L16.15 1.98 9.3 8.129 2.437 2.003zm9.606 7.287l4.247 4.07-13.994.024 4.28-4.094a.578.578 0 0 0-.71-.914l-4.685 4.409L1.167 2.53 8.974 9.31a.577.577 0 0 0 .658-.001l7.788-6.804.015 10.28-4.683-4.408a.578.578 0 0 0-.71.914zM17.419.82L1.165.848c-.31 0-.6.121-.818.34a1.15 1.15 0 0 0-.337.818l.015 11.38c0 .31.121.6.34.818.218.218.508.338.817.338l16.255-.028c.637 0 1.155-.52 1.155-1.158l-.016-11.38c-.001-.638-.52-1.156-1.157-1.156z" fill="#8392A4" fill-rule="evenodd"></path>
		</symbol>
	
		<symbol id="info" viewBox="0 0 32 32">
			<title>info</title><path d="M14 9.5c0-.825.675-1.5 1.5-1.5h1c.825 0 1.5.675 1.5 1.5v1c0 .825-.675 1.5-1.5 1.5h-1c-.825 0-1.5-.675-1.5-1.5v-1zM20 24h-8v-2h2v-6h-2v-2h6v8h2z"></path><path d="M16 0C7.163 0 0 7.163 0 16s7.163 16 16 16 16-7.163 16-16S24.837 0 16 0zm0 29C8.82 29 3 23.18 3 16S8.82 3 16 3s13 5.82 13 13-5.82 13-13 13z"></path>
		</symbol>
	
		<symbol id="menu" viewBox="0 0 20 16">
			<title>icon / menu</title><g transform="translate(-.5)" fill="#43454C" fill-rule="evenodd"><rect x=".5" y=".37" width="20" height="2" rx="1"></rect><rect x=".5" y="7" width="20" height="2" rx="1"></rect><rect x=".5" y="13.37" width="20" height="2" rx="1"></rect></g>
		</symbol>
	
		<symbol id="notification" viewBox="0 0 32 32">
			<title>notification</title><path d="M16 3c-3.472 0-6.737 1.352-9.192 3.808S3 12.528 3 16c0 3.472 1.352 6.737 3.808 9.192S12.528 29 16 29c3.472 0 6.737-1.352 9.192-3.808S29 19.472 29 16c0-3.472-1.352-6.737-3.808-9.192S19.472 3 16 3zm0-3c8.837 0 16 7.163 16 16s-7.163 16-16 16S0 24.837 0 16 7.163 0 16 0zm-2 22h4v4h-4zm0-16h4v12h-4z"></path>
		</symbol>
	
		<symbol id="phone" viewBox="0 0 17 18">
			<title>Icon/ phone</title><path d="M14.308 10.73c-.37-.386-.818-.593-1.291-.593-.47 0-.922.203-1.307.589l-1.208 1.204c-.1-.054-.2-.103-.295-.153-.137-.069-.267-.134-.378-.203-1.131-.718-2.16-1.655-3.146-2.866-.477-.604-.798-1.113-1.032-1.628.314-.287.604-.585.887-.872l.321-.325c.803-.802.803-1.842 0-2.645L5.816 2.195c-.119-.119-.241-.24-.356-.363-.229-.237-.47-.482-.718-.711C4.37.754 3.928.559 3.462.559c-.467 0-.918.195-1.3.562l-.008.007-1.3 1.312a2.796 2.796 0 0 0-.829 1.777c-.091 1.116.237 2.155.49 2.836.619 1.67 1.544 3.218 2.923 4.877a17.986 17.986 0 0 0 5.99 4.69c.879.416 2.052.91 3.363.993.08.004.164.008.24.008.884 0 1.625-.317 2.206-.948.004-.008.012-.011.016-.02.198-.24.428-.458.668-.69.165-.158.333-.322.497-.494.379-.394.577-.852.577-1.322 0-.474-.202-.93-.588-1.311l-2.099-2.106zm1.369 4.024c-.004 0-.004.004 0 0-.15.16-.302.306-.467.467-.248.237-.5.485-.737.764-.386.413-.841.608-1.437.608-.058 0-.119 0-.176-.004-1.135-.073-2.19-.516-2.981-.894a16.98 16.98 0 0 1-5.642-4.419c-1.303-1.57-2.175-3.023-2.752-4.582C1.13 5.742 1 5 1.057 4.3c.039-.447.21-.818.528-1.135l1.303-1.304c.187-.175.386-.271.581-.271.24 0 .436.145.558.268l.011.011c.234.218.455.443.689.684.118.123.24.245.363.371l1.043 1.043c.405.406.405.78 0 1.185-.11.111-.218.222-.329.329-.32.329-.627.634-.959.932-.008.008-.015.012-.02.02-.328.328-.267.65-.198.867l.012.035c.271.657.653 1.276 1.234 2.014l.004.004c1.055 1.3 2.167 2.312 3.394 3.088.157.1.317.18.47.256.138.069.268.134.378.203.016.007.031.019.046.026.13.065.253.096.379.096a.817.817 0 0 0 .58-.264l1.308-1.307c.13-.13.336-.287.577-.287.237 0 .432.15.55.28l2.114 2.113c.394.39.394.791.004 1.196z" fill="#8392A4" fill-rule="evenodd"></path>
		</symbol>
	
		<symbol id="question" viewBox="0 0 32 32">
			<title>question</title><path d="M14 22h4v4h-4zm8-14a2 2 0 0 1 2 2v6l-6 4h-4v-2l6-4v-2H10V8h12zm-6-5c-3.472 0-6.737 1.352-9.192 3.808S3 12.528 3 16c0 3.472 1.352 6.737 3.808 9.192S12.528 29 16 29c3.472 0 6.737-1.352 9.192-3.808S29 19.472 29 16c0-3.472-1.352-6.737-3.808-9.192S19.472 3 16 3zm0-3c8.837 0 16 7.163 16 16s-7.163 16-16 16S0 24.837 0 16 7.163 0 16 0z"></path>
		</symbol>
	
		<symbol id="quote" viewBox="0 0 12 10">
			<title>Icon/ quote</title><path d="M11.57 9.951H7.45c-.346-1.413-.52-2.733-.52-3.96 0-3.333 1.494-5 4.48-5v2c-1.28 0-1.92.76-1.92 2.28v.84h2.08v3.84zm-6.08 0H1.37C1.024 8.538.85 7.218.85 5.991c0-3.333 1.494-5 4.48-5v2c-1.28 0-1.92.76-1.92 2.28v.84h2.08v3.84z" fill="#8392A4" fill-rule="evenodd"></path>
		</symbol>
	
		<symbol id="shield" viewBox="0 0 19 22">
			<title>Icon/ shield</title><g fill="#8392A4" fill-rule="evenodd"><path d="M18.37 6.269a84.848 84.848 0 0 1-.022-1.633.74.74 0 0 0-.74-.74c-3.166 0-5.576-.91-7.585-2.863a.74.74 0 0 0-1.032 0C6.982 2.986 4.572 3.896 1.406 3.896a.74.74 0 0 0-.74.74c0 .522-.01 1.062-.021 1.633-.101 5.313-.24 12.59 8.62 15.661a.746.746 0 0 0 .484 0c8.86-3.07 8.721-10.348 8.62-15.661zM9.506 20.446c-7.599-2.76-7.484-8.807-7.382-14.149l.017-.936c2.964-.125 5.335-1.023 7.365-2.791 2.03 1.768 4.4 2.666 7.366 2.791.004.305.01.616.016.936.102 5.341.217 11.388-7.382 14.149z"></path><path d="M12.056 8.826L8.483 12.4l-1.525-1.525a.74.74 0 1 0-1.046 1.047l2.048 2.048a.738.738 0 0 0 1.047 0l4.095-4.096a.74.74 0 1 0-1.046-1.047z"></path></g>
		</symbol>
	
		<symbol id="socialFacebook" viewBox="0 0 12 22">
			<title>Icon/ socialFacebook</title><path d="M11.316.5L8.554.494c-3.103 0-5.109 2.058-5.109 5.242v2.417H.668a.434.434 0 0 0-.434.433v3.503c0 .239.195.433.434.433h2.777v8.836c0 .24.195.434.435.434h3.622c.24 0 .435-.195.435-.434v-8.836h3.247c.24 0 .434-.194.434-.433l.002-3.503a.434.434 0 0 0-.435-.434H7.937V6.106c0-.985.235-1.485 1.517-1.485h1.86c.241 0 .435-.195.435-.435V.935a.434.434 0 0 0-.433-.436z" fill="#0BF" fill-rule="evenodd"></path>
		</symbol>
	
		<symbol id="socialGithub" viewBox="0 0 19 23">
			<title>Icon/ socialGithub</title><path d="M18.696 9.868c.083-.524.134-1.1.147-1.744-.005-2.765-1.328-3.744-1.583-4.202.375-2.095-.062-3.048-.266-3.374-.75-.267-2.609.687-3.625 1.358-1.656-.485-5.157-.438-6.47.125C4.477.297 3.196.561 3.196.561s-.828 1.485-.219 3.658c-.796 1.016-1.39 1.734-1.39 3.638 0 .456.028.887.076 1.302.686 3.608 3.545 5.165 6.354 5.434-.422.32-.93.928-1 1.633-.531.343-1.6.457-2.43.195-1.164-.367-1.61-2.672-3.353-2.343-.377.07-.302.319.025.53.53.345 1.03.774 1.416 1.69.296.703.92 1.96 2.888 1.96.782 0 1.33-.093 1.33-.093s.014 1.792.014 2.491c0 .805-1.086 1.03-1.086 1.417 0 .153.36.168.649.168.57 0 1.758-.476 1.758-1.312 0-.664.01-2.897.01-3.288 0-.855.458-1.127.458-1.127s.056 4.561-.11 5.173c-.195.719-.548.617-.548.937 0 .477 1.428.116 1.901-.929.366-.816.202-5.29.202-5.29l.382-.008s.005 2.049-.008 2.985c-.014.97-.114 2.195.462 2.773.377.38 1.535 1.048 1.535.438 0-.354-.81-.646-.81-1.603v-4.412c.492 0 .594 1.45.594 1.45l.177 2.694s-.118.983 1.062 1.394c.417.145 1.308.185 1.35-.06.042-.245-1.073-.608-1.084-1.37-.005-.463.021-.734.021-2.75 0-2.014-.27-2.76-1.214-3.354 2.735-.28 5.576-1.502 6.088-4.714z" fill="#0BF" fill-rule="evenodd"></path>
		</symbol>
	
		<symbol id="socialGplus" viewBox="0 0 29 22">
			<title>Icon/ socialGplus</title><g fill="#0BF" fill-rule="evenodd"><path d="M22.146 10.016H12.15v3.331h6.098a7.141 7.141 0 0 1-13.951-2.141 7.14 7.14 0 0 1 12.215-5.02l2.418-2.629a10.673 10.673 0 0 0-7.494-3.06C5.523.497.728 5.29.728 11.206c0 5.914 4.795 10.708 10.71 10.708 5.18 0 9.716-3.679 10.708-8.566v-3.332zM28.636 10.01h-2.044V7.966h-1.753v2.044h-2.044v1.752h2.044v2.045h1.753v-2.045h2.044z"></path></g>
		</symbol>
	
		<symbol id="socialLinkedin" viewBox="0 0 24 23">
			<title>Icon/ socialLinkedin</title><path d="M23.475 13.818v8.677h-5.033v-8.1c0-2.036-.726-3.42-2.547-3.42-1.393 0-2.215.937-2.582 1.838-.131.325-.172.78-.172 1.23v8.451H8.113s.067-13.713 0-15.134h5.03v2.145c-.007.018-.022.033-.03.052h.03v-.052c.671-1.03 1.862-2.5 4.535-2.5 3.318 0 5.797 2.163 5.797 6.813zM2.847.063C1.127.063 0 1.193 0 2.681 0 4.13 1.094 5.297 2.783 5.297h.03c1.759 0 2.849-1.167 2.849-2.616C5.627 1.192 4.572.063 2.847.063zM.3 22.495h5.03V7.36H.3v15.136z" fill="#0BF" fill-rule="evenodd"></path>
		</symbol>
	
		<symbol id="socialTwitter" viewBox="0 0 23 19">
			<title>Icon/ socialTwitter</title><path d="M22.36 2.78a9.165 9.165 0 0 1-2.634.725 4.62 4.62 0 0 0 2.019-2.54 9.14 9.14 0 0 1-2.92 1.113 4.586 4.586 0 0 0-7.928 3.139c0 .361.042.709.117 1.044a13.021 13.021 0 0 1-9.456-4.79 4.551 4.551 0 0 0-.622 2.306c0 1.59.812 2.996 2.04 3.813a4.517 4.517 0 0 1-2.073-.573v.056a4.598 4.598 0 0 0 3.676 4.503 4.733 4.733 0 0 1-2.073.075 4.602 4.602 0 0 0 4.285 3.186 9.218 9.218 0 0 1-5.698 1.958c-.368 0-.73-.021-1.091-.061a12.98 12.98 0 0 0 7.033 2.059c8.433 0 13.045-6.987 13.045-13.044l-.013-.594A9.238 9.238 0 0 0 22.36 2.78z" fill="#0BF" fill-rule="evenodd"></path>
		</symbol>
	
		<symbol id="twitter" viewBox="0 0 23 19">
			<title>Icon/ twitter</title><path d="M22.36 2.78a9.165 9.165 0 0 1-2.634.725 4.62 4.62 0 0 0 2.019-2.54 9.14 9.14 0 0 1-2.92 1.113 4.586 4.586 0 0 0-7.928 3.139c0 .361.042.709.117 1.044a13.021 13.021 0 0 1-9.456-4.79 4.551 4.551 0 0 0-.622 2.306c0 1.59.812 2.996 2.04 3.813a4.517 4.517 0 0 1-2.073-.573v.056a4.598 4.598 0 0 0 3.676 4.503 4.733 4.733 0 0 1-2.073.075 4.602 4.602 0 0 0 4.285 3.186 9.218 9.218 0 0 1-5.698 1.958c-.368 0-.73-.021-1.091-.061a12.98 12.98 0 0 0 7.033 2.059c8.433 0 13.045-6.987 13.045-13.044l-.013-.594A9.238 9.238 0 0 0 22.36 2.78z" fill="#0BF" fill-rule="evenodd"></path>
		</symbol>
	
</svg>
