<?xml version="1.0" encoding="UTF-8"?>
<svg width="61px" height="61px" viewBox="0 0 61 61" version="1.1" xmlns="http://www.w3.org/2000/svg" xmlns:xlink="http://www.w3.org/1999/xlink">
    <!-- Generator: Sketch 46.2 (44496) - http://www.bohemiancoding.com/sketch -->
    <title>agency</title>
    <desc>Created with Sketch.</desc>
    <defs></defs>
    <g id="Symbols" stroke="none" stroke-width="1" fill="none" fill-rule="evenodd">
        <g id="UI/-DropdownAgency" transform="translate(-28.000000, -49.000000)" fill="#FFFFFF">
            <g id="Group-16">
                <g id="AGENCIES" transform="translate(26.000000, 47.000000)">
                    <g id="agency" transform="translate(2.482412, 2.452088)">
                        <path d="M25.2107437,37.6983868 L24.2201544,37.6983868 C23.6626723,37.6983868 23.2107437,38.1422516 23.2107437,38.6983868 C23.2107437,39.2506715 23.6618388,39.6983868 24.2201544,39.6983868 L25.2107437,39.6983868 L25.2107437,45.6939416 C25.2107437,46.2486813 25.6546085,46.6983868 26.2107437,46.6983868 C26.7630284,46.6983868 27.2107437,46.2566109 27.2107437,45.7015164 L27.2107437,39.6983868 L33.2109859,39.6983868 L33.2109859,45.7695747 C33.2109859,46.3166475 33.6548508,46.7601376 34.2109859,46.7601376 C34.7632707,46.7601376 35.2109859,46.3200677 35.2109859,45.7663401 L35.2109859,39.6983868 L36.2370018,39.6983868 C36.794484,39.6983868 37.2464125,39.254522 37.2464125,38.6983868 C37.2464125,38.146102 36.7953174,37.6983868 36.2370018,37.6983868 L35.2109859,37.6983868 L35.2109859,37.636129 L25.2107437,37.636129 L25.2107437,37.6983868 Z M0,0 L60,0 L60,60 L0,60 L0,0 Z M21.7115773,9.83281272 C21.7115773,9.83281272 38.7417269,9.83463104 38.7417269,9.8360551 L38.7417269,46.836031 C38.7417269,47.3796299 39.1894422,47.8328216 39.7417269,47.8328216 C40.2978621,47.8328216 40.7417269,47.3865432 40.7417269,46.836031 L40.7417269,9.8360551 C40.7417269,8.72223608 39.8517433,7.83281272 38.7455789,7.83281272 L21.7115773,7.83281272 C20.6120456,7.83281272 19.7154293,8.73234694 19.7154293,9.83605487 L19.7154293,46.8360224 C19.7154293,47.3796211 20.1631446,47.8328127 20.7154293,47.8328127 C21.2715645,47.8328127 21.7154577,47.3864964 21.7154928,46.8359373 C21.7154928,46.8359373 21.7180724,9.83281272 21.7115773,9.83281272 Z M42.712974,18.8328127 L50.7154293,18.8328127 L50.7154293,48.8364976 C50.7154293,49.394587 51.1631446,49.8328127 51.7154293,49.8328127 C52.2715645,49.8328127 52.7154293,49.3866435 52.7154293,48.8362658 L52.7154293,18.8255991 C52.7154293,17.7308042 51.8199832,16.8328127 50.7200318,16.8328127 L42.7134841,16.8328127 C42.161969,16.8328127 41.7154293,17.280528 41.7154293,17.8328127 C41.7154293,18.3889479 42.1620453,18.8328127 42.712974,18.8328127 Z M8.71542932,49.8328127 C9.26771407,49.8328127 9.71542932,49.3946928 9.71542932,48.8367381 L9.71542932,18.8402967 C9.71542932,18.8371722 15.7125,18.8334796 15.7125,18.8334796 C16.2664026,18.8331113 16.7154293,18.3889479 16.7154293,17.8328127 C16.7154293,17.280528 16.2773622,16.8328127 15.7120745,16.8328127 L9.71245946,16.8328127 C8.61257387,16.8328127 7.71542932,17.7352059 7.71542932,18.8402967 L7.71542932,48.8367381 C7.71542932,49.3868549 8.15929414,49.8328127 8.71542932,49.8328127 Z M27.1258657,34.4968326 C27.9544667,34.4968326 28.6258657,33.8254335 28.6258657,32.9968326 C28.6258657,32.1682317 27.9544667,31.4968326 27.1258657,31.4968326 C26.2972648,31.4968326 25.6258657,32.1682317 25.6258657,32.9968326 C25.6258657,33.8254335 26.2972648,34.4968326 27.1258657,34.4968326 Z M27.1258657,25.9249098 C27.9544667,25.9249098 28.6258657,25.2535107 28.6258657,24.4249098 C28.6258657,23.5963088 27.9544667,22.9249098 27.1258657,22.9249098 C26.2972648,22.9249098 25.6258657,23.5963088 25.6258657,24.4249098 C25.6258657,25.2535107 26.2972648,25.9249098 27.1258657,25.9249098 Z M27.1258657,17.3530605 C27.9544667,17.3530605 28.6258657,16.6816614 28.6258657,15.8530605 C28.6258657,15.0244596 27.9544667,14.3530605 27.1258657,14.3530605 C26.2972648,14.3530605 25.6258657,15.0244596 25.6258657,15.8530605 C25.6258657,16.6816614 26.2972648,17.3530605 27.1258657,17.3530605 Z M33.2958639,34.4968326 C34.1244648,34.4968326 34.7958639,33.8254335 34.7958639,32.9968326 C34.7958639,32.1682317 34.1244648,31.4968326 33.2958639,31.4968326 C32.467263,31.4968326 31.7958639,32.1682317 31.7958639,32.9968326 C31.7958639,33.8254335 32.467263,34.4968326 33.2958639,34.4968326 Z M33.2958639,25.9249098 C34.1244648,25.9249098 34.7958639,25.2535107 34.7958639,24.4249098 C34.7958639,23.5963088 34.1244648,22.9249098 33.2958639,22.9249098 C32.467263,22.9249098 31.7958639,23.5963088 31.7958639,24.4249098 C31.7958639,25.2535107 32.467263,25.9249098 33.2958639,25.9249098 Z M33.2958639,17.3530605 C34.1244648,17.3530605 34.7958639,16.6816614 34.7958639,15.8530605 C34.7958639,15.0244596 34.1244648,14.3530605 33.2958639,14.3530605 C32.467263,14.3530605 31.7958639,15.0244596 31.7958639,15.8530605 C31.7958639,16.6816614 32.467263,17.3530605 33.2958639,17.3530605 Z" id="Combined-Shape"></path>
                    </g>
                </g>
            </g>
        </g>
    </g>
</svg>