<?xml version="1.0" encoding="UTF-8"?>
<svg width="60px" height="70px" viewBox="0 0 60 70" version="1.1" xmlns="http://www.w3.org/2000/svg" xmlns:xlink="http://www.w3.org/1999/xlink">
    <!-- Generator: Sketch 46.2 (44496) - http://www.bohemiancoding.com/sketch -->
    <title>apple</title>
    <desc>Created with Sketch.</desc>
    <defs></defs>
    <g id="Symbols" stroke="none" stroke-width="1" >
        <g id="Icon-/-AppleIcon" transform="translate(-1.000000, 0.000000)">
            <g id="apple">
                <rect id="BG" fill-opacity="0" fill="#D8D8D8" opacity="0.505774457" x="0" y="0" width="63" height="70"></rect>
                <path d="M58.691283,23.3612778 C55.1105335,18.893087 50.084038,16.2991628 45.3404948,16.2991628 C39.0635139,16.2991628 36.4099593,19.2900386 32.0505063,19.2900386 C27.5595156,19.2900386 24.1523959,16.2991628 18.7166719,16.2991628 C13.3850089,16.2991628 7.71017852,19.5490218 4.11130598,25.0981606 C2.78774402,27.1495647 1.89153356,29.6978891 1.40279779,32.5361812 C0.0464975467,40.4980144 2.07276334,50.869619 8.11706859,60.0790145 C11.055914,64.5472053 14.9734001,69.5807161 20.0910951,69.6239775 C24.6499008,69.6689926 25.943063,66.7091012 32.1148137,66.6787013 C38.2953335,66.6436246 39.4668963,69.6543773 44.0192713,69.611116 C49.1387201,69.5678547 53.2713436,63.9982545 56.210189,59.5300637 C58.3031005,56.3240505 59.0946654,54.7040902 60.7216411,51.0789101 C52.447625,47.958835 49.0445976,38.8418081 51.7115983,31.4242489 C52.8650381,28.2077127 55.1485332,25.3138825 58.691283,23.3612778 Z" id="Fill-3"></path>
                <path d="M40.5782441,11.3042948 C42.8576469,8.37948011 44.5898528,4.24451822 43.9608101,0.000233844869 C40.2350767,0.260970874 35.8756238,2.63683474 33.3348993,5.73469464 C31.0297735,8.5420023 29.1163378,12.7079486 29.8582107,16.7558033 C33.927696,16.8832488 38.1322267,14.4465852 40.5782441,11.3042948" id="Fill-1" ></path>
            </g>
        </g>
    </g>
</svg>
