<?xml version="1.0" encoding="UTF-8"?>
<svg width="16px" height="16px" viewBox="0 0 16 16" version="1.1" xmlns="http://www.w3.org/2000/svg" xmlns:xlink="http://www.w3.org/1999/xlink">
    <!-- Generator: Sketch 46.2 (44496) - http://www.bohemiancoding.com/sketch -->
    <title>Icon/ arrowDownCircle</title>
    <desc>Created with Sketch.</desc>
    <defs></defs>
    <g id="Symbols" stroke="none" stroke-width="1" fill="none" fill-rule="evenodd">
        <g id="Icon/-arrowDownCircle" fill-rule="nonzero" fill="#00BBFF">
            <g id="DownArrow">
                <path d="M8,15.5746608 C3.79208192,15.5746608 0.38089032,12.1634692 0.38089032,7.95555108 C0.38089032,3.747633 3.79208192,0.336441401 8,0.336441401 C12.2079181,0.336441401 15.6191097,3.747633 15.6191097,7.95555108 C15.6191097,12.1634692 12.2079181,15.5746608 8,15.5746608 Z M8,14.5746608 C11.6556333,14.5746608 14.6191097,11.6111844 14.6191097,7.95555108 C14.6191097,4.29991775 11.6556333,1.3364414 8,1.3364414 C4.34436667,1.3364414 1.38089032,4.29991775 1.38089032,7.95555108 C1.38089032,11.6111844 4.34436667,14.5746608 8,14.5746608 Z" id="Oval-4"></path>
                <path d="M5.07852581,6.49481398 L5.07852581,6.49481398 L5.07852581,6.49481398 C4.88326366,6.69007613 4.88326366,7.00665862 5.07852581,7.20192077 L7.64644661,9.76984157 L7.64644661,9.76984157 C7.84170876,9.96510371 8.15829124,9.96510371 8.35355339,9.76984157 L10.9214742,7.20192077 L10.9214742,7.20192077 C11.1167363,7.00665862 11.1167363,6.69007613 10.9214742,6.49481398 L10.9214742,6.49481398 L10.9214742,6.49481398 C10.726212,6.29955184 10.4096296,6.29955184 10.2143674,6.49481398 L8,8.7091814 L5.78563259,6.49481398 L5.78563259,6.49481398 C5.59037044,6.29955184 5.27378795,6.29955184 5.07852581,6.49481398 Z" id="Path-14"></path>
            </g>
        </g>
    </g>
</svg>