<?xml version="1.0" encoding="UTF-8"?>
<svg width="7px" height="4px" viewBox="0 0 7 4" version="1.1" xmlns="http://www.w3.org/2000/svg" xmlns:xlink="http://www.w3.org/1999/xlink">
    <!-- Generator: Sketch 46.2 (44496) - http://www.bohemiancoding.com/sketch -->
    <title>Icon/ arrowDown</title>
    <desc>Created with Sketch.</desc>
    <defs></defs>
    <g id="Symbols" stroke="none" stroke-width="1" fill="none" fill-rule="evenodd">
        <g id="Icon/-arrowDown" fill-rule="nonzero" fill="#43454C">
            <path d="M1.86248621,4.92147419 L1.86248621,4.92147419 L1.86248621,4.92147419 C2.05774835,5.11673634 2.37433084,5.11673634 2.56959299,4.92147419 L5.13751379,2.35355339 L5.13751379,2.35355339 C5.33277594,2.15829124 5.33277594,1.84170876 5.13751379,1.64644661 L2.56959299,-0.921474194 L2.56959299,-0.921474194 C2.37433084,-1.11673634 2.05774835,-1.11673634 1.86248621,-0.921474194 L1.86248621,-0.921474194 L1.86248621,-0.921474194 C1.66722406,-0.726212048 1.66722406,-0.409629559 1.86248621,-0.214367413 L4.07685362,2 L1.86248621,4.21436741 L1.86248621,4.21436741 C1.66722406,4.40962956 1.66722406,4.72621205 1.86248621,4.92147419 Z" id="SmDownArrow" transform="translate(3.500000, 2.000000) rotate(90.000000) translate(-3.500000, -2.000000) "></path>
        </g>
    </g>
</svg>