<?xml version="1.0" encoding="utf-8"?>
<!-- Generator: Adobe Illustrator 19.1.0, SVG Export Plug-In . SVG Version: 6.00 Build 0)  -->
<svg version="1.1" id="Layer_1" xmlns="http://www.w3.org/2000/svg" xmlns:xlink="http://www.w3.org/1999/xlink" x="0px" y="0px"
	 viewBox="0 0 72 72" enable-background="new 0 0 72 72" xml:space="preserve">
<polyline fill="none" stroke="#322F84" stroke-linecap="round" stroke-linejoin="round" stroke-miterlimit="10" points="44.4,18.5 
	0.5,18.5 0.5,53.5 63.3,53.5 63.3,18.5 52.4,18.5 "/>
<polyline fill="none" stroke="#322F84" stroke-linecap="round" stroke-linejoin="round" stroke-miterlimit="10" points="63.3,34.9 
	66.9,34.9 66.9,50 63.3,50 "/>
<line fill="none" stroke="#322F84" stroke-linecap="round" stroke-linejoin="round" stroke-miterlimit="10" x1="0.5" y1="53.5" x2="71.5" y2="53.5"/>
<rect x="63.3" y="21.9" fill="none" stroke="#322F84" stroke-linecap="round" stroke-linejoin="round" stroke-miterlimit="10" width="2.5" height="5.2"/>
<g>
	<g>
		<path fill="none" stroke="#322F84" stroke-linecap="round" stroke-linejoin="round" d="M19.4,38c0-6.9,5.6-12.5,12.5-12.5
			S44.4,31.1,44.4,38s-5.6,12.5-12.5,12.5c-4,0-7.6-1.9-9.9-4.9"/>
		<g>
			<polygon fill="#322F84" points="20.2,47.1 24.3,44.4 20.9,43.8 			"/>
		</g>
	</g>
</g>
<line fill="none" stroke="#322F84" stroke-linecap="round" stroke-linejoin="round" stroke-miterlimit="10" x1="65.9" y1="24.5" x2="67.5" y2="24.5"/>
<line fill="none" stroke="#322F84" stroke-linecap="round" stroke-linejoin="round" stroke-miterlimit="10" x1="55.5" y1="18.5" x2="46.9" y2="28.1"/>
<line fill="none" stroke="#322F84" stroke-linecap="round" stroke-linejoin="round" stroke-miterlimit="10" x1="60.7" y1="18.5" x2="46.9" y2="33.2"/>
</svg>
