<?xml version="1.0" encoding="utf-8"?>
<!-- Generator: Adobe Illustrator 19.1.0, SVG Export Plug-In . SVG Version: 6.00 Build 0)  -->
<svg version="1.1" id="Layer_1" xmlns="http://www.w3.org/2000/svg" xmlns:xlink="http://www.w3.org/1999/xlink" x="0px" y="0px"
	 viewBox="0 0 72 72" enable-background="new 0 0 72 72" xml:space="preserve">
<polygon fill="none" stroke="#322F84" stroke-linecap="round" stroke-linejoin="round" stroke-miterlimit="10" points="36,52.1 
	33.4,52.1 25,43.1 25,26.9 36,26.9 47,26.9 47,43.1 38.6,52.1 "/>
<polyline fill="none" stroke="#322F84" stroke-linecap="round" stroke-linejoin="round" stroke-miterlimit="10" points="22,28.5 
	0.5,28.5 3.3,33 5.8,33 "/>
<polyline fill="none" stroke="#322F84" stroke-linecap="round" stroke-linejoin="round" stroke-miterlimit="10" points="22,33 6,33 
	8.8,37.5 11.2,37.5 "/>
<polyline fill="none" stroke="#322F84" stroke-linecap="round" stroke-linejoin="round" stroke-miterlimit="10" points="22,37.5 
	11.5,37.5 14.2,41.9 16.7,41.9 "/>
<polyline fill="none" stroke="#322F84" stroke-linecap="round" stroke-linejoin="round" stroke-miterlimit="10" points="22,41.9 
	17,41.9 19.8,46.4 25.2,46.4 "/>
<g>
	<polyline fill="none" stroke="#322F84" stroke-linecap="round" stroke-linejoin="round" stroke-miterlimit="10" points="50,28.5 
		71.5,28.5 68.7,33 66.2,33 	"/>
	<polyline fill="none" stroke="#322F84" stroke-linecap="round" stroke-linejoin="round" stroke-miterlimit="10" points="50,33 
		66,33 63.2,37.5 60.8,37.5 	"/>
	<polyline fill="none" stroke="#322F84" stroke-linecap="round" stroke-linejoin="round" stroke-miterlimit="10" points="50,37.5 
		60.5,37.5 57.8,41.9 55.3,41.9 	"/>
	<polyline fill="none" stroke="#322F84" stroke-linecap="round" stroke-linejoin="round" stroke-miterlimit="10" points="50,41.9 
		55,41.9 52.2,46.4 46.8,46.4 	"/>
</g>
<g>
	
		<line fill="none" stroke="#322F84" stroke-linecap="round" stroke-linejoin="round" stroke-miterlimit="10" x1="29.2" y1="29.9" x2="29.2" y2="41.9"/>
	
		<line fill="none" stroke="#322F84" stroke-linecap="round" stroke-linejoin="round" stroke-miterlimit="10" x1="42.8" y1="29.9" x2="42.8" y2="41.9"/>
</g>
<line fill="none" stroke="#322F84" stroke-linecap="round" stroke-linejoin="round" stroke-miterlimit="10" x1="33.2" y1="32" x2="38.9" y2="32"/>
<line fill="none" stroke="#322F84" stroke-linecap="round" stroke-linejoin="round" stroke-miterlimit="10" x1="33.2" y1="37.5" x2="38.9" y2="37.5"/>
<line fill="none" stroke="#322F84" stroke-linecap="round" stroke-linejoin="round" stroke-miterlimit="10" x1="33.2" y1="42.9" x2="38.9" y2="42.9"/>
<line fill="none" stroke="#322F84" stroke-linecap="round" stroke-linejoin="round" stroke-miterlimit="10" x1="33.2" y1="48.4" x2="38.9" y2="48.4"/>
<path fill="none" stroke="#322F84" stroke-linecap="round" stroke-linejoin="round" stroke-miterlimit="10" d="M27.3,26.6
	c1-3.9,4.5-6.7,8.7-6.7c4.3,0,7.9,3,8.8,7"/>
</svg>
