<?xml version="1.0" encoding="UTF-8"?>
<svg width="61px" height="61px" viewBox="0 0 61 61" version="1.1" xmlns="http://www.w3.org/2000/svg" xmlns:xlink="http://www.w3.org/1999/xlink">
    <!-- Generator: Sketch 46.2 (44496) - http://www.bohemiancoding.com/sketch -->
    <title>bookmark</title>
    <desc>Created with Sketch.</desc>
    <defs></defs>
    <g id="Symbols" stroke="none" stroke-width="1" fill="none" fill-rule="evenodd">
        <g id="UI/-DropdownAgency" transform="translate(-27.000000, -235.000000)" fill="#FFFFFF">
            <g id="Group-16">
                <g id="AGENCIES" transform="translate(26.000000, 47.000000)">
                    <g id="bookmark" transform="translate(1.085145, 187.934858)">
                        <path d="M0.419970198,0.841705513 L60.4199702,0.841705513 L60.4199702,60.8417055 L0.419970198,60.8417055 L0.419970198,0.841705513 Z M41.8840879,50.4945225 C41.9889541,50.4945225 42.0953557,50.4748697 42.1969208,50.432263 C42.5031516,50.3062086 42.7029808,50.0065032 42.7029808,49.6756296 L42.7029808,12.0077815 C42.7029808,11.5557667 42.3361027,11.1888885 41.8840879,11.1888885 L18.9558525,11.1888885 C18.5038377,11.1888885 18.1369596,11.5557667 18.1369596,12.0077815 L18.1369596,49.6756296 C18.1369596,50.0065032 18.3367888,50.3062086 18.6430196,50.4306509 C18.9492504,50.5600063 19.301389,50.4879972 19.5356106,50.2537755 L30.4199702,39.369416 L41.3043298,50.2553877 C41.4615523,50.4109981 41.6712079,50.4945225 41.8840879,50.4945225 Z" id="Combined-Shape"></path>
                        <path d="M30.4199702,37.3926189 C30.2103146,37.3926189 30.0007357,37.4729191 29.8402121,37.6333659 L19.7746687,47.6989093 L19.7746687,12.8265976 L41.0652717,12.8265976 L41.0652717,47.6972972 L30.9997283,37.6317538 C30.8392047,37.4729191 30.6296258,37.3926189 30.4199702,37.3926189 Z M35.2332982,32.5531127 C35.4019593,32.5531127 35.5706204,32.5007564 35.7147922,32.3975791 C36.0029824,32.1895356 36.1225882,31.8194332 36.0128088,31.4820342 L34.3587479,26.3903425 L38.6905051,23.2425907 C38.978772,23.0346239 39.0983011,22.6645215 38.9885984,22.3271225 C38.8788958,21.9897236 38.5644507,21.7604919 38.2090111,21.7604919 L32.8536185,21.7604919 L31.1995575,16.6687234 C30.9800755,15.9940022 29.8614771,15.9940022 29.6420718,16.6687234 L27.9879341,21.7604919 L22.6325415,21.7604919 C22.2771786,21.7604919 21.9627335,21.9897236 21.8529541,22.3271225 C21.7432515,22.6628326 21.8627805,23.0330118 22.1510474,23.2409785 L26.4811925,26.3887303 L24.8271316,31.4804221 C24.7173522,31.817821 24.8385702,32.1879235 25.1251482,32.3958902 C25.4134151,32.6055458 25.7999461,32.6055458 26.0881362,32.3958902 L30.4199702,29.2498273 L34.7518042,32.3958902 C34.8958993,32.5007564 35.0645604,32.5531127 35.2332982,32.5531127 Z" id="Combined-Shape"></path>
                        <path d="M30.4199702,27.4188143 C30.5886313,27.4188143 30.7573691,27.4712474 30.9014642,27.5760368 L33.6758125,29.5904506 L32.6161725,26.3297719 C32.5064699,25.9923729 32.6259989,25.6222704 32.9142658,25.414227 L35.6885373,23.3982011 L32.2591207,23.3982011 C31.9037579,23.3982011 31.5893128,23.1688926 31.4796102,22.8315704 L30.4199702,19.5708149 L29.3603302,22.8315704 C29.2506276,23.1688926 28.9361825,23.3982011 28.5808197,23.3982011 L25.1530152,23.3982011 L27.9273635,25.414227 C28.2139415,25.6222704 28.3351594,25.9923729 28.22538,26.3297719 L27.1658168,29.5904506 L29.9400883,27.5760368 C30.0825712,27.4696352 30.2513091,27.4188143 30.4199702,27.4188143 Z" id="Combined-Shape"></path>
                    </g>
                </g>
            </g>
        </g>
    </g>
</svg>