<?xml version="1.0" encoding="UTF-8"?>
<svg width="21px" height="18px" viewBox="0 0 21 18" version="1.1" xmlns="http://www.w3.org/2000/svg" xmlns:xlink="http://www.w3.org/1999/xlink">
    <!-- Generator: Sketch 46.2 (44496) - http://www.bohemiancoding.com/sketch -->
    <title>Icon/ chat</title>
    <desc>Created with Sketch.</desc>
    <defs></defs>
    <g id="Symbols" stroke="none" stroke-width="1" fill="none" fill-rule="evenodd">
        <g id="Icon/-chat" fill="#8392A4">
            <g id="chatIcon" transform="translate(0.913994, 0.471222)">
                <g id="Group-3">
                    <path d="M19.2645615,10.8213658 L19.2645615,2.26475936 C19.2645615,1.07965985 18.298612,0.113710359 17.1135125,0.113710359 L2.62724445,0.113710359 C1.44214494,0.113710359 0.476195452,1.07965985 0.476195452,2.26475936 L0.476195452,10.8213658 C0.476195452,12.0064653 1.44214494,12.9724148 2.62724445,12.9724148 L3.24115003,12.9724148 L3.24115003,15.55177 C3.24115003,16.0276658 3.62668511,16.4131414 4.10722089,16.4131414 C4.35468671,16.4131414 4.5926346,16.3036854 4.75925762,16.1133865 L7.47662262,12.9675368 L17.1183904,12.9675368 C18.298612,12.9724148 19.2645615,12.0064653 19.2645615,10.8213658 Z M7.2054215,11.8064106 C7.03392055,11.8064106 6.87711289,11.8779734 6.76277892,12.0064653 L4.40233577,14.7333482 L4.40233577,12.387063 C4.40233577,12.0633943 4.14071206,11.8017111 3.81698394,11.8017111 L2.62724445,11.8017111 C2.08466376,11.8017111 1.64225913,11.3590685 1.64225913,10.8167258 L1.64225913,2.26475936 C1.64225913,1.72217866 2.08466376,1.27977403 2.62724445,1.27977403 L17.1135125,1.27977403 C17.6560932,1.27977403 18.0984978,1.72217866 18.0984978,2.26475936 L18.0984978,10.8213658 C18.0984978,11.3639465 17.6560932,11.8064106 17.1135125,11.8064106 L7.2054215,11.8064106 Z" id="Fill-1"></path>
                </g>
                <path d="M10.5653053,6.74769776 C10.5653053,7.13132926 10.2541289,7.44244614 9.87049745,7.44244614 C9.486628,7.44244614 9.17545164,7.13132926 9.17545164,6.74769776 C9.17545164,6.36400678 9.486628,6.0528899 9.87049745,6.0528899 C10.2541289,6.0528899 10.5653053,6.36400678 10.5653053,6.74769776 Z" id="Fill-5"></path>
                <path d="M12.8922573,6.74769776 C12.8922573,7.13132926 12.5813189,7.44244614 12.1974494,7.44244614 C11.8138179,7.44244614 11.5026416,7.13132926 11.5026416,6.74769776 C11.5026416,6.36400678 11.8138179,6.0528899 12.1974494,6.0528899 C12.5813189,6.0528899 12.8922573,6.36400678 12.8922573,6.74769776 Z" id="Fill-6"></path>
                <path d="M8.23805589,6.74769776 C8.23805589,7.13132926 7.92693902,7.44244614 7.54330752,7.44244614 C7.15943807,7.44244614 6.84849965,7.13132926 6.84849965,6.74769776 C6.84849965,6.36400678 7.15943807,6.0528899 7.54330752,6.0528899 C7.92693902,6.0528899 8.23805589,6.36400678 8.23805589,6.74769776 Z" id="Fill-7"></path>
            </g>
        </g>
    </g>
</svg>