<?xml version="1.0" encoding="UTF-8"?>
<svg width="14px" height="10px" viewBox="0 0 14 10" version="1.1" xmlns="http://www.w3.org/2000/svg" xmlns:xlink="http://www.w3.org/1999/xlink">
    <!-- Generator: Sketch 46.2 (44496) - http://www.bohemiancoding.com/sketch -->
    <title>check</title>
    <desc>Created with Sketch.</desc>
    <defs></defs>
    <g id="Symbols" stroke="none" stroke-width="1">
        <g id="Icon/-check" transform="translate(0.000000, -1.000000)">
            <g id="check" transform="translate(0.913000, 0.967665)">
                <path d="M0.149473732,5.52738787 C0.0489871894,5.42690133 0,5.27428739 0,5.17380085 C0,5.07331431 0.0489871894,4.92384058 0.149473732,4.82335403 L0.853507569,4.1193202 C1.0551087,3.91771907 1.35656832,3.91771907 1.55754141,4.1193202 L1.60715664,4.17081955 L4.37179263,7.13391647 C4.47227918,7.23503105 4.62175291,7.23503105 4.72286749,7.13391647 L11.4542098,0.149473732 L11.5057091,0.149473732 C11.7073102,-0.0489871894 12.0087699,-0.0489871894 12.2097429,0.149473732 L12.9118927,0.853507569 C13.1128657,1.0551087 13.1128657,1.35656832 12.9118927,1.55754141 L4.87485339,9.89918051 C4.77436685,9.99966705 4.67325226,10.0486542 4.52126637,10.0486542 C4.37179263,10.0486542 4.27130609,9.99966705 4.17081955,9.89918051 L0.249960274,5.6768616 L0.149473732,5.52738787 Z" id="Fill-1"></path>
            </g>
        </g>
    </g>
</svg>
