<?xml version="1.0" encoding="utf-8"?>
<!-- Generator: Adobe Illustrator 19.1.0, SVG Export Plug-In . SVG Version: 6.00 Build 0)  -->
<svg version="1.1" id="Layer_1" xmlns="http://www.w3.org/2000/svg" xmlns:xlink="http://www.w3.org/1999/xlink" x="0px" y="0px"
	 viewBox="0 0 30 30" enable-background="new 0 0 30 30" xml:space="preserve">
<path id="Shape" fill="#93A0B0" d="M14.7,0C6.4,0.1-0.2,7,0,15.3S7,30.1,15.3,30S30.1,23,30,14.7C29.9,6.5,23-0.1,14.7,0z
	 M15.2,28.2C8,28.3,2,22.5,1.8,15.2S7.5,2,14.8,1.8s13.2,5.7,13.4,13C28.4,22.1,22.5,28,15.2,28.2z"/>
<path id="Shape_1_" fill="#93A0B0" d="M8.6,10.1c0.5-0.5,1-1,1.5-1.5c1.5,1.5,3,3,4.5,4.5l4.5-4.5l1.5,1.5l-4.5,4.5l4.5,4.5
	l-1.5,1.5l-4.5-4.5c-1.5,1.5-3,3-4.5,4.5c-0.5-0.5-1-1-1.5-1.5l4.5-4.5L8.6,10.1z"/>
</svg>
