<?xml version="1.0" encoding="UTF-8"?>
<svg width="10px" height="10px" viewBox="0 0 10 10" version="1.1" xmlns="http://www.w3.org/2000/svg" xmlns:xlink="http://www.w3.org/1999/xlink">
    <!-- Generator: Sketch 46.2 (44496) - http://www.bohemiancoding.com/sketch -->
    <title>CloseIcon</title>
    <desc>Created with Sketch.</desc>
    <defs></defs>
    <g id="Symbols" stroke="none" stroke-width="1" fill="none" fill-rule="evenodd">
        <g id="Icon/-CloseIcon" fill-rule="nonzero" fill="#00BBFF">
            <g id="CloseIcon">
                <path d="M5.22931117,4.03071497 L2.40263293,1.20403673 C2.01114275,0.812546554 1.37991743,0.809040889 0.986670479,1.20228784 C0.596146188,1.59281214 0.601835361,2.23166629 0.988419363,2.61825029 L3.8150976,5.44492853 L0.988419363,8.27160677 C0.596929189,8.66309695 0.593423524,9.29432226 0.986670479,9.68756922 C1.37719477,10.0780935 2.01604892,10.0724043 2.40263293,9.68582033 L5.22931117,6.85914209 L8.05598941,9.68582033 C8.44747958,10.0773105 9.0787049,10.0808162 9.47195185,9.68756922 C9.86247615,9.29704493 9.85678697,8.65819077 9.47020297,8.27160677 L6.64352473,5.44492853 L9.47020297,2.61825029 C9.86169314,2.22676012 9.86519881,1.5955348 9.47195185,1.20228784 C9.08142756,0.811763552 8.44257341,0.817452725 8.05598941,1.20403673 L5.22931117,4.03071497 Z" id="Combined-Shape"></path>
            </g>
        </g>
    </g>
</svg>