<?xml version="1.0" encoding="UTF-8"?>
<svg width="105px" height="106px" viewBox="0 0 105 106" version="1.1" xmlns="http://www.w3.org/2000/svg" xmlns:xlink="http://www.w3.org/1999/xlink">
    <!-- Generator: Sketch 46.2 (44496) - http://www.bohemiancoding.com/sketch -->
    <title>CLOUD</title>
    <desc>Created with Sketch.</desc>
    <defs>
        <circle id="path-1" cx="33.1059891" cy="33.6879007" r="33"></circle>
        <filter x="-53.0%" y="-37.9%" width="206.1%" height="206.1%" filterUnits="objectBoundingBox" id="filter-3">
            <feOffset dx="0" dy="10" in="SourceAlpha" result="shadowOffsetOuter1"></feOffset>
            <feGaussianBlur stdDeviation="10" in="shadowOffsetOuter1" result="shadowBlurOuter1"></feGaussianBlur>
            <feColorMatrix values="0 0 0 0 0   0 0 0 0 0   0 0 0 0 0  0 0 0 0.0621603261 0" type="matrix" in="shadowBlurOuter1"></feColorMatrix>
        </filter>
        <linearGradient x1="95.2271468%" y1="13.5094211%" x2="33.0671845%" y2="111.690719%" id="linearGradient-4">
            <stop stop-color="#8834F8" offset="0%"></stop>
            <stop stop-color="#00A3FF" offset="100%"></stop>
        </linearGradient>
    </defs>
    <g id="Styleguide" stroke="none" stroke-width="1" fill="none" fill-rule="evenodd">
        <g id="Product/-CLOUD" transform="translate(19.000000, 9.000000)">
            <g id="CLOUD" transform="translate(0.045778, 0.219703)">
                <mask id="mask-2" fill="white">
                    <use xlink:href="#path-1"></use>
                </mask>
                <g id="Mask">
                    <use fill="black" fill-opacity="1" filter="url(#filter-3)" xlink:href="#path-1"></use>
                    <use fill="#FFFFFF" fill-rule="evenodd" xlink:href="#path-1"></use>
                </g>
                <g id="Page-1" mask="url(#mask-2)">
                    <g transform="translate(13.605989, 19.000000)" id="cloud">
                        <g transform="translate(0.557829, 0.507655)">
                            <path d="M20.622113,2.63919245 L20.6784909,0.596880229 C20.6784909,0.596880229 19.5597262,0.482898883 18.9884289,0.482898883 C13.7154131,0.482898883 9.08101959,3.80455674 7.35742039,8.72141068 C3.22564137,9.17652468 0.0173163848,12.6845558 0.0173163848,16.9237012 C0.0173163848,21.4729016 3.71889727,25.1754744 8.26768221,25.1754744 L20,25.1754744 L20.0552609,23.1736285 C20.0370023,23.1748568 20.0185824,23.1754744 20,23.1754744 L8.26768221,23.1754744 C4.82358673,23.1754744 2.01731638,20.3684521 2.01731638,16.9237012 C2.01731638,13.527868 4.73728896,10.7496184 8.12561208,10.6730804 L8.86056257,10.6564788 L9.06398258,9.9500454 C10.3394574,5.52059892 14.3694605,2.48289888 18.9884289,2.48289888 C19.4345812,2.48289888 20.104007,2.56460929 20.622113,2.63919245 Z M30.2260608,13.262249 C30.120583,14.3151532 29.4948152,15.1484768 28.3018502,15.1511845 C27.2994301,15.1535054 26.4303786,14.272217 26.4329141,13.278753 C26.4355764,12.245963 27.3696641,11.3311509 28.4007357,11.351523 C29.3788149,11.3708636 30.3227911,12.2966354 30.2260608,13.262249 Z M26.4405902,8.40024052 C26.3858316,7.3897809 27.3226132,6.46910531 28.3466502,6.46106107 C29.3600682,6.45301684 30.3019674,7.38627776 30.2349265,8.39881332 C30.1728753,9.33778306 29.5757762,10.3134708 28.4515616,10.2571612 C27.1098478,10.3331922 26.4876724,9.26746088 26.4405902,8.40024052 Z M21.42272,13.1507891 C21.3783716,12.317276 22.443505,11.3021473 23.252446,11.3160882 C24.3546007,11.3350172 25.2332136,12.2310725 25.2212588,13.3238354 C25.2108466,14.2893396 24.3502301,15.1085281 23.338829,15.1159462 C22.3072461,15.0999589 21.4922635,14.4579095 21.42272,13.1507891 Z M26.4241172,23.2982428 C26.430739,22.2739584 27.330408,21.3749564 28.3485048,21.3754746 C29.3450808,21.3759929 30.2082028,22.2445488 30.2238658,23.2626144 C30.2399109,24.3067212 29.3646915,25.1843462 28.31616,25.1754067 C27.3030295,25.1667263 26.4177501,24.2884536 26.4241172,23.2982428 Z M21.4190848,8.41273809 C21.4446499,7.33698259 22.2769226,6.47653245 23.3069416,6.46110759 C24.330697,6.44568273 25.2386425,7.35459264 25.2184461,8.37456156 C25.1983774,9.38977447 24.2762433,10.2540808 23.2060871,10.2608935 C22.3757318,10.2661636 21.3988884,9.25596381 21.4190848,8.41273809 Z M21.4420329,23.2843359 C21.4354838,22.27384 22.2959914,21.3902712 23.301351,21.3751177 C24.3377869,21.3595756 25.2350212,22.2375751 25.2419556,23.2739745 C25.2487616,24.2879675 24.3892812,25.1628585 23.374419,25.1747741 C22.3004859,25.1873373 21.4489673,24.3542804 21.4420329,23.2843359 Z M30.2245387,18.376343 C30.2105403,19.3684189 29.3204955,20.264845 28.3464602,20.2679388 C27.3565176,20.2711615 26.3988987,19.3128595 26.4252412,18.345534 C26.4533653,17.3075669 27.3412466,16.4540671 28.3781475,16.468118 C29.3764892,16.4816534 30.2386644,17.3726654 30.2245387,18.376343 Z M21.4423898,3.34189658 C21.4567717,2.32918317 22.3237959,1.4542495 23.323596,1.44338236 C24.3326416,1.43238586 25.255781,2.36139646 25.2420411,3.3739805 C25.2281728,4.39976035 24.3809238,5.23782339 23.3523598,5.24325696 C22.2729455,5.24894927 21.4273658,4.40726385 21.4423898,3.34189658 Z M21.4452674,18.3423842 C21.4599065,17.3095754 22.2876571,16.4853145 23.3253631,16.4706117 C24.3602441,16.4557799 25.2609334,17.3520072 25.2448817,18.380431 C25.2293437,19.3699052 24.334433,20.2636821 23.3523299,20.2703886 C22.3243833,20.2774821 21.4307567,19.3740323 21.4452674,18.3423842 Z M40.0455868,13.262249 C39.9401089,14.3151532 39.3143411,15.1484768 38.1213762,15.1511845 C37.118956,15.1535054 36.2499045,14.272217 36.25244,13.278753 C36.2551023,12.245963 37.1891901,11.3311509 38.2202617,11.351523 C39.1983408,11.3708636 40.1423171,12.2966354 40.0455868,13.262249 Z M31.242246,13.1507891 C31.1978975,12.317276 32.2630309,11.3021473 33.0719719,11.3160882 C34.1741266,11.3350172 35.0527395,12.2310725 35.0407847,13.3238354 C35.0303725,14.2893396 34.169756,15.1085281 33.1583549,15.1159462 C32.126772,15.0999589 31.3117894,14.4579095 31.242246,13.1507891 Z M36.2436431,23.2982428 C36.2502649,22.2739584 37.1499339,21.3749564 38.1680307,21.3754746 C39.1646068,21.3759929 40.0277287,22.2445488 40.0433918,23.2626144 C40.0594368,24.3067212 39.1842174,25.1843462 38.1356859,25.1754067 C37.1225554,25.1667263 36.237276,24.2884536 36.2436431,23.2982428 Z M31.2615588,23.2843359 C31.2550097,22.27384 32.1155173,21.3902712 33.1208769,21.3751177 C34.1573128,21.3595756 35.0545471,22.2375751 35.0614815,23.2739745 C35.0682875,24.2879675 34.2088072,25.1628585 33.1939449,25.1747741 C32.1200118,25.1873373 31.2684932,24.3542804 31.2615588,23.2843359 Z M31.2646561,8.46061065 C31.258107,7.45011469 32.1186146,6.56654594 33.1239742,6.55139239 C34.1604101,6.53585028 35.0576444,7.41384978 35.0645788,8.45024924 C35.0713848,9.46424217 34.2119045,10.3391332 33.1970422,10.3510489 C32.1231092,10.3636121 31.2715905,9.53055516 31.2646561,8.46061065 Z M40.0440646,18.376343 C40.0300662,19.3684189 39.1400214,20.264845 38.1659861,20.2679388 C37.1760436,20.2711615 36.2184246,19.3128595 36.2447671,18.345534 C36.2728912,17.3075669 37.1607726,16.4540671 38.1976735,16.468118 C39.1960151,16.4816534 40.0581903,17.3726654 40.0440646,18.376343 Z M31.2647933,18.3423842 C31.2794324,17.3095754 32.107183,16.4853145 33.1448891,16.4706117 C34.17977,16.4557799 35.0804593,17.3520072 35.0644076,18.380431 C35.0488697,19.3699052 34.153959,20.2636821 33.1718558,20.2703886 C32.1439092,20.2774821 31.2502826,19.3740323 31.2647933,18.3423842 Z" id="Combined-Shape" fill="url(#linearGradient-4)" fill-rule="nonzero"></path>
                        </g>
                    </g>
                </g>
            </g>
        </g>
    </g>
</svg>