<?xml version="1.0" encoding="UTF-8"?>
<svg width="99px" height="99px" viewBox="0 0 99 99" version="1.1" xmlns="http://www.w3.org/2000/svg" xmlns:xlink="http://www.w3.org/1999/xlink">
    <!-- Generator: Sketch 46.2 (44496) - http://www.bohemiancoding.com/sketch -->
    <title>cloud</title>
    <desc>Created with Sketch.</desc>
    <defs></defs>
    <g id="Symbols" stroke="none" stroke-width="1" fill="none" fill-rule="evenodd">
        <g id="Product/-CLOUDForexport" transform="translate(0.000000, -1.000000)" fill="#FFFFFF">
            <g id="cloud" transform="translate(0.000000, 1.000000)">
                <path d="M49.4119241,98.4991479 C22.2291872,98.4991479 0.193224989,76.4631857 0.193224989,49.2804488 C0.193224989,22.0977119 22.2291872,0.0617497238 49.4119241,0.0617497238 C76.594661,0.0617497238 98.6306232,22.0977119 98.6306232,49.2804488 C98.6306232,76.4631857 76.594661,98.4991479 49.4119241,98.4991479 Z M49.9522194,65.9148568 L50.8817763,32.2413018 C50.8817763,32.2413018 49.3490286,32.0851432 48.5663307,32.0851432 C41.3421101,32.0851432 34.9928249,36.6359336 32.6314322,43.3721997 C26.9707468,43.9957222 22.5752266,48.8018506 22.5752266,54.6096318 C22.5752266,60.8421994 27.6465251,65.9148568 33.8785235,65.9148568 L49.9522194,65.9148568 Z M63.9622893,49.5933109 C64.0948133,48.2703858 62.801532,47.0020452 61.4615285,46.9755479 C60.0489235,46.9476373 58.7691898,48.2009627 58.7655423,49.615922 C58.7620686,50.9770034 59.9527003,52.1844 61.3260518,52.1812203 C62.9604566,52.1775107 63.8177809,51.0358275 63.9622893,49.5933109 Z M58.7760589,42.9321851 C58.8405631,44.1203081 59.6929658,45.5803981 61.5311617,45.476233 C63.0713761,45.5533792 63.8894232,44.216652 63.9744356,42.9302298 C64.0662841,41.5430198 62.7758484,40.2644188 61.3874294,40.2754397 C59.9844619,40.2864606 58.7010376,41.5478192 58.7760589,42.9321851 Z M51.9013969,49.4406069 C51.9966739,51.2314087 53.1132293,52.1110394 54.5265348,52.1329425 C55.9121906,52.1227795 57.091266,51.0004619 57.1055312,49.6776866 C57.1219096,48.1805623 55.9181784,46.9529343 54.408187,46.927001 C53.2999089,46.9079014 51.840638,48.2986641 51.9013969,49.4406069 Z M58.7534903,63.3429823 C58.7447671,64.6996065 59.9576317,65.9028716 61.3456567,65.914764 C62.7821824,65.9270114 63.9812644,64.7246338 63.9592821,63.2941701 C63.9378232,61.8993836 62.7553152,60.7094309 61.3899703,60.7087209 C59.9951411,60.7080109 58.7625623,61.9396759 58.7534903,63.3429823 Z M51.8964165,42.9493072 C51.8687466,44.1045567 53.2070572,45.4885666 54.3446737,45.4813463 C55.8108261,45.4720128 57.0741829,44.2878821 57.1016776,42.897004 C57.1293475,41.49961 55.8854296,40.2543708 54.4828479,40.2755035 C53.071685,40.2966361 51.9314416,41.4754836 51.8964165,42.9493072 Z M51.9278562,63.3239293 C51.9373566,64.7897916 53.1039676,65.9311095 54.5752944,65.9138974 C55.9656921,65.8975726 57.1432109,64.6989405 57.1338865,63.3097338 C57.1243861,61.8898294 55.895143,60.6869386 54.4751886,60.7082319 C53.09781,60.7289928 51.9188836,61.9395136 51.9278562,63.3239293 Z M63.960204,56.5998031 C63.9795567,55.2247288 62.7983457,54.0040104 61.4305819,53.9854665 C60.0099905,53.9662161 58.7935612,55.1355414 58.7550301,56.5575936 C58.71894,57.8828643 60.0309123,59.1957724 61.3871691,59.1913572 C62.7216324,59.1871186 63.9410256,57.9589826 63.960204,56.5998031 Z M51.9283451,36.0020726 C51.9077617,37.4616639 53.0662363,38.6148031 54.5450726,38.6070044 C55.954242,38.5995603 57.1150036,37.4513839 57.1340037,36.0460287 C57.1528278,34.6587523 55.8880938,33.3859744 54.5056651,33.40104 C53.1359031,33.4159284 51.9480488,34.6146189 51.9283451,36.0020726 Z M51.9322876,56.5532783 C51.9124074,57.9666732 53.1367078,59.2044318 54.5450315,59.1947135 C55.8905481,59.1855252 57.1166078,57.9610189 57.1378954,56.6054038 C57.1598867,55.1964263 55.9259101,53.9685628 54.5080861,53.9888828 C53.0863917,54.0090262 51.9523436,55.1382932 51.9322876,56.5532783 Z M77.4153918,49.5933109 C77.5479158,48.2703858 76.2546345,47.0020452 74.914631,46.9755479 C73.502026,46.9476373 72.2222923,48.2009627 72.2186448,49.615922 C72.2151711,50.9770034 73.4058028,52.1844 74.7791543,52.1812203 C76.4135591,52.1775107 77.2708834,51.0358275 77.4153918,49.5933109 Z M65.3544994,49.4406069 C65.4497764,51.2314087 66.5663318,52.1110394 67.9796373,52.1329425 C69.3652931,52.1227795 70.5443685,51.0004619 70.5586336,49.6776866 C70.5750121,48.1805623 69.3712809,46.9529343 67.8612895,46.927001 C66.7530114,46.9079014 65.2937405,48.2986641 65.3544994,49.4406069 Z M72.2065927,63.3429823 C72.1978696,64.6996065 73.4107342,65.9028716 74.7987592,65.914764 C76.2352849,65.9270114 77.4343669,64.7246338 77.4123846,63.2941701 C77.3909257,61.8993836 76.2084177,60.7094309 74.8430727,60.7087209 C73.4482436,60.7080109 72.2156648,61.9396759 72.2065927,63.3429823 Z M65.3809587,63.3239293 C65.3904591,64.7897916 66.5570701,65.9311095 68.0283969,65.9138974 C69.4187946,65.8975726 70.5963134,64.6989405 70.586989,63.3097338 C70.5774886,61.8898294 69.3482455,60.6869386 67.9282911,60.7082319 C66.5509125,60.7289928 65.3719861,61.9395136 65.3809587,63.3239293 Z M65.3852021,43.0148943 C65.3947025,44.4807567 66.5613135,45.6220745 68.0326403,45.6048624 C69.423038,45.5885376 70.6005568,44.3899055 70.5912324,43.0006988 C70.581732,41.5807944 69.3524889,40.3779036 67.9325345,40.3991969 C66.5551559,40.4199578 65.3762296,41.6304786 65.3852021,43.0148943 Z M77.4133065,56.5998031 C77.4326591,55.2247288 76.2514482,54.0040104 74.8836844,53.9854665 C73.463093,53.9662161 72.2466636,55.1355414 72.2081326,56.5575936 C72.1720425,57.8828643 73.4840148,59.1957724 74.8402716,59.1913572 C76.1747349,59.1871186 77.3941281,57.9589826 77.4133065,56.5998031 Z M65.38539,56.5532783 C65.3655099,57.9666732 66.5898103,59.2044318 67.998134,59.1947135 C69.3436506,59.1855252 70.5697103,57.9610189 70.5909979,56.6054038 C70.6129892,55.1964263 69.3790126,53.9685628 67.9611886,53.9888828 C66.5394942,54.0090262 65.4054461,55.1382932 65.38539,56.5532783 Z" id="Combined-Shape"></path>
                <path d="M50.850272,35.2040323 C50.850272,35.2040323 49.6907426,34.8252149 48.5663307,34.8252149 C42.2381785,34.8252149 36.7169299,38.9869729 34.9694836,45.0554733 L34.6907909,46.0233124 L33.6838823,46.0460572 C29.0417582,46.1509169 25.3152983,49.9572186 25.3152983,54.6096318 C25.3152983,59.3290639 29.1599893,63.1747851 33.8785235,63.1747851 L49.9522194,63.1747851 C52.301711,63.1747851 50.850272,49 50.850272,49 L50.850272,35.2040323 Z" id="Fill-1"></path>
            </g>
        </g>
    </g>
</svg>