<?xml version="1.0" encoding="UTF-8"?>
<svg width="99px" height="99px" viewBox="0 0 99 99" version="1.1" xmlns="http://www.w3.org/2000/svg" xmlns:xlink="http://www.w3.org/1999/xlink">
    <!-- Generator: Sketch 46.2 (44496) - http://www.bohemiancoding.com/sketch -->
    <title>code</title>
    <desc>Created with Sketch.</desc>
    <defs></defs>
    <g id="Symbols" stroke="none" stroke-width="1" fill="none" fill-rule="evenodd">
        <g id="Product/-CODEForexport" transform="translate(0.000000, -1.000000)" fill="#FFFFFF">
            <g id="code" transform="translate(0.000000, 1.000000)">
                <path d="M49.4119241,98.4991479 C22.2291872,98.4991479 0.193224989,76.4631857 0.193224989,49.2804488 C0.193224989,22.0977119 22.2291872,0.0617497238 49.4119241,0.0617497238 C76.594661,0.0617497238 98.6306232,22.0977119 98.6306232,49.2804488 C98.6306232,76.4631857 76.594661,98.4991479 49.4119241,98.4991479 Z M69.4172542,29.3501504 L30.5828796,29.3501504 C27.0825382,29.3501504 24.2247044,32.1975478 24.2247044,35.7083255 L24.2247044,60.338494 C24.2247044,63.8387015 27.0721018,66.6965354 30.5828796,66.6965354 L48.5548933,66.6965354 L48.5548933,72.7655688 L39.5955126,72.7655688 C38.7927127,72.7655688 38.150339,73.4079425 38.150339,74.2107424 C38.150339,75.0135423 38.7927127,75.6553808 39.5955126,75.6553808 L60.4039522,75.6553808 C61.2067521,75.6553808 61.8491258,75.0135423 61.8491258,74.2107424 C61.8491258,73.4079425 61.2067521,72.7655688 60.4039522,72.7655688 L51.4451067,72.7655688 L51.4451067,66.6965354 L69.4172542,66.6965354 C72.9174618,66.6965354 75.7752956,63.8491379 75.7752956,60.338494 L75.7752956,35.7083255 C75.7752956,32.1975478 72.9278982,29.3501504 69.4172542,29.3501504 Z" id="Combined-Shape"></path>
                <path d="M69.4117015,63.8063219 L30.5773269,63.8063219 C28.6721489,63.8063219 27.1094989,62.2545097 27.1094989,60.338494 L27.1094989,59.1823283 L72.8795295,59.1823283 L72.8795295,60.338494 C72.8795295,62.2435381 71.3271821,63.8063219 69.4117015,63.8063219 Z M30.5773269,32.2404976 L69.4221379,32.2404976 C71.3271821,32.2404976 72.8905011,33.9786464 72.8905011,36.125066 L72.8905011,59.1823283 L27.1094989,59.1823283 L27.1094989,36.125066 C27.1094989,33.9786464 28.6611773,32.2404976 30.5773269,32.2404976 Z M46.6230113,49.0461903 L46.6230113,47.8065544 C46.5296571,47.600098 46.4416887,47.3900511 46.3420511,47.1862877 C45.7137056,45.9062582 44.2729992,45.2877867 42.9364186,45.7204474 C41.5477751,46.1701633 40.7650361,47.4654526 40.9894452,48.9429621 C41.1896181,50.2669758 42.4068131,51.2696356 43.8152046,51.2543758 C45.3124621,51.2382184 46.1284136,50.3441725 46.6230113,49.0461903 Z M52.9239367,55.189776 L52.9239367,53.9501401 C52.8305825,53.7436838 52.7426141,53.5336369 52.6429765,53.3298734 C52.014631,52.0498439 50.5739246,51.4313724 49.237344,51.8640332 C47.8487005,52.313749 47.0659616,53.6090383 47.2903707,55.0865478 C47.4905436,56.4105615 48.7077385,57.4132214 50.11613,57.3979616 C51.6133875,57.3818041 52.429339,56.4877582 52.9239367,55.189776 Z M53.0069821,42.6622195 L53.0069821,41.4225836 C52.9136279,41.2161273 52.8256595,41.0060803 52.7260219,40.8023169 C52.0976764,39.5222874 50.65697,38.9038159 49.3203894,39.3364766 C47.9317459,39.7861925 47.1490069,41.0814818 47.373416,42.5589913 C47.5735889,43.883005 48.7907839,44.8856648 50.1991754,44.870405 C51.6964329,44.8542476 52.5123844,43.9602017 53.0069821,42.6622195 Z M59.3929665,48.7207462 L59.3929665,47.4811104 C59.2996123,47.274654 59.2116439,47.0646071 59.1120063,46.8608436 C58.4836608,45.5808141 57.0429544,44.9623426 55.7063738,45.3950034 C54.3177303,45.8447192 53.5349913,47.1400085 53.7594004,48.617518 C53.9595734,49.9415317 55.1767683,50.9441916 56.5851598,50.9289318 C58.0824173,50.9127743 58.8983688,50.0187285 59.3929665,48.7207462 Z" id="Combined-Shape"></path>
            </g>
        </g>
    </g>
</svg>