<?xml version="1.0" encoding="UTF-8"?>
<svg width="117px" height="122px" viewBox="0 0 117 122" version="1.1" xmlns="http://www.w3.org/2000/svg" xmlns:xlink="http://www.w3.org/1999/xlink">
    <!-- Generator: Sketch 46.2 (44496) - http://www.bohemiancoding.com/sketch -->
    <title>Control</title>
    <desc>Created with Sketch.</desc>
    <defs>
        <filter x="-79.7%" y="-50.0%" width="259.4%" height="257.1%" filterUnits="objectBoundingBox" id="filter-1">
            <feOffset dx="0" dy="10" in="SourceAlpha" result="shadowOffsetOuter1"></feOffset>
            <feGaussianBlur stdDeviation="10" in="shadowOffsetOuter1" result="shadowBlurOuter1"></feGaussianBlur>
            <feColorMatrix values="0 0 0 0 0   0 0 0 0 0   0 0 0 0 0  0 0 0 0.04 0" type="matrix" in="shadowBlurOuter1" result="shadowMatrixOuter1"></feColorMatrix>
            <feMerge>
                <feMergeNode in="shadowMatrixOuter1"></feMergeNode>
                <feMergeNode in="SourceGraphic"></feMergeNode>
            </feMerge>
        </filter>
        <circle id="path-2" cx="34.3391229" cy="34.8921122" r="34.2754894"></circle>
        <filter x="-51.1%" y="-36.5%" width="202.1%" height="202.1%" filterUnits="objectBoundingBox" id="filter-4">
            <feOffset dx="0" dy="10" in="SourceAlpha" result="shadowOffsetOuter1"></feOffset>
            <feGaussianBlur stdDeviation="10" in="shadowOffsetOuter1" result="shadowBlurOuter1"></feGaussianBlur>
            <feColorMatrix values="0 0 0 0 0   0 0 0 0 0   0 0 0 0 0  0 0 0 0.0621603261 0" type="matrix" in="shadowBlurOuter1"></feColorMatrix>
        </filter>
        <linearGradient x1="95.2271468%" y1="13.5094211%" x2="50%" y2="98.4793527%" id="linearGradient-5">
            <stop stop-color="#5C34F8" offset="0%"></stop>
            <stop stop-color="#00A3FF" offset="100%"></stop>
        </linearGradient>
    </defs>
    <g id="Styleguide" stroke="none" stroke-width="1" fill="none" fill-rule="evenodd">
        <g id="Product/-Control" transform="translate(24.000000, 9.000000)">
            <g id="Control" filter="url(#filter-1)">
                <mask id="mask-3" fill="white">
                    <use xlink:href="#path-2"></use>
                </mask>
                <g id="Mask">
                    <use fill="black" fill-opacity="1" filter="url(#filter-4)" xlink:href="#path-2"></use>
                    <use fill="#FFFFFF" fill-rule="evenodd" xlink:href="#path-2"></use>
                </g>
                <g id="volume-controller" mask="url(#mask-3)" fill="url(#linearGradient-5)">
                    <g transform="translate(17.147765, 16.223383)" id="Combined-Shape">
                        <path d="M2.947855,25.8184813 C3.85879663,25.3019031 5.02046771,25.6017705 5.53704595,26.5127121 C5.71343852,26.8024999 5.79281518,27.132606 5.80289475,27.4475927 C5.80289475,28.1078049 5.46270908,28.7516378 4.85793455,29.1069428 C4.55302739,29.268216 4.2229213,29.3576723 3.89785499,29.3576723 C3.25276216,29.3576723 2.6177489,29.0174866 2.2687436,28.4227916 L2.2687436,28.4076723 C2.09235103,28.1166245 2.01297437,27.7877784 2.0028948,27.4727917 C2.0028948,26.8176192 2.34308047,26.1725264 2.947855,25.8184813 Z M33.6118248,25.7602662 C34.2184094,26.1204258 34.5634044,26.7623945 34.5634044,27.4081544 C34.5634044,27.7392485 34.4749442,28.0703426 34.3068697,28.3609978 C33.9517649,28.9688461 33.3199059,29.3087863 32.6640363,29.3087863 C32.3329422,29.3087863 32.0170127,29.2354906 31.711193,29.0573064 C31.1033446,28.7022016 30.7634045,28.0703426 30.7634045,27.4081544 C30.7634045,27.078324 30.8367001,26.7623945 31.0148844,26.4603659 C31.5481733,25.5479616 32.6981567,25.2421418 33.6118248,25.7602662 Z M3.79602231,21.7192306 C3.97307235,22.7562379 3.28637113,23.7489828 2.25948093,23.9272975 C2.14566304,23.9513257 2.03184516,23.9665014 1.91802728,23.9665014 C1.01886603,23.9665014 0.219611581,23.3139455 0.0564726194,22.3907561 C-0.137017777,21.3537487 0.549683434,20.3749149 1.58795543,20.1826892 C2.61484564,20.0043745 3.60759049,20.6910757 3.79602231,21.7192306 Z M34.9526734,20.1152369 C35.9781091,20.29308 36.6730845,21.2831993 36.4952414,22.3187253 C36.3325339,23.2394732 35.534132,23.885258 34.6234745,23.885258 C34.520048,23.885258 34.4065312,23.8751676 34.2930143,23.8600321 C33.2688399,23.6683147 32.5738645,22.6971149 32.7504462,21.6578049 C32.9282893,20.6386757 33.9133634,19.9386551 34.9526734,20.1152369 Z M1.58417551,18.1602606 C0.660704779,18.0074015 0.0101063829,17.2127872 -6.53699317e-13,16.3095292 C-6.53699317e-13,16.1958324 0.0101063829,16.0821356 0.0252659571,15.9684388 C0.202127657,14.9325345 1.18876328,14.2465638 2.23098401,14.4246888 C3.14308507,14.5775478 3.79999995,15.3772154 3.79999995,16.2754202 C3.79999995,16.389117 3.79999995,16.5015505 3.774734,16.6152473 C3.62187495,17.538718 2.81336433,18.1994228 1.89999998,18.1994228 C1.80146274,18.1994228 1.68271274,18.1842632 1.58417551,18.1602606 Z M32.7142637,16.2115513 C32.7293631,15.3169156 33.3736015,14.5204255 34.2820783,14.3593659 C35.3151246,14.1668494 36.2978399,14.8601606 36.4739988,15.8969818 C36.5041975,16.0102268 36.5142637,16.1134056 36.5142637,16.2266507 C36.5041975,17.1363857 35.8599591,17.9265844 34.950224,18.0800943 C34.8382372,18.1040016 34.7249922,18.119101 34.6117472,18.119101 C33.7120783,18.119101 32.905522,17.4597632 32.7532704,16.5563195 C32.7293631,16.4380414 32.7142637,16.3247963 32.7142637,16.2115513 Z M2.91552227,12.5155175 C2.00314108,11.9968609 1.68765658,10.834616 2.2063131,9.92223485 C2.72370769,9.00985366 3.89226229,8.69436916 4.80338153,9.226907 C5.71071497,9.74430159 6.03124722,10.9078084 5.49870938,11.8201896 L5.49870938,11.8050464 C5.1542003,12.4259199 4.50808804,12.7666431 3.85188027,12.7666431 C3.53639577,12.7666431 3.20702995,12.6820933 2.91552227,12.5155175 Z M32.6429034,12.7107514 C31.9966568,12.7107514 31.3516724,12.3712195 30.9957318,11.764101 C30.4731809,10.8616277 30.7937798,9.69914111 31.6912043,9.16649252 C32.6037752,8.64772814 33.767524,8.95444285 34.2850262,9.86070277 C34.8176748,10.7581273 34.5021247,11.9269249 33.5895538,12.4595735 C33.2992477,12.6223974 32.9685512,12.7107514 32.6429034,12.7107514 Z M7.545888,8.33750558 C7.01351921,8.33750558 6.48115043,8.10664424 6.10142767,7.66258307 C5.79613562,7.32196797 5.65862804,6.8943068 5.6434896,6.46033793 C5.6434896,5.91787685 5.87435094,5.37541576 6.3285044,4.99695454 C7.12705758,4.31193973 8.31416428,4.41033965 8.99917908,5.20889283 C9.28933269,5.56338484 9.44324025,5.99230755 9.44324025,6.41113797 C9.45207101,6.96747596 9.22625582,7.5149832 8.77210235,7.89470596 C8.41761034,8.19495186 7.98868763,8.33750558 7.545888,8.33750558 Z M28.9324602,8.29595073 C28.4984982,8.29595073 28.0708437,8.14330712 27.7150958,7.8531581 C27.262211,7.47344133 27.0300918,6.93098882 27.0300918,6.38475175 C27.04523,5.9558358 27.1827354,5.52691986 27.4892842,5.18126407 C28.15915,4.37389288 29.3462379,4.27549452 30.1599167,4.9453603 C30.6027093,5.32507706 30.8398746,5.86626806 30.8297825,6.40872058 C30.8297825,6.84268259 30.687231,7.27159854 30.3857283,7.61094674 C30.0173652,8.06887759 29.4749127,8.29595073 28.9324602,8.29595073 Z M12.5286416,5.4362636 C11.7542945,5.4362636 11.0342654,4.96761308 10.7424641,4.19200278 C10.3875024,3.20543659 10.8814171,2.11528727 11.8679833,1.76032555 C12.8596024,1.39525816 13.9446988,1.89801533 14.3148191,2.87447585 C14.6659912,3.86230525 14.1720765,4.95245457 13.1855103,5.32257479 C12.9682383,5.39710412 12.7408607,5.4362636 12.5286416,5.4362636 Z M23.2897546,5.29114114 C22.3068395,4.93749305 21.7996502,3.83627568 22.1545569,2.86846293 C22.5233074,1.88051363 23.6043882,1.37835851 24.5923375,1.7320066 C25.5752526,2.08691323 26.0824419,3.16799405 25.7287938,4.15594335 C25.4380724,4.92239064 24.7156738,5.40440921 23.947968,5.40440921 C23.7226904,5.40440921 23.5062225,5.36539465 23.2897546,5.29114114 Z M18.157499,4.33396214 C17.1405454,4.33396214 16.3013119,3.50460197 16.3013119,2.49135093 C16.3013119,1.45958738 17.1306721,0.621588041 18.1439232,0.621588041 L18.2451248,0.621588041 C19.2719517,0.621588041 20.1013119,1.45094821 20.1013119,2.47777509 C20.1013119,3.50460197 19.2719517,4.33396214 18.2451248,4.33396214 L18.157499,4.33396214 Z M24.084552,10.7571454 C24.6007871,10.1420823 25.5303789,10.0573562 26.1607646,10.5678325 L26.0344615,10.4655543 C26.664887,10.9760627 26.7512214,11.8959475 26.2412214,12.5035819 L20.610589,19.2121418 C20.0943539,19.8272049 19.1647621,19.911931 18.5343764,19.4014548 L18.6606794,19.503733 C18.030254,18.9932245 17.9439196,18.0733397 18.4539196,17.4657054 L24.084552,10.7571454 Z"></path>
                    </g>
                </g>
            </g>
        </g>
    </g>
</svg>