<?xml version="1.0" encoding="UTF-8"?>
<svg width="99px" height="99px" viewBox="0 0 99 99" version="1.1" xmlns="http://www.w3.org/2000/svg" xmlns:xlink="http://www.w3.org/1999/xlink">
    <!-- Generator: Sketch 46.2 (44496) - http://www.bohemiancoding.com/sketch -->
    <title>content</title>
    <desc>Created with Sketch.</desc>
    <defs></defs>
    <g id="Symbols" stroke="none" stroke-width="1" fill="none" fill-rule="evenodd">
        <g id="Product/-CONTENTForexport" transform="translate(0.000000, -1.000000)" fill="#FFFFFF">
            <g id="content" transform="translate(0.000000, 1.000000)">
                <path d="M49.4119241,98.4991479 C22.2291872,98.4991479 0.193224989,76.4631857 0.193224989,49.2804488 C0.193224989,22.0977119 22.2291872,0.0617497238 49.4119241,0.0617497238 C76.594661,0.0617497238 98.6306232,22.0977119 98.6306232,49.2804488 C98.6306232,76.4631857 76.594661,98.4991479 49.4119241,98.4991479 Z M23.2846862,47.8493216 L23.2846862,65.415698 C23.2846862,68.3159226 25.6325726,70.6595437 28.5288372,70.6595437 L56.6273759,70.6595437 C59.5158332,70.6595437 61.871527,68.311794 61.871527,65.415698 L61.871527,47.8493216 C61.871527,44.949097 59.5236406,42.6054758 56.6273759,42.6054758 L28.5288372,42.6054758 C25.64038,42.6054758 23.2846862,44.9532256 23.2846862,47.8493216 Z M41.3280292,37.8214675 C41.3207064,36.4284119 40.2399972,35.3650523 38.8319759,35.3655646 C37.4101604,35.3660768 36.3168492,36.4830482 36.3364334,37.9152029 C36.3548256,39.2575492 37.5246005,40.380155 38.8810216,40.3571053 C40.2401675,40.3340556 41.3351817,39.1993274 41.3280292,37.8214675 Z M41.3280292,29.7963594 C41.3207064,28.4033037 40.2399972,27.3399442 38.8319759,27.3404564 C37.4101604,27.3409687 36.3168492,28.4579401 36.3364334,29.8900948 C36.3548256,31.2324411 37.5246005,32.3550469 38.8810216,32.3319972 C40.2401675,32.3089475 41.3351817,31.1742192 41.3280292,29.7963594 Z M48.4054792,29.7963594 C48.3981564,28.4033037 47.3174472,27.3399442 45.9094258,27.3404564 C44.4876103,27.3409687 43.3942991,28.4579401 43.4138834,29.8900948 C43.4322755,31.2324411 44.6020504,32.3550469 45.9584716,32.3319972 C47.3176175,32.3089475 48.4126317,31.1742192 48.4054792,29.7963594 Z M55.4829291,29.7963594 C55.4756063,28.4033037 54.3948971,27.3399442 52.9868758,27.3404564 C51.5650603,27.3409687 50.4717491,28.4579401 50.4913333,29.8900948 C50.5097255,31.2324411 51.6795003,32.3550469 53.0359215,32.3319972 C54.3950674,32.3089475 55.4900816,31.1742192 55.4829291,29.7963594 Z M62.5603791,29.7963594 C62.5530563,28.4033037 61.4723471,27.3399442 60.0643257,27.3404564 C58.6425102,27.3409687 57.549199,28.4579401 57.5687833,29.8900948 C57.5871754,31.2324411 58.7569503,32.3550469 60.1133715,32.3319972 C61.4725174,32.3089475 62.5675316,31.1742192 62.5603791,29.7963594 Z M69.637829,29.7963594 C69.6305062,28.4033037 68.549797,27.3399442 67.1417757,27.3404564 C65.7199602,27.3409687 64.626649,28.4579401 64.6462332,29.8900948 C64.6646254,31.2324411 65.8344002,32.3550469 67.1908214,32.3319972 C68.5499673,32.3089475 69.6449815,31.1742192 69.637829,29.7963594 Z M76.715279,29.7963594 C76.7079562,28.4033037 75.627247,27.3399442 74.2192256,27.3404564 C72.7974101,27.3409687 71.7040989,28.4579401 71.7236832,29.8900948 C71.7420753,31.2324411 72.9118502,32.3550469 74.2682714,32.3319972 C75.6274173,32.3089475 76.7224315,31.1742192 76.715279,29.7963594 Z M76.715279,37.8214675 C76.7079562,36.4284119 75.627247,35.3650523 74.2192256,35.3655646 C72.7974101,35.3660768 71.7040989,36.4830482 71.7236832,37.9152029 C71.7420753,39.2575492 72.9118502,40.380155 74.2682714,40.3571053 C75.6274173,40.3340556 76.7224315,39.1993274 76.715279,37.8214675 Z M76.715279,45.8465756 C76.7079562,44.45352 75.627247,43.3901605 74.2192256,43.3906727 C72.7974101,43.3911849 71.7040989,44.5081563 71.7236832,45.940311 C71.7420753,47.2826573 72.9118502,48.4052631 74.2682714,48.3822134 C75.6274173,48.3591637 76.7224315,47.2244355 76.715279,45.8465756 Z M76.715279,53.8716837 C76.7079562,52.4786281 75.627247,51.4152686 74.2192256,51.4157808 C72.7974101,51.416293 71.7040989,52.5332644 71.7236832,53.9654192 C71.7420753,55.3077654 72.9118502,56.4303712 74.2682714,56.4073215 C75.6274173,56.3842718 76.7224315,55.2495436 76.715279,53.8716837 Z M69.637829,53.8716837 C69.6305062,52.4786281 68.549797,51.4152686 67.1417757,51.4157808 C65.7199602,51.416293 64.626649,52.5332644 64.6462332,53.9654192 C64.6646254,55.3077654 65.8344002,56.4303712 67.1908214,56.4073215 C68.5499673,56.3842718 69.6449815,55.2495436 69.637829,53.8716837 Z" id="Combined-Shape"></path>
                <g id="Group" transform="translate(25.207960, 44.673300)">
                    <path d="M0.70403608,3.17602121 L0.70403608,20.7423975 C0.70403608,22.1898185 1.87385474,23.3589329 3.32087674,23.3589329 L31.4194154,23.3589329 C32.8601841,23.3589329 34.0362561,22.1841375 34.0362561,20.7423975 L34.0362561,3.17602121 C34.0362561,1.72860022 32.8664374,0.5594858 31.4194154,0.5594858 L3.32087674,0.5594858 C1.88010811,0.5594858 0.70403608,1.73428126 0.70403608,3.17602121 Z" id="Rectangle-20"></path>
                </g>
            </g>
        </g>
    </g>
</svg>