<?xml version="1.0" encoding="UTF-8"?>
<svg width="105px" height="105px" viewBox="0 0 105 105" version="1.1" xmlns="http://www.w3.org/2000/svg" xmlns:xlink="http://www.w3.org/1999/xlink">
    <!-- Generator: Sketch 46.2 (44496) - http://www.bohemiancoding.com/sketch -->
    <title>CONTENT</title>
    <desc>Created with Sketch.</desc>
    <defs>
        <circle id="path-1" cx="33.3778204" cy="33.4974919" r="33"></circle>
        <filter x="-53.0%" y="-37.9%" width="206.1%" height="206.1%" filterUnits="objectBoundingBox" id="filter-3">
            <feOffset dx="0" dy="10" in="SourceAlpha" result="shadowOffsetOuter1"></feOffset>
            <feGaussianBlur stdDeviation="10" in="shadowOffsetOuter1" result="shadowBlurOuter1"></feGaussianBlur>
            <feColorMatrix values="0 0 0 0 0   0 0 0 0 0   0 0 0 0 0  0 0 0 0.0621603261 0" type="matrix" in="shadowBlurOuter1"></feColorMatrix>
        </filter>
        <linearGradient x1="95.2271468%" y1="13.5094211%" x2="33.0671845%" y2="111.690719%" id="linearGradient-4">
            <stop stop-color="#8834F8" offset="0%"></stop>
            <stop stop-color="#00A3FF" offset="100%"></stop>
        </linearGradient>
    </defs>
    <g id="Styleguide" stroke="none" stroke-width="1" fill="none" fill-rule="evenodd">
        <g id="Product/-CONTENT" transform="translate(19.000000, 9.000000)">
            <g id="CMSICON" stroke-width="1" fill-rule="evenodd" transform="translate(0.444026, 0.130142)">
                <g id="Page-1">
                    <mask id="mask-2" fill="white">
                        <use xlink:href="#path-1"></use>
                    </mask>
                    <g id="Mask">
                        <use fill="black" fill-opacity="1" filter="url(#filter-3)" xlink:href="#path-1"></use>
                        <use fill="#FFFFFF" fill-rule="evenodd" xlink:href="#path-1"></use>
                    </g>
                </g>
            </g>
            <path d="M12.9989389,33.9752906 C12.9989389,31.7706816 14.7921749,29.9834929 16.990969,29.9834929 L38.3805534,29.9834929 C40.5852907,29.9834929 42.3725835,31.7675388 42.3725835,33.9752906 L42.3725835,47.347427 C42.3725835,49.552036 40.5793475,51.3392247 38.3805534,51.3392247 L16.990969,51.3392247 C14.7862316,51.3392247 12.9989389,49.5551788 12.9989389,47.347427 L12.9989389,33.9752906 Z M26.7341588,26.3417395 C26.7396036,27.3906143 25.9060407,28.2544089 24.8714116,28.2719551 C23.8388566,28.2895014 22.9483833,27.4349348 22.9343826,26.4130942 C22.9194744,25.3228882 23.7517409,24.4726107 24.8340763,24.4722208 C25.9059111,24.4718309 26.7285845,25.2812971 26.7341588,26.3417395 Z M26.7341588,20.2327482 C26.7396036,21.2816231 25.9060407,22.1454176 24.8714116,22.1629639 C23.8388566,22.1805101 22.9483833,21.3259435 22.9343826,20.3041029 C22.9194744,19.2138969 23.7517409,18.3636194 24.8340763,18.3632295 C25.9059111,18.3628396 26.7285845,19.1723058 26.7341588,20.2327482 Z M32.1217598,20.2327482 C32.1272045,21.2816231 31.2936416,22.1454176 30.2590125,22.1629639 C29.2264576,22.1805101 28.3359843,21.3259435 28.3219835,20.3041029 C28.3070753,19.2138969 29.1393418,18.3636194 30.2216772,18.3632295 C31.293512,18.3628396 32.1161854,19.1723058 32.1217598,20.2327482 Z M37.5093607,20.2327482 C37.5148054,21.2816231 36.6812426,22.1454176 35.6466134,22.1629639 C34.6140585,22.1805101 33.7235852,21.3259435 33.7095844,20.3041029 C33.6946762,19.2138969 34.5269427,18.3636194 35.6092781,18.3632295 C36.6811129,18.3628396 37.5037863,19.1723058 37.5093607,20.2327482 Z M42.8969616,20.2327482 C42.9024064,21.2816231 42.0688435,22.1454176 41.0342144,22.1629639 C40.0016594,22.1805101 39.1111861,21.3259435 39.0971854,20.3041029 C39.0822772,19.2138969 39.9145437,18.3636194 40.996879,18.3632295 C42.0687139,18.3628396 42.8913873,19.1723058 42.8969616,20.2327482 Z M48.2845626,20.2327482 C48.2900073,21.2816231 47.4564444,22.1454176 46.4218153,22.1629639 C45.3892603,22.1805101 44.498787,21.3259435 44.4847863,20.3041029 C44.4698781,19.2138969 45.3021446,18.3636194 46.38448,18.3632295 C47.4563148,18.3628396 48.2789882,19.1723058 48.2845626,20.2327482 Z M53.6721635,20.2327482 C53.6776082,21.2816231 52.8440453,22.1454176 51.8094162,22.1629639 C50.7768613,22.1805101 49.886388,21.3259435 49.8723872,20.3041029 C49.857479,19.2138969 50.6897455,18.3636194 51.7720809,18.3632295 C52.8439157,18.3628396 53.6665891,19.1723058 53.6721635,20.2327482 Z M53.6721635,26.3417395 C53.6776082,27.3906143 52.8440453,28.2544089 51.8094162,28.2719551 C50.7768613,28.2895014 49.886388,27.4349348 49.8723872,26.4130942 C49.857479,25.3228882 50.6897455,24.4726107 51.7720809,24.4722208 C52.8439157,24.4718309 53.6665891,25.2812971 53.6721635,26.3417395 Z M53.6721635,32.4507307 C53.6776082,33.4996056 52.8440453,34.3634002 51.8094162,34.3809464 C50.7768613,34.3984926 49.886388,33.5439261 49.8723872,32.5220854 C49.857479,31.4318795 50.6897455,30.581602 51.7720809,30.5812121 C52.8439157,30.5808222 53.6665891,31.3902884 53.6721635,32.4507307 Z M53.6721635,38.559722 C53.6776082,39.6085969 52.8440453,40.4723914 51.8094162,40.4899377 C50.7768613,40.5074839 49.886388,39.6529173 49.8723872,38.6310767 C49.857479,37.5408707 50.6897455,36.6905933 51.7720809,36.6902033 C52.8439157,36.6898134 53.6665891,37.4992797 53.6721635,38.559722 Z M48.2845626,38.559722 C48.2900073,39.6085969 47.4564444,40.4723914 46.4218153,40.4899377 C45.3892603,40.5074839 44.498787,39.6529173 44.4847863,38.6310767 C44.4698781,37.5408707 45.3021446,36.6905933 46.38448,36.6902033 C47.4563148,36.6898134 48.2789882,37.4992797 48.2845626,38.559722 Z M14.9989389,33.9752906 L14.9989389,47.347427 C14.9989389,48.4492541 15.8894455,49.3392247 16.990969,49.3392247 L38.3805534,49.3392247 C39.4773166,49.3392247 40.3725835,48.4449295 40.3725835,47.347427 L40.3725835,33.9752906 C40.3725835,32.8734635 39.4820768,31.9834929 38.3805534,31.9834929 L16.990969,31.9834929 C15.8942058,31.9834929 14.9989389,32.8777881 14.9989389,33.9752906 Z" id="Combined-Shape" fill="url(#linearGradient-4)" fill-rule="nonzero"></path>
        </g>
    </g>
</svg>