<?xml version="1.0" encoding="UTF-8"?>
<svg width="99px" height="99px" viewBox="0 0 99 99" version="1.1" xmlns="http://www.w3.org/2000/svg" xmlns:xlink="http://www.w3.org/1999/xlink">
    <!-- Generator: Sketch 46.2 (44496) - http://www.bohemiancoding.com/sketch -->
    <title>control</title>
    <desc>Created with Sketch.</desc>
    <defs></defs>
    <g id="Symbols" stroke="none" stroke-width="1" fill="none" fill-rule="evenodd">
        <g id="Product/-CONTROLForexport" transform="translate(0.000000, -1.000000)" fill="#FFFFFF">
            <g id="control" transform="translate(0.000000, 1.000000)">
                <path d="M49.4119241,98.4991479 C22.2291872,98.4991479 0.193224989,76.4631857 0.193224989,49.2804488 C0.193224989,22.0977119 22.2291872,0.0617497238 49.4119241,0.0617497238 C76.594661,0.0617497238 98.6306232,22.0977119 98.6306232,49.2804488 C98.6306232,76.4631857 76.594661,98.4991479 49.4119241,98.4991479 Z M29.0356122,61.1381568 C28.2076761,61.6228444 27.7419621,62.5059762 27.7419621,63.4029069 C27.755761,63.8341236 27.8644276,64.2843138 28.105909,64.6827581 L28.105909,64.7034565 C28.5836971,65.5175936 29.4530299,65.9833076 30.3361617,65.9833076 C30.7811773,65.9833076 31.2330924,65.8608421 31.6505102,65.6400591 C32.4784462,65.1536467 32.9441603,64.2722398 32.9441603,63.3684096 C32.9303613,62.9371929 32.8216947,62.4852778 32.5802134,62.0885584 C31.873018,60.8414798 30.2826908,60.4309615 29.0356122,61.1381568 Z M71.0145728,61.0584603 C69.7637616,60.3491483 68.1894349,60.7678154 67.4593626,62.0168966 C67.2154284,62.4303736 67.1150867,62.8628809 67.1150867,63.3144186 C67.1150867,64.220954 67.5804646,65.0859686 68.4126087,65.5721069 C68.8312758,65.816041 69.2637831,65.9163827 69.7170508,65.9163827 C70.6149361,65.9163827 71.4799507,65.4510048 71.966089,64.6188607 C72.1961829,64.220954 72.3172849,63.7676863 72.3172849,63.3144186 C72.3172849,62.4303736 71.8449869,61.5515187 71.0145728,61.0584603 Z M30.1967528,55.5262844 C29.9387897,54.1187409 28.5797225,53.1786473 27.1739103,53.42276 C25.7525164,53.6859169 24.8124227,55.0259399 25.077311,56.4456025 C25.3006482,57.7094485 26.3948271,58.6027972 27.6257785,58.6027972 C27.7815951,58.6027972 27.9374117,58.5820216 28.0932284,58.549127 C29.4990406,58.3050143 30.4391342,56.945947 30.1967528,55.5262844 Z M72.850194,53.3304178 C71.4273791,53.0886774 70.0788131,54.0470053 69.835346,55.4421927 C69.5936056,56.8650076 70.5450267,58.1945797 71.9471209,58.4570407 C72.1025255,58.4777613 72.25793,58.491575 72.3995208,58.491575 C73.6462105,58.491575 74.7392224,57.6074959 74.9619689,56.3469924 C75.205436,54.9293577 74.2540149,53.5738849 72.850194,53.3304178 Z M27.1687356,50.6540561 C27.303633,50.6869157 27.4662017,50.7076692 27.6010991,50.7076692 C28.8514945,50.7076692 29.9583452,49.8031646 30.1676091,48.5389336 C30.2021982,48.3832827 30.2021982,48.2293613 30.2021982,48.0737104 C30.2021982,46.8440685 29.302882,45.749324 28.0542161,45.54006 C26.6274164,45.296207 25.2767127,46.2353006 25.0345891,47.6534531 C25.0138356,47.8091039 25,47.9647548 25,48.1204057 C25.0138356,49.3569654 25.9045045,50.4447921 27.1687356,50.6540561 Z M69.7858122,47.986274 C69.7858122,48.1413064 69.8064832,48.2963388 69.8392122,48.4582615 C70.0476447,49.6950756 71.1518198,50.5977086 72.3834661,50.5977086 C72.5384985,50.5977086 72.6935309,50.5770376 72.8468407,50.5443086 C74.0922676,50.3341535 74.9742297,49.2523719 74.9880104,48.006945 C74.9880104,47.8519126 74.9742297,47.7106609 74.9328877,47.5556285 C74.6917262,46.1362208 73.3463896,45.187078 71.9321496,45.450633 C70.6884452,45.6711236 69.8064832,46.7615181 69.7858122,47.986274 Z M28.9913487,42.9264054 C29.3904225,43.1544476 29.8413242,43.2701963 30.2732223,43.2701963 C31.1715705,43.2701963 32.0560979,42.8037463 32.5277306,41.9537707 L32.5277306,41.9745019 C33.2567747,40.7254524 32.8179662,39.1326121 31.5758271,38.4242991 C30.3285053,37.6952551 28.7287546,38.1271532 28.0204416,39.3762026 C27.3104011,40.6252521 27.7422992,42.2163648 28.9913487,42.9264054 Z M69.6881199,43.1936805 C70.1339315,43.1936805 70.5866549,43.0727239 70.9840838,42.8498181 C72.233393,42.1206224 72.665381,40.520539 71.9361853,39.2919653 C71.227725,38.0512958 69.6345534,37.6314035 68.3852443,38.3415917 C67.1566705,39.0707874 66.7177707,40.6622311 67.4331428,41.8977166 C67.9204252,42.7288615 68.8034086,43.1936805 69.6881199,43.1936805 Z M35.3303172,37.206709 C35.9365097,37.206709 36.5237047,37.011553 37.0090041,36.6005165 C37.63074,36.0806762 37.9398809,35.3311391 37.9277916,34.5695126 C37.9277916,33.996134 37.7170922,33.408939 37.3198721,32.9236396 C36.3820871,31.8304206 34.7569386,31.6957112 33.6637196,32.6334961 C33.0419838,33.1516094 32.7259347,33.8942384 32.7259347,34.6368673 C32.7466592,35.2309705 32.934907,35.8164385 33.3528517,36.2827404 C33.872692,36.8906599 34.6015046,37.206709 35.3303172,37.206709 Z M64.6085248,37.1498204 C65.3511421,37.1498204 66.0937593,36.8389574 66.5980482,36.2120503 C67.0108053,35.7474827 67.2059582,35.160297 67.2059582,34.5662032 C67.2197743,33.823586 66.8950951,33.0826957 66.2889122,32.5628637 C65.1749864,31.6458177 63.5498635,31.780525 62.6328175,32.8858158 C62.2131524,33.3590184 62.0249076,33.9462042 62.0041834,34.5333899 C62.0041834,35.2811882 62.3219545,36.0238054 62.9419536,36.5436375 C63.4289723,36.9408514 64.014431,37.1498204 64.6085248,37.1498204 Z M42.1517047,33.23491 C42.4422325,33.23491 42.7535124,33.1813007 43.0509575,33.0792701 C44.4015662,32.5725757 45.0777352,31.0801618 44.5969808,29.7278238 C44.0902864,28.3910498 42.6047898,27.7027754 41.2472638,28.2025525 C39.8966551,28.688495 39.2204861,30.1809089 39.7064285,31.5315176 C40.1059043,32.5933277 41.0916238,33.23491 42.1517047,33.23491 Z M56.8836635,33.0362375 C57.1800079,33.1378905 57.4763523,33.1913014 57.7847573,33.1913014 C58.8357462,33.1913014 59.8247096,32.5314182 60.222707,31.4821522 C60.7068511,30.1296501 60.0125092,28.6496509 58.6668988,28.1637839 C57.3143967,27.6796398 55.8343975,28.36709 55.3295782,29.7195921 C54.8437112,31.0445273 55.5380531,32.5520934 56.8836635,33.0362375 Z M49.8576079,31.7258599 L49.9775676,31.7258599 C51.3832931,31.7258599 52.5186868,30.5904662 52.5186868,29.1847406 C52.5186868,27.7790151 51.3832931,26.6436214 49.9775676,26.6436214 L49.8390225,26.6436214 C48.4518823,26.6436214 47.3164886,27.7908421 47.3164886,29.2033259 C47.3164886,30.5904662 48.4653989,31.7258599 49.8576079,31.7258599 Z M57.9613769,40.5315427 L50.2737713,49.6908625 C49.5652177,50.5350615 49.6834095,51.7943834 50.5464617,52.4932692 L50.3735528,52.3532504 C51.2365505,53.0520922 52.5138013,52.9305739 53.2262508,52.0817332 L60.9138563,42.9224134 C61.6224099,42.0782144 61.5042181,40.8188925 60.641166,40.1200067 L60.8140748,40.2600255 C59.9510771,39.5611837 58.6738263,39.682702 57.9613769,40.5315427 Z" id="Combined-Shape"></path>
            </g>
        </g>
    </g>
</svg>