<?xml version="1.0" encoding="utf-8"?>
<!-- Generator: Adobe Illustrator 19.1.0, SVG Export Plug-In . SVG Version: 6.00 Build 0)  -->
<svg version="1.1" id="Layer_1" xmlns="http://www.w3.org/2000/svg" xmlns:xlink="http://www.w3.org/1999/xlink" x="0px" y="0px"
	 viewBox="0 0 72 72" enable-background="new 0 0 72 72" xml:space="preserve">
<g>
	<path fill="none" stroke="#322F84" stroke-linecap="round" stroke-linejoin="round" stroke-miterlimit="10" d="M46,5.7
		c13.7,4.3,23.6,17,23.6,32.1c0,5.4-1.3,10.6-3.6,15.1"/>
	<path fill="none" stroke="#322F84" stroke-linecap="round" stroke-linejoin="round" stroke-miterlimit="10" d="M5.8,52.7
		c-2.2-4.5-3.5-9.5-3.5-14.9C2.3,22.8,12.3,10,26,5.7"/>
	<path fill="none" stroke="#322F84" stroke-linecap="round" stroke-linejoin="round" stroke-miterlimit="10" d="M50.2,68.4
		c-4.3,2-9.1,3.1-14.2,3.1c-5.8,0-11.3-1.5-16.1-4.1"/>
	<path fill="none" stroke="#322F84" stroke-linecap="round" stroke-linejoin="round" stroke-miterlimit="10" d="M46,11.2
		c10.8,4,18.4,14.4,18.4,26.6c0,4.3-1,8.4-2.7,12.1"/>
	<path fill="none" stroke="#322F84" stroke-linecap="round" stroke-linejoin="round" stroke-miterlimit="10" d="M9.9,49.1
		c-1.5-3.4-2.3-7.2-2.3-11.2c0-12.1,7.6-22.5,18.3-26.6"/>
	<path fill="none" stroke="#322F84" stroke-linecap="round" stroke-linejoin="round" stroke-miterlimit="10" d="M48.1,63.6
		c-3.7,1.7-7.7,2.7-12.1,2.7c-4.3,0-8.4-1-12.1-2.7"/>
	<path fill="none" stroke="#322F84" stroke-linecap="round" stroke-linejoin="round" stroke-miterlimit="10" d="M32.6,26.3
		c1.1-0.3,2.2-0.5,3.4-0.5s2.4,0.2,3.4,0.5L44,11.2c1.1-3.7-0.5-7.6-3.8-9.5c-2.6-1.5-5.8-1.5-8.4,0c-3.3,1.9-4.8,5.9-3.8,9.5
		L32.6,26.3z"/>
	<path fill="none" stroke="#322F84" stroke-linecap="round" stroke-linejoin="round" stroke-miterlimit="10" d="M60.5,51.1
		l-13.9-7.5c-1.1,2.1-2.8,3.8-4.9,4.9l7.5,13.9c1.8,3.4,5.7,5.1,9.4,4.1c2.9-0.8,5.2-3,6-6C65.5,56.8,63.8,52.9,60.5,51.1z"/>
	<path fill="none" stroke="#322F84" stroke-linecap="round" stroke-linejoin="round" stroke-miterlimit="10" d="M25.4,43.6
		l-13.9,7.5c-3.4,1.8-5.1,5.7-4.1,9.4c0.8,2.9,3,5.2,6,6c3.7,1,7.6-0.7,9.4-4.1l7.5-13.9C28.2,47.3,26.5,45.6,25.4,43.6z"/>
	
		<circle fill="none" stroke="#322F84" stroke-linecap="round" stroke-linejoin="round" stroke-miterlimit="10" cx="36" cy="37.8" r="12.1"/>
	
		<circle fill="none" stroke="#322F84" stroke-linecap="round" stroke-linejoin="round" stroke-miterlimit="10" cx="36" cy="37.8" r="6.9"/>
</g>
</svg>
