<?xml version="1.0" encoding="utf-8"?>
<!-- Generator: Adobe Illustrator 19.1.0, SVG Export Plug-In . SVG Version: 6.00 Build 0)  -->
<svg version="1.1" id="Layer_1" xmlns="http://www.w3.org/2000/svg" xmlns:xlink="http://www.w3.org/1999/xlink" x="0px" y="0px"
	 viewBox="0 0 72 72" enable-background="new 0 0 72 72" xml:space="preserve">
<line fill="none" stroke="#322F84" stroke-linecap="round" stroke-linejoin="round" stroke-miterlimit="10" x1="0.5" y1="60.2" x2="71.5" y2="60.2"/>
<polyline fill="none" stroke="#322F84" stroke-linecap="round" stroke-linejoin="round" stroke-miterlimit="10" points="58.3,37.6 
	65.5,37.6 65.5,60.2 "/>
<line fill="none" stroke="#322F84" stroke-linecap="round" stroke-linejoin="round" stroke-miterlimit="10" x1="25" y1="37.6" x2="45.8" y2="37.6"/>
<path fill="none" stroke="#322F84" stroke-linecap="round" stroke-linejoin="round" stroke-miterlimit="10" d="M25,37.6"/>
<path fill="none" stroke="#322F84" stroke-linecap="round" stroke-linejoin="round" stroke-miterlimit="10" d="M12.6,37.6"/>
<polyline fill="none" stroke="#322F84" stroke-linecap="round" stroke-linejoin="round" stroke-miterlimit="10" points="6.2,60.2 
	6.2,37.6 12.6,37.6 "/>
<path fill="none" stroke="#322F84" stroke-linecap="round" stroke-linejoin="round" stroke-miterlimit="10" d="M5.4,37.6h-1V25.2
	c0-3.6,2.9-6.5,6.5-6.5h49.7c3.6,0,6.5,2.9,6.5,6.5v12.4h-1.7"/>
<path fill="none" stroke="#322F84" stroke-linecap="round" stroke-linejoin="round" stroke-miterlimit="10" d="M20.1,45.1H17
	c-0.9,0-1.7-0.8-1.7-1.7V32.2c0-0.9,0.8-1.7,1.7-1.7h3.1c0.9,0,1.7,0.8,1.7,1.7v11.2C21.8,44.4,21.1,45.1,20.1,45.1z"/>
<path fill="none" stroke="#322F84" stroke-linecap="round" stroke-linejoin="round" stroke-miterlimit="10" d="M53.4,45.1h-3.1
	c-0.9,0-1.7-0.8-1.7-1.7V32.2c0-0.9,0.8-1.7,1.7-1.7h3.1c0.9,0,1.7,0.8,1.7,1.7v11.2C55.1,44.4,54.3,45.1,53.4,45.1z"/>
<line fill="none" stroke="#322F84" stroke-linecap="round" stroke-linejoin="round" stroke-miterlimit="10" x1="18.4" y1="35.9" x2="18.4" y2="41.5"/>
<line fill="none" stroke="#322F84" stroke-linecap="round" stroke-linejoin="round" stroke-miterlimit="10" x1="51.8" y1="35.9" x2="51.8" y2="41.5"/>
<path fill="none" stroke="#322F84" stroke-linecap="round" stroke-linejoin="round" stroke-miterlimit="10" d="M23.8,18.6v-4.1
	c0-1.5,1.2-2.7,2.7-2.7h19.4c1.5,0,2.7,1.2,2.7,2.7v4.1"/>
<line fill="none" stroke="#322F84" stroke-linecap="round" stroke-linejoin="round" stroke-miterlimit="10" x1="15.3" y1="40.6" x2="21.8" y2="40.6"/>
<line fill="none" stroke="#322F84" stroke-linecap="round" stroke-linejoin="round" stroke-miterlimit="10" x1="48.5" y1="40.6" x2="55.1" y2="40.6"/>
</svg>
