<?xml version="1.0" encoding="UTF-8"?>
<svg width="79px" height="14px" viewBox="0 0 79 14" version="1.1" xmlns="http://www.w3.org/2000/svg" xmlns:xlink="http://www.w3.org/1999/xlink">
    <!-- Generator: Sketch 46.2 (44496) - http://www.bohemiancoding.com/sketch -->
    <title>divio</title>
    <desc>Created with Sketch.</desc>
    <defs></defs>
    <g id="Symbols" stroke="none" stroke-width="1">
        <g id="Logo/-Divio">
            <g id="divio">
                <polygon id="Fill-1" points="22.7198151 13.8195848 26.0187384 13.8195848 26.0187384 0.206587717 22.7198151 0.206587717"></polygon>
                <polyline id="Fill-3" points="38.4475836 13.8214601 30.2177773 0.206587717 33.9765097 0.206587717 39.7314983 10.0933566 45.1635705 0.206587717 48.6045121 0.206587717 40.7302515 13.8214601 38.4475836 13.8214601"></polyline>
                <polygon id="Fill-4" points="52.772172 13.8195848 56.0717204 13.8195848 56.0717204 0.206587717 52.772172 0.206587717"></polygon>
                <path d="M75.0394048,10.1458633 C75.0394048,10.7536913 74.4036982,11.2456295 73.6199726,11.2456295 L65.5446862,11.2456295 C64.7610856,11.2456295 64.1255041,10.7536913 64.1255041,10.1458633 L64.1255041,3.8203015 C64.1255041,3.21372365 64.7610856,2.72103542 65.5446862,2.72103542 L73.6199726,2.72103542 C74.4036982,2.72103542 75.0394048,3.21372365 75.0394048,3.8203015 L75.0394048,10.1458633 Z M77.4055834,1.08407533 C76.9136453,0.654645221 76.2084298,0.212338455 74.838879,0.212338455 L64.3291552,0.212338455 C62.9556039,0.212338455 62.2512635,0.654645221 61.7597004,1.08407533 C61.265512,1.51188024 60.7920763,2.14383634 60.7920763,3.43037646 L60.7920763,10.6095478 C60.7920763,11.8742101 61.265512,12.5019157 61.7597004,12.9412221 C62.2512635,13.3805285 62.9556039,13.8270858 64.3291552,13.8270858 L74.838879,13.8270858 C76.1883022,13.8270858 76.8873919,13.3805285 77.3908315,12.9412221 C77.8965214,12.5019157 78.3733326,11.8742101 78.3733326,10.6095478 L78.3733326,3.43037646 C78.3733326,2.14383634 77.8998969,1.51188024 77.4055834,1.08407533 L77.4055834,1.08407533 Z" id="Fill-5"></path>
                <path d="M14.7037863,10.1458633 C14.7037863,10.7536913 14.0680797,11.2456295 13.2844791,11.2456295 L3.78888545,11.2456295 L3.78988558,10.1458633 L3.78988558,3.8203015 L3.79301098,2.72103542 L13.2844791,2.72103542 C14.0680797,2.72103542 14.7037863,3.21372365 14.7037863,3.8203015 L14.7037863,10.1458633 Z M0.456457768,0.211088295 L0.456457768,13.8270858 L0.455332624,13.8270858 L14.5032605,13.8270858 C15.8526837,13.8270858 16.5517734,13.3805285 17.0552131,12.9412221 C17.561028,12.5019157 18.0377142,11.8742101 18.0377142,10.6095478 L18.0377142,3.43037646 C18.0377142,2.14383634 17.5642784,1.51188024 17.0699649,1.08407533 C16.5780268,0.654645221 15.8728113,0.212338455 14.5032605,0.212338455 L0.456457768,0.212338455 L0.456457768,0.211088295 L0.456457768,0.211088295 Z" id="Fill-6"></path>
            </g>
        </g>
    </g>
</svg>
