<?xml version="1.0" encoding="utf-8"?>
<!-- Generator: Adobe Illustrator 19.1.0, SVG Export Plug-In . SVG Version: 6.00 Build 0)  -->
<svg version="1.1" id="Layer_1" xmlns="http://www.w3.org/2000/svg" xmlns:xlink="http://www.w3.org/1999/xlink" x="0px" y="0px"
	 viewBox="0 0 72 72" enable-background="new 0 0 72 72" xml:space="preserve">
<g>
	<path fill="none" stroke="#322F84" stroke-linecap="round" stroke-linejoin="round" stroke-miterlimit="10" d="M6.9,71.5V3.2
		c0-1.5,1.2-2.7,2.7-2.7h0c1.5,0,2.7,1.2,2.7,2.7v68.3"/>
	<path fill="none" stroke="#322F84" stroke-linecap="round" stroke-linejoin="round" stroke-miterlimit="10" d="M13.5,6.8h22.2
		c1.5,0,2.7,1.2,2.7,2.7v4.2"/>
	<path fill="none" stroke="#322F84" stroke-linecap="round" stroke-linejoin="round" stroke-miterlimit="10" d="M40.3,13.7h22.2
		c1.5,0,2.7,1.2,2.7,2.7v4.2"/>
	<path fill="none" stroke="#322F84" stroke-linecap="round" stroke-linejoin="round" stroke-miterlimit="10" d="M38.4,52.6h22.2
		c1.5,0,2.7-1.2,2.7-2.7v-4.2"/>
	<path fill="none" stroke="#322F84" stroke-linecap="round" stroke-linejoin="round" stroke-miterlimit="10" d="M12.3,49.8h22.2
		c1.5,0,2.7-1.2,2.7-2.7v-4.2"/>
	<path fill="none" stroke="#322F84" stroke-linecap="round" stroke-linejoin="round" stroke-miterlimit="10" d="M26.1,23.2h-9.2
		V10.2h9.2c3.6,0,6.5,2.9,6.5,6.5v0C32.6,20.3,29.7,23.2,26.1,23.2z"/>
</g>
</svg>
