<?xml version="1.0" encoding="utf-8"?>
<!-- Generator: Adobe Illustrator 19.1.0, SVG Export Plug-In . SVG Version: 6.00 Build 0)  -->
<svg version="1.1" id="Layer_1" xmlns="http://www.w3.org/2000/svg" xmlns:xlink="http://www.w3.org/1999/xlink" x="0px" y="0px"
	 viewBox="0 0 72 72" enable-background="new 0 0 72 72" xml:space="preserve">
<path fill="none" stroke="#322F84" stroke-linecap="round" stroke-linejoin="round" stroke-miterlimit="10" d="M45.1,36V4.4
	c0-2.1-1.7-3.9-3.9-3.9c-2.1,0-3.9,1.7-3.9,3.9v18.4c0,0.5-0.4,0.9-0.9,0.9h-7c-8.3,0-15.1,6.8-15.1,15.1c0,8.3,6.8,15.1,15.1,15.1
	h11.8c2.1,0,3.9-1.7,3.9-3.9v-6.1 M36.9,44.1c0,0.8-0.7,1.5-1.5,1.5h-6c-4,0-7.3-3.5-6.9-7.6c0.3-3.6,3.6-6.2,7.2-6.2h5.7
	c0.8,0,1.5,0.7,1.5,1.5V44.1z"/>
<path fill="none" stroke="#322F84" stroke-linecap="round" stroke-linejoin="round" stroke-miterlimit="10" d="M46.1,63.7h-0.7
	c-1.7,0-3-1.3-3-3v0c0-2.2-1.8-4-4-4h0c-2.2,0-4,1.8-4,4v0c0,6,4.8,10.8,10.8,10.8h0.9c6.4,0,11.7-5.2,11.7-11.7V36.7
	c0-2.2-1.8-4-4-4h0c-2.2,0-4,1.8-4,4v22.3"/>
<path fill="none" stroke="#322F84" stroke-linecap="round" stroke-linejoin="round" stroke-miterlimit="10" d="M50.1,25.9v-0.2
	c0-2.1,1.7-3.8,3.8-3.8h0c2.1,0,3.8,1.7,3.8,3.8v0.2c0,2.1-1.7,3.8-3.8,3.8h0C51.8,29.7,50.1,28,50.1,25.9z"/>
</svg>
