<?xml version="1.0" encoding="UTF-8"?>
<svg width="14px" height="17px" viewBox="0 0 14 17" version="1.1" xmlns="http://www.w3.org/2000/svg" xmlns:xlink="http://www.w3.org/1999/xlink">
    <!-- Generator: Sketch 46.2 (44496) - http://www.bohemiancoding.com/sketch -->
    <title>downloadIcon</title>
    <desc>Created with Sketch.</desc>
    <defs></defs>
    <g id="Symbols" stroke="none" stroke-width="1">
        <g id="Icon/-downloadIcon" transform="translate(-1.000000, -1.000000)">
            <g id="downloadIcon" transform="translate(0.932555, 0.816865)">
                <path d="M1.06744459,10.7742841 C0.515159842,10.7742841 0.0674445913,11.2162241 0.0674445913,11.7716152 L0.0674445913,13.7694026 C0.0674445913,15.4286384 1.41679135,16.7742841 3.07597479,16.7742841 L11.0589144,16.7742841 C12.7210746,16.7742841 14.0674446,15.4320806 14.0674446,13.7694026 L14.0674446,11.7716152 C14.0674446,11.2208044 13.6235798,10.7742841 13.0674446,10.7742841 L13.0674446,10.7742841 C12.5151598,10.7742841 12.0674446,11.2162241 12.0674446,11.7716152 L12.0674446,13.7694026 C12.0674446,14.326121 11.6178903,14.7742841 11.0589144,14.7742841 L3.07597479,14.7742841 C2.52013302,14.7742841 2.06744459,14.3228373 2.06744459,13.7694026 L2.06744459,11.7716152 C2.06744459,11.2208044 1.62357977,10.7742841 1.06744459,10.7742841 L1.06744459,10.7742841 Z" id="Path-2"></path>
                <path d="M9.27083428,7.16229357 L6.68682507,9.74630278 C6.29531924,10.1378086 6.29180089,10.7690466 6.68504785,11.1622936 C7.07557214,11.5528179 7.71534545,11.5462095 8.10342431,11.1581307 L12.3879917,6.87356325 C12.7808151,6.48073985 12.7760706,5.83910274 12.3879917,5.45102388 L8.10342431,1.16645647 C7.71060091,0.77363307 7.0782948,0.769046611 6.68504785,1.16229357 C6.29452355,1.55281786 6.30060578,2.19206506 6.68682507,2.57828435 L9.27083428,5.16229357 L2.44945398,5.16229357 C1.89971108,5.16229357 1.45405641,5.60615839 1.45405641,6.16229357 C1.45405641,6.71457832 1.9097208,7.16229357 2.44945398,7.16229357 L9.27083428,7.16229357 Z" id="Combined-Shape" transform="translate(7.067445, 6.160896) rotate(90.000000) translate(-7.067445, -6.160896) "></path>
            </g>
        </g>
    </g>
</svg>
