<?xml version="1.0" encoding="UTF-8"?>
<svg width="19px" height="15px" viewBox="0 0 19 15" version="1.1" xmlns="http://www.w3.org/2000/svg" xmlns:xlink="http://www.w3.org/1999/xlink">
    <!-- Generator: Sketch 46.2 (44496) - http://www.bohemiancoding.com/sketch -->
    <title>Icon/ email</title>
    <desc>Created with Sketch.</desc>
    <defs></defs>
    <g id="Symbols" stroke="none" stroke-width="1">
        <g id="Icon/-email">
            <path d="M2.43712227,2.00316548 L16.1486225,1.97881923 L9.30145091,8.12907021 L2.43712227,2.00316548 Z M12.0427463,9.28979535 L16.2899807,13.3591917 L2.29616101,13.3838908 L6.57541606,9.28979535 C6.82778788,9.09405502 6.87374584,8.7307578 6.67800552,8.47834188 C6.48226519,8.22592595 6.11896797,8.1800121 5.86655205,8.37570832 L1.18104099,12.7848937 L1.16697133,2.53141737 L8.97357043,9.30854019 C9.07254323,9.37694787 9.18743812,9.41108554 9.30237713,9.41108554 C9.41780129,9.41108554 9.53331366,9.37655092 9.63246288,9.30761398 L17.4200084,2.5037191 L17.4348279,12.7832176 L12.7515662,8.37570832 C12.4993267,8.1800121 12.1358971,8.22592595 11.9401127,8.47834188 C11.7443724,8.7307137 11.7902862,9.09405502 12.0427463,9.28979535 Z M17.4192145,0.820387586 C17.4186852,0.820387586 1.16467784,0.848218173 1.16467784,0.848218173 C0.855718629,0.848615122 0.565416056,0.969331947 0.347181913,1.18809536 C0.129035981,1.40690287 0.00915716058,1.69755829 0.00955411032,2.00647339 L0.0252115721,13.3869341 C0.0256526274,13.6958933 0.146325347,13.98624 0.365132862,14.20443 C0.583499322,14.4222672 0.873493156,14.5421019 1.1819231,14.5421019 C1.18245237,14.5421019 17.4365039,14.5142713 17.4365039,14.5142713 C18.0741816,14.5133892 18.5923774,13.9938702 18.5916276,13.3560161 L18.5759701,1.97546721 C18.5750439,1.33818646 18.0563188,0.820387586 17.4192145,0.820387586 Z" id="emailIcon"></path>
        </g>
    </g>
</svg>
