<svg viewBox="0 0 16 16" width="16" xmlns="http://www.w3.org/2000/svg"><g><path d="m13.5445393 15.9999086h-13.08926067c-.28454914 0-.45527863-.1714275-.45527863-.3999974v-13.14277133c0-.22856993.17072949-.45713987.45527863-.45713987h7.5120974c.22763932 0 .39836881.17142745.39836881.45713987s-.17072949.39999739-.39836881.39999739h-7.11363754v12.28572544h12.23570421v-7.14271903c0-.22856993.1707295-.45713987.4552787-.45713987.2845491 0 .4552786.17142745.4552786.45713987v7.59985893c-.0569098.2285699-.2276393.3999974-.4552786.3999974z"/><path d="m5.42308051 11c-.11671186 0-.23342373-.0581242-.29177966-.1162483-.1750678-.1743726-.1750678-.4649934 0-.639366l10.09548305-10.11360631c.1750678-.17437252.4668475-.17437252.6419153 0 .1750677.17437253.1750677.4649934 0 .63936592l-10.15393239 10.05538919c-.05835593.1162483-.1750678.1743725-.29177967.1743725z"/><path d="m15.5408238 5c-.0510196 0-.0510196 0 0 0-.2040783 0-.4081566-.20618217-.4081566-.41236433l.1020392-3.86599809-3.8265498.15463663c-.2040783 0-.4081566-.15463663-.4081566-.36081879 0-.20618217.1530587-.41236434.357137-.41236434l4.2347064-.10309108c.1020391 0 .2040783.05154554.2550979.10309108.0510195.05154555.1530587.20618217.1530587.30927325l-.1020392 4.22673441c0 .20618216-.1530587.36081879-.357137.36081879z"/></g></svg>
