<?xml version="1.0" encoding="utf-8"?>
<!-- Generator: Adobe Illustrator 19.1.0, SVG Export Plug-In . SVG Version: 6.00 Build 0)  -->
<svg version="1.1" id="Layer_1" xmlns="http://www.w3.org/2000/svg" xmlns:xlink="http://www.w3.org/1999/xlink" x="0px" y="0px"
	 viewBox="0 0 72 72" enable-background="new 0 0 72 72" xml:space="preserve">
<polyline fill="none" stroke="#322F84" stroke-linecap="round" stroke-linejoin="round" stroke-miterlimit="10" points="24.4,61.6 
	0.5,61.6 0.5,10.4 63.4,10.4 71.5,10.4 71.5,13.4 71.5,61.6 34.8,61.6 "/>
<line fill="none" stroke="#322F84" stroke-linecap="round" stroke-linejoin="round" stroke-miterlimit="10" x1="6.7" y1="14.6" x2="64.1" y2="14.6"/>
<line fill="none" stroke="#322F84" stroke-linecap="round" stroke-linejoin="round" stroke-miterlimit="10" x1="53.8" y1="24.1" x2="41.1" y2="24.1"/>
<polyline fill="none" stroke="#322F84" stroke-linecap="round" stroke-linejoin="round" stroke-miterlimit="10" points="29.5,24.1 
	3.7,24.1 3.7,20.1 53.8,20.1 "/>
<polyline fill="none" stroke="#322F84" stroke-linecap="round" stroke-linejoin="round" stroke-miterlimit="10" points="53.5,30.9 
	3.7,30.9 3.7,26.9 43.9,26.9 "/>
<line fill="none" stroke="#322F84" stroke-linecap="round" stroke-linejoin="round" stroke-miterlimit="10" x1="48.8" y1="26.9" x2="53.8" y2="26.9"/>
<line fill="none" stroke="#322F84" stroke-linecap="round" stroke-linejoin="round" stroke-miterlimit="10" x1="53.9" y1="37.8" x2="39.5" y2="37.8"/>
<polyline fill="none" stroke="#322F84" stroke-linecap="round" stroke-linejoin="round" stroke-miterlimit="10" points="20.6,37.8 
	3.7,37.8 3.7,33.8 53.5,33.8 "/>
<polyline fill="none" stroke="#322F84" stroke-linecap="round" stroke-linejoin="round" stroke-miterlimit="10" points="53.5,44.7 
	3.7,44.7 3.7,40.6 49.2,40.6 "/>
<line fill="none" stroke="#322F84" stroke-linecap="round" stroke-linejoin="round" stroke-miterlimit="10" x1="53.9" y1="51.5" x2="43.1" y2="51.5"/>
<polyline fill="none" stroke="#322F84" stroke-linecap="round" stroke-linejoin="round" stroke-miterlimit="10" points="30.5,51.5 
	3.7,51.5 3.7,47.5 53.5,47.5 "/>
<polyline fill="none" stroke="#322F84" stroke-linecap="round" stroke-linejoin="round" stroke-miterlimit="10" points="53.8,58.4 
	3.7,58.4 3.7,54.4 11.2,54.4 "/>
<line fill="none" stroke="#322F84" stroke-linecap="round" stroke-linejoin="round" stroke-miterlimit="10" x1="23.4" y1="54.4" x2="53.5" y2="54.4"/>
<rect x="55.6" y="20.1" fill="none" stroke="#322F84" stroke-linecap="round" stroke-linejoin="round" stroke-miterlimit="10" width="12.7" height="4"/>
<rect x="55.6" y="26.9" fill="none" stroke="#322F84" stroke-linecap="round" stroke-linejoin="round" stroke-miterlimit="10" width="12.7" height="4"/>
<rect x="55.6" y="33.8" fill="none" stroke="#322F84" stroke-linecap="round" stroke-linejoin="round" stroke-miterlimit="10" width="12.7" height="4"/>
<rect x="55.6" y="40.6" fill="none" stroke="#322F84" stroke-linecap="round" stroke-linejoin="round" stroke-miterlimit="10" width="12.7" height="4"/>
<rect x="55.6" y="47.5" fill="none" stroke="#322F84" stroke-linecap="round" stroke-linejoin="round" stroke-miterlimit="10" width="12.7" height="4"/>
<rect x="55.6" y="54.4" fill="none" stroke="#322F84" stroke-linecap="round" stroke-linejoin="round" stroke-miterlimit="10" width="12.7" height="4"/>
</svg>
