<?xml version="1.0" encoding="UTF-8"?>
<svg width="61px" height="61px" viewBox="0 0 61 61" version="1.1" xmlns="http://www.w3.org/2000/svg" xmlns:xlink="http://www.w3.org/1999/xlink">
    <!-- Generator: Sketch 46.2 (44496) - http://www.bohemiancoding.com/sketch -->
    <title>find-agency</title>
    <desc>Created with Sketch.</desc>
    <defs></defs>
    <g id="Symbols" stroke="none" stroke-width="1" fill="none" fill-rule="evenodd">
        <g id="UI/-DropdownAgency" transform="translate(-27.000000, -130.000000)" fill="#FFFFFF">
            <g id="Group-16">
                <g id="AGENCIES" transform="translate(26.000000, 47.000000)">
                    <g id="find-agency" transform="translate(0.807658, 83.439995)">
                        <path d="M24.8434139,48.0085629 C25.3297989,48.0132543 26.6709239,48.0071358 26.6709239,48.0071358 C27.2272201,48.0053498 28.1175957,48.0036704 28.6698804,48.0036704 C29.2260156,48.0036704 29.6698804,47.5559288 29.6698804,47.0036116 L29.6698804,36.9541569 C29.6698804,35.8448735 28.7688631,34.9537948 27.6605116,34.9537948 L25.1251968,34.9537948 L25.1251968,29.3033992 C25.1251968,28.7669017 24.6741308,28.3115961 24.1177128,28.3115961 L14.1326807,28.3115961 C13.574117,28.3115961 13.1251968,28.7556415 13.1251968,29.3033992 L13.1251968,34.9945304 C13.0353997,34.9680212 12.9401452,34.9537948 12.8412911,34.9537948 L10.8464969,34.9537948 C9.73814533,34.9537948 8.837128,35.8448735 8.837128,36.9541569 L8.837128,47.0036116 C8.837128,47.5559288 9.28099282,48.0036704 9.837128,48.0036704 C10.3894127,48.0036704 11.2797883,48.0053498 11.8360846,48.0071358 C11.8360846,48.0071358 12.8260478,48.0116522 13.4133616,48.0099491 C13.5962003,48.1948569 13.8509345,48.3115961 14.1326807,48.3115961 L24.1177128,48.3115961 C24.4034429,48.3115961 24.6604817,48.1953994 24.8434139,48.0085629 Z M25.1251968,46.1593813 L25.1251968,36.9540166 C25.9588291,36.954141 27.6698804,36.9543704 27.6698804,36.9541569 L27.6698804,46.0648629 C27.6698804,46.1699967 25.9643242,46.167146 25.1251968,46.1593813 Z M13.1251968,46.16135 C12.2380045,46.166732 10.837128,46.1601446 10.837128,46.0648629 L10.837128,36.9541569 C10.837128,36.9544391 12.8381714,36.953993 12.8381714,36.953993 C12.9379381,36.9539732 13.0342889,36.9394396 13.1251968,36.9123533 L13.1251968,46.16135 Z M49.2342313,31.3853706 C49.7206164,31.390062 51.0617414,31.3839436 51.0617414,31.3839436 C51.6180376,31.3821576 52.5084132,31.3804782 53.0606979,31.3804782 C53.6168331,31.3804782 54.0606979,30.9327366 54.0606979,30.3804193 L54.0606979,20.3309647 C54.0606979,19.2216813 53.1596806,18.3306025 52.051329,18.3306025 L49.5160143,18.3306025 L49.5160143,12.680207 C49.5160143,12.1437095 49.0649483,11.6884039 48.5085303,11.6884039 L38.5234982,11.6884039 C37.9649345,11.6884039 37.5160143,12.1324493 37.5160143,12.680207 L37.5160143,18.3713381 C37.4262172,18.344829 37.3309627,18.3306025 37.2321086,18.3306025 L35.2373144,18.3306025 C34.1289628,18.3306025 33.2279455,19.2216813 33.2279455,20.3309647 L33.2279455,30.3804193 C33.2279455,30.9327366 33.6718103,31.3804782 34.2279455,31.3804782 C34.7802302,31.3804782 35.6706058,31.3821576 36.2269021,31.3839436 C36.2269021,31.3839436 37.2168653,31.38846 37.8041791,31.3867569 C37.9870178,31.5716646 38.241752,31.6884039 38.5234982,31.6884039 L48.5085303,31.6884039 C48.7942604,31.6884039 49.0512992,31.5722072 49.2342313,31.3853706 Z M49.5160143,29.5361891 L49.5160143,20.3308244 C50.3496466,20.3309488 52.0606979,20.3311782 52.0606979,20.3309647 L52.0606979,29.4416707 C52.0606979,29.5468045 50.3551417,29.5439538 49.5160143,29.5361891 Z M37.5160143,29.5381577 C36.628822,29.5435398 35.2279455,29.5369523 35.2279455,29.4416707 L35.2279455,20.3309647 C35.2279455,20.3312469 37.2289889,20.3308008 37.2289889,20.3308008 C37.3287556,20.330781 37.4251064,20.3162474 37.5160143,20.2891611 L37.5160143,29.5381577 Z M0.448912972,8.52651283e-14 L60.448913,8.52651283e-14 L60.448913,60 L0.448912972,60 L0.448912972,8.52651283e-14 Z M18.109749,21.0072749 C18.7073374,20.4418181 18.7337202,19.4901751 18.1744873,18.8866929 C17.6011788,18.2816374 16.6598554,18.246521 16.0585991,18.8191215 C15.5194153,19.3228408 15.4323727,20.1317366 15.8189925,20.7270788 C15.8679317,20.8024386 15.9268873,20.8712936 15.9916857,20.9363542 C16.5509186,21.5398364 17.5014237,21.5689902 18.109749,21.0072749 Z M36.3324038,46.7179477 C36.0025227,45.9538316 35.115143,45.6028136 34.3634202,45.9235773 C33.5988684,46.2538597 33.2541956,47.1319006 33.5675403,47.892508 C33.6063215,47.974181 33.6484456,48.0536832 33.6929167,48.1221628 C34.0844796,48.7251167 34.8556588,48.9758743 35.5356882,48.6874211 C36.2982751,48.359602 36.6554836,47.4734203 36.3324038,46.7179477 Z M20.5314762,17.3510651 C20.5579646,17.4266203 20.5989948,17.511759 20.6413637,17.5770014 C21.0340904,18.1817475 21.8188611,18.4331945 22.4955644,18.1376304 C22.5816511,18.1055089 22.6560382,18.0572014 22.7312612,18.008351 C23.3255222,17.6224334 23.572131,16.8439039 23.2810804,16.1743176 C22.9507975,15.4077224 22.0727208,15.049193 21.3113097,15.3771722 C21.2295685,15.4159853 21.1500001,15.4581441 21.0747772,15.5069944 C20.4815184,15.9017747 20.2355369,16.6739509 20.5314762,17.3510651 Z M38.9703343,42.8982789 C38.8951926,42.9470765 38.8265433,43.0058715 38.7583416,43.072667 C38.2243428,43.5627704 38.1336529,44.3809084 38.5204909,44.9765867 C38.5691838,45.0515671 38.6278955,45.1200413 38.6919106,45.1838869 C39.1849356,45.7200823 39.9862661,45.8061393 40.5942325,45.420797 C40.6693742,45.3719994 40.7335083,45.3208744 40.7956653,45.2520821 C41.4078846,44.6886768 41.4453726,43.7392632 40.8734443,43.1382305 C40.3759509,42.6061214 39.570446,42.5227754 38.9703343,42.8982789 Z M26.0233639,15.5310126 C26.0383834,15.7956665 26.1240065,16.0501072 26.259658,16.2589921 C26.541813,16.6934728 27.0452868,16.9747241 27.6046201,16.9357887 L27.5945907,16.9423019 C28.4278366,16.9024845 29.0606004,16.1898332 29.0131351,15.3665488 C28.9740713,14.5342447 28.2626742,13.8962248 27.4359396,13.9460686 C26.6086624,13.9950769 25.9745639,14.7038432 26.0233639,15.5310126 Z M41.985729,40.376156 C42.1257504,40.5917701 42.3265,40.7726994 42.5592382,40.8948341 C43.3046411,41.2698028 44.2149512,40.9756803 44.5806995,40.2367574 C44.9588162,39.5040604 44.6617073,38.6015224 43.9255063,38.220578 C43.186616,37.8556378 42.2783177,38.1437012 41.9048815,38.8781114 C41.6555554,39.3750865 41.707857,39.9482707 41.985729,40.376156 Z" id="Combined-Shape"></path>
                        <polygon id="Rectangle" points="39.5160143 29.6884039 47.5160143 29.6884039 47.5160143 13.6884039 39.5160143 13.6884039"></polygon>
                        <polygon id="Rectangle" points="15.1251968 46.3115961 23.1251968 46.3115961 23.1251968 30.3115961 15.1251968 30.3115961"></polygon>
                    </g>
                </g>
            </g>
        </g>
    </g>
</svg>