<?xml version="1.0" encoding="UTF-8"?>
<svg width="27px" height="38px" viewBox="0 0 27 38" version="1.1" xmlns="http://www.w3.org/2000/svg" xmlns:xlink="http://www.w3.org/1999/xlink">
    <!-- Generator: Sketch 47 (45396) - http://www.bohemiancoding.com/sketch -->
    <title>fingerprints</title>
    <desc>Created with Sketch.</desc>
    <defs>
        <linearGradient x1="95.2271468%" y1="13.5094211%" x2="33.0671845%" y2="111.690719%" id="fingerprint-gradient">
            <stop stop-color="#8834F8" offset="0%"></stop>
            <stop stop-color="#00A3FF" offset="100%"></stop>
        </linearGradient>
    </defs>
    <g id="Symbols" stroke="none" stroke-width="1" fill="none" fill-rule="evenodd">
        <g id="Icon-/-security" transform="translate(-28.000000, -23.000000)" fill="url(#fingerprint-gradient)">
            <g id="fingerprints" transform="translate(28.663552, 22.884424)">
                <path d="M6.14002098,34.2778372 C6.43662747,34.4967346 6.4996619,34.9140737 6.28076454,35.2106802 C6.15002645,35.3878881 5.94813838,35.481606 5.74358219,35.481606 C5.60595144,35.481606 5.46743132,35.4394718 5.34792159,35.3517573 C3.72603555,34.155437 2.38063388,32.5785756 1.45824109,30.792044 C0.504164316,28.945035 0,26.863231 0,24.7705322 L0,13.2467923 C0,12.8715874 0.0161199175,12.4924914 0.0478038932,12.1203992 C0.0790431816,11.7534209 0.402108562,11.4814946 0.768642134,11.5124004 C1.13606508,11.5436397 1.40832493,11.8662604 1.37708564,12.2332386 C1.3484033,12.5680882 1.33406214,12.9089411 1.33406214,13.2467923 L1.33406214,24.7705322 C1.33406214,28.5046833 3.13059915,32.058736 6.14002098,34.2778372 Z M9.25249912,35.9210683 C9.60024465,36.0422456 9.78401171,36.4226756 9.6628344,36.7705323 C9.5668931,37.045905 9.30886325,37.2182214 9.03315707,37.2182214 C8.96022834,37.2182214 8.88596555,37.2061036 8.81337034,37.1808676 C8.35612054,37.0211137 7.90231707,36.834345 7.46541172,36.6246749 C7.13323025,36.4652544 6.99293138,36.0670369 7.1523518,35.7348554 C7.31132754,35.4025628 7.70998978,35.2623751 8.04217125,35.4216843 C8.43471903,35.6097871 8.84160798,35.7777678 9.25249912,35.9210683 Z M25.610769,21.7393207 C25.9790814,21.7393207 26.2778001,22.0381506 26.2778001,22.4063518 L26.2778001,24.7709769 C26.2778001,32.015379 20.3835801,37.9095991 13.139178,37.9095991 C12.6271205,37.9095991 12.1111719,37.8801385 11.6061182,37.8209951 C11.2400294,37.7784163 10.977775,37.4475689 11.0207985,37.08148 C11.0629326,36.7153911 11.39378,36.4534702 11.7603136,36.496049 C12.2145618,36.5486333 12.6783707,36.5755369 13.139178,36.5755369 C19.6482895,36.5755369 24.943738,31.2800884 24.943738,24.7709769 L24.943738,22.4063518 C24.943738,22.0381506 25.2425679,21.7393207 25.610769,21.7393207 Z M13.139178,0.108170205 C20.3835801,0.108170205 26.2778001,6.00239024 26.2778001,13.2467923 L26.2778001,19.7382275 C26.2778001,20.1065398 25.9790814,20.4052586 25.610769,20.4052586 C25.2421232,20.4052586 24.943738,20.1065398 24.943738,19.7382275 L24.943738,13.2467923 C24.943738,6.73768082 19.6478448,1.44223234 13.139178,1.44223234 C10.5904523,1.44223234 8.16379325,2.24122439 6.1217888,3.75338382 C4.11947271,5.23597154 2.65945287,7.26652529 1.89992683,9.62548066 C1.78697623,9.976339 1.41132657,10.1692222 1.06046823,10.0562716 C0.709609885,9.94343214 0.516726734,9.56778247 0.629677329,9.21681296 C1.47525038,6.59082282 3.09980455,4.33047687 5.32802183,2.68068669 C7.60137488,0.99798965 10.3020725,0.108170205 13.139178,0.108170205 Z M4.12547599,28.4565459 C4.45554519,28.2936792 4.85598618,28.4291977 5.01885293,28.7596004 C5.75569992,30.2535276 6.89043094,31.5167733 8.29964524,32.4127072 C9.74665797,33.3324319 11.4199054,33.818364 13.139178,33.818364 C14.4397774,33.818364 15.6956857,33.5474382 16.8721062,33.0119234 C17.2072893,32.8595068 17.6029499,33.0075877 17.7553665,33.342882 C17.9082278,33.6781763 17.7601469,34.0737257 17.4244079,34.2261423 C16.0734477,34.841145 14.63166,35.1524261 13.139178,35.1524261 C11.1662113,35.1524261 9.2454953,34.5944546 7.58403208,33.5383221 C5.968594,32.5116501 4.66788342,31.0629698 3.82242154,29.3498117 C3.65955478,29.0197425 3.79507326,28.6198574 4.12547599,28.4565459 Z M19.5527929,32.7288799 C19.3682476,32.7288799 19.1840359,32.651949 19.0520749,32.502534 C18.8084974,32.2259385 18.835401,31.8047084 19.1115518,31.5611309 C21.0657305,29.8400795 22.1865651,27.3648384 22.1865651,24.7709769 L22.1865651,13.247237 C22.1865651,11.3126246 21.5821237,9.46617141 20.4387213,7.90754214 C20.2207133,7.61049098 20.2849706,7.19315187 20.5820218,6.97514388 C20.879073,6.75713589 21.2963009,6.82150439 21.5143089,7.11844439 C22.8266925,8.90764406 23.5206272,11.0269129 23.5206272,13.247237 L23.5206272,24.7709769 C23.5206272,27.7478254 22.2352583,30.5879325 19.9935892,32.5621222 C19.8667422,32.6736275 19.7095452,32.7288799 19.5527929,32.7288799 Z M18.2795417,5.80528256 C17.8396348,5.50044936 17.3701561,5.23330342 16.8842239,5.01140442 C16.5493743,4.85809844 16.4017381,4.46254902 16.5545994,4.12769942 C16.7079054,3.79240514 17.1031213,3.64476893 17.4387491,3.7980749 C17.9959424,4.05254726 18.5344588,4.3591592 19.0395125,4.70923934 C19.3425669,4.91890944 19.4177191,5.33458097 19.2079378,5.63719073 C19.0780891,5.82395943 18.8705313,5.92423643 18.6590824,5.92423643 C18.5278996,5.92423643 18.395494,5.8856598 18.2795417,5.80528256 Z M14.8757934,3.01031121 C15.2392141,3.07201159 15.483681,3.41642196 15.4220918,3.77939803 C15.3608361,4.14248528 15.0177598,4.38739685 14.6534497,4.32569648 C14.156178,4.24187291 13.6467886,4.19940526 13.139178,4.19940526 C8.14989677,4.19940526 4.09123506,8.2579558 4.09123506,13.247237 L4.09123506,24.4521361 C4.09123506,24.8204484 3.79240514,25.1191671 3.42420399,25.1191671 C3.05589167,25.1191671 2.75717292,24.8204484 2.75717292,24.4521361 L2.75717292,13.247237 C2.75717292,7.5223317 7.41460618,2.86534313 13.139178,2.86534313 C13.7210514,2.86534313 14.305593,2.91392522 14.8757934,3.01031121 Z M6.81839158,8.98579787 C8.24283643,6.87964727 10.6055716,5.62240488 13.139178,5.62240488 C17.3432525,5.62240488 20.7635654,9.04271785 20.7635654,13.247237 L20.7635654,20.7166509 C20.7635654,21.0848521 20.4651802,21.383682 20.0965344,21.383682 C19.7282221,21.383682 19.4295033,21.0848521 19.4295033,20.7166509 L19.4295033,13.247237 C19.4295033,9.77834195 16.6076284,6.95646701 13.139178,6.95646701 C11.0490361,6.95646701 9.09919315,7.99436735 7.92355089,9.73320618 C7.71732712,10.0384841 7.30265614,10.1184166 6.99726708,9.91208168 C6.69243388,9.7058579 6.61216781,9.29107575 6.81839158,8.98579787 Z M6.18137691,15.5136974 C5.81306459,15.5136974 5.51434584,15.2149787 5.51434584,14.8466663 L5.51434584,13.247237 C5.51434584,12.8785912 5.81306459,12.580206 6.18137691,12.580206 C6.54957806,12.580206 6.84840798,12.8785912 6.84840798,13.247237 L6.84840798,14.8466663 C6.84840798,15.2149787 6.54957806,15.5136974 6.18137691,15.5136974 Z M5.51434584,24.7709769 L5.51434584,17.5147906 C5.51434584,17.1465895 5.81306459,16.8477596 6.18137691,16.8477596 C6.54957806,16.8477596 6.84840798,17.1465895 6.84840798,17.5147906 L6.84840798,24.7709769 C6.84840798,27.0473316 8.08730702,29.1534822 10.0822858,30.2678688 C10.4041283,30.447189 10.5191911,30.8536332 10.3394262,31.1754757 C10.2173596,31.3939284 9.99023548,31.517218 9.75621875,31.517218 C9.64638097,31.517218 9.53476444,31.4898697 9.43181931,31.4321715 C7.01516575,30.0824342 5.51434584,27.5302621 5.51434584,24.7709769 Z M20.7635654,24.7709769 C20.7635654,28.9750514 17.3432525,32.3953644 13.139178,32.3956979 C12.5250647,32.3956979 11.9140643,32.3218798 11.3221854,32.1769117 C10.9643232,32.0891971 10.7454258,31.7278886 10.8331404,31.3700265 C10.9212997,31.0121643 11.2821635,30.7932669 11.6400257,30.8809815 C12.1277365,31.0009359 12.6323455,31.0616358 13.139178,31.0616358 C16.6076284,31.0616358 19.4295033,28.2394273 19.4295033,24.7709769 L19.4295033,23.5627613 C19.4295033,23.1941155 19.7282221,22.8957303 20.0965344,22.8957303 C20.4651802,22.8957303 20.7635654,23.1941155 20.7635654,23.5627613 L20.7635654,24.7709769 Z M18.0068372,13.3176088 L18.0068372,19.6491789 C18.0068372,20.0179359 17.7080073,20.3162099 17.3398061,20.3162099 C16.9710491,20.3162099 16.6727751,20.0179359 16.6727751,19.6491789 L16.6727751,13.3176088 C16.6727751,11.3668764 15.1180368,9.7501043 13.2073263,9.71408462 C12.2553618,9.69629713 11.3490889,10.0553822 10.6656044,10.7259708 C9.98200877,11.3968928 9.60546973,12.2922709 9.60546973,13.247237 L9.60546973,24.7709769 C9.60546973,25.1391781 9.30675098,25.438008 8.93843866,25.438008 C8.56979282,25.438008 8.27140759,25.1391781 8.27140759,24.7709769 L8.27140759,13.247237 C8.27140759,11.9309624 8.78991308,10.6977331 9.73142743,9.77356156 C10.6724971,8.84994587 11.9145089,8.35523116 13.2328959,8.38002248 C15.8650004,8.42993864 18.0068372,10.6447041 18.0068372,13.3176088 Z M11.0281358,25.5430654 L11.0281358,19.8272762 C11.0281358,19.4589638 11.3269657,19.1602451 11.6951669,19.1602451 C12.0639239,19.1602451 12.362198,19.4589638 12.362198,19.8272762 L12.362198,25.5430654 C12.362198,26.7316036 13.3292818,27.6983539 14.5174865,27.6983539 C15.70558,27.6983539 16.6723304,26.7311589 16.6723304,25.5430654 L16.6723304,22.3173031 C16.6723304,21.949102 16.9710491,21.6502721 17.3393615,21.6502721 C17.7080073,21.6502721 18.0063925,21.949102 18.0063925,22.3173031 L18.0063925,25.5430654 C18.0063925,27.4672277 16.4413153,29.0324161 14.5174865,29.0324161 C12.5936577,29.0324161 11.0281358,27.4668942 11.0281358,25.5430654 Z M14.5826332,25.9534007 C14.2138762,25.9534007 13.9156021,25.6551266 13.9156021,25.2863696 L13.9156021,13.2889265 C13.9156021,12.8581356 13.5850883,12.491602 13.178644,12.4712575 C12.963193,12.4608074 12.7599708,12.5368489 12.6041079,12.6849298 C12.448245,12.8334554 12.362198,13.0332312 12.362198,13.247237 L12.362198,16.9810546 C12.362198,17.3498116 12.0639239,17.6480857 11.6951669,17.6480857 C11.3269657,17.6480857 11.0281358,17.3498116 11.0281358,16.9810546 L11.0281358,13.247237 C11.0281358,12.6727009 11.2674888,12.1156188 11.6843832,11.7186242 C12.1072809,11.3160709 12.6605832,11.1102918 13.2446801,11.138863 C14.3689609,11.1944489 15.2496643,12.1390761 15.2496643,13.2889265 L15.2496643,25.2863696 C15.2496643,25.6551266 14.9508344,25.9534007 14.5826332,25.9534007 Z" id="Combined-Shape"></path>
            </g>
        </g>
    </g>
</svg>
