<?xml version="1.0" encoding="utf-8"?>
<!-- Generator: Adobe Illustrator 19.1.0, SVG Export Plug-In . SVG Version: 6.00 Build 0)  -->
<svg version="1.1" id="Layer_1" xmlns="http://www.w3.org/2000/svg" xmlns:xlink="http://www.w3.org/1999/xlink" x="0px" y="0px"
	 viewBox="0 0 72 72" enable-background="new 0 0 72 72" xml:space="preserve">
<path fill="none" stroke="#322F84" stroke-linecap="round" stroke-linejoin="round" stroke-miterlimit="10" d="M33.5,10.3
	c1.1-0.1,2.3-0.2,3.5-0.2c15.7,0,28.5,12.7,28.5,28.5c0,5.4-1.5,10.5-4.2,14.8"/>
<path fill="none" stroke="#322F84" stroke-linecap="round" stroke-linejoin="round" stroke-miterlimit="10" d="M10,29.5
	c2.7-7.9,8.7-14.3,16.4-17.3"/>
<path fill="none" stroke="#322F84" stroke-linecap="round" stroke-linejoin="round" stroke-miterlimit="10" d="M56.6,59.2
	c-5.1,4.9-12,7.8-19.6,7.8c-15.7,0-28.5-12.7-28.5-28.5c0-0.4,0-0.7,0-1.1"/>
<path fill="none" stroke="#322F84" stroke-linecap="round" stroke-linejoin="round" stroke-miterlimit="10" d="M32.9,47.8
	c0.2-0.4,0.5-0.7,0.8-1"/>
<path fill="none" stroke="#322F84" stroke-linecap="round" stroke-linejoin="round" stroke-miterlimit="10" d="M40,54
	c-0.8,0.6-1.9,1-3,1c-2.3,0-4.3-1.6-4.7-3.8"/>
<path fill="none" stroke="#322F84" stroke-linecap="round" stroke-linejoin="round" stroke-miterlimit="10" d="M37.1,45.4
	c2.7,0,4.8,2.1,4.8,4.8"/>
<path fill="none" stroke="#322F84" stroke-linecap="round" stroke-linejoin="round" stroke-miterlimit="10" d="M10.8,27.4
	c0,0-2.8-1.8-4.2-1.3s10.9,21.2,31.2,24.2"/>
<path fill="none" stroke="#322F84" stroke-linecap="round" stroke-linejoin="round" stroke-miterlimit="10" d="M37,10.1
	c0,0-1.9-5.7-3.5-5.1c-6.8,2.3-5.5,36.4,4.4,45.3"/>
<path fill="none" stroke="#322F84" stroke-linecap="round" stroke-linejoin="round" stroke-miterlimit="10" d="M62.5,51.2
	c0,0,4.3,1.4,2.3,3.2s-16.3,2-27-4.1"/>
</svg>
