<?xml version="1.0" encoding="UTF-8"?>
<svg width="85px" height="76px" viewBox="0 0 85 76" version="1.1" xmlns="http://www.w3.org/2000/svg" xmlns:xlink="http://www.w3.org/1999/xlink">
    <!-- Generator: Sketch 46.2 (44496) - http://www.bohemiancoding.com/sketch -->
    <title>learn</title>
    <desc>Created with Sketch.</desc>
    <defs></defs>
    <g id="Symbols" stroke="none" stroke-width="1" fill="none" fill-rule="evenodd">
        <g id="Icon/Learn" fill="#FFFFFF">
            <g id="learn" transform="translate(0.040060, 0.000000)">
                <polygon id="Fill-1" points="41.2112615 35.9955086 43.7139804 35.9955086 43.7139804 33.4927897 41.2112615 33.4927897"></polygon>
                <polygon id="Fill-2" points="41.2112615 30.9900709 43.7139804 30.9900709 43.7139804 28.487352 41.2112615 28.487352"></polygon>
                <polygon id="Fill-3" points="41.2112615 25.9846332 43.7139804 25.9846332 43.7139804 23.4819143 41.2112615 23.4819143"></polygon>
                <polygon id="Fill-4" points="41.2112615 51.0118217 43.7139804 51.0118217 43.7139804 48.5091028 41.2112615 48.5091028"></polygon>
                <polygon id="Fill-5" points="41.2112615 46.006384 43.7139804 46.006384 43.7139804 43.5036651 41.2112615 43.5036651"></polygon>
                <polygon id="Fill-6" points="41.2112615 41.0009463 43.7139804 41.0009463 43.7139804 38.4982274 41.2112615 38.4982274"></polygon>
                <polygon id="Fill-7" points="41.2112615 56.0170948 43.7139804 56.0170948 43.7139804 53.5145405 41.2112615 53.5145405"></polygon>
                <path d="M50.1374828,57.7690638 C47.7043754,57.7690638 45.6030329,58.3501462 44.0603917,59.4497758 C43.9252831,59.5460469 43.7965925,59.6470904 43.6710287,59.7504378 C43.6336722,59.7812116 43.5976323,59.8129728 43.5610986,59.8442404 C43.4705874,59.9220801 43.3828737,60.0014008 43.2976286,60.082861 C43.2629052,60.1161033 43.227688,60.1491811 43.1937875,60.1829171 C43.0869842,60.2895558 42.9833076,60.398663 42.8852263,60.5115553 C42.8797956,60.5176442 42.8740358,60.523404 42.8686052,60.529493 C42.7657514,60.6486387 42.6693158,60.7718986 42.5761715,60.8974624 C42.5666266,60.9104631 42.5554362,60.9223119 42.5462205,60.9353126 C42.5368402,60.9224764 42.5258143,60.9106277 42.5162695,60.8977915 C42.4231251,60.7720632 42.3265249,60.6486387 42.2235067,60.529493 C42.2182405,60.5235686 42.2124807,60.5178088 42.2072146,60.5118844 C42.1089688,60.3989922 42.0054568,60.2897204 41.8983244,60.1830816 C41.8644238,60.1491811 41.8292067,60.1162679 41.7944832,60.0830256 C41.7092381,60.0015654 41.6213599,59.9220801 41.5308486,59.8442404 C41.494315,59.8129728 41.4584396,59.7813762 41.4210831,59.7507669 C41.2955193,59.6472549 41.1666642,59.5462114 41.0315555,59.4499404 C39.489079,58.3503107 37.3875719,57.7692284 34.9544644,57.7692284 C26.7368641,57.7692284 20.3984423,55.2057847 16.5281804,53.0554016 C13.2467355,51.2318463 11.1302529,49.3870621 10.3444506,48.6494776 L10.3444506,4.39292327 C14.2142187,6.34862492 23.5781854,10.3844401 34.9544644,10.3844401 C37.2911362,10.3844401 41.2112615,10.9806625 41.2112615,14.9728677 L43.7139804,14.9728677 C43.7139804,10.9806625 47.6339411,10.3844401 49.970613,10.3844401 L81.7550436,10.3844401 L81.7550436,57.7690638 L50.1374828,57.7690638 Z M81.7550436,62.6076317 L57.9793791,62.6076317 L57.9793791,65.1103505 L81.7550436,65.1103505 L81.7550436,68.1135144 L50.1374828,68.1135144 C47.7043754,68.1135144 45.6030329,68.6947613 44.0603917,69.7942264 C43.940094,69.8799652 43.8265435,69.9706411 43.7139804,70.0618106 L43.7139804,65.0269156 L43.7974153,65.0269156 C43.7974153,60.7350358 48.231151,60.2717827 50.1374828,60.2717827 L81.7550436,60.2717827 L81.7550436,62.6076317 Z M34.9544644,68.1135144 L2.50271885,68.1135144 L2.50271885,65.1103505 L26.9458628,65.1103505 L26.9458628,62.6076317 L2.50271885,62.6076317 L2.50271885,60.2717827 L34.9544644,60.2717827 C36.7092311,60.2717827 40.6026967,60.6669055 41.2112615,64.0765473 L41.2112615,69.9329555 C41.1508658,69.8870416 41.093926,69.8386592 41.0315555,69.7940618 C39.489079,68.6947613 37.3875719,68.1135144 34.9544644,68.1135144 Z M49.970613,7.88172124 C46.4831315,7.88172124 43.8892431,8.95321009 42.462621,10.8755049 C42.452747,10.862175 42.441392,10.8498326 42.4313534,10.8365027 C42.3625649,10.7453332 42.2909787,10.6564676 42.216924,10.5692476 C42.2022777,10.5518037 42.1886187,10.533866 42.1738077,10.5165865 C42.0842839,10.4137328 41.9908104,10.3140059 41.8938811,10.2167474 C41.8667277,10.189594 41.8382578,10.163428 41.8106107,10.1366038 C41.7383663,10.0666633 41.6644762,9.9978747 41.5884467,9.93106092 C41.5527359,9.89962883 41.5163668,9.86852586 41.4798332,9.8379166 C41.4046265,9.77472328 41.3272805,9.71334018 41.248618,9.65294448 C41.21373,9.62612023 41.1795003,9.59896685 41.1439541,9.57296543 C41.0305681,9.4895305 40.9143846,9.40839949 40.7939223,9.33088893 C40.7870105,9.32628108 40.7794405,9.32216694 40.7721996,9.31772366 C40.6579908,9.24482094 40.5399971,9.17488042 40.4195348,9.10707925 C40.3782287,9.08387545 40.3356062,9.06182362 40.2936419,9.03927808 C40.2032952,8.99089569 40.1116319,8.94366527 40.0181585,8.8980805 C39.9710926,8.87520584 39.9238622,8.85233117 39.8759735,8.83027933 C39.7757528,8.78387174 39.6733928,8.7396035 39.5697163,8.69632266 C39.5302204,8.68003063 39.491712,8.66258664 39.4517225,8.64678831 C39.3087147,8.58984849 39.1627447,8.5357063 39.0131543,8.48501999 C38.9808993,8.47415864 38.947657,8.46444924 38.915073,8.45375246 C38.7949398,8.4144212 38.673161,8.3767356 38.5490783,8.34135392 C38.4957589,8.32604929 38.4417813,8.31173205 38.3876391,8.29741481 C38.2777091,8.26812208 38.1662979,8.24014587 38.0534057,8.21381531 C37.9986052,8.20097917 37.9436402,8.18797846 37.8881815,8.17596515 C37.7545539,8.14683698 37.6184579,8.12017729 37.4807162,8.0954924 C37.4469802,8.08956803 37.414067,8.08232713 37.3801664,8.07656732 C37.2090178,8.04711001 37.0344134,8.02143773 36.8570113,7.99872763 C36.8078061,7.99247412 36.7574489,7.98753714 36.7079145,7.98177734 C36.5757681,7.96630814 36.4423051,7.95232003 36.3068673,7.94047128 C36.2441677,7.93504061 36.1808098,7.9302682 36.1174519,7.92549578 C35.9856346,7.91578639 35.8521716,7.90788723 35.7172276,7.90146916 C35.6581484,7.89867153 35.599892,7.89538022 35.5403192,7.89307629 C35.347777,7.88632909 35.1529309,7.88172124 34.954629,7.88172124 C20.980512,7.88172124 9.84960078,1.28707024 9.73950617,1.22075016 L7.84189628,0.0766877291 L7.84189628,49.6757108 L8.18550997,50.0377559 C8.28622433,50.1439009 10.7041917,52.6655448 15.2187292,55.1904801 C16.7432681,56.0430962 18.6267253,56.9554498 20.8353648,57.7688993 L2.50271885,57.7688993 L2.50271885,10.3842755 L4.92200277,10.3842755 L4.92200277,7.88155668 L0,7.88155668 L0,70.6160687 L34.9544644,70.6160687 C36.8606317,70.6160687 41.2946965,71.0794864 41.2946965,75.3712016 L43.7974153,75.3712016 C43.7974153,71.0794864 48.231151,70.6160687 50.1374828,70.6160687 L84.2577625,70.6160687 L84.2577625,7.88155668 L49.970613,7.88155668 L49.970613,7.88172124 L49.970613,7.88172124 Z" id="Fill-10"></path>
                <polygon id="Fill-12" points="51.6391471 19.227391 75.6651164 19.227391 75.6651164 16.7246722 51.6391471 16.7246722"></polygon>
                <polygon id="Fill-13" points="51.6391471 24.3996986 75.6651164 24.3996986 75.6651164 21.8969797 51.6391471 21.8969797"></polygon>
                <polygon id="Fill-14" points="51.6391471 31.2403757 75.6651164 31.2403757 75.6651164 28.7376568 51.6391471 28.7376568"></polygon>
                <polygon id="Fill-15" points="51.6391471 37.9141829 75.6651164 37.9141829 75.6651164 35.4116286 51.6391471 35.4116286"></polygon>
                <polygon id="Fill-16" points="51.6391471 44.5881547 75.6651164 44.5881547 75.6651164 42.0854358 51.6391471 42.0854358"></polygon>
                <polygon id="Fill-17" points="51.6391471 51.2619619 63.318392 51.2619619 63.318392 48.7592431 51.6391471 48.7592431"></polygon>
            </g>
        </g>
    </g>
</svg>