<?xml version="1.0" encoding="UTF-8"?>
<svg width="61px" height="70px" viewBox="0 0 61 70" version="1.1" xmlns="http://www.w3.org/2000/svg" xmlns:xlink="http://www.w3.org/1999/xlink">
    <!-- Generator: Sketch 46.2 (44496) - http://www.bohemiancoding.com/sketch -->
    <title>linux</title>
    <desc>Created with Sketch.</desc>
    <defs></defs>
    <g id="Symbols" stroke="none" stroke-width="1">
        <g id="Icon-/-Linux" transform="translate(-3.000000, 0.000000)">
            <g id="linux">
                <rect id="BG" fill-opacity="0" fill="#D8D8D8" opacity="0.505774457" x="0.573834188" y="0.000700000001" width="63" height="70"></rect>
                <path d="M44.2933814,47.7444972 C44.2140054,47.7415574 44.1346294,47.7417673 44.0550435,47.7461771 C43.7373297,47.7638162 43.4141562,47.8551616 43.1728785,48.062841 C42.9116518,48.2875295 42.7713789,48.6272922 42.7201415,48.9678949 C42.6686941,49.3087075 42.6974627,49.6553998 42.7222414,49.9991523 C42.8423553,51.6752869 42.8625143,53.360661 42.7468102,55.0367956 C42.7348408,55.2081469 42.7226614,55.3794982 42.7077522,55.5506394 C42.690953,55.7545391 42.672264,55.9582287 42.6504251,56.1617083 C42.5292612,57.286201 42.3415308,58.4027141 42.1443509,59.5162874 C41.906853,60.8564391 41.6542358,62.2031005 41.6561257,63.5642511 C41.6563357,63.702844 41.6609555,63.8422769 41.6685151,63.9817098 C41.6695651,64.0006089 41.670195,64.0192979 41.671455,64.037987 C41.6804845,64.1809897 41.6935038,64.3242024 41.7132428,64.4657352 C41.7325618,64.6041181 41.7586005,64.7408212 41.7907289,64.8754243 C41.7940887,64.8892836 41.7972385,64.9031429 41.8005984,64.9170022 C41.8161376,64.978739 41.8331467,65.0398459 41.8518358,65.1007428 C41.8566655,65.116072 41.8617053,65.1316112 41.866535,65.1469405 C41.886694,65.2088873 41.9076929,65.2702042 41.9314217,65.3306811 C41.9316317,65.3311011 41.9316317,65.3315211 41.9318417,65.331941 C41.9935785,65.489433 42.0660249,65.6423052 42.1561103,65.7871978 C42.5609696,66.4381647 43.2371352,66.8762023 43.9397594,67.1825767 C44.9428783,67.6195645 46.0606513,67.8295538 47.1425162,67.667232 C48.0322408,67.5338888 48.8749279,67.1521283 49.6042207,66.6254751 C50.3270039,66.1036517 50.9382828,65.4455452 51.5827399,64.8296466 C52.3363915,64.1093833 53.1421205,63.4409874 54.015256,62.8714964 C55.3184496,62.0216697 56.7549864,61.4015713 58.1411257,60.6949573 C58.9539943,60.2806484 59.7702227,59.8205619 60.3579828,59.1229774 C60.6242492,58.8067335 60.8380183,58.4466019 60.9883707,58.0614815 L60.9887906,58.0614815 C61.0740463,57.69904 61.0183991,57.3051 60.8357084,56.9804566 C60.7013153,56.7410688 60.5030854,56.5426289 60.2878464,56.3721176 C60.0726073,56.2016063 59.8386792,56.0567137 59.6118908,55.9017415 C59.1289154,55.5716384 58.6784884,55.1968075 58.2305812,54.8202967 C57.7812041,54.4423159 57.331197,54.0592954 56.9546862,53.6086584 C56.5781754,53.1580214 56.2751608,52.6322081 56.1642865,52.0555775 C56.0968799,51.7048954 56.1019197,51.3451837 56.0716812,50.9894619 C56.0376629,50.5881723 55.957867,50.1885627 55.8100345,49.8137318 C55.7107096,49.5621646 55.5788363,49.319207 55.389216,49.1262268 C55.1397487,48.8725597 54.8054457,48.7194775 54.465893,48.612383 C54.4495138,48.6073432 54.4327147,48.6033534 54.4163355,48.5985237 C54.3846272,48.650391 54.3543887,48.7030984 54.3212104,48.7539158 C54.2130659,49.1503756 54.0116862,49.5178568 53.7777581,49.8567796 C53.0039475,50.9779124 51.8592958,51.8386586 50.5676517,52.2712365 C49.7850215,52.5274235 48.9246954,52.5398129 48.1351356,52.3060948 C47.676729,52.1704417 47.2315516,51.9453331 46.9178276,51.5845715 C46.5295574,51.1381343 46.380675,50.5302153 46.3338474,49.9403553 C46.2836599,49.3078675 46.341827,48.6625704 46.5339672,48.0594812 C46.5209479,48.0571713 46.5077185,48.0550714 46.4946992,48.0525515 C46.2590912,48.0099237 46.0222233,47.9727556 45.7851453,47.9381073 C45.7826255,47.9376874 45.7801056,47.9372674 45.7775857,47.9368474 C45.5201388,47.8994693 45.262272,47.8625112 45.0050351,47.8249231 C44.7687971,47.7904849 44.5312992,47.7535267 44.2933814,47.7444972 Z M15.1561061,46.530969 C15.0693805,46.5263493 14.9822349,46.5288691 14.8957193,46.5349588 C14.8373423,46.5391586 14.7789653,46.5439884 14.7214282,46.5530179 C14.6578014,46.5630974 14.5950146,46.5771667 14.5326478,46.5935459 C14.5171086,46.5977456 14.5017794,46.6023654 14.4864502,46.6067752 C14.4242933,46.6248343 14.3627665,46.6452032 14.3031295,46.669982 C13.9551772,46.8142446 13.6599323,47.0668617 13.4197045,47.356857 C13.3501981,47.4406427 13.2859413,47.5282082 13.2239945,47.6172437 C13.0711223,47.8368925 12.9363092,48.0695606 12.8056958,48.3034887 C12.6219552,48.632332 12.4428343,48.965165 12.2212956,49.2698595 C11.9995469,49.574344 11.7320205,49.8523698 11.4050672,50.0392603 C11.0611047,50.2358103 10.6646449,50.3246357 10.269865,50.3569741 C9.87487516,50.3895224 9.47820537,50.3681035 9.08195556,50.359074 C8.68591574,50.3502544 8.28630611,50.3540342 7.89845587,50.4350901 C7.51060563,50.515936 7.13178494,50.6790977 6.84640948,50.9537637 C6.53688525,51.2519485 6.3552445,51.6643675 6.27334868,52.086236 C6.19166284,52.5081045 6.20258228,52.9419424 6.23198079,53.3707405 C6.29770744,54.3308116 6.45372949,55.283953 6.50181704,56.2450741 C6.55011458,57.2061951 6.48585785,58.1916749 6.12866605,59.0851793 C5.9098572,59.6324115 5.58563372,60.1338659 5.38509394,60.6880277 C5.28471905,60.9650035 5.21563257,61.2562587 5.21164278,61.5508737 C5.20744299,61.8454887 5.27064977,62.1445134 5.41995216,62.3986005 C5.61314232,62.7274437 5.93778578,62.9617918 6.28489809,63.1192838 C6.6320104,63.2767758 7.00579136,63.3656012 7.37348262,63.4666061 C8.20084046,63.6942345 9.00887929,63.9867496 9.83056742,64.234117 C12.5041512,65.038586 15.3215776,65.3625995 17.9155754,66.3957468 C19.1887406,66.902871 20.4398568,67.5876461 21.809407,67.6388835 C22.6707831,67.6712218 23.5384589,67.4408636 24.2767813,66.9958962 C25.0148937,66.5509289 25.6219728,65.8938724 26.0178026,65.1280414 C26.1486259,64.8747943 26.2546705,64.6093679 26.3380363,64.3370117 C26.3716346,64.2271873 26.401873,64.116313 26.4279117,64.0043887 L26.4279117,64.0039687 C26.4543703,63.8893145 26.4768392,63.7736104 26.4951083,63.6572764 C26.5121174,63.5503918 26.5245068,63.4428773 26.5345863,63.3349428 C26.5467656,63.2028595 26.5545352,63.0705663 26.5562152,62.938063 C26.5566351,62.9025748 26.5543253,62.8670866 26.5541153,62.8318084 C26.5534853,62.7293336 26.5505454,62.6268589 26.5436158,62.5245941 C26.5375261,62.4357686 26.5305965,62.3471531 26.519677,62.2587476 C26.519257,62.2551778 26.519257,62.251608 26.5188371,62.2480382 C26.5186271,62.2469882 26.5186271,62.2459383 26.5184171,62.2448883 C26.5056077,62.1411536 26.4883886,62.0382589 26.4688596,61.9355741 C26.4640299,61.9103754 26.4592001,61.8851767 26.4541604,61.8601879 C26.4331614,61.7577132 26.4098526,61.6558683 26.382344,61.5550735 C26.3548354,61.4542786 26.323127,61.3547437 26.2897387,61.2560487 C26.2809192,61.23022 26.2720996,61.2046013 26.2630701,61.1789826 C26.246061,61.1313151 26.2269519,61.0844875 26.2088929,61.0374499 C26.1692049,60.9349751 26.126997,60.8333403 26.0816393,60.7331754 C26.06841,60.7035669 26.0556007,60.6737484 26.0419514,60.6445599 C25.9149078,60.3736737 25.7700152,60.1103471 25.6116833,59.8545801 C25.4441118,59.5836939 25.263521,59.3203674 25.0743207,59.0650204 C24.5833657,58.4022941 24.0422233,57.777576 23.5397189,57.1234593 C23.4676925,57.0298041 23.3944063,56.9376188 23.3244798,56.8424936 C22.4685634,55.6787329 21.7881981,54.3973782 21.0477758,53.1571814 C20.1347424,51.6278293 19.1272137,50.1568543 18.080837,48.7156977 C17.6251602,48.0882497 17.1495345,47.453662 16.5080172,47.0177242 C16.1871535,46.7997553 15.8266019,46.6353337 15.4452613,46.5649873 C15.3499262,46.5473482 15.2535411,46.5360088 15.156526,46.530969 L15.1561061,46.530969 Z M44.7589276,32.4644158 C45.5678064,33.1204224 46.5345972,33.5702195 47.3468358,34.2230762 C48.7186959,35.32594 49.5760822,36.9819156 49.8421386,38.7034079 C50.2167595,41.1287843 49.4828469,43.5554207 48.6510793,45.8873518 C48.2161915,45.9883567 47.814062,46.2136752 47.4845887,46.5150099 C47.2214722,46.7554476 47.0058131,47.0441829 46.8338319,47.356857 C46.9069082,47.3180089 46.9789345,47.277061 47.0494909,47.2338032 C47.3793841,47.0315835 47.6815587,46.7823262 48.0314009,46.6166447 C48.4709085,46.4085453 48.9629134,46.3432386 49.4471487,46.2974609 C49.7848115,46.2657526 50.1235243,46.2420238 50.462657,46.2294244 C50.9477323,46.2115753 51.4336475,46.216825 51.9183028,46.2441237 C51.8338871,46.2287944 51.7494714,46.2136752 51.6654757,46.197926 C51.1774606,46.1061607 50.6930153,45.9946564 50.2035302,45.9115006 C49.8853964,45.8575334 49.560753,45.8157455 49.2392593,45.8197353 C49.1586234,45.8207852 49.0786175,45.8264549 48.9984016,45.8335946 C49.0185606,45.8317047 49.0385096,45.8289748 49.0586685,45.8275049 C49.4372792,44.8061169 49.8093803,43.7830491 50.0968556,42.7289028 C50.5432929,41.0922462 50.4933154,39.9148362 50.2604373,38.5083278 C49.9675022,36.739588 48.9385547,35.1067112 47.4814389,34.0288361 C46.6416917,33.4074777 45.6799407,32.9669202 44.7589276,32.4644158 Z M38.5678131,22.019548 C38.5004065,22.1106834 38.4233405,22.1911093 38.3397647,22.2587258 C38.2072615,22.3658204 38.0636288,22.4433064 37.922306,22.5031534 C37.6405004,22.6226373 37.3717141,22.6757646 37.1459756,22.7475809 C36.1157681,23.0755842 35.252922,23.9348604 34.1662274,24.5574787 C33.5883368,24.8886318 32.9669785,25.1299095 32.3326008,25.3006308 C31.6404761,25.4868913 30.9080334,25.5952458 30.1686611,25.5295192 C29.542473,25.473872 28.9122951,25.2903414 28.3694728,24.9323096 C27.6294705,24.4442945 27.1611943,23.7288609 26.6563801,23.1524403 C26.46046,22.9288017 26.2519407,22.7160825 26.0333418,22.5147028 C26.0329218,22.5247823 26.0316619,22.5348618 26.0312419,22.5449413 C26.0024734,23.296073 26.048461,24.061484 25.8496012,24.786367 C25.8199927,24.8945115 25.7842945,25.0003461 25.7450265,25.1047108 C25.7334771,25.1353693 25.7200378,25.1656077 25.7076484,25.1960562 C25.67678,25.2724923 25.6444416,25.3482984 25.6091634,25.4228446 C25.596984,25.4488833 25.5841747,25.474712 25.5715753,25.5003307 C25.5291575,25.5866363 25.4844298,25.6716819 25.4373922,25.7558876 C25.4319324,25.7655471 25.4264727,25.7754166 25.421013,25.7850762 C25.3643159,25.8850311 25.3053089,25.983936 25.243782,26.081581 C25.0705409,26.356247 24.8821805,26.6229335 24.69424,26.88668 C23.8868312,28.0197823 23.0706028,29.182703 22.6722531,30.5159251 C22.4309754,31.3233339 22.3509694,32.1784104 22.437695,33.0164777 C21.5339011,34.34403 20.7514809,35.7541082 20.103244,37.2231933 C19.120704,39.4501298 18.4462184,41.821329 18.2091405,44.2435556 C18.139214,44.9573092 18.1089756,45.6758926 18.1186351,46.393846 C18.0967962,46.3585678 18.0732774,46.3245496 18.0520685,46.2888514 C17.7190255,45.72692 17.4643084,45.118791 17.2986269,44.4867232 C16.8862079,42.9132734 17.04076,41.2205496 17.5856823,39.6878377 C17.8233901,39.0196518 18.1320744,38.3796044 18.4134601,37.7286376 C18.8739666,36.6627319 19.2603469,35.5667977 19.6330779,34.4668738 C19.5906601,34.5267207 19.5459324,34.5855177 19.5047745,34.6464146 C18.8682969,35.5875867 18.4098903,36.6350133 17.9258649,37.6629109 C17.6463692,38.2559207 17.3570039,38.8455707 17.1379851,39.4633592 C16.5777336,41.0426887 16.4975177,42.7751004 16.8110317,44.4212065 C16.9252659,45.021146 17.0938873,45.6191955 17.4061414,46.1441687 C17.6064712,46.4809916 17.8634981,46.7774965 18.1381641,47.0582522 L18.1381641,47.0586721 C18.140894,47.061402 18.1434138,47.0639219 18.1459337,47.0666517 C18.3084654,47.2323333 18.4756169,47.3940251 18.6450783,47.551727 C18.9182744,47.8062341 19.1963002,48.0550714 19.4736961,48.3051686 C20.8459761,49.5428456 22.2644538,50.7297051 23.7255594,51.8615474 C24.538848,52.4915153 25.3844749,53.1269429 25.9197376,54.0055382 C26.1389664,54.3652498 26.3023381,54.7648595 26.3483258,55.1835781 C26.3943134,55.6022968 26.3166174,56.0411744 26.087519,56.3945864 C25.9010485,56.6820618 25.6209228,56.9036005 25.3074088,57.0413535 C25.0713808,57.1450882 24.8168738,57.2026253 24.5592169,57.2223643 C24.9556767,57.7099594 25.3783852,58.208264 25.7868144,58.7533962 C26.1647951,59.2575806 26.5299665,59.8060726 26.8224816,60.4106318 C30.0544269,61.682537 33.840744,61.5475139 36.9067977,59.9135871 C38.6581085,58.9803947 40.1362232,57.6158842 41.5614206,56.2352046 C41.6168577,56.1814473 41.671455,56.1266401 41.7266821,56.0726728 C41.9148326,54.1779394 41.906013,52.2538074 41.7735098,50.3288355 C41.7504109,49.9924327 41.710303,49.5798037 41.7833793,49.1041779 C41.8585554,48.6149029 42.0595152,48.0710306 42.5364009,47.6605015 C42.9811582,47.277481 43.5029816,47.1512774 43.9611783,47.1269187 C44.0728926,47.120829 44.1804071,47.120199 44.2835119,47.1239788 C44.5930361,47.1351083 44.8635023,47.1819359 45.0947005,47.2157441 C45.340178,47.2518623 45.6007747,47.2886104 45.8584316,47.3253586 C45.8720809,47.218474 45.8880401,47.1113795 45.9006395,47.0047049 C46.3777351,43.0100784 46.3930644,38.7907634 44.6415436,35.169288 C44.0384543,33.9225815 43.2350353,32.7733101 42.2713944,31.7783808 C42.0147875,30.0354696 41.5087133,28.3297265 40.7727008,26.729188 C40.6863952,26.5414576 40.5933699,26.357087 40.5020245,26.1718764 C40.1870406,25.532669 39.8523177,24.9029111 39.5402736,24.2626537 C39.5182247,24.217296 39.4953358,24.1723583 39.473497,24.1267906 C39.4432585,24.0640038 39.41365,24.0005871 39.3840415,23.9373803 C39.2855565,23.728021 39.1893814,23.5174017 39.099506,23.3040526 C38.9195452,22.8769343 38.7586934,22.4416265 38.5678131,22.019548 Z M26.6412608,17.5171674 L26.7235766,17.583944 C26.7258865,17.5820541 26.7281964,17.5797443 26.7305063,17.5778544 L26.6412608,17.5171674 Z M28.9572328,16.5077489 C28.9851614,16.5039691 29.0114101,16.5037591 29.0363988,16.5119487 C29.1143048,16.5371474 29.129634,16.7108085 29.0630674,16.7582661 C28.9631125,16.8294525 28.8866764,17.0115132 28.7942811,17.0623306 C28.7331742,17.0959289 28.6435088,17.0327221 28.6139003,16.9831647 C28.5901715,16.9436867 28.5874417,16.8955991 28.600041,16.8456217 C28.6124304,16.7958542 28.640149,16.7439868 28.6766871,16.6961093 C28.7497634,16.6001442 28.8591678,16.5209782 28.9572328,16.5077489 Z M31.9684794,16.3888949 C32.1293312,16.3807054 32.3029923,16.4199734 32.4483049,16.4766705 C32.6288957,16.5470169 32.9090215,16.6673407 32.8838227,16.8596909 C32.8647137,17.0052135 32.6343554,17.0619106 32.4875729,17.0577109 C32.3338608,17.0533011 32.2236164,16.8993789 32.0869133,16.8288225 C32.0480653,16.8088735 32.0020777,16.7954342 31.9544101,16.7840948 L31.9539901,16.7840948 C31.9489504,16.7828349 31.9437006,16.7817849 31.9384509,16.780525 C31.9042227,16.7727554 31.8699944,16.7649858 31.8363961,16.7572162 C31.8042677,16.7494466 31.7725594,16.741677 31.7440008,16.7309675 L31.7435808,16.7309675 C31.7156523,16.7202581 31.6919235,16.7059788 31.6707145,16.6893896 C31.6629449,16.6835099 31.6553853,16.6772102 31.6488757,16.6702806 C31.6453058,16.6662908 31.641526,16.662511 31.6381662,16.6583112 C31.6270368,16.6438219 31.6175873,16.6278628 31.6114976,16.6087537 C31.5944884,16.5541565 31.6497156,16.4867499 31.6996931,16.4590314 C31.7815889,16.4134637 31.8718843,16.3937247 31.9684794,16.3888949 Z M31.2666951,15.6465828 C31.112143,15.6430129 30.9571709,15.6474227 30.8024088,15.6591821 C30.3383324,15.6946703 29.876776,15.7965151 29.4374783,15.9491773 C29.3331137,15.9852955 29.2308489,16.0262434 29.1285841,16.0680313 L29.1281641,16.0684513 C28.9507231,16.1411076 28.776642,16.2217435 28.6065507,16.3105689 L28.6065507,16.3109889 C28.4860168,16.3737757 28.3675829,16.4405523 28.2512488,16.5111087 C28.1361747,16.5810351 28.0234104,16.6549514 27.912956,16.7322274 C27.9070763,16.7362172 27.9016166,16.740837 27.8957369,16.7448268 C27.7907423,16.818743 27.6876375,16.8953891 27.5872626,16.975815 C27.580543,16.9812748 27.5740333,16.9871545 27.5673136,16.9926142 C27.4671487,17.0732501 27.3692937,17.1568258 27.2743786,17.2435514 C27.0855982,17.4163726 26.9062673,17.5996932 26.7403758,17.7947733 C26.5717544,17.9083775 26.4119525,18.0343711 26.2571904,18.1664544 C26.1402264,18.2661993 26.0272521,18.370564 25.9193176,18.4801784 C25.9151178,18.4843782 25.9107081,18.488158 25.9065083,18.4923578 C25.9025185,18.4963475 25.8983187,18.5003373 25.8943289,18.5043271 C25.8934889,18.5051671 25.893069,18.5060071 25.892229,18.506847 C25.8586307,18.5412853 25.8256624,18.5763535 25.7929041,18.6118417 C25.7206677,18.6895377 25.6496914,18.7684937 25.5824948,18.8508095 C25.5352472,18.9089765 25.4890495,18.9681935 25.4447418,19.0288804 C25.3118186,19.2113611 25.1973744,19.4066512 25.125768,19.6197903 C25.0505919,19.8434289 25.0253932,20.0798769 24.9781456,20.3108651 C24.9602965,20.3975907 24.9390876,20.4843163 24.9395075,20.5727217 C24.9397175,20.6168195 24.9453872,20.6611272 24.9592465,20.7031251 C24.9632363,20.7153045 24.969326,20.7266439 24.9747857,20.7384033 C24.989275,20.7900607 25.008804,20.8402481 25.0363126,20.8864458 C25.0688609,20.941043 25.1104388,20.9887106 25.1560065,21.0332283 C25.1543266,21.0273486 25.1505468,21.0216789 25.1490769,21.0160092 C25.1362675,20.9693915 25.1301778,20.9250838 25.126818,20.8830859 C25.1566365,20.8956853 25.1872949,20.9061848 25.2187933,20.9126944 C25.2903997,20.9273937 25.3638959,20.9292836 25.4365522,20.9376832 C25.5029088,20.9452428 25.5677955,20.9586821 25.6318423,20.9754812 C25.6322622,20.9754812 25.6326822,20.9756912 25.6331022,20.9759012 C25.636672,20.9767412 25.6400318,20.9777911 25.6436017,20.9786311 C25.6465415,20.979261 25.6494814,20.979891 25.6522112,20.980731 C25.6900093,20.9912304 25.7265474,21.0061397 25.7635056,21.019369 C25.7989937,21.0319683 25.8349019,21.0441477 25.8697601,21.059057 C25.9149078,21.078376 25.9590056,21.1002149 26.0028934,21.1226837 C26.0228423,21.1327632 26.0427913,21.1426327 26.0625303,21.1533422 C26.0631603,21.1537621 26.0637903,21.1541821 26.0644202,21.1546021 C26.1160776,21.1829507 26.166475,21.2127691 26.2162425,21.2440575 C26.2177124,21.2448975 26.2193923,21.2455275 26.2208622,21.2465774 C26.2223322,21.2476274 26.2238021,21.2484673 26.225272,21.2495173 C26.2628601,21.273456 26.3014981,21.2963449 26.3380363,21.3215436 C26.6097624,21.5086441 26.8604897,21.726403 27.1395654,21.902794 C27.755674,22.2925341 28.4904266,22.4657753 29.2188795,22.4937039 C29.9473324,22.5218424 30.6743153,22.4109681 31.3893289,22.2681754 C31.9575599,22.1547811 32.5241111,22.020178 33.0631536,21.8076688 C33.8884115,21.4821854 34.6324036,20.9813609 35.3434274,20.450508 C35.6346826,20.233169 35.921108,20.0082705 36.1873744,19.7611131 C36.2165629,19.7342345 36.2463814,19.7081958 36.27473,19.6806872 C36.3732149,19.585562 36.4683401,19.4870771 36.5737547,19.4001415 C36.6793793,19.3132059 36.7967633,19.2373998 36.9269567,19.1954019 C37.0262817,19.1634836 37.1293864,19.1523541 37.2337511,19.1531941 C37.3381158,19.154034 37.4433204,19.1672634 37.5462152,19.1844825 C37.6035422,19.193932 37.6610793,19.2040115 37.7184064,19.213461 C37.7163065,19.2842274 37.7005573,19.3583536 37.6635992,19.4328998 L37.6635992,19.4333198 C37.6220213,19.5164756 37.5665841,19.5735927 37.5168167,19.6151705 C37.4674692,19.6559085 37.4244214,19.6811072 37.3937629,19.6991663 C37.2980078,19.7556534 37.2030926,19.8052109 37.1098574,19.8520385 C37.0651297,19.8747173 37.0239718,19.8946663 36.980714,19.9160852 C36.9519454,19.9301545 36.921917,19.9450637 36.8937784,19.958713 C36.8645899,19.9729923 36.8337215,19.9887415 36.8051629,20.0026008 C36.803273,20.0034408 36.8015931,20.0042807 36.7997032,20.0051207 C36.7994932,20.0053307 36.7992832,20.0053307 36.7990732,20.0055406 C36.6755995,20.0658076 36.5577955,20.1252345 36.4532209,20.1909612 C36.156086,20.3776417 35.88163,20.6533576 35.5641262,20.9294936 C34.8631819,21.5393025 34.0536731,22.0262677 33.1790677,22.3486013 C32.6102067,22.5583806 32.0300062,22.6938237 31.4630351,22.8214972 C30.7410919,22.9842389 29.9859704,23.1469806 29.1983005,23.1339612 C28.4064309,23.1209419 27.5765532,22.9170423 26.9274762,22.3889192 C26.6882984,22.1942591 26.5035078,21.9844798 26.3199772,21.8196382 C26.2544605,21.7606312 26.1878939,21.7091838 26.1215373,21.6631962 C26.0759696,21.6319078 26.0308219,21.6033492 25.9852543,21.5792005 C25.9850443,21.5789905 25.9846243,21.5787805 25.9842043,21.5783605 C25.9837843,21.5781505 25.9833643,21.5777305 25.9829444,21.5775205 C25.9827344,21.5773106 25.9823144,21.5773106 25.9821044,21.5771006 L25.9816844,21.5771006 C25.9359068,21.5529518 25.8903391,21.5315329 25.8449814,21.5155737 C25.9359068,21.5846602 26.0230523,21.6587864 26.108308,21.7350125 C26.402923,21.9983391 26.6662496,22.2986238 26.9089972,22.6115079 C27.4196912,23.2700343 27.8720081,24.0010071 28.5544733,24.4795727 C29.0361888,24.8176554 29.6126094,25.0106356 30.1982696,25.0694326 C30.8859845,25.1385191 31.5820991,25.0276447 32.2452453,24.8323547 C32.859674,24.6513439 33.4537337,24.3970469 33.9988659,24.060854 C35.0355831,23.4220666 35.9022089,22.4869842 37.0441307,22.0646957 C37.293388,21.9727204 37.5527248,21.9065738 37.7931626,21.7931796 C37.9743833,21.7079239 38.1469945,21.5907499 38.2708882,21.4359878 C38.2910472,21.410789 38.3101562,21.3845404 38.3275853,21.3572418 C38.3450145,21.3299432 38.3611836,21.3013846 38.3754629,21.2719861 C38.4871772,21.0420478 38.4852873,20.7762014 38.5178357,20.5227443 C38.5600435,20.194531 38.6629383,19.8763972 38.7024162,19.547764 C38.7221552,19.3835523 38.7257251,19.2161909 38.6973765,19.0532392 C38.6969565,19.0502993 38.6963266,19.0477795 38.6959066,19.0448396 C38.6780575,18.9457247 38.6465591,18.8489196 38.6026713,18.7582042 C38.6020414,18.7567343 38.6009914,18.7552644 38.6003614,18.7537944 C38.589022,18.7304856 38.5770526,18.7075968 38.5642433,18.6853379 C38.5466042,18.6557294 38.5285451,18.6267509 38.5075462,18.5994523 C38.5048163,18.5958825 38.5010365,18.5929426 38.4980967,18.5893728 C38.4846573,18.5505248 38.4701681,18.5123067 38.4493791,18.4768185 C38.3445945,18.2989576 38.1633737,18.1784237 37.9748033,18.094638 C37.9189462,18.0698593 37.8618291,18.0482304 37.804292,18.0287014 C37.803872,18.0284914 37.803662,18.0284914 37.8034521,18.0282814 C37.7528446,18.0106423 37.7016072,17.9951031 37.6499499,17.9801939 C37.4893081,17.9335762 37.3250964,17.8959881 37.1623547,17.8567201 C36.6168025,17.7250569 36.0825897,17.5484558 35.5620263,17.3386765 L35.5616063,17.3386765 C35.4314129,17.2863892 35.3020595,17.2326319 35.173966,17.1755149 C35.0213038,17.1087383 34.8692716,17.0396518 34.7199692,16.9655256 C34.6737715,16.9426367 34.6288338,16.917648 34.5830561,16.8941292 L34.5826362,16.8937092 C34.2443434,16.720678 33.9119303,16.5363074 33.5769974,16.3569766 C33.4927917,16.3118289 33.407746,16.2673111 33.3227004,16.2236334 C33.3214404,16.2230034 33.3203905,16.2225834 33.3193405,16.2219534 C33.3187106,16.2217435 33.3182906,16.2213235 33.3176606,16.2211135 C33.1790677,16.1499271 33.0385848,16.0829405 32.8960021,16.0201537 L32.8955821,16.0197337 C32.8477046,15.9985248 32.799407,15.9777359 32.7508995,15.9577869 C32.7475397,15.956527 32.7443898,15.955057 32.74103,15.9535871 C32.7101616,15.9409878 32.6790832,15.9283884 32.6480048,15.916419 C32.6471648,15.916209 32.6465348,15.915789 32.6459049,15.9155791 C32.5522496,15.8796709 32.4581744,15.8460726 32.3619993,15.8170941 C32.0060675,15.7091596 31.6375362,15.6547723 31.2666951,15.6463728 L31.2666951,15.6465828 Z M27.5238459,13.7451296 C27.461269,13.7367301 27.4007921,13.7449197 27.3569044,13.7835577 C27.3002072,13.8337451 27.3081868,13.9423096 27.3346455,14.0145459 C27.3774833,14.13151 27.521326,14.1737178 27.6004919,14.268003 C27.677138,14.3595583 27.7579839,14.4544735 27.8001918,14.5678677 C27.8808277,14.7847867 27.7206058,15.1064903 27.8888073,15.2597825 C27.9415146,15.30787 28.0473492,15.30892 28.0992165,15.2597825 C28.3022762,15.0674323 28.2571285,14.679792 28.1767026,14.4065959 C28.1038363,14.1588086 27.9236655,13.9236206 27.7017068,13.8058166 C27.6504694,13.7785179 27.5862127,13.7535292 27.5238459,13.7451296 L27.5238459,13.7451296 Z M35.8847798,13.5731484 C35.7804151,13.5773482 35.6710107,13.6105265 35.625653,13.7043917 C35.586595,13.7852376 35.6346826,13.9026216 35.6882298,13.9714981 C35.7751654,14.0832124 35.9372771,14.0674632 36.0525613,14.1380196 C36.1644856,14.2064761 36.2814496,14.2768226 36.3662853,14.384967 C36.528607,14.5918065 36.4845093,15.0210246 36.7123477,15.1182497 C36.783954,15.1486981 36.8918885,15.1035504 36.9265367,15.0258544 C37.0621898,14.7222099 36.8729895,14.3091609 36.6902988,14.0395346 C36.5244072,13.7948971 36.254361,13.6115765 35.9849447,13.5773482 C35.9536563,13.5733584 35.919638,13.5718885 35.8847798,13.5731484 Z M26.9929929,11.1328628 C26.5942232,11.1547016 26.2124627,11.3384423 25.9205775,11.6112184 C25.6286924,11.8839945 25.4233229,12.2411863 25.2966993,12.620007 C25.0436622,13.3780684 25.1005693,14.1995465 25.1581064,14.9964559 C25.2101837,15.7179791 25.2631011,16.4535716 25.5333573,17.1246974 C25.6620807,17.4445111 25.8426715,17.7454258 26.0784895,17.996993 C26.2702097,17.8222819 26.4659198,17.6517706 26.6658296,17.486299 C26.6666695,17.4850391 26.6679295,17.4841991 26.6689794,17.4831492 C26.7785938,17.3550557 26.8949279,17.2330519 27.0144118,17.114408 C26.8798087,17.0262125 26.7590648,16.9161781 26.6494504,16.7977441 C26.4205621,16.5507967 26.2319917,16.2635313 26.1177575,15.9466575 C25.9449363,15.4670419 25.9478762,14.9395488 26.0312419,14.4366244 C26.06925,14.2079461 26.1240572,13.9790577 26.2309417,13.7734782 C26.3380363,13.5676887 26.501408,13.384998 26.7124472,13.2890329 C26.8075724,13.2457751 26.9102571,13.2216263 27.0144118,13.2140667 C27.1185665,13.2062971 27.2241911,13.2157466 27.325616,13.2398954 C27.5288856,13.2879829 27.7159861,13.3936076 27.8755779,13.5282107 C28.2105109,13.8100163 28.42449,14.2131958 28.5536334,14.6314945 C28.6821468,15.0472733 28.7304444,15.4909807 28.6798369,15.9220887 C28.913765,15.8063846 29.1539928,15.7039098 29.4005202,15.6182342 C29.4154295,15.6129845 29.4307587,15.6092047 29.4456679,15.6041649 C29.5567523,15.4368034 29.6686766,15.269652 29.7894204,15.1096401 C29.7692614,14.5460288 29.6896755,13.9830475 29.5132845,13.4477848 C29.3196743,12.8596048 29.0103601,12.3046031 28.5786221,11.8604757 C28.3696828,11.6454466 28.1311349,11.4562463 27.8621386,11.323743 C27.5931423,11.1910298 27.2924376,11.1166936 26.9929929,11.1328628 L26.9929929,11.1328628 Z M35.5744156,10.638338 C35.2657314,10.6332982 34.9562071,10.6849556 34.6687318,10.7966699 C34.4503429,10.8815056 34.2458133,11.0001495 34.0526232,11.1328628 C33.4300049,11.560821 32.9081815,12.1574006 32.6528345,12.8686343 C32.428146,13.4950324 32.4237362,14.1735078 32.54553,14.8328742 C32.6774033,15.0044355 32.7889076,15.1927959 32.8825628,15.3885059 C32.93737,15.5029501 32.9888174,15.6199141 33.0421547,15.7354082 C33.2426944,15.8280135 33.4377745,15.9298583 33.6299147,16.0327531 C33.8081956,16.1285082 33.9850066,16.2253133 34.1618176,16.3210684 C34.1259094,16.2477821 34.0937811,16.172186 34.0666925,16.0951199 C33.9499384,15.7627068 33.9110904,15.405935 33.9251597,15.053783 C33.9440587,14.5846669 34.0606028,14.1098811 34.3266592,13.7228708 C34.4595824,13.5294706 34.6292538,13.3600093 34.8279037,13.2348557 C35.0265536,13.109702 35.2543919,13.0296961 35.48853,13.0131069 C35.5433372,13.0091172 35.5985644,13.0086972 35.6533716,13.011427 C35.8177932,13.0194066 35.9811649,13.0559448 36.135717,13.1130619 C36.6119728,13.2884029 37.0065427,13.659874 37.2390008,14.110931 C37.471669,14.561988 37.5460052,15.0873813 37.4802785,15.5907256 C37.4429004,15.8754711 37.3614246,16.1562268 37.2259815,16.4096839 C37.0905384,16.663141 36.9002881,16.8890894 36.6644701,17.0533011 C36.5424663,17.1381368 36.4084931,17.2044934 36.2682203,17.2534209 C36.5716548,17.3544257 36.8778192,17.447451 37.1886034,17.5224172 C37.4223215,17.5789043 37.6661191,17.6314016 37.903407,17.721277 C38.0905074,17.506458 38.2477894,17.2641303 38.3672733,17.0056335 C38.6169506,16.466171 38.7232052,15.8698014 38.7565935,15.2765816 C38.7990113,14.5204101 38.7248851,13.7520593 38.4764678,13.0368357 C38.2064215,12.2596653 37.7171465,11.5427619 37.0267016,11.0954847 C36.6812692,10.872056 36.2894292,10.7183439 35.88184,10.6620667 C35.7799952,10.6479975 35.6771004,10.6400179 35.5744156,10.638338 Z M27.1353656,9.70577548 L27.1353656,9.70598546 C27.0942077,9.70451554 27.0538898,9.70871533 27.0127319,9.71060523 C26.9862732,9.71207515 26.9591846,9.71270512 26.932726,9.715015 C27.1735837,9.73622392 27.4129715,9.79838076 27.6303104,9.89224597 C27.9268153,10.0203394 28.2098809,10.2028201 28.462918,10.4102896 C28.9318241,10.79478 29.2801964,11.2691458 29.5162243,11.7722802 C29.4578473,11.3846399 29.3494928,11.009809 29.129844,10.6809658 C29.0582377,10.5738712 28.9454734,10.4909255 28.8373289,10.4102896 C28.5714825,10.2116397 28.267628,10.0203394 27.9711231,9.89224597 C27.7119963,9.78032168 27.4238909,9.71060523 27.1353656,9.70577548 Z M36.6455711,9.19130169 C36.5643052,9.18815185 36.4824094,9.18962178 36.3986236,9.19382156 C36.27347,9.19991125 36.1079984,9.1793323 36.0431118,9.31519538 C36.450491,9.40297091 36.8396012,9.57075236 37.1873434,9.80174059 C37.8601492,10.2483878 38.3708431,10.9014545 38.7290849,11.6280175 C38.8126606,11.5354122 38.7444141,11.2355475 38.6728078,11.0587365 C38.412211,10.4136494 38.0734983,9.88468636 37.3771738,9.42228992 C37.1264466,9.25576841 36.8893686,9.20117119 36.6455711,9.19130169 Z M32.7112115,0.79865934 C34.5057801,0.776820453 36.3385667,1.17328025 37.9703935,1.99559835 C39.8875959,2.96175912 41.5066134,4.5910661 42.6208166,6.65799078 C43.7423694,8.73835477 44.005276,10.049528 44.2060258,14.6230949 C44.3156402,17.1217576 44.3746472,18.389673 44.4733422,19.1382848 C44.5701473,19.8707275 44.6913111,20.0954161 44.9762666,20.6218592 C45.2563923,21.1394829 45.8645213,22.4038284 46.3531664,23.4783437 C47.4934083,25.9864559 48.2109417,27.0532015 50.4490077,29.5669834 C51.0430674,30.2339095 51.7131433,31.0602174 52.0018786,31.4969951 C53.9614987,34.461414 55.6964303,39.9034967 55.8703015,43.6091779 L55.8698815,43.607498 C55.9173391,44.725271 55.8293535,45.8881918 55.4314238,47.2629917 L55.2373937,47.7711658 L55.5626671,47.9307577 C56.0952,48.1913544 56.5328177,48.6098631 56.8255428,49.1549953 C57.1228876,49.7087371 57.2957088,50.3916223 57.3889441,51.2471187 C57.4179226,51.5129652 57.4794495,51.8033804 57.5355166,52.0385684 C57.5634452,52.1561624 57.5903238,52.2588472 57.6113227,52.3359132 C57.6218222,52.3745513 57.6308517,52.4066796 57.6384114,52.4322983 C57.6421912,52.4451077 57.645761,52.4562371 57.6495408,52.4675765 C57.6531106,52.478916 57.645971,52.4713563 57.6732696,52.5286834 C57.7167374,52.6200288 57.7345865,52.6328381 57.7753244,52.6886953 C57.8162723,52.7445524 57.8687696,52.8127989 57.9332363,52.890915 C58.0621698,53.046937 58.2375108,53.242857 58.4496,53.4461267 C58.8636989,53.8430065 59.4063113,54.2963734 60.0171701,54.7474304 C60.9707316,55.4519445 61.5272032,55.892502 61.8894347,56.3670778 C62.2315073,56.815615 62.3474214,57.3416382 62.3533011,57.9010497 C62.3621207,58.7494064 61.9988392,59.5311966 61.2447676,60.3585545 C60.5618824,61.1075863 59.7834521,61.5895117 57.2996986,62.8271887 C54.8533233,64.0461765 53.8525143,64.7204522 52.2815843,66.2000368 C51.6033189,66.8390342 50.836228,67.5214995 50.4851259,67.786506 C49.6995559,68.3797257 48.6487694,68.8603912 47.6926881,69.0628209 C46.5054086,69.3143881 45.3051098,69.237532 44.0825521,68.8372924 C42.2661447,68.2426027 41.0446369,67.196226 40.572161,65.7519196 C40.5415025,65.6576344 40.5217635,65.5986274 40.5251234,65.6095469 C40.4635965,65.4283261 40.3886303,65.390948 40.2029998,65.3212316 C39.4386387,65.1154421 37.2860384,64.724442 35.9683556,64.5570805 C34.6928806,64.3951788 33.0341751,64.3105531 31.5218321,64.292914 C30.0094892,64.2752749 28.6691275,64.3187427 27.9486542,64.4413764 L27.7059066,64.4827443 L27.6349302,64.7185623 C27.6290505,64.7380913 27.6227508,64.7517406 27.5540843,64.9774791 C26.7691443,67.5616074 24.2845509,69.2646206 21.5672894,69.0869697 C20.4656855,69.0149434 19.9885898,68.88391 18.0262398,68.0916204 C16.2778689,67.3856364 15.8994682,67.274972 12.5849971,66.4929719 C11.1761789,66.1605588 9.56073117,65.7286108 8.20630018,65.3342509 C7.52908469,65.137071 6.91780584,64.9499705 6.42895075,64.7880687 C5.93547589,64.6244871 5.60201289,64.5064731 5.36535494,64.3848893 C4.1711458,63.7700406 3.56910647,62.4256891 3.86834123,61.0828075 C3.95779667,60.681308 4.206424,60.0645694 4.47458033,59.4885688 C4.7931341,58.8044236 4.9835944,58.3164085 5.05079097,57.7168891 C5.11819754,57.1173696 5.0680101,56.4409941 4.95860567,55.3167114 C4.73517706,53.0223683 4.77633496,52.0146296 5.19841345,51.1517836 C5.50037806,50.534835 5.92812627,50.0503897 6.51252649,49.7713139 C7.1128859,49.4846785 7.85183825,49.376954 8.87490611,49.3452456 C9.24742713,49.3334862 9.61238854,49.317737 9.89734402,49.3017779 C10.0399268,49.2935883 10.1619305,49.2853987 10.2541158,49.2778391 C10.3114429,49.2732193 10.3622603,49.2664996 10.3843092,49.2635598 C10.3859891,49.2633498 10.3851492,49.2633498 10.3864091,49.2631398 C10.3845192,49.2633498 10.3840992,49.2633498 10.3719198,49.2639798 C10.3708699,49.2639798 10.3662501,49.2639798 10.3637303,49.2639798 C10.36877,49.2629298 10.3819993,49.2641898 10.3861991,49.2631398 C10.3866191,49.2631398 10.388929,49.2627198 10.389139,49.2627198 C10.3924988,49.2618799 10.4038382,49.2629298 10.4067781,49.2622999 C10.4166476,49.2602 10.4239972,49.2585201 10.4330267,49.2566302 C10.4376465,49.2553702 10.4418463,49.2543203 10.4523457,49.2515904 C10.4575955,49.2501205 10.4634752,49.2488605 10.4785944,49.2438208 C10.486154,49.2413009 10.5145026,49.2295415 10.5147126,49.2295415 C10.5147126,49.2295415 10.5539806,49.2089626 10.5539806,49.2089626 C10.5539806,49.2089626 10.6373463,49.1430259 10.6373463,49.142816 C10.6373463,49.142816 10.6780842,49.0848589 10.6946734,49.0613401 C10.7358313,49.024382 10.7736294,48.9922536 10.8353662,48.9309367 C11.015957,48.7520259 11.2622745,48.4735801 11.487593,48.0846799 C11.7360103,47.6556717 12.0398648,47.1781561 12.2359948,46.9265889 C12.2471243,46.9137795 12.2582537,46.9024401 12.2664433,46.8875309 C12.2954218,46.8533026 12.291222,46.8581324 12.3031914,46.8436431 C12.3145308,46.8320937 12.3474992,46.7900958 12.3474992,46.7898858 C12.3474992,46.7898858 12.390547,46.7058901 12.390547,46.7058901 C12.390547,46.7058901 12.3997865,46.6626323 12.4071361,46.6275641 C12.4071361,46.6273541 12.4069261,46.6269341 12.4071361,46.6267242 C12.4107059,46.609295 12.4153257,46.5872462 12.4153257,46.5872462 C12.4163757,46.5691871 12.4153257,46.5351688 12.4153257,46.5171097 C12.4161657,46.4803616 12.4161657,46.432904 12.4153257,46.3720071 C12.4138558,46.2504233 12.4083961,46.0763422 12.3951667,45.844094 C12.3575787,45.1870375 12.3800475,44.6700439 12.5999063,44.0129873 C12.8235449,43.3441714 13.2307142,42.5168136 13.9717664,41.0632676 C15.3898241,38.2811194 15.8679698,37.1087492 16.4784087,34.9215006 C16.8519796,33.5834488 17.0663787,32.8449164 17.6230604,31.9171837 C18.1822619,30.9854612 19.062327,29.8815474 20.7959987,27.7083681 C21.4832937,26.8467821 22.0933126,26.0568023 22.555919,25.4320841 C22.7887971,25.1177302 22.9895469,24.8310948 23.1373794,24.6131259 C23.2112956,24.5041414 23.2719825,24.4121661 23.3175502,24.3416097 C23.3629079,24.2710533 23.3820169,24.2466945 23.4170851,24.1771881 L23.7312291,23.5533099 L23.6132151,19.8858467 C23.5466485,17.8220719 23.4401839,15.3005204 23.3778171,14.3013913 C23.241744,12.129892 23.3028509,9.8838464 23.5500083,8.50841649 C23.7566378,7.35872507 24.2690117,5.92827796 24.8137239,5.00201516 C25.3680957,4.05895321 26.7443656,2.67974349 27.6842777,2.12747163 C29.1598725,1.26021582 30.916433,0.820498227 32.7112115,0.79865934 Z M33.1032616,0.000700000001 L32.701342,0.0055297539 C30.7835098,0.0288385662 28.8936061,0.496694726 27.2821482,1.44353648 C26.1557656,2.10542275 24.792305,3.47308306 24.1295788,4.60030563 C23.51704,5.64185255 22.9950066,7.1109377 22.7690581,8.36814363 C22.4998519,9.86599731 22.4465146,12.1317819 22.5853175,14.3509488 C22.6462144,15.3225693 22.7535189,17.8542003 22.8198755,19.9114654 L22.9313799,23.3771288 L22.7083712,23.8199963 C22.7260103,23.7849281 22.6909421,23.8485548 22.6502042,23.9119716 C22.6092563,23.9755984 22.5512992,24.0627439 22.4803228,24.1675286 C22.3383701,24.3766779 22.14308,24.6553337 21.9175515,24.9598182 C21.4631347,25.5736169 20.8583655,26.3583469 20.1756903,27.2138433 C18.4424386,29.3868126 17.5472542,30.5008059 16.942275,31.5089645 C16.334986,32.5209029 16.0882486,33.3671598 15.7138376,34.7083615 C15.1120083,36.8641116 14.6748106,37.936737 13.2645224,40.703346 C12.5222103,42.1598318 12.0990818,43.0067186 11.8466747,43.7612102 C11.5904877,44.5274611 11.5627692,45.1870375 11.6026671,45.8894517 C11.6154765,46.1114104 11.6203062,46.2747821 11.6215662,46.3825066 C11.6217761,46.4018256 11.6215662,46.4093852 11.6215662,46.4251344 C11.6165264,46.4316441 11.6161064,46.4310141 11.6100167,46.4385737 C11.3628593,46.7556576 11.0606847,47.238633 10.800928,47.6871701 C10.6192872,48.0006841 10.4214773,48.2239028 10.2767947,48.3671155 C10.2213575,48.4219227 10.1822995,48.455731 10.1438715,48.4901692 C10.0653355,48.4960489 9.97168023,48.5025586 9.85219632,48.5094882 C9.57627038,48.5250274 9.21655871,48.5405666 8.85033737,48.5521161 C7.78506165,48.5852944 6.92725536,48.6938588 6.17045392,49.0552504 C5.3976933,49.4244116 4.84668137,50.065089 4.48570977,50.8032013 C3.96451632,51.8684771 3.94225746,53.0681459 4.16862592,55.3939874 C4.27719039,56.5094506 4.31666838,57.1419384 4.26207116,57.6282736 C4.20747394,58.1148188 4.06447123,58.4898597 3.75515699,59.1540558 C3.47650119,59.7527353 3.21128471,60.3843831 3.09411068,60.9106163 C2.72032972,62.5873809 3.48385082,64.3088732 5.00207346,65.0904533 C5.31768737,65.2529851 5.68138884,65.3760388 6.17948346,65.5410904 C6.68219784,65.7076119 7.30040634,65.8972322 7.9841315,66.0965121 C9.35158183,66.4946518 10.976689,66.9291196 12.4029363,67.2657325 C15.7148876,68.0473127 15.9899736,68.1252187 17.7293149,68.8274229 C19.7074141,69.6262222 20.3594309,69.8034532 21.515632,69.8790493 C24.5942851,70.0804291 27.4215811,68.1453777 28.3136156,65.2080473 C28.3144556,65.2057375 28.3138256,65.2076274 28.3144556,65.2051075 C28.9622726,65.1217417 30.1493421,65.0707143 31.5123826,65.0866735 C33.0016267,65.1041026 34.644163,65.1891483 35.8684007,65.3445404 C37.0913783,65.4999325 39.1276446,65.8795931 39.8479079,66.0608139 C40.4276883,67.7499678 41.8791344,68.9515266 43.8356047,69.591994 C45.1768063,70.0310816 46.5306074,70.120747 47.8575297,69.8397813 C48.9438044,69.6096331 50.0737568,69.0915895 50.9634815,68.4198337 C51.3874499,68.0996 52.1362717,67.4267943 52.8254566,66.7777174 C54.3632082,65.3290012 55.2327739,64.743761 57.6535306,63.5375825 C60.1519833,62.2925559 61.0578771,61.741754 61.8310577,60.8933972 C62.6705949,59.9723841 63.1586101,58.9791347 63.1472707,57.8928601 C63.140341,57.2255141 62.9931385,56.5052508 62.5202426,55.8857824 C62.0672957,55.2923526 61.4490872,54.8186167 60.4888061,54.1094829 C59.901886,53.675855 59.3798526,53.2384473 58.9983021,52.8728559 C58.8126715,52.694785 58.6560195,52.5200739 58.5451452,52.3856807 C58.489708,52.3184841 58.4456102,52.2611571 58.4160017,52.2206291 C58.3937429,52.1903907 58.3922729,52.1868208 58.3958428,52.1952204 C58.390803,52.1780013 58.3849233,52.1565824 58.3769437,52.1271839 C58.3584647,52.0589374 58.3334759,51.9629723 58.3076473,51.8544078 C58.2559899,51.6374888 58.2003427,51.3653427 58.1780839,51.1610231 C58.0783389,50.2463097 57.8891386,49.4586399 57.5243872,48.7793245 C57.214023,48.2012239 56.7449069,47.7587765 56.2056544,47.4242635 C56.6130336,45.9902466 56.7125685,44.7401803 56.6630111,43.5738997 L56.6630111,43.5730598 L56.6625911,43.5722198 C56.4790604,39.662009 54.7474887,34.2108968 52.6637648,31.0589574 C52.3212723,30.5409138 51.6541363,29.7265753 51.0422275,29.0394903 C48.8207507,26.5448174 48.2002323,25.6233844 47.0757396,23.1503404 C46.5816348,22.0638558 45.9819053,20.8129495 45.674271,20.2445085 C45.3821759,19.704626 45.3506775,19.7212151 45.2599621,19.0341301 C45.1715566,18.3634243 45.1087698,17.0862694 44.9991554,14.5886567 C44.7973557,9.98926103 44.4855216,8.44394977 43.319661,6.28147996 C42.1357413,4.08520187 40.4041695,2.33347113 38.3271654,1.28688446 C36.6961785,0.464986342 34.8911105,0.0599169826 33.1032616,0.0240088123 L33.1032616,0.000700000001 Z" id="Fill-1" ></path>
            </g>
        </g>
    </g>
</svg>
