<?xml version="1.0" encoding="utf-8"?>
<!-- Generator: Adobe Illustrator 19.1.0, SVG Export Plug-In . SVG Version: 6.00 Build 0)  -->
<svg version="1.1" id="Layer_1" xmlns="http://www.w3.org/2000/svg" xmlns:xlink="http://www.w3.org/1999/xlink" x="0px" y="0px"
	 viewBox="0 0 72 72" enable-background="new 0 0 72 72" xml:space="preserve">
<g>
	
		<line fill="none" stroke="#322F84" stroke-linecap="round" stroke-linejoin="round" stroke-miterlimit="10" x1="8" y1="66.3" x2="64" y2="66.3"/>
	<g>
		
			<line fill="none" stroke="#322F84" stroke-linecap="round" stroke-linejoin="round" stroke-miterlimit="10" x1="25.1" y1="61.6" x2="22" y2="30.7"/>
		
			<line fill="none" stroke="#322F84" stroke-linecap="round" stroke-linejoin="round" stroke-miterlimit="10" x1="46.9" y1="61.6" x2="50" y2="30.7"/>
	</g>
	<polyline fill="none" stroke="#322F84" stroke-linecap="round" stroke-linejoin="round" stroke-miterlimit="10" points="53.1,66.3 
		53.1,61.6 36.2,61.6 	"/>
	<polyline fill="none" stroke="#322F84" stroke-linecap="round" stroke-linejoin="round" stroke-miterlimit="10" points="19.3,66.3 
		19.3,61.6 36.2,61.6 	"/>
	<polygon fill="none" stroke="#322F84" stroke-linecap="round" stroke-linejoin="round" stroke-miterlimit="10" points="36,17.9 
		55.3,17.9 53.8,27.5 36,27.5 18.2,27.5 16.7,17.9 	"/>
	
		<line fill="none" stroke="#322F84" stroke-linecap="round" stroke-linejoin="round" stroke-miterlimit="10" x1="31.3" y1="17.9" x2="30.8" y2="11"/>
	
		<ellipse transform="matrix(0.9958 -9.206475e-02 9.206475e-02 0.9958 -0.6266 2.839)" fill="none" stroke="#322F84" stroke-linecap="round" stroke-linejoin="round" stroke-miterlimit="10" cx="30.5" cy="8.2" rx="1.6" ry="2.5"/>
	
		<ellipse transform="matrix(0.9498 -0.313 0.313 0.9498 -1.9705 8.2859)" fill="none" stroke="#322F84" stroke-linecap="round" stroke-linejoin="round" stroke-miterlimit="10" cx="24.8" cy="10.3" rx="1.6" ry="2.5"/>
	
		<ellipse transform="matrix(0.5 -0.866 0.866 0.5 11.7296 38.4379)" fill="none" stroke="#322F84" stroke-linecap="round" stroke-linejoin="round" stroke-miterlimit="10" cx="39.2" cy="9.1" rx="1.6" ry="2.5"/>
	<path fill="none" stroke="#322F84" stroke-linecap="round" stroke-linejoin="round" stroke-miterlimit="10" d="M44.4,17.9l1-2.8
		c0.4-1,0-2.1-0.9-2.7l-3-1.9"/>
	
		<line fill="none" stroke="#322F84" stroke-linecap="round" stroke-linejoin="round" stroke-miterlimit="10" x1="27" y1="17.9" x2="25.5" y2="12.7"/>
	
		<line fill="none" stroke="#322F84" stroke-linecap="round" stroke-linejoin="round" stroke-miterlimit="10" x1="35.4" y1="17.9" x2="35.2" y2="13.2"/>
	
		<rect x="28.6" y="32.2" fill="none" stroke="#322F84" stroke-linecap="round" stroke-linejoin="round" stroke-miterlimit="10" width="14.7" height="7.8"/>
	
		<line fill="none" stroke="#322F84" stroke-linecap="round" stroke-linejoin="round" stroke-miterlimit="10" x1="15.4" y1="21.7" x2="56.5" y2="21.7"/>
</g>
</svg>
