<?xml version="1.0" encoding="utf-8"?>
<!-- Generator: Adobe Illustrator 19.1.0, SVG Export Plug-In . SVG Version: 6.00 Build 0)  -->
<svg version="1.1" id="Layer_1" xmlns="http://www.w3.org/2000/svg" xmlns:xlink="http://www.w3.org/1999/xlink" x="0px" y="0px"
	 viewBox="0 0 72 72" enable-background="new 0 0 72 72" xml:space="preserve">
<path fill="none" stroke="#322F84" stroke-linecap="round" stroke-linejoin="round" stroke-miterlimit="10" d="M19.1,67.2
	C9.3,61.9,2.3,52.1,0.8,40.6"/>
<path fill="none" stroke="#322F84" stroke-linecap="round" stroke-linejoin="round" stroke-miterlimit="10" d="M0.8,40.6
	c-0.2-1.5-0.3-3-0.3-4.6C0.5,16.4,16.4,0.5,36,0.5S71.5,16.4,71.5,36S55.6,71.5,36,71.5c-1,0-2,0-2.9-0.1"/>
<path fill="none" stroke="#322F84" stroke-linecap="round" stroke-linejoin="round" stroke-miterlimit="10" d="M66.8,32
	c0.2,1.3,0.3,2.6,0.3,4c0,17.1-13.9,31-31,31S5,53.1,5,36S18.9,5,36,5c0.9,0,1.7,0,2.5,0.1"/>
<circle fill="none" stroke="#322F84" stroke-linecap="round" stroke-linejoin="round" stroke-miterlimit="10" cx="36" cy="36" r="8.3"/>
<circle fill="none" stroke="#322F84" stroke-linecap="round" stroke-linejoin="round" stroke-miterlimit="10" cx="36" cy="36" r="4.6"/>
<circle fill="none" stroke="#322F84" stroke-linecap="round" stroke-linejoin="round" stroke-miterlimit="10" cx="39.2" cy="15.7" r="2.2"/>
<circle fill="none" stroke="#322F84" stroke-linecap="round" stroke-linejoin="round" stroke-miterlimit="10" cx="21.3" cy="28.4" r="2.2"/>
<line fill="none" stroke="#322F84" stroke-linecap="round" stroke-linejoin="round" stroke-miterlimit="10" x1="39.2" y1="32.8" x2="54.1" y2="17.9"/>
</svg>
