<?xml version="1.0" encoding="utf-8"?>
<!-- Generator: Adobe Illustrator 19.1.0, SVG Export Plug-In . SVG Version: 6.00 Build 0)  -->
<svg version="1.1" id="Layer_1" xmlns="http://www.w3.org/2000/svg" xmlns:xlink="http://www.w3.org/1999/xlink" x="0px" y="0px"
	 viewBox="0 0 72 72" enable-background="new 0 0 72 72" xml:space="preserve">
<path fill="none" stroke="#322F84" stroke-linecap="round" stroke-linejoin="round" stroke-miterlimit="10" d="M18.8,49.3V11.6
	c0-4.1,3.3-7.4,7.4-7.4h10.3c4.1,0,7.4,3.3,7.4,7.4v37.7"/>
<line fill="none" stroke="#322F84" stroke-linecap="round" stroke-linejoin="round" stroke-miterlimit="10" x1="21" y1="45.7" x2="41" y2="45.7"/>
<line fill="none" stroke="#322F84" stroke-linecap="round" stroke-linejoin="round" stroke-miterlimit="10" x1="21" y1="51.7" x2="41" y2="51.7"/>
<line fill="none" stroke="#322F84" stroke-linecap="round" stroke-linejoin="round" stroke-miterlimit="10" x1="21" y1="57.6" x2="41" y2="57.6"/>
<line fill="none" stroke="#322F84" stroke-linecap="round" stroke-linejoin="round" stroke-miterlimit="10" x1="21" y1="63.6" x2="41" y2="63.6"/>
<polyline fill="none" stroke="#322F84" stroke-linecap="round" stroke-linejoin="round" stroke-miterlimit="10" points="21,67.8 
	21,36.3 18.8,31.8 "/>
<polyline fill="none" stroke="#322F84" stroke-linecap="round" stroke-linejoin="round" stroke-miterlimit="10" points="41.7,67.8 
	41.7,36.3 43.9,31.8 "/>
<line fill="none" stroke="#322F84" stroke-linecap="round" stroke-linejoin="round" stroke-miterlimit="10" x1="4.8" y1="49.3" x2="19.9" y2="49.3"/>
<line fill="none" stroke="#322F84" stroke-linecap="round" stroke-linejoin="round" stroke-miterlimit="10" x1="43.4" y1="49.3" x2="71.5" y2="49.3"/>
<path fill="none" stroke="#322F84" stroke-linecap="round" stroke-linejoin="round" stroke-miterlimit="10" d="M54.3,25.8L54.3,25.8
	c-2.2,0-4-1.8-4-4v-7.2c0-2.2,1.8-4,4-4h0c2.2,0,4,1.8,4,4v7.2C58.3,24,56.5,25.8,54.3,25.8z"/>
<path fill="none" stroke="#322F84" stroke-linecap="round" stroke-linejoin="round" stroke-miterlimit="10" d="M67.5,25.8L67.5,25.8
	c-2.2,0-4-1.8-4-4v-7.2c0-2.2,1.8-4,4-4h0c2.2,0,4,1.8,4,4v7.2C71.5,24,69.7,25.8,67.5,25.8z"/>
<path fill="none" stroke="#322F84" stroke-linecap="round" stroke-linejoin="round" stroke-miterlimit="10" d="M0.5,23.3h13.2V10.7
	c0-4.4-4.7-7.1-8.5-4.9L0.5,8.5"/>
<line fill="none" stroke="#322F84" stroke-linecap="round" stroke-linejoin="round" stroke-miterlimit="10" x1="5.5" y1="20.8" x2="5.5" y2="8.3"/>
</svg>
