<?xml version="1.0" encoding="utf-8"?>
<!-- Generator: Adobe Illustrator 19.1.0, SVG Export Plug-In . SVG Version: 6.00 Build 0)  -->
<svg version="1.1" id="Layer_1" xmlns="http://www.w3.org/2000/svg" xmlns:xlink="http://www.w3.org/1999/xlink" x="0px" y="0px"
	 viewBox="0 0 72 72" enable-background="new 0 0 72 72" xml:space="preserve">
<line fill="none" stroke="#322F84" stroke-linecap="round" stroke-linejoin="round" stroke-miterlimit="10" x1="1" y1="59.9" x2="71" y2="59.9"/>
<path fill="none" stroke="#322F84" stroke-linecap="round" stroke-linejoin="round" stroke-miterlimit="10" d="M4.8,37V22
	c0-1,0.4-1.9,1.1-2.6l4.8-4.7c1.6-1.6,3.8-2.5,6.1-2.5h20h20c2.3,0,4.5,0.9,6.1,2.5l4.8,4.7c0.7,0.7,1.1,1.6,1.1,2.6v37.9"/>
<line fill="none" stroke="#322F84" stroke-linecap="round" stroke-linejoin="round" stroke-miterlimit="10" x1="4.8" y1="59.9" x2="4.8" y2="46"/>
<polyline fill="none" stroke="#322F84" stroke-linecap="round" stroke-linejoin="round" stroke-miterlimit="10" points="60.9,47.5 
	60.9,27.8 12.6,27.8 12.6,59.9 60.9,59.9 60.9,52 "/>
<line fill="none" stroke="#322F84" stroke-linecap="round" stroke-linejoin="round" stroke-miterlimit="10" x1="14.2" y1="31" x2="59.2" y2="31"/>
<line fill="none" stroke="#322F84" stroke-linecap="round" stroke-linejoin="round" stroke-miterlimit="10" x1="14.2" y1="34" x2="59.2" y2="34"/>
<line fill="none" stroke="#322F84" stroke-linecap="round" stroke-linejoin="round" stroke-miterlimit="10" x1="14.2" y1="37" x2="59.2" y2="37"/>
<line fill="none" stroke="#322F84" stroke-linecap="round" stroke-linejoin="round" stroke-miterlimit="10" x1="14.2" y1="40" x2="59.2" y2="40"/>
<line fill="none" stroke="#322F84" stroke-linecap="round" stroke-linejoin="round" stroke-miterlimit="10" x1="14.2" y1="43" x2="59.2" y2="43"/>
<line fill="none" stroke="#322F84" stroke-linecap="round" stroke-linejoin="round" stroke-miterlimit="10" x1="14.2" y1="46" x2="59.2" y2="46"/>
<line fill="none" stroke="#322F84" stroke-linecap="round" stroke-linejoin="round" stroke-miterlimit="10" x1="14.2" y1="49" x2="59.2" y2="49"/>
<line fill="none" stroke="#322F84" stroke-linecap="round" stroke-linejoin="round" stroke-miterlimit="10" x1="14.2" y1="52" x2="59.2" y2="52"/>
<line fill="none" stroke="#322F84" stroke-linecap="round" stroke-linejoin="round" stroke-miterlimit="10" x1="14.2" y1="55" x2="59.2" y2="55"/>
<polyline fill="none" stroke="#322F84" stroke-linecap="round" stroke-linejoin="round" stroke-miterlimit="10" points="13.2,24 
	13.2,20.4 61.5,20.4 61.5,24 "/>
<line fill="none" stroke="#322F84" stroke-linecap="round" stroke-linejoin="round" stroke-miterlimit="10" x1="19.2" y1="20.4" x2="19.2" y2="23.4"/>
<line fill="none" stroke="#322F84" stroke-linecap="round" stroke-linejoin="round" stroke-miterlimit="10" x1="25.1" y1="20.4" x2="25.1" y2="23.4"/>
<line fill="none" stroke="#322F84" stroke-linecap="round" stroke-linejoin="round" stroke-miterlimit="10" x1="31" y1="20.4" x2="31" y2="23.4"/>
<line fill="none" stroke="#322F84" stroke-linecap="round" stroke-linejoin="round" stroke-miterlimit="10" x1="36.9" y1="20.4" x2="36.9" y2="23.4"/>
<line fill="none" stroke="#322F84" stroke-linecap="round" stroke-linejoin="round" stroke-miterlimit="10" x1="42.8" y1="20.4" x2="42.8" y2="23.4"/>
<line fill="none" stroke="#322F84" stroke-linecap="round" stroke-linejoin="round" stroke-miterlimit="10" x1="48.6" y1="20.4" x2="48.6" y2="23.4"/>
<line fill="none" stroke="#322F84" stroke-linecap="round" stroke-linejoin="round" stroke-miterlimit="10" x1="54.5" y1="20.4" x2="54.5" y2="23.4"/>
</svg>
