<?xml version="1.0" encoding="utf-8"?>
<!-- Generator: Adobe Illustrator 19.1.0, SVG Export Plug-In . SVG Version: 6.00 Build 0)  -->
<svg version="1.1" id="Layer_1" xmlns="http://www.w3.org/2000/svg" xmlns:xlink="http://www.w3.org/1999/xlink" x="0px" y="0px"
	 viewBox="0 0 72 72" enable-background="new 0 0 72 72" xml:space="preserve">
<polyline fill="none" stroke="#322F84" stroke-linecap="round" stroke-linejoin="round" stroke-miterlimit="10" points="9,5.9 
	9,0.5 64.5,0.5 64.5,71.5 "/>
<line fill="none" stroke="#322F84" stroke-linecap="round" stroke-linejoin="round" stroke-miterlimit="10" x1="9" y1="47" x2="9" y2="25.7"/>
<polyline fill="none" stroke="#322F84" stroke-linecap="round" stroke-linejoin="round" stroke-miterlimit="10" points="64.5,71.5 
	9,71.5 9,66.4 "/>
<g>
	
		<circle fill="none" stroke="#322F84" stroke-linecap="round" stroke-linejoin="round" stroke-miterlimit="10" cx="36.7" cy="42.6" r="14.1"/>
	
		<circle fill="none" stroke="#322F84" stroke-linecap="round" stroke-linejoin="round" stroke-miterlimit="10" cx="36.7" cy="42.6" r="10.6"/>
	
		<circle fill="none" stroke="#322F84" stroke-linecap="round" stroke-linejoin="round" stroke-miterlimit="10" cx="36.7" cy="42.6" r="5"/>
	
		<line fill="none" stroke="#322F84" stroke-linecap="round" stroke-linejoin="round" stroke-miterlimit="10" x1="36.7" y1="47.6" x2="36.7" y2="53.1"/>
	
		<line fill="none" stroke="#322F84" stroke-linecap="round" stroke-linejoin="round" stroke-miterlimit="10" x1="36.7" y1="32" x2="36.7" y2="37.5"/>
	
		<line fill="none" stroke="#322F84" stroke-linecap="round" stroke-linejoin="round" stroke-miterlimit="10" x1="31.7" y1="42.6" x2="26.2" y2="42.6"/>
	
		<line fill="none" stroke="#322F84" stroke-linecap="round" stroke-linejoin="round" stroke-miterlimit="10" x1="47.3" y1="42.6" x2="41.8" y2="42.6"/>
	
		<line fill="none" stroke="#322F84" stroke-linecap="round" stroke-linejoin="round" stroke-miterlimit="10" x1="33.2" y1="46.1" x2="29.3" y2="50.1"/>
	
		<line fill="none" stroke="#322F84" stroke-linecap="round" stroke-linejoin="round" stroke-miterlimit="10" x1="44.2" y1="35.1" x2="40.3" y2="39"/>
	
		<line fill="none" stroke="#322F84" stroke-linecap="round" stroke-linejoin="round" stroke-miterlimit="10" x1="33.2" y1="39" x2="29.3" y2="35.1"/>
	
		<line fill="none" stroke="#322F84" stroke-linecap="round" stroke-linejoin="round" stroke-miterlimit="10" x1="44.2" y1="50.1" x2="40.3" y2="46.1"/>
</g>
<path fill="none" stroke="#322F84" stroke-linecap="round" stroke-linejoin="round" stroke-miterlimit="10" d="M52.9,19.4H21.7
	c-2.2,0-4-1.8-4-4v0c0-2.2,1.8-4,4-4h31.2c2.2,0,4,1.8,4,4v0C56.9,17.6,55.1,19.4,52.9,19.4z"/>
<polyline fill="none" stroke="#322F84" stroke-linecap="round" stroke-linejoin="round" stroke-miterlimit="10" points="61.2,30.9 
	53.8,30.9 53.8,33.7 "/>
<line fill="none" stroke="#322F84" stroke-linecap="round" stroke-linejoin="round" stroke-miterlimit="10" x1="24.9" y1="14.4" x2="24.9" y2="19.4"/>
<line fill="none" stroke="#322F84" stroke-linecap="round" stroke-linejoin="round" stroke-miterlimit="10" x1="33.2" y1="14.4" x2="33.2" y2="19.4"/>
<line fill="none" stroke="#322F84" stroke-linecap="round" stroke-linejoin="round" stroke-miterlimit="10" x1="41.4" y1="14.4" x2="41.4" y2="19.4"/>
<line fill="none" stroke="#322F84" stroke-linecap="round" stroke-linejoin="round" stroke-miterlimit="10" x1="49.7" y1="14.4" x2="49.7" y2="19.4"/>
<path fill="none" stroke="#322F84" stroke-linecap="round" stroke-linejoin="round" stroke-miterlimit="10" d="M8.5,22.4L8.5,22.4
	c-0.5,0-1-0.4-1-1V9.7c0-0.5,0.4-1,1-1h0c0.5,0,1,0.4,1,1v11.7C9.5,22,9.1,22.4,8.5,22.4z"/>
<path fill="none" stroke="#322F84" stroke-linecap="round" stroke-linejoin="round" stroke-miterlimit="10" d="M8.5,63.5L8.5,63.5
	c-0.5,0-1-0.4-1-1V50.9c0-0.5,0.4-1,1-1h0c0.5,0,1,0.4,1,1v11.7C9.5,63.1,9.1,63.5,8.5,63.5z"/>
</svg>
