<?xml version="1.0" encoding="UTF-8"?>
<svg width="17px" height="18px" viewBox="0 0 17 18" version="1.1" xmlns="http://www.w3.org/2000/svg" xmlns:xlink="http://www.w3.org/1999/xlink">
    <!-- Generator: Sketch 46.2 (44496) - http://www.bohemiancoding.com/sketch -->
    <title>Icon/ phone</title>
    <desc>Created with Sketch.</desc>
    <defs></defs>
    <g id="Symbols" stroke="none" stroke-width="1">
        <g id="Icon/-phone">
            <path d="M14.308475,10.7296406 C13.9376361,10.3437044 13.4904985,10.1373112 13.0166541,10.1373112 C12.5465362,10.1373112 12.0954811,10.3397867 11.7095449,10.725914 L10.5016668,11.9298267 C10.4021968,11.8762695 10.3029178,11.8266301 10.2073654,11.7769906 C10.0698177,11.7081451 9.93977085,11.6431694 9.82888227,11.5743239 C8.69758947,10.8558175 7.6694455,9.91930833 6.6833446,8.7077515 C6.20558253,8.10381247 5.8845742,7.59542585 5.65147408,7.07963392 C5.96479045,6.79297668 6.25536534,6.49470982 6.53810493,6.20805258 C6.64526696,6.10112943 6.75219011,5.99028863 6.85930437,5.88317438 C7.66180131,5.08067743 7.66180131,4.04097162 6.85930437,3.23828357 L5.81568091,2.19485122 C5.69738702,2.07636622 5.5749366,1.95410691 5.46036926,1.83189537 C5.23099569,1.59487761 4.99025138,1.35021566 4.74186288,1.12084209 C4.37102397,0.753920821 3.92761299,0.559089449 3.46141276,0.559089449 C2.99502143,0.559089449 2.54415737,0.753920821 2.16194772,1.12084209 L2.15430352,1.12848628 L0.854647371,2.43956095 C0.36546679,2.92869375 0.086453743,3.52494081 0.0252524221,4.21678806 C-0.0663823425,5.33279248 0.262270184,6.37249829 0.514576332,7.05273592 C1.13361264,8.72303988 2.05875111,10.2708934 3.43848019,11.9298267 C5.11251069,13.9287831 7.12675557,15.5072612 9.42765769,16.6195391 C10.3066443,17.0360999 11.4801713,17.5291503 12.7910071,17.6131409 C12.8714622,17.6170585 12.9554528,17.6207851 13.0319425,17.6207851 C13.9148946,17.6207851 14.6563335,17.3037422 15.2372922,16.6729051 C15.2410665,16.6652609 15.2487107,16.6615344 15.2526284,16.6538902 C15.4513774,16.4131459 15.6805599,16.1951431 15.9214953,15.9620907 C16.0857021,15.8052892 16.2538743,15.6410824 16.4182723,15.4689925 C16.7967554,15.0754121 16.9953133,14.616665 16.9953133,14.1465949 C16.9953133,13.6727505 16.7928377,13.2177299 16.4069015,12.8355202 L14.308475,10.7296406 Z M15.6768333,14.7542127 C15.6729157,14.7542127 15.6729157,14.7581303 15.6768333,14.7542127 C15.5277238,14.9149318 15.3748399,15.0601237 15.210442,15.220604 C14.9620535,15.4576218 14.7097473,15.7060103 14.4728729,15.9850233 C14.0867456,16.3978575 13.6319639,16.5926889 13.035669,16.5926889 C12.9783854,16.5926889 12.9171841,16.5926889 12.8599004,16.5889623 C11.7248333,16.5163425 10.6698391,16.0729315 9.87871286,15.6946395 C7.71535844,14.6472895 5.81568091,13.1604462 4.23720281,11.2762481 C2.93401122,9.70527092 2.06247765,8.25292201 1.48543663,6.69350662 C1.1298861,5.74190013 0.999982592,5.0002223 1.05731404,4.30092196 C1.09553501,3.85359334 1.2674338,3.48294553 1.58471559,3.16571151 L2.88809828,1.86228104 C3.07528546,1.68651238 3.27403448,1.59095996 3.46905696,1.59095996 C3.70980126,1.59095996 3.90463263,1.73634296 4.02708305,1.8585545 L4.03845379,1.86997301 C4.27174501,2.08792807 4.49328328,2.31338399 4.72652672,2.55412829 C4.84505949,2.67653093 4.9673188,2.79879025 5.08953034,2.92496721 L6.13296269,3.96839956 C6.53810493,4.3735418 6.53810493,4.74810726 6.13296269,5.15324949 C6.02212189,5.26413807 5.91515097,5.37497887 5.80431017,5.48190202 C5.48330183,5.81055454 5.17743856,6.11641782 4.84505949,6.41449357 C4.8374153,6.42213777 4.8297711,6.42605542 4.82585345,6.4335085 C4.49720093,6.76235214 4.55840225,7.08336047 4.62705666,7.30112442 L4.63866628,7.33566662 C4.90998735,7.99297167 5.29219701,8.61219908 5.87315568,9.34991149 L5.87693,9.35363804 C6.9319242,10.6531031 8.04401096,11.6661498 9.27090395,12.4419398 C9.42765769,12.5414099 9.58813797,12.6216739 9.74102183,12.6979725 C9.87871286,12.7668658 10.0086164,12.8317937 10.1194572,12.9006392 C10.1347933,12.9083311 10.1500817,12.9197019 10.1653701,12.9273461 C10.2952736,12.9922739 10.4175329,13.0228985 10.5436621,13.0228985 C10.8609439,13.0228985 11.0596929,12.8241495 11.1246208,12.7592216 L12.4317778,11.4520646 C12.5618246,11.32197 12.7682656,11.1654074 13.0090099,11.1654074 C13.2460277,11.1654074 13.4408591,11.3143258 13.559344,11.4444204 L15.6729157,13.5579442 C16.0666872,13.9477981 16.0666872,14.3492615 15.6768333,14.7542127 Z" id="phoneIcon"></path>
        </g>
    </g>
</svg>
