<?xml version="1.0" encoding="utf-8"?>
<!-- Generator: Adobe Illustrator 19.1.0, SVG Export Plug-In . SVG Version: 6.00 Build 0)  -->
<svg version="1.1" id="Layer_1" xmlns="http://www.w3.org/2000/svg" xmlns:xlink="http://www.w3.org/1999/xlink" x="0px" y="0px"
	 viewBox="0 0 72 72" enable-background="new 0 0 72 72" xml:space="preserve">
<g>
	<path fill="none" stroke="#322F84" stroke-linecap="round" stroke-linejoin="round" stroke-miterlimit="10" d="M36,0.7h5.5
		c3.9,0,7.7,1.8,10.1,4.9l1.4,1.8c1.4,1.7,2.1,3.9,2.1,6.1v2.1c0,2.5-1,4.9-2.7,6.7l-1.2,1.2c-0.8,0.9-1.1,2.2-0.8,3.3l2.8,9.3
		c0.2,0.6,0.2,1.1,0.2,1.7l-0.1,2.6c-0.1,1.7-1.4,3.2-3.1,3.6l0,0c-4.8,1-8.5,5-9.2,9.9l-1.6,11.5c-0.1,0.9-0.1,1.9,0.2,2.8l0.5,1.7
		c0.2,0.8-0.3,1.5-1.1,1.5H36h-3.1c-0.8,0-1.4-0.8-1.1-1.5l0.5-1.7c0.3-0.9,0.3-1.8,0.2-2.8l-1.6-11.5c-0.7-4.9-4.4-8.8-9.2-9.9l0,0
		c-1.7-0.4-3-1.8-3.1-3.6l-0.1-2.6c0-0.6,0-1.2,0.2-1.7l2.8-9.3c0.3-1.2,0-2.4-0.8-3.3l-1.2-1.2c-1.7-1.8-2.7-4.2-2.7-6.7v-2.1
		c0-2.2,0.7-4.4,2.1-6.1l1.4-1.8c2.5-3.1,6.2-4.9,10.1-4.9H36z"/>
	<path fill="none" stroke="#322F84" stroke-linecap="round" stroke-linejoin="round" stroke-miterlimit="10" d="M54.3,5.3l9.2,4.4
		c3.6,1.7,6,5.2,6.2,9.2l1.7,25.8c0.3,3.7-1.4,7.3-4.4,9.5l-5.8,4.4c-1.9,1.4-4.2,2.2-6.6,2.2h0c-3.2,0-6.2-1.4-8.3-3.8"/>
	<path fill="none" stroke="#322F84" stroke-linecap="round" stroke-linejoin="round" stroke-miterlimit="10" d="M17.7,5.3L8.5,9.6
		c-3.6,1.7-6,5.2-6.2,9.2L0.5,44.6c-0.3,3.7,1.4,7.3,4.4,9.5l5.8,4.4c1.9,1.4,4.2,2.2,6.6,2.2h0c3.2,0,6.2-1.4,8.3-3.8"/>
	<g>
		<path fill="none" stroke="#322F84" stroke-linecap="round" stroke-linejoin="round" stroke-miterlimit="10" d="M20,43.2L15.2,49
			L11.4,42l0.9,7.9c0.2,2,1.7,3.6,3.6,4h0c1.6,0.4,3.4-0.2,4.5-1.5l3.6-4.4"/>
		
			<line fill="none" stroke="#322F84" stroke-linecap="round" stroke-linejoin="round" stroke-miterlimit="10" x1="11.4" y1="42" x2="16.2" y2="51.2"/>
		<g>
			<path fill="none" stroke="#322F84" stroke-linecap="round" stroke-linejoin="round" stroke-miterlimit="10" d="M52,43.2l4.8,5.9
				l3.9-7.1l-0.9,7.9c-0.2,2-1.7,3.6-3.6,4h0c-1.6,0.4-3.4-0.2-4.5-1.5l-3.8-4.4"/>
			
				<line fill="none" stroke="#322F84" stroke-linecap="round" stroke-linejoin="round" stroke-miterlimit="10" x1="60.6" y1="42" x2="55.8" y2="51.2"/>
		</g>
	</g>
	
		<line fill="none" stroke="#322F84" stroke-linecap="round" stroke-linejoin="round" stroke-miterlimit="10" x1="26.2" y1="25.1" x2="31.8" y2="25.1"/>
	
		<line fill="none" stroke="#322F84" stroke-linecap="round" stroke-linejoin="round" stroke-miterlimit="10" x1="40.8" y1="25.1" x2="46.4" y2="25.1"/>
	
		<line fill="none" stroke="#322F84" stroke-linecap="round" stroke-linejoin="round" stroke-miterlimit="10" x1="29" y1="25.1" x2="29" y2="27.2"/>
	
		<line fill="none" stroke="#322F84" stroke-linecap="round" stroke-linejoin="round" stroke-miterlimit="10" x1="43.6" y1="25.1" x2="43.6" y2="27.2"/>
</g>
</svg>
