<?xml version="1.0" encoding="UTF-8"?>
<svg width="12px" height="10px" viewBox="0 0 12 10" version="1.1" xmlns="http://www.w3.org/2000/svg" xmlns:xlink="http://www.w3.org/1999/xlink">
    <!-- Generator: Sketch 46.2 (44496) - http://www.bohemiancoding.com/sketch -->
    <title>Icon/ quote</title>
    <desc>Created with Sketch.</desc>
    <defs></defs>
    <g id="Symbols" stroke="none" stroke-width="1">
        <g id="Icon/-quote">
            <path d="M11.5701859,9.95098066 L7.45018587,9.95098066 C7.10351747,8.53764026 6.93018587,7.21765346 6.93018587,5.99098066 C6.93018587,2.65763066 8.42350427,0.990980659 11.4101859,0.990980659 L11.4101859,2.99098066 C10.1301795,2.99098066 9.49018587,3.75097306 9.49018587,5.27098066 L9.49018587,6.11098066 L11.5701859,6.11098066 L11.5701859,9.95098066 Z M5.49018587,9.95098066 L1.37018587,9.95098066 C1.02351747,8.53764026 0.850185871,7.21765346 0.850185871,5.99098066 C0.850185871,2.65763066 2.34350427,0.990980659 5.33018587,0.990980659 L5.33018587,2.99098066 C4.05017947,2.99098066 3.41018587,3.75097306 3.41018587,5.27098066 L3.41018587,6.11098066 L5.49018587,6.11098066 L5.49018587,9.95098066 Z" id="“"></path>
        </g>
    </g>
</svg>
