<?xml version="1.0" encoding="utf-8"?>
<!-- Generator: Adobe Illustrator 19.1.0, SVG Export Plug-In . SVG Version: 6.00 Build 0)  -->
<svg version="1.1" id="Layer_1" xmlns="http://www.w3.org/2000/svg" xmlns:xlink="http://www.w3.org/1999/xlink" x="0px" y="0px"
	 viewBox="0 0 72 72" enable-background="new 0 0 72 72" xml:space="preserve">
<g>
	<polyline fill="none" stroke="#322F84" stroke-linecap="round" stroke-linejoin="round" stroke-miterlimit="10" points="69.2,27.7 
		71.5,27.7 71.5,58.7 0.5,58.7 0.5,27.7 30.7,27.7 	"/>
	<path fill="none" stroke="#322F84" stroke-linecap="round" stroke-linejoin="round" stroke-miterlimit="10" d="M43.6,46.2
		c-1.2,3.9-4.2,6.7-7.6,6.7c-4.5,0-8.2-4.8-8.2-10.6c0-3.5,1.3-6.6,3.4-8.6"/>
	<path fill="none" stroke="#322F84" stroke-linecap="round" stroke-linejoin="round" stroke-miterlimit="10" d="M0.5,52.6
		c3.4,0,6.1,2.7,6.1,6.1H0.5V52.6z"/>
	<path fill="none" stroke="#322F84" stroke-linecap="round" stroke-linejoin="round" stroke-miterlimit="10" d="M0.5,33.7
		c3.4,0,6.1-2.7,6.1-6.1H0.5V33.7z"/>
	<g>
		<path fill="none" stroke="#322F84" stroke-linecap="round" stroke-linejoin="round" stroke-miterlimit="10" d="M71.5,52.6
			c-3.4,0-6.1,2.7-6.1,6.1h6.1V52.6z"/>
		<path fill="none" stroke="#322F84" stroke-linecap="round" stroke-linejoin="round" stroke-miterlimit="10" d="M69.2,27.7h2.3v6.1
			c-1.1,0-2.1-0.3-3-0.8"/>
	</g>
	
		<circle fill="none" stroke="#322F84" stroke-linecap="round" stroke-linejoin="round" stroke-miterlimit="10" cx="50.3" cy="27.7" r="14.3"/>
	
		<line fill="none" stroke="#322F84" stroke-linecap="round" stroke-linejoin="round" stroke-miterlimit="10" x1="50.3" y1="18.6" x2="50.3" y2="34.5"/>
	
		<line fill="none" stroke="#322F84" stroke-linecap="round" stroke-linejoin="round" stroke-miterlimit="10" x1="58.2" y1="26.6" x2="42.3" y2="26.6"/>
</g>
</svg>
