<?xml version="1.0" encoding="utf-8"?>
<!-- Generator: Adobe Illustrator 19.1.0, SVG Export Plug-In . SVG Version: 6.00 Build 0)  -->
<svg version="1.1" id="Layer_1" xmlns="http://www.w3.org/2000/svg" xmlns:xlink="http://www.w3.org/1999/xlink" x="0px" y="0px"
	 viewBox="0 0 72 72" enable-background="new 0 0 72 72" xml:space="preserve">
<path fill="none" stroke="#322F84" stroke-linecap="round" stroke-linejoin="round" stroke-miterlimit="10" d="M54.1,15
	c0.6,1.9,1,3.8,1.1,5.9l0.1,1.6c0.2,5.1-1.3,10-4.4,14.1L38.1,53.2"/>
<path fill="none" stroke="#322F84" stroke-linecap="round" stroke-linejoin="round" stroke-miterlimit="10" d="M23.8,51.8l-9.5-18.7
	c-2.3-4.5-2.9-9.7-1.7-14.6l0.4-1.5C15.4,6.6,25.2-0.4,35.8,0.6l0,0l0,0c5.1,0.5,9.7,2.7,13.1,6.1"/>
<line fill="none" stroke="#322F84" stroke-linecap="round" stroke-linejoin="round" stroke-miterlimit="10" x1="27.4" y1="54.7" x2="26.7" y2="62.4"/>
<line fill="none" stroke="#322F84" stroke-linecap="round" stroke-linejoin="round" stroke-miterlimit="10" x1="33.8" y1="55.3" x2="33.1" y2="63"/>
<path fill="none" stroke="#322F84" stroke-linecap="round" stroke-linejoin="round" stroke-miterlimit="10" d="M24.2,62.2l12,1.1
	l-0.5,5.8c-0.1,1.4-1.4,2.5-2.8,2.3L26,70.8c-1.4-0.1-2.5-1.4-2.3-2.8L24.2,62.2z"/>
<line fill="none" stroke="#322F84" stroke-linecap="round" stroke-linejoin="round" stroke-miterlimit="10" x1="41.5" y1="20" x2="60" y2="4.7"/>
<line fill="none" stroke="#322F84" stroke-linecap="round" stroke-linejoin="round" stroke-miterlimit="10" x1="60" y1="4.7" x2="59" y2="15.5"/>
<line fill="none" stroke="#322F84" stroke-linecap="round" stroke-linejoin="round" stroke-miterlimit="10" x1="60" y1="4.7" x2="49.2" y2="3.7"/>
<line fill="none" stroke="#322F84" stroke-linecap="round" stroke-linejoin="round" stroke-miterlimit="10" x1="20.1" y1="44.5" x2="42.8" y2="46.6"/>
</svg>
