<?xml version="1.0" encoding="utf-8"?>
<!-- Generator: Adobe Illustrator 19.1.0, SVG Export Plug-In . SVG Version: 6.00 Build 0)  -->
<svg version="1.1" id="Layer_1" xmlns="http://www.w3.org/2000/svg" xmlns:xlink="http://www.w3.org/1999/xlink" x="0px" y="0px"
	 viewBox="0 0 72 72" enable-background="new 0 0 72 72" xml:space="preserve">
<g>
	<path fill="none" stroke="#322F84" stroke-linecap="round" stroke-linejoin="round" stroke-miterlimit="10" d="M62.7,25.9l4-3.7
		c2.9-2.7,3.2-7.1,0.8-10.2l0,0C66,10.1,63.8,9,61.5,9H36H10.5c-2.3,0-4.5,1.1-6,2.9l0,0C2.1,15,2.5,19.5,5.4,22.2l4,3.7"/>
	<g>
		<polyline fill="none" stroke="#322F84" stroke-linecap="round" stroke-linejoin="round" stroke-miterlimit="10" points="26,25.9 
			9.3,25.9 9.3,33 		"/>
		<path fill="none" stroke="#322F84" stroke-linecap="round" stroke-linejoin="round" stroke-miterlimit="10" d="M29.8,35.8
			c-0.7-1.2-1.2-2.5-1.2-4v-5.9"/>
		<path fill="none" stroke="#322F84" stroke-linecap="round" stroke-linejoin="round" stroke-miterlimit="10" d="M43.4,25.9v5.9
			c0,1.5-0.4,2.8-1.2,4"/>
		<polyline fill="none" stroke="#322F84" stroke-linecap="round" stroke-linejoin="round" stroke-miterlimit="10" points="
			62.7,33.6 62.7,25.9 45.5,25.9 		"/>
	</g>
	<path fill="none" stroke="#322F84" stroke-linecap="round" stroke-linejoin="round" stroke-miterlimit="10" d="M43.4,20.9H28.6
		v10.9c0,4.1,3.3,7.4,7.4,7.4h0c4.1,0,7.4-3.3,7.4-7.4V20.9z"/>
	<path fill="none" stroke="#322F84" stroke-linecap="round" stroke-linejoin="round" stroke-miterlimit="10" d="M26,35.8H8.2
		c-1.8,0-3.3,1.5-3.3,3.3s1.5,3.3,3.3,3.3H63c1.8,0,3.3-1.5,3.3-3.3s-1.5-3.3-3.3-3.3H46.2"/>
</g>
<g>
	<path fill="none" stroke="#322F84" stroke-linecap="round" stroke-linejoin="round" stroke-miterlimit="10" d="M11.6,45.8h15.6
		c2.4,0,4.4,2,4.4,4.4v1.4c0,6.3-5.1,11.4-11.4,11.4h0c-6.3,0-11.4-5.1-11.4-11.4v-3C8.8,47.1,10,45.8,11.6,45.8z"/>
	<path fill="none" stroke="#322F84" stroke-linecap="round" stroke-linejoin="round" stroke-miterlimit="10" d="M60.4,45.8H44.9
		c-2.4,0-4.4,2-4.4,4.4v1.4c0,6.3,5.1,11.4,11.4,11.4h0c6.3,0,11.4-5.1,11.4-11.4v-3C63.2,47.1,62,45.8,60.4,45.8z"/>
</g>
<line fill="none" stroke="#322F84" stroke-linecap="round" stroke-linejoin="round" stroke-miterlimit="10" x1="33.5" y1="51.6" x2="38.5" y2="51.6"/>
<line fill="none" stroke="#322F84" stroke-linecap="round" stroke-linejoin="round" stroke-miterlimit="10" x1="21.8" y1="45.8" x2="15.4" y2="52.3"/>
<line fill="none" stroke="#322F84" stroke-linecap="round" stroke-linejoin="round" stroke-miterlimit="10" x1="21.8" y1="50.6" x2="12.4" y2="60"/>
<line fill="none" stroke="#322F84" stroke-linecap="round" stroke-linejoin="round" stroke-miterlimit="10" x1="59.4" y1="45.8" x2="53" y2="52.3"/>
<line fill="none" stroke="#322F84" stroke-linecap="round" stroke-linejoin="round" stroke-miterlimit="10" x1="59.4" y1="50.6" x2="50.1" y2="60"/>
</svg>
