<?xml version="1.0" encoding="UTF-8"?>
<svg width="19px" height="22px" viewBox="0 0 19 22" version="1.1" xmlns="http://www.w3.org/2000/svg" xmlns:xlink="http://www.w3.org/1999/xlink">
    <!-- Generator: Sketch 46.2 (44496) - http://www.bohemiancoding.com/sketch -->
    <title>Icon/ shield</title>
    <desc>Created with Sketch.</desc>
    <defs></defs>
    <g id="Symbols" stroke="none" stroke-width="1" fill="none" fill-rule="evenodd">
        <g id="Icon/-shield" fill="#8392A4">
            <g id="shieldIcon">
                <path d="M18.3691922,6.26862314 C18.3580889,5.6975433 18.3479726,5.15829294 18.3479726,4.63643774 C18.3479726,4.22771286 18.016354,3.89621761 17.6077524,3.89621761 C14.4420777,3.89621761 12.0319209,2.98636369 10.0228401,1.0331695 C9.73514121,0.75361303 9.27780853,0.75361303 8.99060312,1.0331695 C6.98201579,2.98636369 4.5719824,3.89621761 1.40618426,3.89621761 C0.997582747,3.89621761 0.665964127,4.22771286 0.665964127,4.63643774 C0.665964127,5.15829294 0.655847785,5.69803678 0.644867853,6.26911662 C0.543581064,11.5822934 0.404296309,18.8591508 9.2643612,21.9303241 C9.34294791,21.9573421 9.4248656,21.9712829 9.5067833,21.9712829 C9.58870099,21.9712829 9.67061869,21.9573421 9.74908202,21.9303241 C18.6091469,18.8591508 18.4703556,11.5822934 18.3691922,6.26862314 Z M9.5067833,20.4455659 C1.90842362,17.6851616 2.02303437,11.6386735 2.12530812,6.29712161 C2.13147662,5.97660629 2.13727501,5.66571384 2.14159296,5.36123662 C5.10642134,5.23638616 7.47685295,4.33763555 9.5067833,2.56998987 C11.5365903,4.33763555 13.9076387,5.23638616 16.8728372,5.36123662 C16.8771552,5.66571384 16.8829536,5.97660629 16.8891221,6.29662813 C16.9909023,11.63818 17.1055131,17.6851616 9.5067833,20.4455659 Z" id="Fill-1"></path>
                <path d="M12.055608,8.82620707 L8.48318222,12.3986328 L6.95832875,10.8737793 C6.66927278,10.5847234 6.20083681,10.5847234 5.91165748,10.8737793 C5.62247814,11.1629587 5.62247814,11.6318881 5.91165748,11.920574 L7.95984659,13.9686397 C8.10431288,14.1132294 8.29380924,14.1855242 8.48318222,14.1855242 C8.67255521,14.1855242 8.86192819,14.1132294 9.00651786,13.9686397 L13.1022792,9.87287834 C13.3914586,9.58369901 13.3914586,9.11489292 13.1022792,8.82620707 C12.8135934,8.53702774 12.3447873,8.53702774 12.055608,8.82620707 Z" id="Fill-4"></path>
            </g>
        </g>
    </g>
</svg>