<?xml version="1.0" encoding="UTF-8"?>
<svg width="24px" height="23px" viewBox="0 0 24 23" version="1.1" xmlns="http://www.w3.org/2000/svg" xmlns:xlink="http://www.w3.org/1999/xlink">
    <!-- Generator: Sketch 46.2 (44496) - http://www.bohemiancoding.com/sketch -->
    <title>Icon/ socialLinkedin</title>
    <desc>Created with Sketch.</desc>
    <defs></defs>
    <g id="Symbols" stroke="none" stroke-width="1" fill="none" fill-rule="evenodd">
        <g id="Icon/-socialLinkedin" fill="#00BBFF">
            <path d="M23.4753663,13.8181263 L23.4753663,22.4953081 L18.4419933,22.4953081 L18.4419933,14.3951731 C18.4419933,12.3587249 17.7161281,10.9745611 15.8947147,10.9745611 C14.5019593,10.9745611 13.6804209,11.9116562 13.3133766,12.8134646 C13.1815573,13.1382874 13.1412997,13.5930271 13.1412997,14.0420595 L13.1412997,22.4940807 L8.11265201,22.4940807 C8.11265201,22.4940807 8.18027996,8.78064158 8.11265201,7.36033183 L13.1424657,7.36033183 L13.1424657,9.50534075 C13.135531,9.52307622 13.1209254,9.53768189 13.1139294,9.55738114 L13.1424657,9.55738114 L13.1424657,9.50534075 C13.814388,8.47453611 15.0046277,7.00531576 17.677957,7.00531576 C20.9959611,7.00531576 23.4753663,9.16806015 23.4753663,13.8181263 Z M2.84742927,0.0634475589 C1.12696678,0.0634475589 5.92543717e-05,1.19231888 5.92543717e-05,2.68099299 C5.92543717e-05,4.12959356 1.09364375,5.29657464 2.782747,5.29657464 L2.81318571,5.29657464 C4.57175796,5.29657464 5.66153762,4.12959356 5.66153762,2.68099299 C5.62723269,1.19231888 4.57200343,0.0634475589 2.84742927,0.0634475589 Z M0.300457466,22.4950626 L5.33094616,22.4950626 L5.33094616,7.35934994 L0.300457466,7.35934994 L0.300457466,22.4950626 Z" id="linkedinIcon"></path>
        </g>
    </g>
</svg>