<?xml version="1.0" encoding="UTF-8"?>
<svg width="29px" height="22px" viewBox="0 0 29 22" version="1.1" xmlns="http://www.w3.org/2000/svg" xmlns:xlink="http://www.w3.org/1999/xlink">
    <!-- Generator: Sketch 46.2 (44496) - http://www.bohemiancoding.com/sketch -->
    <title>Icon/ socialGplus</title>
    <desc>Created with Sketch.</desc>
    <defs></defs>
    <g id="Symbols" stroke="none" stroke-width="1" fill="none" fill-rule="evenodd">
        <g id="Icon/-socialGplus" fill="#00BBFF">
            <g id="gplusIcon">
                <path d="M22.1458804,10.0157655 L12.1510811,10.0157655 L12.1510811,13.3472944 L18.2488719,13.3472944 C17.3393382,16.2438443 14.6339293,18.344694 11.4370858,18.344694 C7.49418915,18.344694 4.29784207,15.148347 4.29784207,11.2056631 C4.29784207,7.26276645 7.49418915,4.06641938 11.4370858,4.06641938 C13.4226835,4.06641938 15.2185586,4.87736824 16.5126441,6.18556763 L18.9309512,3.55696987 C16.9993978,1.66442487 14.3549839,0.496939364 11.4370858,0.496939364 C5.52298906,0.496939364 0.728362062,5.29128267 0.728362062,11.2056631 C0.728362062,17.1198308 5.52298906,21.9144578 11.4370858,21.9144578 C16.6178958,21.9144578 21.1537199,18.2352578 22.1458804,13.3475781 L22.1458804,10.0157655 Z"></path>
                <polygon id="Fill-4" points="28.6362374 10.0099497 26.5916306 10.0099497 26.5916306 7.96562663 24.8393031 7.96562663 24.8393031 10.0099497 22.79498 10.0099497 22.79498 11.7622773 24.8393031 11.7622773 24.8393031 13.8068841 26.5916306 13.8068841 26.5916306 11.7622773 28.6362374 11.7622773"></polygon>
            </g>
        </g>
    </g>
</svg>