<?xml version="1.0" encoding="UTF-8"?>
<svg width="12px" height="22px" viewBox="0 0 12 22" version="1.1" xmlns="http://www.w3.org/2000/svg" xmlns:xlink="http://www.w3.org/1999/xlink">
    <!-- Generator: Sketch 46.2 (44496) - http://www.bohemiancoding.com/sketch -->
    <title>Icon/ socialFacebook</title>
    <desc>Created with Sketch.</desc>
    <defs></defs>
    <g id="Symbols" stroke="none" stroke-width="1">
        <g id="Icon/-socialFacebook">
            <path d="M11.3159906,0.499462472 L8.55389007,0.495308105 C5.45113139,0.495308105 3.44540271,2.5528279 3.44540271,5.73673522 L3.44540271,8.15374629 L0.668069495,8.15374629 C0.429054879,8.15374629 0.234353517,8.34733982 0.234353517,8.58746227 L0.234353517,12.0895942 C0.234353517,12.3286088 0.429054879,12.5233101 0.668069495,12.5233101 L3.44540271,12.5233101 L3.44540271,21.3590961 C3.44540271,21.5981107 3.64010407,21.7928121 3.88022652,21.7928121 L7.50228115,21.7928121 C7.7424036,21.7928121 7.93710496,21.5981107 7.93710496,21.3590961 L7.93710496,12.5233101 L11.1838817,12.5233101 C11.4240042,12.5233101 11.6178747,12.3286088 11.6178747,12.0895942 L11.6198134,8.58746227 C11.6198134,8.47280173 11.5732844,8.36257251 11.4921358,8.28031603 C11.4109871,8.19916738 11.3007579,8.15374629 11.1849895,8.15374629 L7.93710496,8.15374629 L7.93710496,6.10481219 C7.93710496,5.12022707 8.17196521,4.62031817 9.45400305,4.62031817 L11.3148828,4.61921034 C11.5550052,4.61921034 11.7485988,4.42450898 11.7485988,4.18549436 L11.7485988,0.934563239 C11.7485988,0.694163834 11.5550052,0.500570304 11.3159906,0.499462472 Z" id="facebookIcon"></path>
        </g>
    </g>
</svg>
