<?xml version="1.0" encoding="UTF-8"?>
<svg width="19px" height="23px" viewBox="0 0 19 23" version="1.1" xmlns="http://www.w3.org/2000/svg" xmlns:xlink="http://www.w3.org/1999/xlink">
    <!-- Generator: Sketch 46.2 (44496) - http://www.bohemiancoding.com/sketch -->
    <title>Icon/ socialGithub</title>
    <desc>Created with Sketch.</desc>
    <defs></defs>
    <g id="Symbols" stroke="none" stroke-width="1" fill="none" fill-rule="evenodd">
        <g id="Icon/-socialGithub" fill="#00BBFF">
            <path d="M18.6956527,9.86844016 C18.7785533,9.34402549 18.8303005,8.76885536 18.8433102,8.12391106 C18.838293,5.35896399 17.5146841,4.38037552 17.2599151,3.92188459 C17.6350387,1.82667615 17.1979584,0.87364042 16.9944116,0.547522048 C16.244456,0.281318447 14.3851146,1.23458753 13.3691887,1.90572631 C11.7126358,1.42080754 8.21225968,1.4681793 6.89938529,2.03109811 C4.47741674,0.296836781 3.19645411,0.561173515 3.19645411,0.561173515 C3.19645411,0.561173515 2.36809011,2.04632475 2.97744725,4.21906652 C2.1805283,5.23452562 1.5863978,5.95256944 1.5863978,7.85706573 C1.5863978,8.31304805 1.61486752,8.74423604 1.66299769,9.15873891 C2.34912974,12.7673933 5.20847029,14.3241272 8.0172304,14.5925477 C7.59467666,14.9138822 7.08718047,15.5214309 7.01699793,16.2258232 C6.48599088,16.5690351 5.4176761,16.6825056 4.58703685,16.4213775 C3.42298679,16.0537797 2.97744725,13.7486654 1.2343183,14.0775257 C0.857152778,14.148175 0.932119166,14.3968184 1.25870425,14.6089412 C1.78988633,14.9533198 2.28991505,15.3815325 2.67548147,16.2978726 C2.97149661,17.0010982 3.5943302,18.2572081 5.56305838,18.2572081 C6.3447507,18.2572081 6.8923262,18.1647399 6.8923262,18.1647399 C6.8923262,18.1647399 6.90714446,19.9572824 6.90714446,20.6564242 C6.90714446,21.4609273 5.82126946,21.6867599 5.82126946,22.0727931 C5.82126946,22.2261679 6.18064141,22.2407528 6.46959745,22.2407528 C7.04021709,22.2407528 8.22777802,21.7653434 8.22777802,20.9292202 C8.22777802,20.2647321 8.2385125,18.0318422 8.2385125,17.6407919 C8.2385125,16.7862334 8.69630336,16.5143125 8.69630336,16.5143125 C8.69630336,16.5143125 8.75236771,21.0753026 8.58604151,21.6867599 C8.39118724,22.4059705 8.03794096,22.3038762 8.03794096,22.6238106 C8.03794096,23.1014953 9.46568602,22.7404898 9.93922856,21.6951608 C10.3054262,20.8786398 10.1413753,16.4058592 10.1413753,16.4058592 L10.5233247,16.3974583 C10.5233247,16.3974583 10.5276418,18.4459367 10.5146321,19.381879 C10.5007472,20.3513081 10.4006948,21.5766731 10.976565,22.1550519 C11.3544306,22.5354261 12.5120633,23.2028895 12.5120633,22.5928323 C12.5120633,22.2393526 11.7014929,21.9471879 11.7014929,20.9896017 L11.7014929,16.5776693 C12.1939375,16.5776693 12.2957984,18.0279918 12.2957984,18.0279918 L12.4733258,20.7220563 C12.4733258,20.7220563 12.3553048,21.7051952 13.5353399,22.1156143 C13.9518847,22.2614633 14.8429638,22.3011343 14.8848516,22.0563996 C14.9265644,21.8107316 13.811753,21.4476842 13.8012518,20.6867608 C13.7955346,20.2234861 13.8220207,19.9520319 13.8220207,17.9363403 C13.8220207,15.9215822 13.5512666,15.1761771 12.6082653,14.58228 C15.3431675,14.3015498 18.1840144,13.0802686 18.6956527,9.86844016 Z" id="githubIcon"></path>
        </g>
    </g>
</svg>