<?xml version="1.0" encoding="utf-8"?>
<!-- Generator: Adobe Illustrator 19.1.0, SVG Export Plug-In . SVG Version: 6.00 Build 0)  -->
<svg version="1.1" id="Layer_1" xmlns="http://www.w3.org/2000/svg" xmlns:xlink="http://www.w3.org/1999/xlink" x="0px" y="0px"
	 viewBox="0 0 72 72" enable-background="new 0 0 72 72" xml:space="preserve">
<path fill="none" stroke="#322F84" stroke-linecap="round" stroke-linejoin="round" stroke-miterlimit="10" d="M4.4,47.4
	c-1.3-3.6-2-7.4-2-11.4c0-18.6,15-33.6,33.6-33.6s33.6,15,33.6,33.6S54.6,69.6,36,69.6c-5.1,0-10-1.1-14.3-3.2"/>
<path fill="none" stroke="#322F84" stroke-linecap="round" stroke-linejoin="round" stroke-miterlimit="10" d="M59.1,19.4
	c3.4,4.7,5.4,10.4,5.4,16.6c0,15.7-12.7,28.5-28.5,28.5S7.5,51.7,7.5,36S20.3,7.5,36,7.5c3.4,0,6.7,0.6,9.8,1.7"/>
<line fill="none" stroke="#322F84" stroke-linecap="round" stroke-linejoin="round" stroke-miterlimit="10" x1="24.4" y1="12.7" x2="31.9" y2="12.7"/>
<line fill="none" stroke="#322F84" stroke-linecap="round" stroke-linejoin="round" stroke-miterlimit="10" x1="24.4" y1="20.8" x2="31.9" y2="20.8"/>
<line fill="none" stroke="#322F84" stroke-linecap="round" stroke-linejoin="round" stroke-miterlimit="10" x1="24.4" y1="29" x2="31.9" y2="29"/>
<line fill="none" stroke="#322F84" stroke-linecap="round" stroke-linejoin="round" stroke-miterlimit="10" x1="24.4" y1="37.2" x2="31.9" y2="37.2"/>
<line fill="none" stroke="#322F84" stroke-linecap="round" stroke-linejoin="round" stroke-miterlimit="10" x1="24.4" y1="45.3" x2="31.9" y2="45.3"/>
<line fill="none" stroke="#322F84" stroke-linecap="round" stroke-linejoin="round" stroke-miterlimit="10" x1="24.4" y1="53.5" x2="31.9" y2="53.5"/>
<line fill="none" stroke="#322F84" stroke-linecap="round" stroke-linejoin="round" stroke-miterlimit="10" x1="40" y1="12.7" x2="47.5" y2="12.7"/>
<line fill="none" stroke="#322F84" stroke-linecap="round" stroke-linejoin="round" stroke-miterlimit="10" x1="40" y1="20.8" x2="47.5" y2="20.8"/>
<line fill="none" stroke="#322F84" stroke-linecap="round" stroke-linejoin="round" stroke-miterlimit="10" x1="40" y1="29" x2="47.5" y2="29"/>
<line fill="none" stroke="#322F84" stroke-linecap="round" stroke-linejoin="round" stroke-miterlimit="10" x1="40" y1="37.2" x2="47.5" y2="37.2"/>
<line fill="none" stroke="#322F84" stroke-linecap="round" stroke-linejoin="round" stroke-miterlimit="10" x1="40" y1="45.3" x2="47.5" y2="45.3"/>
<line fill="none" stroke="#322F84" stroke-linecap="round" stroke-linejoin="round" stroke-miterlimit="10" x1="40" y1="53.5" x2="47.5" y2="53.5"/>
<line fill="none" stroke="#322F84" stroke-linecap="round" stroke-linejoin="round" stroke-miterlimit="10" x1="7.6" y1="38.3" x2="63.2" y2="44.3"/>
<line fill="none" stroke="#322F84" stroke-linecap="round" stroke-linejoin="round" stroke-miterlimit="10" x1="36" y1="29.2" x2="36" y2="47.5"/>
</svg>
