<?xml version="1.0" encoding="utf-8"?>
<!-- Generator: Adobe Illustrator 19.1.0, SVG Export Plug-In . SVG Version: 6.00 Build 0)  -->
<svg version="1.1" id="Layer_1" xmlns="http://www.w3.org/2000/svg" xmlns:xlink="http://www.w3.org/1999/xlink" x="0px" y="0px"
	 viewBox="0 0 72 72" enable-background="new 0 0 72 72" xml:space="preserve">
<g>
	<path fill="none" stroke="#322F84" stroke-linecap="round" stroke-linejoin="round" stroke-miterlimit="10" d="M25.5,11.7v10.6
		c0,5.9,4.8,10.7,10.7,10.7h0C42.2,33,47,28.2,47,22.3V11.7"/>
	<path fill="none" stroke="#322F84" stroke-linecap="round" stroke-linejoin="round" stroke-miterlimit="10" d="M45.7,33l11.6,5.1
		c3.2,1.4,5.3,4.6,5.3,8.1v25.2"/>
	<path fill="none" stroke="#322F84" stroke-linecap="round" stroke-linejoin="round" stroke-miterlimit="10" d="M26.3,33l-11.6,5.1
		c-3.2,1.4-5.3,4.6-5.3,8.1v25.2"/>
	<path fill="none" stroke="#322F84" stroke-linecap="round" stroke-linejoin="round" stroke-miterlimit="10" d="M51.2,11.7H47v11
		h4.3c1.6,0,2.8-1.3,2.8-2.8v-5.3C54.1,13,52.8,11.7,51.2,11.7z"/>
	<path fill="none" stroke="#322F84" stroke-linecap="round" stroke-linejoin="round" stroke-miterlimit="10" d="M25.5,11.7h-4.3
		c-1.6,0-2.8,1.3-2.8,2.8v5.3c0,1.6,1.3,2.8,2.8,2.8h4.3V11.7z"/>
	<path fill="none" stroke="#322F84" stroke-linecap="round" stroke-linejoin="round" stroke-miterlimit="10" d="M49.7,22.7v2.4
		c0,1.6-1.3,2.9-2.9,2.9h-7.4"/>
	
		<rect x="35" y="27.4" fill="none" stroke="#322F84" stroke-linecap="round" stroke-linejoin="round" stroke-miterlimit="10" width="4.4" height="2.3"/>
	
		<line fill="none" stroke="#322F84" stroke-linecap="round" stroke-linejoin="round" stroke-miterlimit="10" x1="26.5" y1="8.7" x2="30.7" y2="11.7"/>
	
		<line fill="none" stroke="#322F84" stroke-linecap="round" stroke-linejoin="round" stroke-miterlimit="10" x1="29.9" y1="9.1" x2="35" y2="12.8"/>
	
		<line fill="none" stroke="#322F84" stroke-linecap="round" stroke-linejoin="round" stroke-miterlimit="10" x1="32.4" y1="10.7" x2="47" y2="11.7"/>
	<path fill="none" stroke="#322F84" stroke-linecap="round" stroke-linejoin="round" stroke-miterlimit="10" d="M23.5,11.7
		L23.5,11.7c0-6.2,5-11.2,11.2-11.2h3.2c6.2,0,11.2,5,11.2,11.2v0"/>
	
		<line fill="none" stroke="#322F84" stroke-linecap="round" stroke-linejoin="round" stroke-miterlimit="10" x1="30.7" y1="36.8" x2="36.3" y2="48.9"/>
	<polyline fill="none" stroke="#322F84" stroke-linecap="round" stroke-linejoin="round" stroke-miterlimit="10" points="41.8,35.7 
		36.3,48.9 36.3,70.2 	"/>
	
		<line fill="none" stroke="#322F84" stroke-linecap="round" stroke-linejoin="round" stroke-miterlimit="10" x1="18.5" y1="48.1" x2="18.5" y2="71.5"/>
	
		<line fill="none" stroke="#322F84" stroke-linecap="round" stroke-linejoin="round" stroke-miterlimit="10" x1="52.1" y1="48.1" x2="52.1" y2="71.5"/>
</g>
</svg>
