<?xml version="1.0" encoding="UTF-8"?>
<svg width="23px" height="19px" viewBox="0 0 23 19" version="1.1" xmlns="http://www.w3.org/2000/svg" xmlns:xlink="http://www.w3.org/1999/xlink">
    <!-- Generator: Sketch 46.2 (44496) - http://www.bohemiancoding.com/sketch -->
    <title>Icon/ twitter</title>
    <desc>Created with Sketch.</desc>
    <defs></defs>
    <g id="Symbols" stroke="none" stroke-width="1" fill="none" fill-rule="evenodd">
        <g id="Icon/-twitter" fill="#00BBFF">
            <path d="M22.3597929,2.78000344 C21.5406386,3.14329578 20.6533669,3.39480587 19.7259234,3.50484153 C20.674326,2.93719724 21.3974175,2.03769938 21.7449905,0.965288326 C20.8577188,1.49101426 19.8761309,1.87351918 18.824679,2.07787113 C17.9932984,1.19059944 16.7986255,0.631688146 15.4816908,0.631688146 C12.9508706,0.631688146 10.8968716,2.68568716 10.8968716,5.21650737 C10.8968716,5.57805312 10.9387899,5.92562608 11.0138936,6.26097286 C7.19932402,6.0688471 3.82315047,4.24714559 1.55781312,1.47005509 C1.16133542,2.14598844 0.936024304,2.93719724 0.936024304,3.77731079 C0.936024304,5.36671478 1.74819228,6.77272601 2.97605054,7.59013378 C2.22501348,7.57092121 1.52288117,7.35958287 0.902838946,7.01724971 L0.902838946,7.07314084 C0.902838946,9.29655984 2.48525655,11.1514467 4.57942732,11.57587 C4.1969224,11.6771726 3.78821851,11.7313172 3.37252824,11.7313172 C3.07909981,11.7313172 2.79265777,11.7051182 2.50621573,11.6509737 C3.09307259,13.4726752 4.78377926,14.7948497 6.79062013,14.8367681 C5.22042871,16.0646263 3.2415334,16.7947042 1.09321811,16.7947042 C0.72468597,16.7947042 0.363140226,16.773745 0.00159448094,16.7335733 C2.03463432,18.0365352 4.44319269,18.7928121 7.03514382,18.7928121 C15.467718,18.7928121 20.0804828,11.8064209 20.0804828,5.7492197 L20.06651,5.15537645 C20.9677545,4.50738867 21.7449905,3.70220708 22.3597929,2.78000344 Z" id="twitterIcon"></path>
        </g>
    </g>
</svg>