<svg xmlns="http://www.w3.org/2000/svg" xmlns:xlink="http://www.w3.org/1999/xlink" width="0" height="0" style="position:absolute">
	
		<symbol id="align-reset" viewBox="0 0 32 32">
			<path d="M16 2.667C8.64 2.667 2.667 8.64 2.667 16S8.64 29.333 16 29.333 29.333 23.36 29.333 16 23.36 2.667 16 2.667zM5.333 16c0-5.893 4.773-10.667 10.667-10.667 2.467 0 4.733.84 6.533 2.253L7.586 22.533A10.539 10.539 0 0 1 5.333 16zM16 26.667c-2.467 0-4.733-.84-6.533-2.253L24.414 9.467A10.539 10.539 0 0 1 26.667 16c0 5.893-4.773 10.667-10.667 10.667z"></path>
		</symbol>
	
		<symbol id="columns" viewBox="0 0 416 448">
			<path d="M40 384h152V96H32v280c0 4.25 3.75 8 8 8zm344-8V96H224v288h152c4.25 0 8-3.75 8-8zm32-304v304c0 22-18 40-40 40H40c-22 0-40-18-40-40V72c0-22 18-40 40-40h336c22 0 40 18 40 40z"></path>
		</symbol>
	
		<symbol id="flex-align-center" viewBox="0 0 1024 1024">
			<path d="M292.572 530.286H731.43v146.286H292.572zm0-182.858H731.43v146.286H292.572z"></path><path opacity=".5" d="M0 493.714v36.571h1024v-36.571H0zm256 0h512v36.571H256v-36.571z"></path>
		</symbol>
	
		<symbol id="flex-align-end" viewBox="0 0 1024 1024">
			<path d="M292.572 530.286H731.43v146.286H292.572zm0-182.857H731.43v146.286H292.572z"></path><path opacity=".5" d="M0 640v36.571h1024V640H0zm256 0h512v36.571H256V640z"></path>
		</symbol>
	
		<symbol id="flex-align-start" viewBox="0 0 1008 1024">
			<path d="M287.995 530h432.006v144.002H287.995zm0-180.002h432.006V494H287.995z"></path><path opacity=".5" d="M-.009 349.998v36.001h1008.013v-36.001H-.009zm252.003 0H756v36.001H251.994v-36.001z"></path>
		</symbol>
	
		<symbol id="flex-content-around" viewBox="0 0 48 32">
			<path opacity=".5" d="M23.143.571h1.714v30.857h-1.714zM0 .571h1.714v30.857H0zm46.286 0H48v30.857h-1.714z"></path><path d="M32.571 9.143h6.857v13.714h-6.857zm-24 0h6.857v13.714H8.571z"></path>
		</symbol>
	
		<symbol id="flex-content-between" viewBox="0 0 48 32">
			<path opacity=".5" d="M0 .571h1.714v30.857H0V.571zm0 6.858v17.143h1.714V7.429H0zM46.286.571H48v30.857h-1.714V.571zm0 6.858v17.143H48V7.429h-1.714z"></path><path d="M41.143 9.143H48v13.714h-6.857zM0 9.143h6.857v13.714H0z"></path>
		</symbol>
	
		<symbol id="flex-content-center" viewBox="0 0 34 32">
			<path opacity=".5" d="M16.002 0h1.778v32h-1.778V0zm0 7.111v17.778h1.778V7.111h-1.778z"></path><path d="M17.78 8.889h7.111v14.222H17.78zm-8.889 0h7.111v14.222H8.891z"></path>
		</symbol>
	
		<symbol id="flex-content-end" viewBox="0 0 32 32">
			<path opacity=".5" d="M22.222 0H24v32h-1.778V0zm0 7.111v17.778H24V7.111h-1.778z"></path><path d="M16.889 8.889H24v14.222h-7.111zM8 8.889h7.111v14.222H8z"></path>
		</symbol>
	
		<symbol id="flex-content-start" viewBox="0 0 32 32">
			<path opacity=".5" d="M8 0h1.778v32H8V0zm0 7.111v17.778h1.778V7.111H8z"></path><path d="M16.889 8.889H24v14.222h-7.111zM8 8.889h7.111v14.222H8z"></path>
		</symbol>
	
		<symbol id="flex-self-center" viewBox="0 0 32 32">
			<path opacity=".5" d="M0 15.429v1.143h32v-1.143H0zm9.143 0h12.571v1.143H9.143v-1.143z"></path><path d="M16 10.857h4.571v10.286H16zm-5.714-2.286h4.571v14.857h-4.571z"></path>
		</symbol>
	
		<symbol id="flex-self-end" viewBox="0 0 32 32">
			<path opacity=".5" d="M0 21.714v1.143h32v-1.143H0zm9.143 0h12.571v1.143H9.143v-1.143z"></path><path d="M16 13.714h4.571v9.143H16zm-5.714-4.571h4.571v13.714h-4.571z"></path>
		</symbol>
	
		<symbol id="flex-self-start" viewBox="0 0 32 32">
			<path opacity=".5" d="M0 9.143v1.143h32V9.143H0zm9.143 0h12.571v1.143H9.143V9.143z"></path><path d="M16 9.143h4.571v9.143H16zm-5.714 0h4.571v13.714h-4.571z"></path>
		</symbol>
	
		<symbol id="info" viewBox="0 0 384 448">
			<path d="M256 344v-40c0-4.5-3.5-8-8-8h-24V168c0-4.5-3.5-8-8-8h-80c-4.5 0-8 3.5-8 8v40c0 4.5 3.5 8 8 8h24v80h-24c-4.5 0-8 3.5-8 8v40c0 4.5 3.5 8 8 8h112c4.5 0 8-3.5 8-8zm-32-224V80c0-4.5-3.5-8-8-8h-48c-4.5 0-8 3.5-8 8v40c0 4.5 3.5 8 8 8h48c4.5 0 8-3.5 8-8zm160 104c0 106-86 192-192 192S0 330 0 224 86 32 192 32s192 86 192 192z"></path>
		</symbol>
	
		<symbol id="size-lg" viewBox="0 0 640 512">
			<path d="M512 64v256H128V64h384m16-64H112C85.5 0 64 21.5 64 48v288c0 26.5 21.5 48 48 48h416c26.5 0 48-21.5 48-48V48c0-26.5-21.5-48-48-48zm100 416H389.5c-3 0-5.5 2.1-5.9 5.1C381.2 436.3 368 448 352 448h-64c-16 0-29.2-11.7-31.6-26.9-.5-2.9-3-5.1-5.9-5.1H12c-6.6 0-12 5.4-12 12v36c0 26.5 21.5 48 48 48h544c26.5 0 48-21.5 48-48v-36c0-6.6-5.4-12-12-12z"></path>
		</symbol>
	
		<symbol id="size-md" viewBox="0 0 448 512">
			<path d="M400 0H48C21.5 0 0 21.5 0 48v416c0 26.5 21.5 48 48 48h352c26.5 0 48-21.5 48-48V48c0-26.5-21.5-48-48-48zM224 480c-17.7 0-32-14.3-32-32s14.3-32 32-32 32 14.3 32 32-14.3 32-32 32zm176-108c0 6.6-5.4 12-12 12H60c-6.6 0-12-5.4-12-12V60c0-6.6 5.4-12 12-12h328c6.6 0 12 5.4 12 12v312z"></path>
		</symbol>
	
		<symbol id="size-sm" viewBox="0 0 320 512">
			<path d="M272 0H48C21.5 0 0 21.5 0 48v416c0 26.5 21.5 48 48 48h224c26.5 0 48-21.5 48-48V48c0-26.5-21.5-48-48-48zM160 480c-17.7 0-32-14.3-32-32s14.3-32 32-32 32 14.3 32 32-14.3 32-32 32zm112-108c0 6.6-5.4 12-12 12H60c-6.6 0-12-5.4-12-12V60c0-6.6 5.4-12 12-12h200c6.6 0 12 5.4 12 12v312z"></path>
		</symbol>
	
		<symbol id="size-xl" viewBox="0 0 576 512">
			<path d="M528 0H48C21.5 0 0 21.5 0 48v320c0 26.5 21.5 48 48 48h192l-16 48h-72c-13.3 0-24 10.7-24 24s10.7 24 24 24h272c13.3 0 24-10.7 24-24s-10.7-24-24-24h-72l-16-48h192c26.5 0 48-21.5 48-48V48c0-26.5-21.5-48-48-48zm-16 352H64V64h448v288z"></path>
		</symbol>
	
		<symbol id="size-xs" viewBox="0 0 320 512">
			<path d="M272 0H48C21.5 0 0 21.5 0 48v416c0 26.5 21.5 48 48 48h224c26.5 0 48-21.5 48-48V48c0-26.5-21.5-48-48-48zM160 480c-17.7 0-32-14.3-32-32s14.3-32 32-32 32 14.3 32 32-14.3 32-32 32zm112-108c0 6.6-5.4 12-12 12H60c-6.6 0-12-5.4-12-12V60c0-6.6 5.4-12 12-12h200c6.6 0 12 5.4 12 12v312z"></path>
		</symbol>
	
</svg>
