<svg xmlns="http://www.w3.org/2000/svg" viewBox="0 0 576 512"><!--! Font Awesome Pro 7.0.0 by @fontawesome - https://fontawesome.com License - https://fontawesome.com/license (Commercial License) Copyright 2025 Fonticons, Inc. --><path fill="currentColor" d="M25.4 38.7c-5.4 5.4-6.2 13.8-2 20.2l79.2 118.8c5.9 8.9 15.9 14.2 26.6 14.2l72.2 0 76.3 76.3c-24.6 35.3-21.2 84.2 10.3 115.7L414.2 510.1c18.7 18.7 49.1 18.7 67.9 0l60.1-60.1c18.7-18.7 18.7-49.1 0-67.9L416.1 256c-31.5-31.5-80.4-34.9-115.7-10.3l-76.3-76.3 0-72.2c0-10.7-5.3-20.7-14.2-26.6L91-8.7c-6.3-4.2-14.8-3.4-20.2 2L25.4 38.7zM192.1 160l-62.9 0-71.9-107.9 26.9-26.9 107.9 71.9 0 62.9zM519.5 427.3l-60.1 60.1c-6.2 6.2-16.4 6.2-22.6 0L310.7 361.4c-22.8-22.9-22.8-59.9 0-82.7s59.9-22.8 82.7 0L519.5 404.7c6.2 6.2 6.2 16.4 0 22.6zM45.2 397.1c-28.1 28.1-28.1 73.7 0 101.8s73.7 28.1 101.8 0L242 404c-6.8-8.9-12.4-18.5-16.8-28.5L124.4 476.3c-15.6 15.6-40.9 15.6-56.6 0s-15.6-40.9 0-56.6L214.6 273 192 250.3 45.2 397.1zM256.7 49.9c7 9.5 11.8 20.5 14 32.2 24.9-30.6 62.9-50.1 105.4-50.1 14.9 0 29.2 2.4 42.6 6.8l-61.9 61.9c-3 3-4.7 7.1-4.7 11.3l0 64c0 1.9 .3 3.8 1 5.5 17.7 .1 35.4 3.6 52.1 10.5l27 0c4.2 0 8.3-1.7 11.3-4.7l61.9-61.9c4.4 13.4 6.8 27.7 6.8 42.6 0 32.5-11.4 62.3-30.4 85.7l22.7 22.7c24.8-29.3 39.7-67.1 39.7-108.4 0-28.2-6.9-54.7-19.2-78.1-2.4-4.5-6.7-7.6-11.8-8.4s-10.1 .9-13.7 4.5l-73.9 73.9-41.4 0 0-41.4 73.9-73.9c3.6-3.6 5.3-8.7 4.5-13.7s-3.9-9.4-8.4-11.8C430.8 6.9 404.3 0 376.1 0 329.4 0 287.1 19.1 256.7 49.9z"/></svg>
