<?xml version="1.0" encoding="utf-8" standalone="yes"?>
<!DOCTYPE svg PUBLIC "-//W3C//DTD SVG 1.1//EN" "http://www.w3.org/Graphics/SVG/1.1/DTD/svg11.dtd">
<svg xmlns="http://www.w3.org/2000/svg" xmlns:xlink="http://www.w3.org/1999/xlink" xmlns:dc="http://purl.org/dc/elements/1.1/" xmlns:cc="http://web.resource.org/cc/" xmlns:rdf="http://www.w3.org/1999/02/22-rdf-syntax-ns#" xmlns:sodipodi="http://sodipodi.sourceforge.net/DTD/sodipodi-0.dtd" xmlns:inkscape="http://www.inkscape.org/namespaces/inkscape" version="1.1" baseProfile="full" width="16px" height="16px" viewBox="0 0 16 16" preserveAspectRatio="xMidYMid meet" id="svg_document" style="zoom: 32;"><path d="M14.854,10.146005 A.5,.5 0 0 1 14.854,10.854007 L10.853995,14.854002 A.5,.5 0 1 1 10.145996,14.146 L13.292999,11 L3.5,11 A2.5,2.5 0 0 1 1,8.499998 L1.000004,0.499996 A.5,.5 0 0 1 2.000002,0.499998 L2,8.499999 A1.5,1.5 0 0 0 3.5,10 L13.292999,10 L10.146,6.854 A.5,.5 0 1 1 10.854,6.146 L14.854,10.146005 " id="path1" fill-rule="evenodd"></path><!-- Created with macSVG - https://macsvg.org/ - https://github.com/dsward2/macsvg/ --></svg>