<?xml version="1.0" encoding="utf-8"?>
<!-- Generator: Adobe Illustrator 16.0.0, SVG Export Plug-In . SVG Version: 6.00 Build 0)  -->
<!DOCTYPE svg PUBLIC "-//W3C//DTD SVG 1.1//EN" "http://www.w3.org/Graphics/SVG/1.1/DTD/svg11.dtd">
<svg version="1.1" id="Layer_1" xmlns="http://www.w3.org/2000/svg" xmlns:xlink="http://www.w3.org/1999/xlink" x="0px" y="0px"
	 width="512px" height="512px" viewBox="0 0 512 512" enable-background="new 0 0 512 512" xml:space="preserve">
<path d="M512,192c0,4.952-1.81,9.238-5.429,12.857L360.286,351.143c-3.619,3.619-7.905,5.429-12.857,5.429
	c-4.953,0-9.238-1.81-12.857-5.429s-5.428-7.904-5.428-12.856v-73.144h-64c-18.667,0-35.381,0.571-50.143,1.715
	c-14.762,1.143-29.429,3.19-44,6.143s-27.238,7-38,12.143c-10.762,5.144-20.81,11.763-30.143,19.857
	c-9.333,8.095-16.952,17.714-22.857,28.857C74.095,345,69.476,358.19,66.143,373.429c-3.333,15.238-5,32.477-5,51.714
	c0,10.477,0.476,22.19,1.428,35.144c0,1.143,0.238,3.381,0.714,6.714S64,472.857,64,474.571c0,2.857-0.81,5.238-2.429,7.143
	c-1.619,1.905-3.857,2.857-6.714,2.857c-3.047,0-5.714-1.619-8-4.857c-1.333-1.714-2.571-3.809-3.714-6.285
	c-1.143-2.477-2.429-5.334-3.857-8.571c-1.429-3.238-2.429-5.524-3-6.857C12.095,403.714,0,360.762,0,329.143
	C0,291.238,5.047,259.523,15.143,234c30.857-76.762,114.19-115.143,250-115.143h64V45.714c0-4.952,1.809-9.238,5.428-12.856
	c3.619-3.619,7.905-5.429,12.857-5.429c4.952,0,9.238,1.81,12.857,5.429l146.286,146.285C510.19,182.762,512,187.048,512,192z"/>
</svg>
