<svg xmlns="http://www.w3.org/2000/svg" viewBox="0 0 640 640"><!--!Font Awesome Pro v7.0.0 by @fontawesome - https://fontawesome.com License - https://fontawesome.com/license (Commercial License) Copyright 2025 Fonticons, Inc.--><path d="M512 252.8C512 267.8 524.2 280 539.2 280C548.7 280 557.2 274.6 564.1 268C572 260.5 581.6 256 592 256C618.5 256 640 284.7 640 320C640 355.3 618.5 384 592 384C581.6 384 571.9 379.6 564.1 372C557.2 365.4 548.8 360 539.2 360C524.2 360 512 372.2 512 387.2L512 464C512 490.5 490.5 512 464 512L375.2 512C362.4 512 352 501.6 352 488.8C352 479.6 357.8 471.5 365.2 466C376.8 457.3 384 445.3 384 432C384 405.5 355.3 384 320 384C284.7 384 256 405.5 256 432C256 445.3 263.2 457.3 274.8 466C282.2 471.5 288 479.5 288 488.8C288 501.6 277.6 512 264.8 512L176 512C149.5 512 128 490.5 128 464L128 387.2C128 372.2 115.8 360 100.8 360C91.3 360 82.8 365.4 75.9 372C68 379.5 58.4 384 48 384C21.5 384 0 355.3 0 320C0 284.7 21.5 256 48 256C58.4 256 68.1 260.4 75.9 268C82.8 274.6 91.2 280 100.8 280C115.8 280 128 267.8 128 252.8L128 176C128 149.5 149.5 128 176 128L264.8 128C277.6 128 288 138.4 288 151.2C288 160.4 282.2 168.5 274.8 174C263.2 182.7 256 194.7 256 208C256 234.5 284.7 256 320 256C355.3 256 384 234.5 384 208C384 194.7 376.8 182.7 365.2 174C357.8 168.5 352 160.5 352 151.2C352 138.4 362.4 128 375.2 128L464 128C490.5 128 512 149.5 512 176L512 252.8z"/></svg>
