<svg xmlns="http://www.w3.org/2000/svg" viewBox="0 0 640 640"><!--!Font Awesome Pro v7.0.0 by @fontawesome - https://fontawesome.com License - https://fontawesome.com/license (Commercial License) Copyright 2025 Fonticons, Inc.--><path d="M528 128C536.8 128 544 135.2 544 144L544 176C544 184.8 536.8 192 528 192L112 192C103.2 192 96 184.8 96 176L96 144C96 135.2 103.2 128 112 128L528 128zM64 176C64 196.9 77.4 214.7 96 221.3L96 480C96 515.3 124.7 544 160 544L480 544C515.3 544 544 515.3 544 480L544 221.3C562.6 214.7 576 196.9 576 176L576 144C576 117.5 554.5 96 528 96L112 96C85.5 96 64 117.5 64 144L64 176zM128 480L128 224L512 224L512 480C512 497.7 497.7 512 480 512L160 512C142.3 512 128 497.7 128 480zM240 288C231.2 288 224 295.2 224 304C224 312.8 231.2 320 240 320L400 320C408.8 320 416 312.8 416 304C416 295.2 408.8 288 400 288L240 288z"/></svg>
