<?xml version="1.0" encoding="utf-8"?>
<!-- Generator: Adobe Illustrator 16.0.0, SVG Export Plug-In . SVG Version: 6.00 Build 0)  -->
<!DOCTYPE svg PUBLIC "-//W3C//DTD SVG 1.1//EN" "http://www.w3.org/Graphics/SVG/1.1/DTD/svg11.dtd">
<svg version="1.1" id="Layer_1" xmlns="http://www.w3.org/2000/svg" xmlns:xlink="http://www.w3.org/1999/xlink" x="0px" y="0px"
	 width="512px" height="512px" viewBox="0 0 512 512" enable-background="new 0 0 512 512" xml:space="preserve">
<path d="M96.5,160.5v288c0,15.693,17.457,31.5,32.438,31.5l255.562,0.5c15.694,0,32-17.021,32-32v-288H96.5z M160.5,432.5h-32v-224
	h32V432.5z M224.5,432.5h-32v-224h32V432.5z M320.5,432.5h-32v-224h32V432.5z M384.5,432.5h-32v-224h32V432.5z"/>
<path d="M416.5,96.5h-96v-48c0-11.414-5.371-16.5-16.071-16.5L208.5,32.5c-12.126,0-16,5.3-16,16v48h-96c-11.414,0-16,5.299-16,16
	v32h352v-32C432.499,101.799,427.914,96.5,416.5,96.5z M288.5,96.5h-64v-32h64V96.5z"/>
</svg>
