<?xml version="1.0" encoding="UTF-8" standalone="no"?>
<svg
   width="16"
   height="16"
   fill="currentColor"
   class="bi bi-broadcast-pin"
   viewBox="0 0 16 16"
   version="1.1"
   id="svg882"
   sodipodi:docname="publish.svg"
   inkscape:version="1.1.2 (b8e25be8, 2022-02-05)"
   xmlns:inkscape="http://www.inkscape.org/namespaces/inkscape"
   xmlns:sodipodi="http://sodipodi.sourceforge.net/DTD/sodipodi-0.dtd"
   xmlns="http://www.w3.org/2000/svg"
   xmlns:svg="http://www.w3.org/2000/svg">
  <path
     id="path876"
     d="M 13.173828 0.1171875 A 0.5 0.5 0 0 0 12.949219 0.24609375 A 0.5 0.5 0 0 0 12.949219 0.953125 A 7 7 0 0 1 14.308594 8.9335938 A 4 4 0 0 1 15.142578 9.5 A 8 8 0 0 0 13.65625 0.24609375 A 0.5 0.5 0 0 0 13.173828 0.1171875 z M 2.5664062 0.12109375 A 0.5 0.5 0 0 0 2.34375 0.24609375 A 8 8 0 0 0 2.34375 11.558594 A 0.5 0.5 0 0 0 3.0507812 10.851562 A 7 7 0 0 1 3.0507812 0.953125 A 0.5 0.5 0 0 0 2.5664062 0.12109375 z M 4.6875 2.2363281 A 0.5006316 0.5006316 0 0 0 4.4648438 2.3671875 A 5 5 0 0 0 4.4648438 9.4375 A 0.5006316 0.5006316 0 1 0 5.171875 8.7304688 A 4 4 0 0 1 5.171875 3.0742188 A 0.5006316 0.5006316 0 0 0 4.6875 2.2363281 z M 11.052734 2.2363281 A 0.5 0.5 0 0 0 10.828125 2.3671875 A 0.5 0.5 0 0 0 10.828125 3.0742188 A 4 4 0 0 1 10.828125 8.7304688 A 0.5006316 0.5006316 0 0 0 10.714844 8.9296875 A 4 4 0 0 1 12.261719 8.5175781 A 5 5 0 0 0 11.535156 2.3671875 A 0.5 0.5 0 0 0 11.052734 2.2363281 z M 7.4160156 3.9902344 A 2 2 0 0 0 6 5.9023438 A 2 2 0 0 0 7.5 7.8398438 L 7.5 13.402344 A 0.5 0.5 0 0 0 8.5 13.402344 L 8.5 12.5 L 8.5 7.8398438 A 2 2 0 1 0 7.4160156 3.9902344 z " />
  <path
     id="path878"
     d="m 12.5,16 a 3.5,3.5 0 1 0 0,-7 3.5,3.5 0 0 0 0,7 z m 1.679,-4.493 -1.335,2.226 a 0.75,0.75 0 0 1 -1.174,0.144 l -0.774,-0.773 a 0.5006316,0.5006316 0 0 1 0.708,-0.708 l 0.547,0.548 1.17,-1.951 a 0.50008999,0.50008999 0 1 1 0.858,0.514 z" />
</svg>
