<?xml version="1.0" encoding="UTF-8"?>
<svg version="1.1" viewBox="0 0 640 640" xmlns="http://www.w3.org/2000/svg"><path d="m125.5 82.5c-7.5-4.7-17.4-2.5-22.1 5-25 39.5-39.4 86.3-39.4 136.5s14.4 97 39.4 136.5c4.7 7.5 14.6 9.7 22.1 5s9.7-14.6 5-22.1c-21.9-34.5-34.5-75.5-34.5-119.4s12.6-84.9 34.5-119.5c4.7-7.5 2.5-17.4-5-22.1zm389 0c-7.5 4.7-9.7 14.6-5 22.1 21.8 34.6 34.5 75.5 34.5 119.5s-12.6 84.9-34.5 119.5c-4.7 7.5-2.5 17.4 5 22.1s17.4 2.5 22.1-5c25-39.7 39.4-86.5 39.4-136.7s-14.4-97-39.4-136.5c-4.7-7.5-14.6-9.7-22.1-5zm-226.5 141.5c0-17.7 14.3-32 32-32s32 14.3 32 32-14.3 32-32 32-32-14.3-32-32zm48 62c27.6-7.1 48-32.2 48-62 0-35.3-28.7-64-64-64s-64 28.7-64 64c0 29.8 20.4 54.9 48 62v274c0 8.8 7.2 16 16 16s16-7.2 16-16v-274zm-122.5-133.1c4.9-7.3 2.9-17.3-4.4-22.2s-17.3-2.9-22.2 4.4c-17 25.4-27 56-27 88.9s9.9 63.5 27 88.9c4.9 7.3 14.9 9.3 22.2 4.4s9.3-14.9 4.4-22.2c-13.6-20.3-21.5-44.8-21.5-71.1s7.9-50.8 21.5-71.1zm239.5-17.8c-4.9-7.3-14.9-9.3-22.2-4.4s-9.3 14.9-4.4 22.2c13.7 20.3 21.6 44.8 21.6 71.1s-7.9 50.8-21.5 71.1c-4.9 7.3-2.9 17.3 4.4 22.2s17.3 2.9 22.2-4.4c17-25.4 27-56 27-88.9s-9.9-63.5-27-88.9z"/><path d="m487.95 412.19c48.44 0 87.689 39.249 87.689 87.689 0 48.44-39.249 87.689-87.689 87.689-48.44 0-87.689-39.249-87.689-87.689 0-48.44 39.249-87.689 87.689-87.689zm0 195.61c59.612 0 107.93-48.314 107.93-107.93s-48.314-107.93-107.93-107.93-107.93 48.314-107.93 107.93 48.314 107.93 107.93 107.93zm-37.099-118.04c-5.6071 0-10.118 4.511-10.118 10.118 0 5.6071 4.511 10.118 10.118 10.118h74.199c5.6071 0 10.118-4.511 10.118-10.118 0-5.6071-4.511-10.118-10.118-10.118z" style="stroke-width:.42158"/></svg>
