<?xml version="1.0" encoding="iso-8859-1"?>
<!-- Generator: Adobe Illustrator 16.0.0, SVG Export Plug-In . SVG Version: 6.00 Build 0)  -->
<!DOCTYPE svg PUBLIC "-//W3C//DTD SVG 1.1//EN" "http://www.w3.org/Graphics/SVG/1.1/DTD/svg11.dtd">
<svg version="1.1" id="Capa_1" xmlns="http://www.w3.org/2000/svg" xmlns:xlink="http://www.w3.org/1999/xlink" x="0px" y="0px"
	 width="438.536px" height="438.536px" viewBox="0 0 438.536 438.536" style="enable-background:new 0 0 438.536 438.536;"
	 xml:space="preserve">
<path d="M414.41,24.123C398.333,8.042,378.963,0,356.315,0H82.228C59.58,0,40.21,8.042,24.126,24.123
	C8.045,40.207,0.003,59.576,0.003,82.225v274.084c0,22.647,8.042,42.018,24.123,58.102c16.084,16.084,35.454,24.126,58.102,24.126
	h274.084c22.648,0,42.018-8.042,58.095-24.126c16.084-16.084,24.126-35.454,24.126-58.102V82.225
	C438.532,59.576,430.49,40.204,414.41,24.123z M370.88,159.024l-175.307,175.3c-3.615,3.614-7.898,5.428-12.85,5.428
	c-4.95,0-9.233-1.807-12.85-5.421L67.663,232.118c-3.616-3.62-5.424-7.898-5.424-12.848c0-4.949,1.809-9.233,5.424-12.847
	l29.124-29.124c3.617-3.616,7.895-5.424,12.847-5.424c4.952,0,9.235,1.809,12.851,5.424l60.242,60.24l133.334-133.333
	c3.606-3.617,7.898-5.424,12.847-5.424c4.945,0,9.227,1.807,12.847,5.424l29.126,29.125c3.61,3.615,5.421,7.898,5.421,12.847
	S374.49,155.411,370.88,159.024z"/>
</svg>
