<?xml version="1.0" encoding="utf-8"?>
<!-- Generator: Adobe Illustrator 18.1.0, SVG Export Plug-In . SVG Version: 6.00 Build 0)  -->
<!DOCTYPE svg PUBLIC "-//W3C//DTD SVG 1.1//EN" "http://www.w3.org/Graphics/SVG/1.1/DTD/svg11.dtd">
<svg version="1.1" id="Layer_1" xmlns="http://www.w3.org/2000/svg" xmlns:xlink="http://www.w3.org/1999/xlink" x="0px" y="0px"
	 viewBox="-273 365 64 64" style="enable-background:new -273 365 64 64;" xml:space="preserve">
<path d="M-214.9,414.4c0-1.2-0.4-2.2-1.2-3.1l-13.9-14.2l14.2-13.9c0.9-0.8,1.3-1.9,1.3-3.1c0-1.2-0.4-2.2-1.2-3.1l-4.7-4.8
	c-0.8-0.9-1.9-1.3-3.1-1.3c-1.2,0-2.2,0.4-3.1,1.2l-14.2,13.9l-13.9-14.2c-0.8-0.9-1.9-1.3-3.1-1.3s-2.2,0.4-3.1,1.2l-4.8,4.7
	c-0.9,0.8-1.3,1.9-1.3,3.1c0,1.2,0.4,2.2,1.2,3.1l13.9,14.2l-14.2,13.9c-0.9,0.8-1.3,1.9-1.3,3.1s0.4,2.2,1.2,3.1l4.7,4.8
	c0.8,0.9,1.9,1.3,3.1,1.3c1.2,0,2.2-0.4,3.1-1.2l14.2-13.9l13.9,14.2c0.8,0.9,1.9,1.3,3.1,1.3c1.2,0,2.2-0.4,3.1-1.2l4.8-4.7
	C-215.4,416.6-214.9,415.6-214.9,414.4z"/>
</svg>
