<?xml version="1.0" encoding="utf-8"?>
<!-- Generator: Adobe Illustrator 16.0.0, SVG Export Plug-In . SVG Version: 6.00 Build 0)  -->
<!DOCTYPE svg PUBLIC "-//W3C//DTD SVG 1.1//EN" "http://www.w3.org/Graphics/SVG/1.1/DTD/svg11.dtd">
<svg version="1.1" id="Layer_1" xmlns="http://www.w3.org/2000/svg" xmlns:xlink="http://www.w3.org/1999/xlink" x="0px" y="0px"
	 width="512px" height="512px" viewBox="0 0 512 512" enable-background="new 0 0 512 512" xml:space="preserve">
<path d="M445.098,382.67c0-8.71-2.903-15.97-8.711-22.502l-100.9-103.079l103.079-100.899c6.532-5.807,9.435-13.792,9.435-22.503
	c0-8.712-2.901-15.971-8.71-22.503L405.174,76.34c-5.808-6.533-13.792-9.437-22.504-9.437c-8.71,0-15.969,2.903-22.503,8.711
	l-103.077,100.9l-100.9-103.078C150.382,66.903,142.396,64,133.687,64c-8.712,0-15.971,2.903-22.505,8.711L76.34,106.828
	c-6.533,5.808-9.437,13.792-9.437,22.503s2.903,15.97,8.711,22.504l100.899,103.078L73.436,355.812
	C66.903,361.62,64,369.605,64,378.315c0,8.712,2.903,15.97,8.71,22.502l34.119,34.844c5.806,6.534,13.79,9.438,22.502,9.438
	c8.711,0,15.971-2.903,22.504-8.712l103.077-100.9l100.9,103.08c5.808,6.532,13.792,9.434,22.503,9.434
	c8.712,0,15.971-2.901,22.503-8.71l34.843-34.116C441.468,398.64,445.098,391.381,445.098,382.67z"/>
</svg>
