<svg xmlns="http://www.w3.org/2000/svg" viewBox="0 0 640 640"><!--!Font Awesome Pro v7.0.0 by @fontawesome - https://fontawesome.com License - https://fontawesome.com/license (Commercial License) Copyright 2025 Fonticons, Inc.--><path d="M507.3 155.3C513.5 149.1 513.5 138.9 507.3 132.7C501.1 126.5 490.9 126.5 484.7 132.7L320 297.4L155.3 132.7C149.1 126.5 138.9 126.5 132.7 132.7C126.5 138.9 126.5 149.1 132.7 155.3L297.4 320L132.7 484.7C126.5 490.9 126.5 501.1 132.7 507.3C138.9 513.5 149.1 513.5 155.3 507.3L320 342.6L484.7 507.3C490.9 513.5 501.1 513.5 507.3 507.3C513.5 501.1 513.5 490.9 507.3 484.7L342.6 320L507.3 155.3z"/></svg>
