<svg xmlns="http://www.w3.org/2000/svg" viewBox="0 0 640 640"><!--!Font Awesome Pro v7.0.0 by @fontawesome - https://fontawesome.com License - https://fontawesome.com/license (Commercial License) Copyright 2025 Fonticons, Inc.--><path d="M509.7 141.7C512.8 138.6 512.8 133.5 509.7 130.4C506.6 127.3 501.5 127.3 498.4 130.4L320 308.7L141.7 130.3C138.6 127.2 133.5 127.2 130.4 130.3C127.3 133.4 127.3 138.5 130.4 141.6L308.7 320L130.3 498.3C127.2 501.4 127.2 506.5 130.3 509.6C133.4 512.7 138.5 512.7 141.6 509.6L320 331.3L498.3 509.7C501.4 512.8 506.5 512.8 509.6 509.7C512.7 506.6 512.7 501.5 509.6 498.4L331.3 320L509.7 141.7z"/></svg>
