<svg xmlns="http://www.w3.org/2000/svg" viewBox="0 0 640 640"><!--!Font Awesome Pro v7.0.0 by @fontawesome - https://fontawesome.com License - https://fontawesome.com/license (Commercial License) Copyright 2025 Fonticons, Inc.--><path d="M132.5 458.8C135.3 453.1 134.5 446.3 130.5 441.4C98.8 403.4 80 355.7 80 304C80 181.2 186.5 80 320 80C453.5 80 560 181.2 560 304C560 426.8 453.5 528 320 528C284.3 528 250.5 520.7 220.1 507.8C216.2 506.1 211.8 506.1 207.9 507.7L83.1 557.5L132.5 458.8zM64 304C64 359.7 84.2 410.9 118.2 451.7L65.4 557.3C60 568 71.6 579.4 82.4 575L213.9 522.4C246.2 536.2 282.2 543.9 320.1 543.9C461.5 543.9 576.1 436.4 576.1 303.9C576.1 171.4 461.4 64 320 64C178.6 64 64 171.5 64 304zM200 256C195.6 256 192 259.6 192 264C192 268.4 195.6 272 200 272L440 272C444.4 272 448 268.4 448 264C448 259.6 444.4 256 440 256L200 256zM200 352C195.6 352 192 355.6 192 360C192 364.4 195.6 368 200 368L344 368C348.4 368 352 364.4 352 360C352 355.6 348.4 352 344 352L200 352z"/></svg>
