<?xml version="1.0" encoding="UTF-8" standalone="no"?>
<!-- Generator: Adobe Illustrator 16.0.0, SVG Export Plug-In . SVG Version: 6.00 Build 0)  -->

<svg
   version="1.1"
   id="Layer_1"
   x="0px"
   y="0px"
   width="512px"
   height="512px"
   viewBox="0 0 512 512"
   enable-background="new 0 0 512 512"
   xml:space="preserve"
   sodipodi:docname="copy.svg"
   inkscape:version="1.1.2 (b8e25be8, 2022-02-05)"
   xmlns:inkscape="http://www.inkscape.org/namespaces/inkscape"
   xmlns:sodipodi="http://sodipodi.sourceforge.net/DTD/sodipodi-0.dtd"
   xmlns="http://www.w3.org/2000/svg"
   xmlns:svg="http://www.w3.org/2000/svg"><defs
   id="defs829" /><sodipodi:namedview
   id="namedview827"
   pagecolor="#ffffff"
   bordercolor="#666666"
   borderopacity="1.0"
   inkscape:pageshadow="2"
   inkscape:pageopacity="0.0"
   inkscape:pagecheckerboard="0"
   showgrid="false"
   inkscape:zoom="1.7050781"
   inkscape:cx="129.02635"
   inkscape:cy="263.0378"
   inkscape:window-width="2200"
   inkscape:window-height="1081"
   inkscape:window-x="2240"
   inkscape:window-y="23"
   inkscape:window-maximized="0"
   inkscape:current-layer="Layer_1" />
<path
   id="path824"
   d="M 4,97.65625 C 4,191.77083 4,285.88542 4,380 c 64,0 128,0 192,0 0,42.66667 0,85.33333 0,128 104,0 208,0 312,0 0,-125.33333 0,-250.66667 0,-376 -64,0 -128,0 -192,0 0,-42.666667 0,-85.333333 0,-128 C 243.21875,4 170.4375,4 97.65625,4 66.4375,35.21875 35.21875,66.4375 4,97.65625 Z M 126,28 c 55.33333,0 110.66667,0 166,0 0,33.885417 0,67.770833 0,101.65625 -32,32 -64,64 -96,96 0,43.44792 0,86.89583 0,130.34375 -56,0 -112,0 -168,0 0,-77.33333 0,-154.66667 0,-232 32,0 64,0 96,0 0,-32 0,-64 0,-96 0.66667,0 1.33333,0 2,0 z m -26,12.771484 c 0,19.742839 0,39.485677 0,59.228516 -21.352214,0 -42.704427,0 -64.056641,0 C 57.295573,78.647786 78.647786,57.295573 100,35.943359 c 0,1.609375 0,3.21875 0,4.828125 z M 318,156 c 55.33333,0 110.66667,0 166,0 0,109.33333 0,218.66667 0,328 -88,0 -176,0 -264,0 0,-77.33333 0,-154.66667 0,-232 32,0 64,0 96,0 0,-32 0,-64 0,-96 0.66667,0 1.33333,0 2,0 z m -26,12.77148 c 0,19.74284 0,39.48568 0,59.22852 -21.35221,0 -42.70443,0 -64.05664,0 21.35221,-21.35221 42.70443,-42.70443 64.05664,-64.05664 0,1.60937 0,3.21875 0,4.82812 z" />
</svg>
