<svg xmlns="http://www.w3.org/2000/svg" viewBox="0 0 640 512"><!--! Font Awesome Pro 7.0.0 by @fontawesome - https://fontawesome.com License - https://fontawesome.com/license (Commercial License) Copyright 2025 Fonticons, Inc. --><path fill="currentColor" d="M176.1 32a80 80 0 1 0 0 160 80 80 0 1 0 0-160zm0-32c61.9 0 112 50.1 112 112 0 7.9-.8 15.6-2.4 23l42.4 42.4 140.7-140.7 4.7-4.7 157.3 0-27.3 27.3-317.7 317.7c1.6 7.4 2.4 15.1 2.4 23 0 61.9-50.1 112-112 112s-112-50.1-112-112 50.1-112 112-112c12.4 0 24.4 2 35.6 5.8l37.8-37.8-37.8-37.8c-11.2 3.7-23.2 5.8-35.6 5.8-61.9 0-112-50.1-112-112S114.3 0 176.1 0zm65.5 309.1c12.9 9.3 23.7 21.3 31.7 35.1L553.5 64 486.8 64 241.6 309.1zm0-106.3l30.5 30.5 33.4-33.4-32.2-32.2c-8 13.8-18.8 25.8-31.7 35.1zM486.8 448l66.7 0-135.4-135.4 22.6-22.6 190.1 190.1-157.3 0-111.4-111.4 22.6-22.6 102.1 102.1zM256.1 400a80 80 0 1 0 -160 0 80 80 0 1 0 160 0z"/></svg>
