<?xml version="1.0" encoding="UTF-8" standalone="no"?>
<svg
   viewBox="0 0 576 512"
   version="1.1"
   id="svg4"
   xmlns="http://www.w3.org/2000/svg"
   xmlns:svg="http://www.w3.org/2000/svg">
  <defs
     id="defs8" />
  <path
     d="M 49.699219,32 C 39.199239,32 29.900775,38.900411 26.800781,48.900391 L 0.90039062,133 C 0.30039183,135 0,137.09961 0,139.09961 0,150.69959 9.3004134,160 20.900391,160 H 114.90039 L 140.5,32 Z M 173.09961,32 147.5,160 H 272 V 32 Z M 304,32 V 160 H 428.5 L 402.90039,32 Z m 131.5,0 25.59961,128 h 94 C 566.59959,160 576,150.69959 576,139.09961 576,136.99961 575.69961,135 575.09961,133 L 549.19922,48.900391 C 546.09922,38.900411 536.80076,32 526.30078,32 Z M 32,192 l 4,32 h -4 c -17.699964,0 -32,14.30004 -32,32 0,17.69996 14.300036,32 32,32 h 12 l 20,160 c 0,17.69996 14.300036,32 32,32 17.69996,0 32,-14.30004 32,-32 h 320 c 0,17.69996 14.30004,32 32,32 17.69996,0 32,-14.30004 32,-32 l 20,-160 h 12 c 17.69996,0 32,-14.30004 32,-32 0,-17.69996 -14.30004,-32 -32,-32 h -4 l 4,-32 z m 32,24 H 512 L 488,424 H 88 Z m 408,40 h -64 l -16,128 h 64 z m -368,0 16,128 h 64 L 168,256 Z m 152,0 v 128 h 64 V 256 Z"
     id="path2" />
</svg>
