<svg xmlns="http://www.w3.org/2000/svg" viewBox="0 0 512 512"><!--! Font Awesome Pro 7.0.0 by @fontawesome - https://fontawesome.com License - https://fontawesome.com/license (Commercial License) Copyright 2025 Fonticons, Inc. --><path fill="currentColor" d="M404 32c-10.7 0-20.9 4.2-28.5 11.8l-58.5 58.5 92.7 92.7 58.5-58.5c7.6-7.6 11.8-17.8 11.8-28.5s-4.2-20.9-11.8-28.5L432.5 43.8C424.9 36.2 414.7 32 404 32zM93 326.3L185.7 419 387 217.7 294.3 125 93 326.3zM72 350.6c-2 3.7-3.6 7.7-4.8 11.8L35.5 476.5 149.6 444.8c4.1-1.1 8.1-2.7 11.8-4.8L72 350.6zM352.9 21.2C366.4 7.6 384.8 0 404 0s37.6 7.6 51.1 21.2l35.7 35.7C504.4 70.4 512 88.8 512 108s-7.6 37.6-21.2 51.1l-294 294c-10.7 10.7-24.1 18.5-38.7 22.6L30.4 511.1c-8.3 2.3-17.3 0-23.4-6.2s-8.5-15.1-6.2-23.4L36.4 353.8c4.1-14.6 11.8-27.9 22.6-38.7l294-294z"/></svg>
