<?xml version="1.0" encoding="utf-8"?>
<!-- Generator: Adobe Illustrator 18.1.0, SVG Export Plug-In . SVG Version: 6.00 Build 0)  -->
<!DOCTYPE svg PUBLIC "-//W3C//DTD SVG 1.1//EN" "http://www.w3.org/Graphics/SVG/1.1/DTD/svg11.dtd">
<svg version="1.1" id="Layer_1" xmlns="http://www.w3.org/2000/svg" xmlns:xlink="http://www.w3.org/1999/xlink" x="0px" y="0px"
	 width="512px" height="512px" viewBox="0 0 512 512" enable-background="new 0 0 512 512" xml:space="preserve">
<path d="M409.133,109.203c-19.608-33.592-46.205-60.189-79.798-79.796C295.736,9.801,259.058,0,219.273,0
	c-39.781,0-76.47,9.801-110.063,29.407c-33.595,19.604-60.192,46.201-79.8,79.796C9.801,142.8,0,179.489,0,219.267
	c0,39.78,9.804,76.463,29.407,110.062c19.607,33.592,46.204,60.189,79.799,79.798c33.597,19.605,70.283,29.407,110.063,29.407
	s76.47-9.802,110.065-29.407c33.593-19.602,60.189-46.206,79.795-79.798c19.603-33.596,29.403-70.284,29.403-110.062
	C438.533,179.485,428.732,142.795,409.133,109.203z M347.179,237.539c0,4.948-1.811,9.236-5.428,12.847
	c-3.614,3.614-7.898,5.428-12.847,5.428h-219.27c-4.948,0-9.229-1.813-12.847-5.428c-3.616-3.61-5.424-7.898-5.424-12.847v-36.547
	c0-4.948,1.809-9.231,5.424-12.847c3.617-3.617,7.898-5.426,12.847-5.426h219.27c4.948,0,9.232,1.809,12.847,5.426
	c3.617,3.615,5.428,7.898,5.428,12.847V237.539z"/>
</svg>
