<?xml version="1.0" encoding="utf-8"?>
<!-- Generator: Adobe Illustrator 19.1.0, SVG Export Plug-In . SVG Version: 6.00 Build 0)  -->
<svg version="1.1" id="Layer_1" xmlns="http://www.w3.org/2000/svg" xmlns:xlink="http://www.w3.org/1999/xlink" x="0px" y="0px"
	 viewBox="-273 365 64 64" style="enable-background:new -273 365 64 64;" xml:space="preserve">
<g>
	<path d="M-272.2,426.5l4.2,2.1l0,0c0.1,0.1,0.3,0.1,0.5,0.1h33.9c0.6,0,1.1-0.5,1.1-1.1s-0.5-1.1-1.1-1.1h-30.9l0.9-0.7
		c0.1,0.1,0.3,0.1,0.5,0.1l0,0c0.3,0,0.6-0.1,0.8-0.3c2.3-2.2,5.4-3.3,8.6-3.2c1.2,0,2.5,0.1,3.7,0.4c1.3,1,3.1,0.9,4.2-0.2l1.5-1.5
		l0,0l0,0l34.4-39.7l0,0c1-1.3,0.9-3.1-0.2-4.2l-9.9-10.1c-1.2-1.2-3.1-1.3-4.3-0.2l-39.3,34.7l0,0l0,0l-1.6,1.5
		c-0.6,0.6-0.9,1.4-0.9,2.2c0,0.7,0.2,1.5,0.7,2.1c0.3,1.3,1.5,7.9-2.8,12.2c-0.3,0.3-0.4,0.7-0.2,1.1l-3.9,3.9
		c-0.4,0.4-0.4,1.1,0,1.5C-272.4,426.4-272.3,426.5-272.2,426.5z M-223.1,368.6c0.4-0.4,1.1-0.3,1.4,0.1l10,10
		c0.4,0.4,0.4,1,0.1,1.4l-33.7,38.8l-16.3-16.4L-223.1,368.6z M-263.6,406.8c0-0.2-0.1-0.3-0.3-0.5c-0.2-0.2-0.3-0.5-0.3-0.8
		c0-0.3,0.1-0.6,0.3-0.8l0.7-0.8l16.5,16.4l-0.8,0.8c-0.4,0.4-1.1,0.4-1.5,0c0,0,0,0,0,0c-0.1-0.1-0.3-0.2-0.5-0.3
		c-1.5-0.3-2.9-0.5-4.4-0.5c-3.4-0.1-6.7,1-9.3,3.1l-2.9-2.9l-0.2-0.2C-261.4,414.9-263.5,407.1-263.6,406.8L-263.6,406.8z
		 M-267.1,422.5l2,2l-2.5,2l-2.3-1.2L-267.1,422.5z"/>
</g>
</svg>
