<svg xmlns="http://www.w3.org/2000/svg" viewBox="0 0 640 640"><!--!Font Awesome Pro v7.0.0 by @fontawesome - https://fontawesome.com License - https://fontawesome.com/license (Commercial License) Copyright 2025 Fonticons, Inc.--><path d="M208 360.6L208 312.6C208 307.4 210.5 302.6 214.7 299.6L241.7 280.2L375.8 414.3L356.4 441.3C353.4 445.5 348.6 448 343.4 448L295.4 448C286.9 448 278.8 451.4 272.8 457.4L229 501.1C225.9 504.2 220.8 504.2 217.7 501.1L154.9 438.3C151.8 435.2 151.8 430.1 154.9 427L198.6 383.3C204.6 377.3 208 369.2 208 360.7zM555.8 163.5L394.6 388L268 261.4L492.5 100.2C496.3 97.5 500.9 96 505.5 96C511.4 96 517.1 98.4 521.3 102.5L553.5 134.7C557.7 138.9 560 144.6 560 150.5C560 155.2 558.5 159.7 555.8 163.5zM295.4 480L343.4 480C358.9 480 373.4 472.6 382.4 460L581.8 182.2C588.4 173 592 161.9 592 150.5C592 136.1 586.3 122.3 576.1 112.1L543.9 79.9C533.7 69.7 519.9 64 505.5 64C494.1 64 483 67.6 473.8 74.2L196 273.6C183.4 282.6 176 297.1 176 312.6L176 360.6L132.3 404.3C120.9 415.7 117.8 432.2 123 446.3L39 530.3C34.5 534.8 32 540.9 32 547.3L32 552C32 565.3 42.7 576 56 576L156.7 576C163.1 576 169.2 573.5 173.7 569L209.7 533C223.9 538.2 240.4 535.1 251.7 523.7L295.4 480zM184.4 513L153.4 544L70.7 544L143.1 471.6L184.5 513z"/></svg>
