<?xml version="1.0" encoding="utf-8"?>
<!-- Generator: Adobe Illustrator 19.2.1, SVG Export Plug-In . SVG Version: 6.00 Build 0)  -->
<svg version="1.1" id="Layer_1" xmlns="http://www.w3.org/2000/svg" xmlns:xlink="http://www.w3.org/1999/xlink" x="0px" y="0px"
	 viewBox="0 0 24 24" style="enable-background:new 0 0 24 24;" xml:space="preserve">
<g>
	<path d="M4.3,20.9c0.1,0.1,0.3,0,0.4-0.1c0.7-0.6,1.4-1.1,2.3-1.1c0.4,0,0.7,0,1.1,0.1c0.4,0.3,0.9,0.3,1.2-0.1l0.4-0.4l0,0l0,0
		l11.7-13l0,0c0.3-0.4,0.3-0.9-0.1-1.2l-2.9-2.9c-0.3-0.3-0.9-0.4-1.3,0L4.1,13.7l0,0l0,0l-0.4,0.4c-0.3,0.3-0.4,0.9-0.1,1.2
		C3.7,15.8,4,17.7,2.8,19c-0.1,0.1-0.1,0.2-0.1,0.3l0,0l-1,1.3c-0.1,0.1-0.1,0.3,0,0.4c0,0,0.1,0,0.1,0.1c0,0,0.8,0.7,1.2,0.7
		c0.1,0,0.4-0.2,0.6-0.4C4,21.2,4.3,20.9,4.3,20.9z M4.2,15.2c0-0.1,0-0.1-0.1-0.1C4,15,4,14.9,4,14.8c0-0.1,0-0.2,0.1-0.2l0.5-0.5
		l4.8,4.8l-0.3,0.3l-0.2,0.2c-0.1,0.1-0.3,0.1-0.4,0c0,0-0.1-0.1-0.1-0.1c-0.4-0.1-0.9-0.1-1.3-0.1c-1,0-1.8,0.4-2.5,1l-1.1-1
		C4.8,17.6,4.2,15.3,4.2,15.2z"/>
</g>
</svg>
