<?xml version="1.0" encoding="utf-8"?>
<!-- Generator: Adobe Illustrator 18.1.0, SVG Export Plug-In . SVG Version: 6.00 Build 0)  -->
<!DOCTYPE svg PUBLIC "-//W3C//DTD SVG 1.1//EN" "http://www.w3.org/Graphics/SVG/1.1/DTD/svg11.dtd">
<svg version="1.1" id="Layer_1" xmlns="http://www.w3.org/2000/svg" xmlns:xlink="http://www.w3.org/1999/xlink" x="0px" y="0px"
	 viewBox="-273 365 64 64" style="enable-background:new -273 365 64 64;" xml:space="preserve">
<style type="text/css">
	.st0{enable-background:new    ;}
</style>
<g id="dja_copy_1_" class="st0">
	<g id="dja_copy">
		<g>
			<path d="M-265.5,392.8c0.1,0,0.2,0,0.4,0c0.1,0,0.2,0,0.3,0c0.1,0,0.2,0,0.3,0c0.1,0,0.2,0,0.3,0c0-0.1,0-0.2,0-0.3
				c0-0.1,0-0.2,0-0.3c0-0.1,0-0.2,0-0.3s0-0.2,0-0.3c-0.1,0-0.2,0-0.3,0s-0.2,0-0.3,0c-0.1,0-0.2,0-0.3,0c-0.1,0-0.2,0-0.4,0
				c0,0.1,0,0.2,0,0.3c0,0.1,0,0.2,0,0.3c0,0.1,0,0.2,0,0.3C-265.5,392.5-265.5,392.7-265.5,392.8z M-266,394.4c0,0.1,0,0.2,0,0.2
				c0,0.1,0,0.2,0,0.2c0,0.1,0,0.2,0,0.2h0.8v5.6c0,0.2,0,0.4-0.1,0.6c-0.1,0.1-0.1,0.2-0.2,0.3c-0.1,0.1-0.2,0.1-0.3,0.1
				c-0.1,0-0.2,0-0.3,0c-0.2,0-0.5,0-0.7-0.1c-0.1,0.1-0.1,0.3-0.1,0.4c0,0.2,0,0.3-0.1,0.5c0.3,0.1,0.7,0.2,1.1,0.2
				c0.3,0,0.5,0,0.8-0.1c0.2-0.1,0.4-0.2,0.6-0.3c0.2-0.1,0.3-0.4,0.4-0.6c0.1-0.2,0.1-0.5,0.1-0.9v-6.7h-1.9
				C-266,394.2-266,394.3-266,394.4z M-268.1,391.4c-0.1,0-0.2,0-0.3,0c-0.1,0-0.2,0-0.3,0v2.7c-0.2,0-0.4-0.1-0.5-0.1
				c-0.2,0-0.4,0-0.6,0c-0.4,0-0.9,0.1-1.3,0.2c-0.4,0.2-0.7,0.4-1,0.7c-0.3,0.3-0.5,0.7-0.6,1.1c-0.1,0.4-0.2,0.9-0.2,1.4
				c0,0.6,0.1,1.1,0.2,1.5c0.2,0.4,0.4,0.7,0.7,1c0.3,0.2,0.6,0.4,1,0.5c0.4,0.1,0.8,0.2,1.2,0.2c0.4,0,0.9,0,1.2-0.1
				c0.4-0.1,0.7-0.1,1-0.2v-8.7c-0.1,0-0.2,0-0.3,0C-267.9,391.4-268,391.4-268.1,391.4z M-268.6,399.4c-0.1,0-0.3,0.1-0.4,0.1
				c-0.2,0-0.4,0-0.6,0c-0.6,0-1.1-0.2-1.5-0.5c-0.4-0.4-0.5-0.9-0.5-1.6c0-0.4,0-0.7,0.1-0.9c0.1-0.3,0.2-0.5,0.4-0.8
				c0.1-0.2,0.4-0.4,0.6-0.5c0.2-0.1,0.5-0.2,0.9-0.2c0.2,0,0.4,0,0.6,0c0.2,0,0.4,0.1,0.5,0.1L-268.6,399.4L-268.6,399.4
				L-268.6,399.4L-268.6,399.4z M-244.6,394.3c-0.3,0.1-0.5,0.2-0.7,0.3c-0.2-0.2-0.4-0.3-0.8-0.4c-0.3-0.1-0.6-0.2-1-0.2
				c-0.4,0-0.8,0.1-1.1,0.2c-0.3,0.1-0.6,0.3-0.8,0.5c-0.2,0.2-0.4,0.4-0.5,0.7c-0.1,0.3-0.2,0.5-0.2,0.9c0,0.4,0.1,0.7,0.2,1
				c0.2,0.3,0.4,0.5,0.6,0.7c-0.2,0.2-0.4,0.4-0.5,0.6c-0.1,0.2-0.2,0.5-0.2,0.8c0,0.2,0.1,0.4,0.2,0.6c0.1,0.2,0.2,0.3,0.4,0.4
				c-0.3,0.1-0.5,0.4-0.7,0.6c-0.2,0.3-0.3,0.5-0.3,0.9c0,0.5,0.2,1,0.7,1.2c0.4,0.3,1.1,0.4,1.8,0.4c0.5,0,0.9,0,1.3-0.1
				c0.4-0.1,0.8-0.2,1-0.4c0.3-0.2,0.5-0.4,0.7-0.7c0.2-0.3,0.2-0.5,0.2-0.9c0-0.5-0.2-0.9-0.5-1.2c-0.3-0.3-0.8-0.4-1.5-0.4l-1.6,0
				c-0.4,0-0.6-0.1-0.7-0.2c-0.1-0.1-0.1-0.2-0.1-0.4c0-0.1,0.1-0.3,0.2-0.4c0.1-0.1,0.2-0.2,0.4-0.3c0.3,0.1,0.5,0.1,0.9,0.1
				s0.7,0,1-0.1c0.3-0.1,0.5-0.2,0.8-0.4c0.2-0.2,0.4-0.4,0.5-0.7c0.1-0.3,0.2-0.6,0.2-0.9c0-0.2,0-0.4-0.1-0.5
				c0-0.2-0.1-0.3-0.2-0.4h1.1c0-0.1,0-0.2,0-0.3c0-0.1,0-0.2,0-0.3c0-0.2,0-0.4,0-0.5C-244,394.1-244.3,394.2-244.6,394.3z
				 M-248.3,400.9c0.2-0.2,0.4-0.3,0.8-0.3l1.3,0c0.4,0,0.7,0.1,0.8,0.2c0.1,0.1,0.2,0.3,0.2,0.5c0,0.3-0.2,0.6-0.5,0.8
				c-0.4,0.2-0.9,0.3-1.5,0.3c-0.2,0-0.4,0-0.6,0c-0.2,0-0.4-0.1-0.4-0.1c-0.1-0.1-0.2-0.2-0.3-0.3s-0.1-0.3-0.1-0.4
				C-248.6,401.3-248.5,401.1-248.3,400.9z M-246,397.2c-0.2,0.2-0.5,0.4-1,0.4c-0.4,0-0.8-0.1-1-0.4c-0.2-0.2-0.3-0.5-0.3-0.9
				c0-0.4,0.1-0.7,0.3-1c0.2-0.2,0.5-0.4,1-0.4c0.4,0,0.8,0.1,1,0.4c0.2,0.2,0.3,0.5,0.3,1C-245.7,396.6-245.8,396.9-246,397.2z
				 M-260.2,394c-0.3,0-0.6,0-0.9,0.1c-0.3,0-0.6,0.1-0.9,0.2c0,0.4,0.1,0.7,0.2,1c0.2-0.1,0.5-0.1,0.7-0.2c0.2,0,0.5-0.1,0.8-0.1
				c0.4,0,0.8,0.1,1,0.3c0.2,0.2,0.4,0.5,0.4,1v0.2c-0.1,0-0.2,0-0.4,0c-0.2,0-0.4,0-0.6,0c-0.4,0-0.7,0-1,0.1
				c-0.3,0.1-0.6,0.2-0.8,0.4c-0.2,0.2-0.4,0.4-0.5,0.7c-0.1,0.3-0.2,0.6-0.2,0.9c0,0.4,0.1,0.7,0.2,0.9c0.1,0.2,0.3,0.4,0.5,0.6
				c0.2,0.2,0.5,0.3,0.8,0.4c0.3,0.1,0.7,0.1,1.1,0.1c0.4,0,0.8,0,1.2-0.1c0.4-0.1,0.7-0.1,1-0.2v-3.9c0-0.8-0.2-1.4-0.6-1.8
				C-258.8,394.2-259.4,394-260.2,394z M-258.9,399.4c-0.1,0-0.3,0.1-0.5,0.1c-0.2,0-0.4,0-0.5,0c-0.1,0-0.3,0-0.4,0
				c-0.2,0-0.3-0.1-0.4-0.1c-0.1-0.1-0.2-0.2-0.4-0.3s-0.1-0.4-0.1-0.6c0-0.4,0.1-0.7,0.4-0.9c0.2-0.2,0.6-0.3,1.1-0.3
				c0.1,0,0.3,0,0.4,0c0.2,0,0.4,0,0.4,0L-258.9,399.4L-258.9,399.4L-258.9,399.4L-258.9,399.4z M-211.2,389.8h-21.7
				c-1.2,0-2.2,1-2.2,2.3v9.9c0,1.2,1,2.3,2.2,2.3h21.7c1.2,0,2.2-1,2.2-2.3V392C-209,390.8-210,389.8-211.2,389.8z M-227.4,400.7
				c-0.3,0-0.6,0.1-0.9,0.1c-0.6,0-1.1-0.1-1.5-0.3c-0.4-0.2-0.8-0.5-1.1-0.8c-0.3-0.4-0.5-0.8-0.7-1.2c-0.1-0.5-0.2-1-0.2-1.6
				s0.1-1.1,0.2-1.6s0.4-0.9,0.7-1.3c0.3-0.4,0.7-0.6,1.1-0.8c0.4-0.2,0.9-0.3,1.5-0.3c0.4,0,0.7,0,0.9,0.1c0.3,0,0.6,0.1,0.9,0.3
				c0,0.2-0.1,0.4-0.1,0.6c-0.1,0.2-0.1,0.4-0.2,0.6c-0.2-0.1-0.4-0.1-0.7-0.2c-0.2,0-0.4-0.1-0.7-0.1c-0.7,0-1.2,0.2-1.5,0.7
				c-0.4,0.4-0.5,1.1-0.5,2c0,1.7,0.7,2.6,2.2,2.6c0.2,0,0.5,0,0.7-0.1c0.2,0,0.4-0.1,0.7-0.2c0.1,0.2,0.2,0.4,0.2,0.6
				c0.1,0.2,0.1,0.4,0.1,0.6C-226.8,400.6-227.1,400.7-227.4,400.7z M-218.9,400.7c-0.2,0-0.5,0-0.7-0.1l-0.2-5.2l-1.5,3.6
				c-0.1,0-0.2,0-0.3,0c-0.1,0-0.2,0-0.3,0s-0.2,0-0.3,0c-0.1,0-0.2,0-0.3,0l-1.4-3.7l-0.1,5.3c-0.2,0-0.4,0.1-0.7,0.1
				s-0.4,0-0.7-0.1l0.3-7.7c0.3,0,0.5-0.1,0.8-0.1c0.3,0,0.5,0,0.8,0.1l1.7,4.4l1.8-4.4c0.2,0,0.4-0.1,0.7-0.1s0.5,0,0.8,0.1
				l0.4,7.7C-218.4,400.7-218.7,400.7-218.9,400.7z M-212.4,399.4c-0.1,0.3-0.3,0.5-0.5,0.8c-0.2,0.2-0.5,0.4-0.9,0.5
				c-0.4,0.1-0.8,0.2-1.2,0.2c-0.2,0-0.4,0-0.6,0c-0.2,0-0.4,0-0.5-0.1c-0.2,0-0.3-0.1-0.5-0.1c-0.2,0-0.3-0.1-0.5-0.2
				c0-0.2,0.1-0.4,0.1-0.7c0.1-0.2,0.1-0.4,0.2-0.7c0.3,0.1,0.5,0.2,0.8,0.3c0.2,0.1,0.5,0.1,0.8,0.1c0.4,0,0.8-0.1,1-0.2
				c0.2-0.2,0.4-0.4,0.4-0.8c0-0.2,0-0.3-0.1-0.4c-0.1-0.1-0.1-0.2-0.2-0.3c-0.1-0.1-0.2-0.1-0.3-0.2c-0.1-0.1-0.2-0.1-0.4-0.1
				l-0.6-0.2c-0.2-0.1-0.4-0.2-0.6-0.3s-0.4-0.2-0.5-0.4c-0.1-0.1-0.2-0.4-0.3-0.5c-0.1-0.2-0.1-0.5-0.1-0.8c0-0.4,0.1-0.7,0.2-1
				c0.1-0.3,0.3-0.5,0.5-0.7c0.2-0.2,0.5-0.4,0.8-0.4c0.3-0.1,0.7-0.1,1.1-0.1c0.4,0,0.7,0,1,0.1c0.3,0.1,0.6,0.2,1,0.3
				c0,0.4-0.1,0.8-0.4,1.2c-0.1,0-0.2-0.1-0.3-0.1c-0.1,0-0.2-0.1-0.4-0.1c-0.1,0-0.3-0.1-0.4-0.1c-0.1,0-0.3,0-0.5,0
				c-0.1,0-0.2,0-0.4,0c-0.1,0-0.2,0.1-0.4,0.1c-0.1,0.1-0.2,0.1-0.2,0.2s-0.1,0.2-0.1,0.4c0,0.1,0,0.3,0.1,0.4
				c0,0.1,0.1,0.2,0.2,0.2c0.1,0.1,0.2,0.1,0.3,0.2c0.1,0,0.2,0.1,0.3,0.1l0.6,0.2c0.3,0.1,0.5,0.2,0.7,0.4c0.2,0.1,0.4,0.2,0.5,0.4
				c0.1,0.2,0.3,0.4,0.4,0.6c0.1,0.2,0.1,0.5,0.1,0.9C-212.2,398.7-212.2,399.1-212.4,399.4z M-253,394c-0.2,0-0.5,0-0.7,0.1
				c-0.2,0.1-0.4,0.2-0.5,0.3s-0.3,0.2-0.4,0.4c-0.1,0.1-0.2,0.3-0.3,0.4c0-0.1,0-0.3,0-0.5c0-0.2,0-0.4-0.1-0.5c-0.1,0-0.2,0-0.2,0
				c-0.1,0-0.2,0-0.2,0c-0.1,0-0.2,0-0.2,0s-0.2,0-0.2,0l0,0v6.2c0.1,0,0.2,0,0.3,0c0.1,0,0.2,0,0.3,0c0.1,0,0.2,0,0.3,0
				c0.1,0,0.2,0,0.3,0v-3.2c0-0.4,0-0.7,0.1-1c0.1-0.3,0.2-0.5,0.4-0.7c0.1-0.2,0.3-0.3,0.5-0.4c0.2-0.1,0.4-0.1,0.6-0.1
				c0.4,0,0.7,0.1,0.8,0.4c0.2,0.3,0.3,0.7,0.3,1.3v3.6c0.1,0,0.2,0,0.3,0c0.1,0,0.2,0,0.3,0c0.1,0,0.2,0,0.3,0c0.1,0,0.2,0,0.3,0
				v-4c0-0.8-0.2-1.4-0.5-1.8C-251.8,394.2-252.3,394-253,394z M-238.1,394.9c-0.2-0.3-0.5-0.5-0.9-0.7c-0.4-0.2-0.8-0.2-1.2-0.2
				s-0.9,0.1-1.2,0.2c-0.4,0.2-0.7,0.4-0.9,0.7c-0.2,0.3-0.4,0.7-0.5,1c-0.1,0.4-0.2,0.8-0.2,1.3c0,0.5,0.1,0.9,0.2,1.3
				c0.1,0.4,0.3,0.8,0.5,1c0.2,0.3,0.5,0.5,0.9,0.7c0.4,0.2,0.8,0.2,1.2,0.2c0.5,0,0.9-0.1,1.2-0.2c0.4-0.2,0.7-0.4,0.9-0.7
				c0.2-0.3,0.4-0.7,0.5-1c0.1-0.4,0.2-0.8,0.2-1.3c0-0.5-0.1-0.9-0.2-1.3C-237.7,395.6-237.8,395.3-238.1,394.9z M-239,399
				c-0.3,0.4-0.7,0.6-1.2,0.6s-1-0.2-1.2-0.6c-0.3-0.4-0.4-1-0.4-1.7c0-0.7,0.1-1.3,0.4-1.7s0.7-0.6,1.2-0.6s1,0.2,1.2,0.6
				c0.3,0.4,0.4,1,0.4,1.7C-238.6,398-238.8,398.6-239,399z"/>
		</g>
	</g>
</g>
</svg>
