<?xml version="1.0" encoding="utf-8"?>
<!-- Generator: Adobe Illustrator 19.1.0, SVG Export Plug-In . SVG Version: 6.00 Build 0)  -->
<svg version="1.1" id="Layer_1" xmlns="http://www.w3.org/2000/svg" xmlns:xlink="http://www.w3.org/1999/xlink" x="0px" y="0px"
	 viewBox="-49 141 438.5 438.5" style="enable-background:new -49 141 438.5 438.5;" xml:space="preserve">
<path d="M360.1,250.2c-19.6-33.6-46.2-60.2-79.8-79.8c-33.6-19.6-70.3-29.4-110.1-29.4c-39.8,0-76.5,9.8-110.1,29.4
	C26.6,190,0,216.6-19.6,250.2C-39.2,283.8-49,320.5-49,360.3c0,39.8,9.8,76.5,29.4,110.1c19.6,33.6,46.2,60.2,79.8,79.8
	c33.6,19.6,70.3,29.4,110.1,29.4s76.5-9.8,110.1-29.4c33.6-19.6,60.2-46.2,79.8-79.8c19.6-33.6,29.4-70.3,29.4-110.1
	C389.5,320.5,379.7,283.8,360.1,250.2z M133.7,195.8c0-2.7,0.9-4.9,2.6-6.6c1.7-1.7,3.9-2.6,6.6-2.6h54.8c2.7,0,4.9,0.9,6.6,2.6
	c1.7,1.7,2.6,3.9,2.6,6.6v45.7c0,2.7-0.9,4.9-2.6,6.6c-1.7,1.7-3.9,2.6-6.6,2.6h-54.8c-2.7,0-4.9-0.9-6.6-2.6
	c-1.7-1.7-2.6-3.9-2.6-6.6V195.8z M243.4,497.3c0,2.7-0.9,4.9-2.6,6.6c-1.7,1.7-3.9,2.6-6.6,2.6H106.3c-2.7,0-4.9-0.9-6.6-2.6
	c-1.7-1.7-2.6-3.9-2.6-6.6v-45.7c0-2.7,0.9-4.9,2.6-6.6c1.7-1.7,3.9-2.6,6.6-2.6h27.4v-91.4h-27.4c-2.7,0-4.9-0.9-6.6-2.6
	c-1.7-1.7-2.6-3.9-2.6-6.6v-45.7c0-2.7,0.9-4.9,2.6-6.6c1.7-1.7,3.9-2.6,6.6-2.6h91.4c2.7,0,4.9,0.9,6.6,2.6
	c1.7,1.7,2.6,3.9,2.6,6.6v146.2h27.4c2.7,0,4.9,0.9,6.6,2.6c1.7,1.7,2.6,3.9,2.6,6.6L243.4,497.3L243.4,497.3L243.4,497.3z"/>
</svg>
