<svg xmlns="http://www.w3.org/2000/svg" viewBox="0 0 640 640"><!--!Font Awesome Pro v7.0.0 by @fontawesome - https://fontawesome.com License - https://fontawesome.com/license (Commercial License) Copyright 2025 Fonticons, Inc.--><path d="M320 80C452.5 80 560 187.5 560 320C560 452.5 452.5 560 320 560C187.5 560 80 452.5 80 320C80 187.5 187.5 80 320 80zM320 576C461.4 576 576 461.4 576 320C576 178.6 461.4 64 320 64C178.6 64 64 178.6 64 320C64 461.4 178.6 576 320 576zM272 416C267.6 416 264 419.6 264 424C264 428.4 267.6 432 272 432L368 432C372.4 432 376 428.4 376 424C376 419.6 372.4 416 368 416L328 416L328 280C328 275.6 324.4 272 320 272L272 272C267.6 272 264 275.6 264 280C264 284.4 267.6 288 272 288L312 288L312 416L272 416zM320 240C328.8 240 336 232.8 336 224C336 215.2 328.8 208 320 208C311.2 208 304 215.2 304 224C304 232.8 311.2 240 320 240z"/></svg>
