<svg xmlns="http://www.w3.org/2000/svg" xmlns:xlink="http://www.w3.org/1999/xlink" version="1.1" x="0px" y="0px" viewBox="0 0 512 512" enable-background="new 0 0 512 512" xml:space="preserve"><path d="M499.8,357.6H393.5L281.4,245.5v-91.1H322c5.6,0,10.2-4.5,10.2-10.2V12.2C332.2,6.5,327.6,2,322,2H190  c-5.6,0-10.2,4.5-10.2,10.2v132.1c0,5.6,4.5,10.2,10.2,10.2h40.6v91.1L118.5,357.6H12.2c-5.6,0-10.2,4.5-10.2,10.2v132.1  c0,5.6,4.5,10.2,10.2,10.2h132.1c5.6,0,10.2-4.5,10.2-10.2V393.5L256,291.9l101.6,101.6v106.3c0,5.6,4.5,10.2,10.2,10.2h132.1  c5.6,0,10.2-4.5,10.2-10.2V367.8C510,362.1,505.4,357.6,499.8,357.6z"></path></svg>