<svg xmlns="http://www.w3.org/2000/svg" viewBox="0 0 640 640"><!--!Font Awesome Pro v7.0.0 by @fontawesome - https://fontawesome.com License - https://fontawesome.com/license (Commercial License) Copyright 2025 Fonticons, Inc.--><path d="M330.1 98.2L532.9 192L330.1 285.7C323.7 288.7 316.3 288.7 310 285.7L107.1 192L309.9 98.2C316.3 95.2 323.6 95.2 330 98.2zM343.5 69.2C328.6 62.3 311.4 62.3 296.5 69.2L77.9 170.2C69.4 174.1 64 182.6 64 192C64 201.4 69.4 209.9 77.9 213.8L296.5 314.8C311.4 321.7 328.6 321.7 343.5 314.8L562.1 213.8C570.6 209.9 576 201.4 576 192C576 182.6 570.6 174.1 562.1 170.2L343.5 69.2zM112.1 282.4L77.9 298.2C69.4 302.1 64 310.6 64 320C64 329.4 69.4 337.9 77.9 341.8L296.5 442.8C311.4 449.7 328.6 449.7 343.5 442.8L562.1 341.8C570.6 337.9 576 329.4 576 320C576 310.6 570.6 302.1 562.1 298.2L528 282.4L489.9 300L533 319.9L330.1 413.7C323.7 416.7 316.3 416.7 310 413.7L107.1 320L150.2 300L112.1 282.4zM77.9 426.2C69.4 430.1 64 438.6 64 448C64 457.4 69.4 465.9 77.9 469.8L296.5 570.8C311.4 577.7 328.6 577.7 343.5 570.8L562.1 469.8C570.6 465.9 576 457.4 576 448C576 438.6 570.6 430.1 562.1 426.2L528 410.4L489.9 428L533 447.9L330.1 541.7C323.7 544.7 316.3 544.7 310 541.7L107.1 448L150.2 428L112.1 410.4L77.9 426.2z"/></svg>
