<svg xmlns="http://www.w3.org/2000/svg" viewBox="0 0 640 640"><!--!Font Awesome Pro v7.0.0 by @fontawesome - https://fontawesome.com License - https://fontawesome.com/license (Commercial License) Copyright 2025 Fonticons, Inc.--><path d="M80 120C80 124.4 83.6 128 88 128L136 128L136 272L88 272C83.6 272 80 275.6 80 280C80 284.4 83.6 288 88 288L200 288C204.4 288 208 284.4 208 280C208 275.6 204.4 272 200 272L152 272L152 120C152 115.6 148.4 112 144 112L88 112C83.6 112 80 115.6 80 120zM264 152C264 156.4 267.6 160 272 160L560 160C564.4 160 568 156.4 568 152C568 147.6 564.4 144 560 144L272 144C267.6 144 264 147.6 264 152zM264 320C264 324.4 267.6 328 272 328L560 328C564.4 328 568 324.4 568 320C568 315.6 564.4 312 560 312L272 312C267.6 312 264 315.6 264 320zM264 488C264 492.4 267.6 496 272 496L560 496C564.4 496 568 492.4 568 488C568 483.6 564.4 480 560 480L272 480C267.6 480 264 483.6 264 488zM143.4 352C126.2 352 109.9 359.8 99.2 373.3L81.8 395C79 398.4 79.6 403.5 83 406.2C86.4 408.9 91.5 408.4 94.2 405L111.6 383.2C119.3 373.6 131 368 143.3 368C165.7 368 183.9 386.5 183.9 409C183.9 421.1 178.5 432.8 169.3 440.6L82.8 513.9C80.2 516.1 79.3 519.6 80.5 522.8C81.7 526 84.6 528 88 528L200 528C204.4 528 208 524.4 208 520C208 515.6 204.4 512 200 512L109.8 512L179.7 452.8C192.6 441.9 199.9 425.8 199.9 409C199.9 377.8 174.6 352 143.3 352z"/></svg>
