<?xml version="1.0" encoding="utf-8"?>
<!-- Generator: Adobe Illustrator 16.0.0, SVG Export Plug-In . SVG Version: 6.00 Build 0)  -->
<!DOCTYPE svg PUBLIC "-//W3C//DTD SVG 1.1//EN" "http://www.w3.org/Graphics/SVG/1.1/DTD/svg11.dtd">
<svg version="1.1" id="Layer_1" xmlns="http://www.w3.org/2000/svg" xmlns:xlink="http://www.w3.org/1999/xlink" x="0px" y="0px"
	 width="512px" height="512px" viewBox="-223.5 -223.5 512 512" enable-background="new -223.5 -223.5 512 512"
	 xml:space="preserve">
<path d="M243.386,81.622c-26.859-46.524-10.703-106.15,36.087-133.24l-50.313-87.146c-14.375,8.426-31.086,13.258-48.923,13.258
	c-53.767,0-97.353-43.871-97.353-97.993H-17.747c0.133,16.703-4.043,33.642-12.977,49.13
	c-26.864,46.527-86.58,62.353-133.436,35.375l-50.313,87.146c14.488,8.23,27.024,20.297,35.946,35.734
	c26.817,46.458,10.758,105.963-35.856,133.111l50.313,87.15c14.328-8.352,30.958-13.133,48.704-13.133
	c53.599,0,97.072,43.609,97.353,97.485H82.618c-0.047-16.531,4.133-33.29,12.984-48.61c26.812-46.453,86.376-62.298,133.205-35.5
	l50.313-87.15c-14.392-8.227-26.845-20.242-35.72-35.617H243.386z M32.492,136.161c-57.259,0-103.673-46.406-103.673-103.665
	S-24.767-71.17,32.492-71.17S136.157-24.755,136.157,32.496S89.751,136.161,32.492,136.161z"/>
</svg>
