<svg xmlns="http://www.w3.org/2000/svg" viewBox="0 0 640 640"><!--!Font Awesome Pro v7.0.0 by @fontawesome - https://fontawesome.com License - https://fontawesome.com/license (Commercial License) Copyright 2025 Fonticons, Inc.--><path d="M224 160L224 224L416 224L416 160C416 107 373 64 320 64C267 64 224 107 224 160zM192 224L192 160C192 89.3 249.3 32 320 32C390.7 32 448 89.3 448 160L448 224C483.3 224 512 252.7 512 288L512 512C512 547.3 483.3 576 448 576L192 576C156.7 576 128 547.3 128 512L128 288C128 252.7 156.7 224 192 224zM160 288L160 512C160 529.7 174.3 544 192 544L448 544C465.7 544 480 529.7 480 512L480 288C480 270.3 465.7 256 448 256L192 256C174.3 256 160 270.3 160 288z"/></svg>
