<?xml version="1.0" encoding="utf-8"?>
<!-- Generator: Adobe Illustrator 16.0.0, SVG Export Plug-In . SVG Version: 6.00 Build 0)  -->
<!DOCTYPE svg PUBLIC "-//W3C//DTD SVG 1.1//EN" "http://www.w3.org/Graphics/SVG/1.1/DTD/svg11.dtd">
<svg version="1.1" id="Layer_1" xmlns="http://www.w3.org/2000/svg" xmlns:xlink="http://www.w3.org/1999/xlink" x="0px" y="0px"
	 width="512px" height="512px" viewBox="640.5 640.5 512 512" enable-background="new 640.5 640.5 512 512" xml:space="preserve">
<path d="M820.864,861.591h151.273v-56.727c0-20.879-7.387-38.705-22.159-53.478c-14.773-14.772-32.599-22.159-53.478-22.159
	s-38.705,7.387-53.477,22.159c-14.773,14.773-22.159,32.599-22.159,53.478V861.591z M1066.682,889.955v170.182
	c0,7.879-2.758,14.575-8.272,20.091c-5.516,5.515-12.212,8.272-20.091,8.272H754.682c-7.879,0-14.576-2.758-20.091-8.272
	c-5.515-5.516-8.272-12.212-8.272-20.091V889.955c0-7.879,2.757-14.576,8.272-20.091s12.212-8.273,20.091-8.273h9.455v-56.727
	c0-36.243,13-67.364,39-93.364s57.121-39,93.364-39c36.242,0,67.363,13,93.363,39s39,57.121,39,93.364v56.727h9.455
	c7.879,0,14.575,2.758,20.091,8.273C1063.924,875.379,1066.682,882.076,1066.682,889.955z"/>
</svg>
