<?xml version="1.0" encoding="UTF-8"?>
<svg fill="none" version="1.1" viewBox="0 0 320 71" xmlns="http://www.w3.org/2000/svg"><path d="m19.381 10.884h8.7167v39.952c-4.4649 0.8446-7.7519 1.1768-11.308 1.1768-10.646-0.0111-16.188-4.7673-16.188-13.902 0-8.8013 5.8784-14.513 14.988-14.513 1.4135 0 2.4905 0.1112 3.7918 0.4445v-13.158zm0 20.103c-1.0208-0.3333-1.8622-0.4445-2.9392-0.4445-4.4088 0-6.9554 2.6893-6.9554 7.4023 0 4.5884 2.4344 7.1221 6.8993 7.1221 0.9648 0 1.7501-0.0544 2.9953-0.2211v-13.859zm22.572-6.7788v20.003c0 6.8888-0.5161 10.202-2.0306 13.058-1.4135 2.746-3.2757 4.4773-7.1237 6.3898l-8.0884-3.8116c3.8479-1.7881 5.7101-3.3683 6.8993-5.7798 1.2452-2.4659 1.6379-5.3219 1.6379-12.834v-17.025h8.7055zm-8.7055-13.28h8.7167v8.8569h-8.7167v-8.8569zm13.966 15.247c3.849-1.7892 7.5286-2.5782 11.545-2.5782 4.4762 0 7.4143 1.178 8.7167 3.4783 0.7292 1.2891 0.9648 2.9671 0.9648 6.5566v17.536c-3.9029 0.5556-8.8289 0.9546-12.442 0.9546-7.3032 0-10.579-2.5226-10.579-8.1224 0-6.0565 4.3539-8.8569 15.044-9.747v-1.9003c0-1.5669-0.7965-2.1337-2.9953-2.1337-3.2197 0-6.8432 0.9002-10.242 2.6338l-0.0112-6.6777zm13.642 13.723c-5.7663 0.5556-7.6398 1.4569-7.6398 3.7005 0 1.6803 1.077 2.4682 3.4553 2.4682 1.3013 0 2.4905-0.1111 4.1833-0.389l0.0012-5.7797zm11.825-14.346c5.1492-1.3447 9.3887-1.9559 13.685-1.9559 4.4649 0 7.697 1.0113 9.6142 2.9671 1.805 1.8448 2.3794 3.8673 2.3794 8.1791v16.925h-8.7178v-16.58c0-3.3117-1.1331-4.5452-4.2394-4.5452-1.1903 0-2.2662 0.1112-4.0162 0.6223v20.504h-8.7055v-26.116zm29.066 30.826c3.051 1.5669 6.103 2.2903 9.334 2.2903 5.71 0 8.145-2.3003 8.145-7.7901v-0.1667c-1.694 0.8335-3.401 1.1791-5.655 1.1791-7.639 0-12.497-4.9896-12.497-12.891 0-9.8126 7.191-15.358 19.913-15.358 3.736 0 7.191 0.3889 11.374 1.2335l-2.984 6.2232c-2.32-0.4445-0.19-0.0667-1.939-0.2334v0.9001l0.112 3.645 0.055 4.7119c0.057 1.179 0.057 2.3548 0.114 3.5338v2.3548c0 7.4012-0.629 10.87-2.491 13.737-2.715 4.1995-7.415 6.2787-14.092 6.2787-3.398 0-6.338-0.5012-9.389-1.6803v-7.9678zm17.31-25.781h-0.909c-1.694-0.0556-3.679 0.3889-5.037 1.2335-2.086 1.178-3.162 3.3116-3.162 6.3343 0 4.3107 2.154 6.7788 6.002 6.7788 1.188 0 2.154-0.2211 3.276-0.5556v-2.9783c0-1.0112-0.057-2.1336-0.057-3.3116l-0.055-3.9784-0.058-2.8559v-0.6668zm26.824-7.1122c8.705 0 14.023 5.4342 14.023 14.236 0 9.0236-5.541 14.679-14.372 14.679-8.717 0-14.092-5.4331-14.092-14.178 0.015-9.0803 5.556-14.737 14.441-14.737zm-0.18 21.958c3.343 0 5.318-2.7438 5.318-7.5112 0-4.7118-1.92-7.5122-5.261-7.5122-3.455 0-5.432 2.7448-5.432 7.5122s1.987 7.5112 5.375 7.5112z" clip-rule="evenodd" fill="#2C4D4C" fill-rule="evenodd"/><path d="m184.73 0.16211c-8.4858-1e-8 -15.316 6.8306-15.316 15.316v39.826c0 8.4858 6.8306 15.318 15.316 15.318h119.48c8.4858 0 15.318-6.8325 15.318-15.318v-39.826c0-8.4858-6.8325-15.316-15.318-15.316h-119.48zm99.811 15.34c2.72 0 5.1286 0.49568 7.2246 1.4883 2.095 0.9925 3.7479 2.3901 4.9609 4.1914 1.214 1.7646 1.894 3.8051 2.041 6.1211h-4.7422c-0.294-2.2425-1.3062-4.0441-3.0332-5.4043-1.728-1.3602-3.8782-2.041-6.4512-2.041s-4.6141 0.57134-6.1211 1.7109c-1.507 1.1029-2.2617 2.6635-2.2617 4.6855 0 1.4704 0.44122 2.6291 1.3242 3.4746 0.882 0.8088 2.022 1.4339 3.418 1.875 1.397 0.4044 3.3103 0.80859 5.7363 1.2129 3.86 0.6618 6.9477 1.7646 9.2637 3.3086 2.316 1.5072 3.4726 3.9519 3.4726 7.334 0 2.2057-0.58767 4.1726-1.7637 5.9004-1.14 1.7278-2.7556 3.0696-4.8516 4.0254-2.058 0.9558-4.4303 1.4336-7.1133 1.4336-3.015 0-5.6437-0.53351-7.8867-1.5996-2.242-1.1029-3.9883-2.6278-5.2383-4.5762-1.213-1.9851-1.8744-4.2467-1.9844-6.7832h4.7422c0.184 2.6101 1.2306 4.7064 3.1426 6.2871 1.912 1.544 4.3383 2.3164 7.2793 2.3164 2.647 0 4.7795-0.57134 6.3965-1.7109 1.655-1.1764 2.4805-2.7929 2.4805-4.8516 0-1.5072-0.45991-2.7018-1.3789-3.584-0.882-0.8823-2.0386-1.5254-3.4726-1.9297-1.397-0.4412-3.3093-0.86513-5.7363-1.2695-3.86-0.6617-6.928-1.7448-9.207-3.252-2.28-1.5073-3.4199-3.9519-3.4199-7.334 0-2.169 0.55129-4.082 1.6543-5.7363 1.103-1.691 2.6478-2.9951 4.6328-3.9141 2.022-0.9191 4.3196-1.3789 6.8926-1.3789zm-81.562 0.054688c4.264 0 7.8303 1.1586 10.697 3.4746 2.905 2.316 4.7249 5.4774 5.4609 9.4844h-4.7988c-0.698-2.6836-2.0777-4.778-4.1367-6.2852-2.021-1.5073-4.5024-2.2617-7.4434-2.2617-2.647 0-4.98 0.64299-7.002 1.9297s-3.5845 3.0883-4.6875 5.4043c-1.066 2.2792-1.5996 4.9071-1.5996 7.8848 0 2.941 0.53361 5.5707 1.5996 7.8867 1.103 2.316 2.6655 4.1157 4.6875 5.4023 2.022 1.2867 4.355 1.9316 7.002 1.9316 2.978 0 5.4584-0.73653 7.4434-2.207 1.986-1.5072 3.347-3.6214 4.082-6.3418h4.7969c-0.735 4.007-2.5363 7.1703-5.4043 9.4863-2.83 2.316-6.3963 3.4727-10.697 3.4727-3.676 0-6.9111-0.80828-9.7051-2.4258-2.794-1.6543-4.9442-3.9516-6.4512-6.8926-1.507-2.9777-2.2617-6.4157-2.2617-10.312 0-3.86 0.75472-7.2782 2.2617-10.256s3.6572-5.2751 6.4512-6.8926c2.794-1.6543 6.0291-2.4824 9.7051-2.4824zm22.01 0.33203h6.0664l13.674 32.037 13.51-32.037h5.957v38.6h-4.6875v-30.439l-12.793 30.439h-4.2461l-12.793-30.439v30.439h-4.6875v-38.6z" style="fill:#defcb9"/></svg>

