<?xml version="1.0" encoding="utf-8"?>
<!-- Generator: Adobe Illustrator 18.1.1, SVG Export Plug-In . SVG Version: 6.00 Build 0)  -->
<svg version="1.1" id="Layer_1" xmlns="http://www.w3.org/2000/svg" xmlns:xlink="http://www.w3.org/1999/xlink" x="0px" y="0px"
	 viewBox="0 653.5 612 138.5" enable-background="new 0 653.5 612 138.5" xml:space="preserve">
<g id="dja_copy_1_" enable-background="new    ">
	<g id="dja_copy">
		<g>
			<path fill="#000000" d="M70.9,682.4c0.9,0,2,0.3,3.4,0.3c0.9,0,2,0.3,2.9,0.3c0.9,0,1.7,0,2.9-0.3c0.9,0,2-0.3,2.9-0.3
				c0-0.9,0.3-2,0.3-2.9c0-0.9,0-2,0-2.6c0-0.9,0-1.7,0-2.6c0-0.9-0.3-2-0.3-2.9c-0.9,0-2-0.3-2.9-0.3s-2-0.3-2.9-0.3
				c-0.9,0-2,0-2.9,0.3c-0.9,0-2.3,0.3-3.4,0.3c0,0.9-0.3,2-0.3,2.9c0,0.9,0,2,0,2.6c0,0.9,0,1.7,0,2.6
				C70.6,680.1,70.6,681.1,70.9,682.4z M65.7,697.9c0,0.6,0,1.7,0,2.3c0,0.6,0,1.7,0,2.3s0.3,1.7,0.3,2.3h7.2v53.3
				c0,2.3-0.3,4.3-0.9,5.6c-0.6,1.4-1.4,2.3-2.3,2.9c-0.9,0.6-2,0.9-2.9,1.4c-0.9,0-2,0.3-2.9,0.3c-2.3,0-4.6-0.3-6.3-0.9
				c-0.6,1.4-0.9,2.6-1.4,4.3c-0.3,1.7-0.3,2.9-0.6,4.6c2.9,0.9,6.3,1.7,10.2,1.7c2.6,0,4.9-0.3,7.2-0.9s4.3-1.7,5.6-2.9
				c1.7-1.4,2.9-3.4,4-5.6c0.9-2.3,1.4-5.2,1.4-8.9v-63.8H65.9C66,696.3,66,696.9,65.7,697.9z M46,669.5c-0.6,0-1.7,0-2.6,0
				c-0.9,0-2,0.3-2.9,0.3v26c-1.7-0.3-3.4-0.9-5.2-1.4c-2-0.3-4-0.3-6-0.3c-4.3,0-8.6,0.6-12.2,2.3c-3.7,1.7-6.6,3.7-9.2,6.6
				s-4.6,6.3-6,10.2c-1.4,4-2,8.2-2,13.1c0,5.6,0.6,10.2,2.3,14.2c1.7,4,3.7,6.9,6.6,9.2c2.6,2.3,6,4.3,9.5,5.2
				c3.7,0.9,7.6,1.7,11.5,1.7c4.3,0,8.2-0.3,11.9-0.9c3.7-0.6,6.9-1.4,9.5-2.3v-83.5c-0.9,0-1.7-0.3-2.6-0.3
				C48,669.5,47,669.5,46,669.5z M40.7,746.2c-1.4,0.3-2.6,0.6-4.3,0.9s-3.7,0.3-5.6,0.3c-6,0-10.2-1.7-13.9-4.9
				c-3.4-3.4-4.9-8.6-5.2-15.7c0-3.4,0.3-6.3,0.9-8.9c0.6-2.6,2-5.2,3.4-7.2c1.4-2,3.4-3.7,5.6-4.9c2.3-1.4,4.9-1.7,8.2-1.7
				c2,0,4,0,5.6,0.3c1.7,0.3,3.4,0.6,4.9,1.4v40.5h0.3V746.2z M271.4,696.6c-2.6,0.6-4.6,2-6.3,2.9c-2-1.7-4.3-2.9-7.2-4
				c-2.6-0.9-6-1.7-9.2-1.7c-4,0-7.2,0.6-10.2,1.7c-2.9,0.9-5.6,2.6-7.6,4.6c-2,2-3.7,4.3-4.6,6.6c-0.9,2.6-1.7,5.2-1.7,8.2
				c0,3.7,0.6,6.9,2.3,9.5c1.7,2.9,3.7,5.2,6,6.9c-2,1.7-4,3.7-4.9,5.6c-1.4,2-2,4.6-2,7.6c0,2.3,0.6,4.3,1.7,5.6
				c0.9,1.7,2.3,2.6,4,4c-2.6,1.4-4.9,3.7-6.6,6c-1.7,2.6-2.6,5.2-2.6,8.6c0,5.2,2,9.2,6.3,11.9c4,2.6,10.2,3.7,17.7,3.7
				c4.6,0,8.6-0.3,12.5-1.4c4-0.9,7.2-2.3,9.9-4.3c2.9-2,4.9-4,6.6-6.6c1.7-2.6,2.3-5.2,2.3-8.6c0-4.9-1.7-8.9-4.6-11.5
				c-2.9-2.9-7.9-4.3-14.8-4.3l-15.1-0.3c-3.4,0-5.6-0.6-6.6-1.7c-0.9-1.1-1.4-2.3-1.4-3.7c0-1.4,0.6-2.9,1.7-4.3
				c0.9-1.4,2-2.3,3.4-2.9c2.6,0.6,5.2,0.9,8.6,0.9c3.4,0,6.6-0.3,9.5-1.4c2.9-0.9,5.2-2.3,7.6-4.3c2-2,3.7-4,4.9-6.6
				c0.9-2.6,1.7-5.6,1.7-8.6c0-2-0.3-4-0.6-5.2c-0.3-1.7-0.9-2.9-2-4.3h10.2c0-0.9,0.3-2,0.3-2.9s0-2,0-2.6c0-1.7,0-3.4-0.3-4.9
				C276.6,695.2,273.7,695.6,271.4,696.6z M235.8,759.8c1.7-2,4.3-2.9,7.6-2.9l12.8,0.3c4,0,6.6,0.6,7.9,2c1.4,1.4,2.3,2.9,2.3,5.2
				c0,2.9-1.7,5.6-5.2,7.9c-3.4,2-8.2,2.9-14.2,2.9c-2,0-4,0-5.6-0.3c-1.7-0.3-3.4-0.6-4.3-1.4c-1.4-0.6-2.3-1.7-2.9-2.6
				c-0.6-0.9-0.9-2.6-0.9-4.3C233.2,764.1,234.2,761.8,235.8,759.8z M257.8,724.2c-2,2.3-4.9,3.7-9.2,3.7c-4,0-7.2-1.4-9.2-3.7
				c-2-2.3-2.9-5.2-2.9-8.9c0-3.7,0.9-6.9,2.9-9.2c2-2.3,4.9-3.7,9.2-3.7c4,0,7.2,1.4,9.2,3.7c2,2.3,2.9,5.2,2.9,9.2
				C260.9,719,259.8,721.9,257.8,724.2z M121.6,694.3c-2.9,0-6,0.3-8.9,0.6c-2.9,0.3-6,0.9-8.6,2c0,3.7,0.6,6.6,2.3,9.2
				c2.3-0.6,4.6-1.4,6.9-1.7c2.3-0.3,4.9-0.6,7.6-0.6c4.3,0,7.6,0.9,9.9,2.6c2.3,1.7,3.4,4.9,3.4,9.5v2.3c-0.9,0-2.3-0.3-4-0.3
				c-1.7,0-3.7-0.3-6-0.3c-3.4,0-6.3,0.3-9.2,1.4c-2.9,0.6-5.6,2-7.9,3.7c-2.3,1.7-4,3.7-5.2,6.3c-1.4,2.6-2,5.6-2,8.9
				c0,3.4,0.6,6.3,1.7,8.9c0.9,2.3,2.6,4.3,4.9,6c2,1.7,4.6,2.6,7.6,3.4c2.9,0.6,6.3,0.9,10.2,0.9c4,0,7.9-0.3,11.5-0.9
				c4-0.6,6.9-1.4,9.5-2v-37.3c0-7.9-2-13.4-6-17.1C134.8,696,129.3,694.3,121.6,694.3z M133.8,746.2c-1.4,0.3-2.9,0.6-4.9,0.9
				c-2,0.3-3.7,0.3-5.2,0.3c-1.4,0-2.9,0-4.3-0.3c-1.7,0-2.9-0.6-4.3-1.4c-1.4-0.6-2.3-1.7-3.4-2.9c-1.1-1.2-1.4-3.4-1.4-5.6
				c0-3.7,1.4-6.3,3.7-8.2c2.3-1.7,6-2.6,10.8-2.6c1.4,0,2.6,0,4.3,0.3c1.7,0,3.4,0.3,4.3,0.3V746h0.3V746.2z M590.9,653.5h-208
				c-11.5,0-21.1,9.5-21.1,21.7v95.1c0,11.9,9.5,21.7,21.1,21.7h208c11.5,0,21.1-9.5,21.1-21.7v-95.1
				C611.9,663,602.5,653.5,590.9,653.5z M436.2,758.4c-2.6,0.3-5.6,0.6-8.9,0.6c-5.6,0-10.5-0.9-14.8-2.9c-4.3-2-7.9-4.6-10.8-7.9
				c-2.9-3.4-4.9-7.2-6.6-11.9c-1.4-4.6-2.3-9.5-2.3-15.1s0.6-10.5,2.3-15.1c1.7-4.6,3.7-8.6,6.6-12.2c2.9-3.4,6.6-6,10.5-7.9
				c4.3-2,8.9-2.9,14.5-2.9c3.4,0,6.3,0.3,8.9,0.6c2.6,0.3,5.6,1.4,8.6,2.6c0,2-0.6,4-1.4,6c-0.6,2-1.4,4-2.3,6
				c-2.3-0.6-4.3-1.4-6.3-1.7c-1.7-0.3-4-0.6-6.3-0.6c-6.3,0-11.1,2-14.8,6.3c-3.4,4.3-5.2,10.5-5.2,19.1c0,16.5,6.9,25,20.8,25
				c2.3,0,4.6-0.3,6.6-0.6c2-0.3,4-0.9,6.3-1.7c0.9,2,1.7,4,2.3,6c0.6,2,0.9,4,1.4,6C442.1,757.2,438.9,758.1,436.2,758.4z
				 M517.6,758.4c-2.3,0-4.6-0.3-6.6-0.6l-1.7-49.6l-14.5,34.5c-0.9,0-2,0.3-2.9,0.3c-0.9,0-2,0-2.9,0s-1.7,0-2.6,0
				s-1.7-0.3-2.6-0.3l-13.4-35.3l-1.4,50.4c-2,0.3-4.3,0.6-6.3,0.6c-2,0-4.3-0.3-6.6-0.6l2.6-73.4c2.6-0.3,5.2-0.6,7.6-0.6
				c2.6,0,5.2,0.3,7.6,0.6l16.5,42.1l16.8-42.1c2-0.3,4.3-0.6,6.9-0.6s4.9,0.3,7.2,0.6l3.4,73.4
				C522.1,758.1,519.5,758.4,517.6,758.4z M580,745.3c-1.4,2.9-2.9,5.2-5.2,7.2c-2.3,2-5.2,3.7-8.6,4.9c-3.4,1.4-7.2,1.7-11.9,1.7
				c-2.3,0-4.3,0-6-0.3c-1.7,0-3.4-0.3-4.9-0.6c-1.7-0.3-2.9-0.6-4.6-1.4c-1.7-0.3-2.9-0.9-4.9-1.7c0.3-2,0.6-4,0.9-6.3
				c0.6-2.3,1.4-4.3,2-6.6c2.6,1.4,5.2,2,7.9,2.6c2.3,0.6,4.9,0.9,7.9,0.9c4.3,0,7.6-0.6,9.9-2.3c2.3-1.7,3.7-4,3.7-7.2
				c0-1.7-0.3-2.9-0.9-4c-0.6-0.9-1.4-2-2.3-2.6c-0.9-0.6-2-1.4-2.9-2c-0.9-0.6-2.3-0.9-3.7-1.4l-6-2.3c-2.3-0.9-4.3-2-6-2.9
				c-1.7-0.9-3.4-2.3-4.6-3.7c-1.4-1.4-2.3-3.4-2.9-5.2c-0.6-2-0.9-4.6-0.9-7.2c0-3.7,0.6-6.6,1.7-9.2c1.4-2.6,2.9-4.9,4.9-6.6
				c2-1.7,4.6-3.4,7.6-4c2.9-0.9,6.3-1.4,10.2-1.4c3.4,0,6.6,0.3,9.5,0.9c2.9,0.6,6,1.7,9.2,2.6c-0.3,4-1.4,7.9-3.4,11.5
				c-0.9-0.3-2-0.6-2.9-1.4c-0.9-0.3-2-0.6-3.4-0.9c-1.4-0.3-2.6-0.6-4-0.6c-1.4-0.3-2.9-0.3-4.9-0.3c-0.9,0-2.3,0-3.4,0.3
				c-1.4,0.3-2.3,0.6-3.4,0.9c-0.9,0.6-1.7,1.4-2.3,2.3c-0.6,0.9-0.9,2.3-0.9,4.3c0,1.4,0.3,2.6,0.6,3.4c0.3,0.9,0.9,1.7,2,2.3
				c0.6,0.6,1.7,1.4,2.6,1.7c0.9,0.3,2,0.9,2.9,1.4l6,2.3c2.6,0.9,4.9,2,6.9,3.4c2,0.9,4,2.3,5.2,4c1.4,1.7,2.6,3.7,3.4,6
				c0.8,2.3,1.4,4.9,1.4,8.6C582,739,581.4,742.4,580,745.3z M191.1,694.3c-2.3,0-4.6,0.3-6.6,0.9c-2,0.6-3.7,1.7-5.2,2.6
				c-1.5,0.9-2.9,2.3-4,3.7c-1.4,1.4-2.3,2.6-2.9,4c0-1.4,0-2.9-0.3-4.9c-0.3-2-0.3-3.7-0.6-4.6c-0.9,0-1.7-0.3-2.3-0.3
				c-0.6,0-1.7,0-2.3,0c-0.9,0-1.7,0-2.3,0s-1.7,0.3-2.3,0.3l0,0v59.6c0.9,0,1.7,0.3,2.9,0.3c0.9,0,2,0,2.9,0c0.9,0,1.7,0,2.6,0
				s2-0.3,2.6-0.3v-30.2c0-3.7,0.3-6.9,1.4-9.5c0.9-2.6,2-4.6,3.7-6.3c1.4-1.7,2.9-2.9,4.9-3.7c2-0.6,4-1.4,6-1.4
				c3.7,0,6.3,1.4,7.9,4c1.7,2.6,2.6,6.6,2.6,12.2v34.8c0.9,0,1.7,0.3,2.6,0.3s2,0,2.6,0c0.9,0,1.7,0,2.9,0c0.9,0,2-0.3,2.9-0.3
				v-37.9c0-7.6-1.7-13.4-4.9-17.4C202.5,696.3,197.7,694.3,191.1,694.3z M333.6,703.1c-2.3-2.9-5.2-4.9-8.6-6.6
				c-3.4-1.7-7.2-2.3-11.9-2.3c-4.7,0-8.6,0.6-11.9,2.3c-3.4,1.7-6.3,4-8.6,6.6c-2.3,2.9-4,6.3-4.9,9.9c-0.9,4-1.7,7.9-1.7,12.5
				s0.6,8.6,1.7,12.5c0.9,4,2.6,7.2,4.9,9.9c2.3,2.9,5.2,4.9,8.6,6.6c3.4,1.7,7.2,2.3,11.9,2.3c4.7,0,8.6-0.6,11.9-2.3
				c3.4-1.7,6.3-4,8.6-6.6c2.3-2.9,4-6.3,4.9-9.9c0.9-4,1.7-7.9,1.7-12.5s-0.6-8.6-1.7-12.5C337.5,709.4,335.9,706.2,333.6,703.1z
				 M324.7,741.9c-2.6,4-6.3,6-11.5,6s-9.2-2-11.5-6c-2.6-4-3.7-9.2-3.7-16.2c0-6.9,1.4-12.2,3.7-16.2c2.3-4,6.3-6,11.5-6
				s9.2,2,11.5,6c2.6,4,3.7,9.2,3.7,16.2C328.4,732.4,327,738.1,324.7,741.9z"/>
		</g>
	</g>
</g>
</svg>
