<?xml version="1.0" encoding="UTF-8" standalone="no"?>
<svg
   width="16"
   height="16"
   fill="currentColor"
   class="bi bi-file-earmark"
   viewBox="0 0 16 16"
   version="1.1"
   id="svg826"
   sodipodi:docname="manage-versions.svg"
   inkscape:version="1.1.2 (b8e25be8, 2022-02-05)"
   xmlns:inkscape="http://www.inkscape.org/namespaces/inkscape"
   xmlns:sodipodi="http://sodipodi.sourceforge.net/DTD/sodipodi-0.dtd"
   xmlns="http://www.w3.org/2000/svg"
   xmlns:svg="http://www.w3.org/2000/svg">
  <defs
     id="defs830" />
  <path
     id="path824"
     style="stroke-width:0.853912"
     d="M 4.75 0 L 1 3.9375 L 1 12.25 A 1.6666667 1.75 0 0 0 2.6660156 14 L 5.40625 14 L 5.40625 13.125 L 2.6660156 13.125 A 0.83333333 0.875 0 0 1 1.8339844 12.25 L 1.8339844 3.9375 L 3.5 3.9375 A 1.25 1.3125 0 0 0 4.75 2.625 L 4.75 0.875 L 9.3339844 0.875 A 0.83333333 0.875 0 0 1 10.166016 1.75 L 10.166016 2.5664062 L 11 2.5664062 L 11 1.75 A 1.6666667 1.75 0 0 0 9.3339844 0 L 4.75 0 z " />
  <path
     d="M 5,5.9375 V 14.25 A 1.6666667,1.75 0 0 0 6.6666667,16 H 13.333333 A 1.6666667,1.75 0 0 0 15,14.25 V 3.75 A 1.6666667,1.75 0 0 0 13.333333,2 H 8.75 Z m 2.5,0 A 1.25,1.3125 0 0 0 8.75,4.625 v -1.75 h 4.583333 a 0.83333333,0.875 0 0 1 0.833334,0.875 v 10.5 a 0.83333333,0.875 0 0 1 -0.833334,0.875 H 6.6666667 A 0.83333333,0.875 0 0 1 5.8333333,14.25 V 5.9375 Z"
     id="path824-0"
     style="stroke-width:0.853912" />
</svg>
