<svg xmlns="http://www.w3.org/2000/svg" viewBox="0 0 640 640"><!--!Font Awesome Pro v7.0.0 by @fontawesome - https://fontawesome.com License - https://fontawesome.com/license (Commercial License) Copyright 2025 Fonticons, Inc.--><path d="M352 112L352 184C352 223.8 384.2 256 424 256L496 256L496 448C496 456.8 488.8 464 480 464L256 464C247.2 464 240 456.8 240 448L240 128C240 119.2 247.2 112 256 112L352 112zM400 115.9L492.1 208L424 208C410.7 208 400 197.3 400 184L400 115.9zM256 64C220.7 64 192 92.7 192 128L192 448C192 483.3 220.7 512 256 512L480 512C515.3 512 544 483.3 544 448L544 211.9C544 199.2 538.9 187 529.9 178L430.1 78.1C421.1 69.1 408.9 64 396.2 64L256 64zM120 160C106.7 160 96 170.7 96 184L96 544C96 579.3 124.7 608 160 608L424 608C437.3 608 448 597.3 448 584C448 570.7 437.3 560 424 560L160 560C151.2 560 144 552.8 144 544L144 184C144 170.7 133.3 160 120 160z"/></svg>
