<?xml version="1.0" encoding="utf-8"?>
<!-- Generator: Adobe Illustrator 16.0.0, SVG Export Plug-In . SVG Version: 6.00 Build 0)  -->
<!DOCTYPE svg PUBLIC "-//W3C//DTD SVG 1.1//EN" "http://www.w3.org/Graphics/SVG/1.1/DTD/svg11.dtd">
<svg version="1.1" id="Layer_1" xmlns="http://www.w3.org/2000/svg" xmlns:xlink="http://www.w3.org/1999/xlink" x="0px" y="0px"
	 width="512px" height="512px" viewBox="0.5 0.5 512 512" enable-background="new 0.5 0.5 512 512" xml:space="preserve">
<g>
	<path d="M0.5,77.748c0,4.893,1.633,8.969,5.716,13.045c3.266,3.26,8.166,5.707,13.066,5.707h474.437
		c4.898,0,8.98-1.63,13.064-5.707c3.266-3.262,5.717-8.153,5.717-13.045V51.251c0-5.707-1.633-9.783-5.717-13.044
		c-3.267-3.261-8.166-5.707-13.064-5.707H19.282c-4.9,0-8.983,1.63-13.066,5.707C2.95,41.468,0.5,46.359,0.5,51.251V77.748z"/>
</g>
<path d="M0.5,333.748c0,4.893,1.633,8.969,5.716,13.045c3.266,3.262,8.166,5.707,13.066,5.707h474.437
	c4.898,0,8.98-1.631,13.064-5.707c3.266-3.262,5.717-8.152,5.717-13.045v-26.497c0-5.706-1.633-9.783-5.717-13.044
	c-3.267-3.262-8.166-5.707-13.064-5.707H19.282c-4.9,0-8.983,1.631-13.066,5.707C2.95,297.468,0.5,302.359,0.5,307.251V333.748z"/>
<path d="M0.5,461.748c0,4.893,1.633,8.969,5.716,13.045c3.266,3.261,8.166,5.707,13.066,5.707h474.437
	c4.898,0,8.98-1.631,13.064-5.707c3.266-3.262,5.717-8.152,5.717-13.045v-26.497c0-5.706-1.633-9.783-5.717-13.044
	c-3.267-3.262-8.166-5.707-13.064-5.707H19.282c-4.9,0-8.983,1.631-13.066,5.707C2.95,425.468,0.5,430.359,0.5,435.251V461.748z"/>
<path d="M80,205.394c0,4.854,1.64,8.897,5.739,12.942c3.278,3.236,8.197,5.663,13.116,5.663h394.292
	c4.919,0,9.017-1.619,13.114-5.663c3.279-3.235,5.739-8.09,5.739-12.942v-26.789c0-4.854-1.64-8.898-5.739-12.943
	c-4.099-4.044-8.195-5.662-13.114-5.662H98.854c-4.918,0-9.017,1.618-13.116,5.662c-3.279,3.236-5.739,8.09-5.739,12.943L80,205.394
	L80,205.394z"/>
</svg>
