<svg xmlns="http://www.w3.org/2000/svg" viewBox="0 0 640 640"><!--!Font Awesome Pro v7.0.0 by @fontawesome - https://fontawesome.com License - https://fontawesome.com/license (Commercial License) Copyright 2025 Fonticons, Inc.--><path d="M96 144C96 135.2 103.2 128 112 128L528 128C536.8 128 544 135.2 544 144C544 152.8 536.8 160 528 160L112 160C103.2 160 96 152.8 96 144zM96 320C96 311.2 103.2 304 112 304L528 304C536.8 304 544 311.2 544 320C544 328.8 536.8 336 528 336L112 336C103.2 336 96 328.8 96 320zM544 496C544 504.8 536.8 512 528 512L112 512C103.2 512 96 504.8 96 496C96 487.2 103.2 480 112 480L528 480C536.8 480 544 487.2 544 496z"/></svg>
