<?xml version="1.0" encoding="utf-8"?>
<!-- Generator: Adobe Illustrator 18.1.0, SVG Export Plug-In . SVG Version: 6.00 Build 0)  -->
<!DOCTYPE svg PUBLIC "-//W3C//DTD SVG 1.1//EN" "http://www.w3.org/Graphics/SVG/1.1/DTD/svg11.dtd">
<svg version="1.1" id="Layer_1" xmlns="http://www.w3.org/2000/svg" xmlns:xlink="http://www.w3.org/1999/xlink" x="0px" y="0px"
	 viewBox="-273 365 64 64" style="enable-background:new -273 365 64 64;" xml:space="preserve">
<g>
	<path d="M-211.9,412.7h-58.1c-0.6,0-1.1,0.2-1.6,0.7c-0.4,0.4-0.7,1-0.7,1.6v4.5c0,0.6,0.2,1.1,0.7,1.6c0.4,0.4,1,0.7,1.6,0.7h58.1
		c0.6,0,1.1-0.2,1.6-0.7c0.4-0.4,0.7-1,0.7-1.6v-4.5c0-0.6-0.2-1.1-0.7-1.6S-211.3,412.7-211.9,412.7z"/>
	<path d="M-211.9,399.2h-58.1c-0.6,0-1.1,0.2-1.6,0.7c-0.4,0.4-0.7,1-0.7,1.6v4.5c0,0.6,0.2,1.1,0.7,1.6c0.4,0.4,1,0.7,1.6,0.7h58.1
		c0.6,0,1.1-0.2,1.6-0.7c0.4-0.4,0.7-1,0.7-1.6v-4.5c0-0.6-0.2-1.1-0.7-1.6C-210.8,399.5-211.3,399.2-211.9,399.2z"/>
	<path d="M-211.9,385.8h-48.1c-0.6,0-1.1,0.2-1.6,0.7c-0.4,0.4-0.7,1-0.7,1.6v4.5c0,0.6,0.2,1.1,0.7,1.6c0.4,0.4,1,0.7,1.6,0.7h48.1
		c0.6,0,1.1-0.2,1.6-0.7c0.4-0.4,0.7-1,0.7-1.6v-4.5c0-0.6-0.2-1.1-0.7-1.6C-210.8,386-211.3,385.8-211.9,385.8z"/>
	<path d="M-210.4,373.1c-0.4-0.4-1-0.7-1.6-0.7h-58.1c-0.6,0-1.1,0.2-1.6,0.7c-0.4,0.4-0.7,1-0.7,1.6v4.5c0,0.6,0.2,1.1,0.7,1.6
		c0.4,0.4,1,0.7,1.6,0.7h58.1c0.6,0,1.1-0.2,1.6-0.7c0.4-0.4,0.7-1,0.7-1.6v-4.5C-209.7,374-209.9,373.5-210.4,373.1z"/>
</g>
</svg>
