<?xml version="1.0" encoding="utf-8"?>
<!-- Generator: Adobe Illustrator 19.1.0, SVG Export Plug-In . SVG Version: 6.00 Build 0)  -->
<svg version="1.1" id="Layer_1" xmlns="http://www.w3.org/2000/svg" xmlns:xlink="http://www.w3.org/1999/xlink" x="0px" y="0px"
	 viewBox="-49 141 512 512" style="enable-background:new -49 141 512 512;" xml:space="preserve">
<path d="M463,546.5v43c0,5.8-2.1,10.9-6.3,15.1c-4.2,4.3-9.2,6.4-15,6.4H-27.7c-5.8,0-10.8-2.1-15-6.4s-6.3-9.3-6.3-15.1v-43
	c0-5.8,2.1-10.9,6.3-15.1s9.2-6.4,15-6.4h469.3c5.8,0,10.8,2.1,15,6.4C460.9,535.6,463,540.7,463,546.5z M463,375.5v43
	c0,5.8-2.1,10.9-6.3,15.1c-4.2,4.3-9.2,6.4-15,6.4H-27.7c-5.8,0-10.8-2.1-15-6.4s-6.3-9.3-6.3-15.1v-43c0-5.8,2.1-10.9,6.3-15.1
	s9.2-6.4,15-6.4h469.3c5.8,0,10.8,2.1,15,6.4C460.9,364.6,463,369.7,463,375.5z M463,204.5v43c0,5.8-2.1,10.9-6.3,15.1
	c-4.2,4.3-9.2,6.4-15,6.4H-27.7c-5.8,0-10.8-2.1-15-6.4s-6.3-9.3-6.3-15.1v-43c0-5.8,2.1-10.9,6.3-15.1s9.2-6.4,15-6.4h469.3
	c5.8,0,10.8,2.1,15,6.4C460.9,193.6,463,198.7,463,204.5z"/>
</svg>
