<svg xmlns="http://www.w3.org/2000/svg" viewBox="0 0 640 640"><!--!Font Awesome Pro v7.0.0 by @fontawesome - https://fontawesome.com License - https://fontawesome.com/license (Commercial License) Copyright 2025 Fonticons, Inc.--><path d="M544 128L256 128C238.3 128 224 142.3 224 160L224 176L192 176L192 160C192 124.7 220.7 96 256 96L544 96C579.3 96 608 124.7 608 160L608 352C608 387.3 579.3 416 544 416L496 416L496 384L544 384C561.7 384 576 369.7 576 352L576 160C576 142.3 561.7 128 544 128zM384 256L96 256C78.3 256 64 270.3 64 288L64 320L416 320L416 288C416 270.3 401.7 256 384 256zM416 352L64 352L64 480C64 497.7 78.3 512 96 512L384 512C401.7 512 416 497.7 416 480L416 352zM96 224L384 224C419.3 224 448 252.7 448 288L448 480C448 515.3 419.3 544 384 544L96 544C60.7 544 32 515.3 32 480L32 288C32 252.7 60.7 224 96 224z"/></svg>
