<?xml version="1.0" encoding="utf-8"?>
<!-- Generator: Adobe Illustrator 16.0.0, SVG Export Plug-In . SVG Version: 6.00 Build 0)  -->
<!DOCTYPE svg PUBLIC "-//W3C//DTD SVG 1.1//EN" "http://www.w3.org/Graphics/SVG/1.1/DTD/svg11.dtd">
<svg version="1.1" id="Capa_1" xmlns="http://www.w3.org/2000/svg" xmlns:xlink="http://www.w3.org/1999/xlink" x="0px" y="0px"
	 width="328.911px" height="328.911px" viewBox="0 0 328.911 328.911" style="enable-background:new 0 0 328.911 328.911;"
	 xml:space="preserve">
<path d="M310.206,18.71C297.735,6.242,282.657,0.007,264.958,0.007H63.954c-17.703,0-32.79,6.235-45.253,18.704
	C6.235,31.177,0,46.261,0,63.96v200.991c0,17.515,6.232,32.552,18.701,45.11c12.467,12.566,27.553,18.843,45.253,18.843h201.004
	c17.699,0,32.777-6.276,45.248-18.843c12.47-12.559,18.705-27.596,18.705-45.11V63.96
	C328.911,46.261,322.672,31.177,310.206,18.71z M292.362,264.96c0,7.614-2.673,14.089-8.001,19.414
	c-5.324,5.332-11.799,7.994-19.41,7.994H63.954c-7.614,0-14.082-2.662-19.414-7.994c-5.33-5.325-7.992-11.8-7.992-19.414V63.965
	c0-7.613,2.662-14.086,7.992-19.414c5.327-5.327,11.8-7.994,19.414-7.994h201.004c7.61,0,14.086,2.663,19.41,7.994
	c5.325,5.328,7.994,11.801,7.994,19.414V264.96z"/>
<path d="M246.683,146.189H82.229c-2.664,0-4.858,0.855-6.567,2.568c-1.711,1.713-2.568,3.903-2.568,6.567v18.271
	c0,2.666,0.854,4.855,2.568,6.563c1.713,1.708,3.903,2.57,6.567,2.57h164.454c2.662,0,4.853-0.862,6.563-2.57
	c1.712-1.708,2.563-3.897,2.563-6.563v-18.271c0-2.664-0.852-4.857-2.563-6.567C251.536,147.048,249.345,146.189,246.683,146.189z
	"/>
</svg>
