<svg xmlns="http://www.w3.org/2000/svg" viewBox="0 0 640 640"><!--!Font Awesome Pro v7.0.0 by @fontawesome - https://fontawesome.com License - https://fontawesome.com/license (Commercial License) Copyright 2025 Fonticons, Inc.--><path d="M256 288C309 288 352 245 352 192C352 139 309 96 256 96C203 96 160 139 160 192C160 245 203 288 256 288zM256 64C326.7 64 384 121.3 384 192C384 262.7 326.7 320 256 320C185.3 320 128 262.7 128 192C128 121.3 185.3 64 256 64zM208 400C128.5 400 64 464.5 64 544L64 560C64 568.8 56.8 576 48 576C39.2 576 32 568.8 32 560L32 544C32 446.8 110.8 368 208 368L304 368C401.2 368 480 446.8 480 544L480 560C480 568.8 472.8 576 464 576C455.2 576 448 568.8 448 560L448 544C448 464.5 383.5 400 304 400L208 400zM605.6 184.5L525.6 312.5C522.8 317 518 319.8 512.7 320C507.4 320.2 502.4 317.8 499.2 313.6L451.2 249.6C445.9 242.5 447.3 232.5 454.4 227.2C461.5 221.9 471.5 223.3 476.8 230.4L510.8 275.7L578.4 167.5C583.1 160 593 157.7 600.4 162.4C607.8 167.1 610.2 177 605.5 184.4z"/></svg>
