<?xml version="1.0" encoding="utf-8"?>
<!-- Generator: Adobe Illustrator 19.1.0, SVG Export Plug-In . SVG Version: 6.00 Build 0)  -->
<svg version="1.1" id="Layer_1" xmlns="http://www.w3.org/2000/svg" xmlns:xlink="http://www.w3.org/1999/xlink" x="0px" y="0px"
	 viewBox="-49 141 512 512" style="enable-background:new -49 141 512 512;" xml:space="preserve">
<path d="M170.4,616.4h256V433.6H307.6c-7.6,0-14.1-2.7-19.4-8c-5.3-5.3-8-11.8-8-19.4V287.3H170.4V616.4z M243.6,205v-18.3
	c0-2.5-0.9-4.6-2.7-6.4c-1.8-1.8-4-2.7-6.4-2.7H33.3c-2.5,0-4.6,0.9-6.4,2.7c-1.8,1.8-2.7,4-2.7,6.4V205c0,2.5,0.9,4.6,2.7,6.4
	s4,2.7,6.4,2.7h201.1c2.5,0,4.6-0.9,6.4-2.7C242.7,209.6,243.6,207.5,243.6,205z M316.7,397h85.4l-85.4-85.4V397z M463,433.6v192
	c0,7.6-2.7,14.1-8,19.4s-11.8,8-19.4,8H161.3c-7.6,0-14.1-2.7-19.4-8c-5.3-5.3-8-11.8-8-19.4v-45.7H-21.6c-7.6,0-14.1-2.7-19.4-8
	c-5.3-5.3-8-11.8-8-19.4v-384c0-7.6,2.7-14.1,8-19.4s11.8-8,19.4-8h310.9c7.6,0,14.1,2.7,19.4,8c5.3,5.3,8,11.8,8,19.4v93.7
	c4,2.5,7.4,5.1,10.3,8l116.6,116.6c5.3,5.3,9.9,12.6,13.7,21.7C461.1,417.6,463,426,463,433.6z"/>
</svg>
