<svg xmlns="http://www.w3.org/2000/svg" viewBox="0 0 640 640"><!--!Font Awesome Pro v7.0.0 by @fontawesome - https://fontawesome.com License - https://fontawesome.com/license (Commercial License) Copyright 2025 Fonticons, Inc.--><path d="M376 144L264 144C250.7 144 240 133.3 240 120C240 106.7 250.7 96 264 96L376 96C389.3 96 400 106.7 400 120C400 133.3 389.3 144 376 144zM376 176C404.2 176 427.6 155.1 431.4 128L448 128C465.7 128 480 142.3 480 160L480 512C480 529.7 465.7 544 448 544L192 544C174.3 544 160 529.7 160 512L160 160C160 142.3 174.3 128 192 128L208.6 128C212.5 155.1 235.8 176 264 176L376 176zM426.6 96C417.6 77.1 398.3 64 376 64L264 64C241.7 64 222.4 77.1 213.4 96L192 96C156.7 96 128 124.7 128 160L128 512C128 547.3 156.7 576 192 576L448 576C483.3 576 512 547.3 512 512L512 160C512 124.7 483.3 96 448 96L426.6 96z"/></svg>
