<?xml version="1.0" encoding="utf-8"?>
<!-- Generator: Adobe Illustrator 16.0.0, SVG Export Plug-In . SVG Version: 6.00 Build 0)  -->
<!DOCTYPE svg PUBLIC "-//W3C//DTD SVG 1.1//EN" "http://www.w3.org/Graphics/SVG/1.1/DTD/svg11.dtd">
<svg version="1.1" id="Layer_1" xmlns="http://www.w3.org/2000/svg" xmlns:xlink="http://www.w3.org/1999/xlink" x="0px" y="0px"
	 width="512px" height="512px" viewBox="640.5 640.5 512 512" enable-background="new 640.5 640.5 512 512" xml:space="preserve">
<path d="M779.843,1082.649l26.909-26.909l-69.492-69.492l-26.91,26.909v31.642h37.851v37.851H779.843z M934.498,808.23
	c0-4.337-2.168-6.505-6.505-6.505c-1.972,0-3.647,0.69-5.027,2.07L762.691,964.07c-1.38,1.379-2.07,3.055-2.07,5.026
	c0,4.337,2.168,6.506,6.505,6.506c1.972,0,3.647-0.69,5.027-2.07l160.274-160.274C933.809,811.878,934.498,810.202,934.498,808.23z
	 M918.53,751.455l123.015,123.015l-246.03,246.03H672.5V997.484L918.53,751.455z M1120.5,779.843
	c0,10.448-3.646,19.319-10.941,26.614l-49.088,49.088L937.455,732.529l49.088-48.792c7.098-7.491,15.969-11.237,26.614-11.237
	c10.448,0,19.419,3.746,26.909,11.237l69.492,69.196C1116.854,760.622,1120.5,769.591,1120.5,779.843z"/>
</svg>
