<?xml version="1.0" encoding="utf-8"?>
<!-- Generator: Adobe Illustrator 16.0.0, SVG Export Plug-In . SVG Version: 6.00 Build 0)  -->
<!DOCTYPE svg PUBLIC "-//W3C//DTD SVG 1.1//EN" "http://www.w3.org/Graphics/SVG/1.1/DTD/svg11.dtd">
<svg version="1.1" id="Layer_1" xmlns="http://www.w3.org/2000/svg" xmlns:xlink="http://www.w3.org/1999/xlink" x="0px" y="0px"
	 width="512px" height="512px" viewBox="0 0 512 512" enable-background="new 0 0 512 512" xml:space="preserve">
<path d="M228.308,244.308v-129.23c0-2.692-0.865-4.904-2.596-6.635c-1.73-1.731-3.942-2.596-6.634-2.596
	c-2.692,0-4.904,0.865-6.635,2.596c-1.731,1.73-2.596,3.942-2.596,6.635v129.23c0,2.692,0.865,4.904,2.596,6.635
	c1.731,1.73,3.942,2.596,6.635,2.596c2.692,0,4.904-0.866,6.634-2.596C227.442,249.211,228.308,247,228.308,244.308z
	 M422.154,345.846c0,5-1.827,9.327-5.48,12.981c-3.654,3.654-7.981,5.48-12.981,5.48h-123.75l-14.711,139.327
	c-0.385,2.308-1.395,4.278-3.029,5.913c-1.635,1.635-3.606,2.452-5.914,2.452H256c-5.192,0-8.269-2.596-9.231-7.789l-21.923-139.904
	H108.308c-5,0-9.327-1.827-12.98-5.48c-3.654-3.654-5.481-7.981-5.481-12.981c0-23.654,7.548-44.952,22.644-63.894
	c15.096-18.942,32.164-28.414,51.202-28.414V105.846c-10,0-18.654-3.654-25.961-10.961c-7.308-7.308-10.962-15.962-10.962-25.962
	c0-10,3.654-18.654,10.962-25.961S153.692,32,163.692,32h184.615c10,0,18.654,3.654,25.961,10.961s10.962,15.962,10.962,25.961
	c0,10-3.654,18.654-10.962,25.962c-7.308,7.308-15.961,10.961-25.961,10.961v147.692c19.039,0,36.106,9.471,51.202,28.414
	S422.154,322.192,422.154,345.846z"/>
</svg>
