<svg xmlns="http://www.w3.org/2000/svg" viewBox="0 0 640 640"><!--!Font Awesome Pro v7.0.0 by @fontawesome - https://fontawesome.com License - https://fontawesome.com/license (Commercial License) Copyright 2025 Fonticons, Inc.--><path d="M320 320C381.9 320 432 269.9 432 208C432 146.1 381.9 96 320 96C258.1 96 208 146.1 208 208C208 269.9 258.1 320 320 320zM464 208C464 282.1 408 343.2 336 351.1L336 560C336 568.8 328.8 576 320 576C311.2 576 304 568.8 304 560L304 351.1C232 343.2 176 282.1 176 208C176 128.5 240.5 64 320 64C399.5 64 464 128.5 464 208zM272 208C272 216.8 264.8 224 256 224C247.2 224 240 216.8 240 208C240 163.8 275.8 128 320 128C328.8 128 336 135.2 336 144C336 152.8 328.8 160 320 160C293.5 160 272 181.5 272 208z"/></svg>
