<?xml version="1.0" encoding="UTF-8"?>
<svg class="bi bi-list-columns-reverse" fill="currentColor" version="1.1" viewBox="0 0 16 16" xmlns="http://www.w3.org/2000/svg"><path d="m12 0.5a0.5 0.5 0 0 0-0.5-0.5h-11a0.5 0.5 0 0 0 0 1h11a0.5 0.5 0 0 0 0.5-0.5"/><path d="m16 14.5a0.5 0.5 0 0 0-0.5-0.5h-2a0.5 0.5 0 0 0 0 1h2a0.5 0.5 0 0 0 0.5-0.5"/><path d="m12 11.7a0.5 0.5 0 0 0-0.5-0.5h-6a0.5 0.5 0 0 0 0 1h6a0.5 0.5 0 0 0 0.5-0.5"/><path d="m16 11.7a0.5 0.5 0 0 0-0.5-0.5h-2a0.5 0.5 0 0 0 0 1h2a0.5 0.5 0 0 0 0.5-0.5"/><path d="m12 8.9a0.5 0.5 0 0 0-0.5-0.5h-10a0.5 0.5 0 0 0 0 1h10a0.5 0.5 0 0 0 0.5-0.5"/><path d="m12.029 3.3a0.5 0.5 0 0 0-0.5-0.5h-10a0.5 0.5 0 0 0 0 1h10a0.5 0.5 0 0 0 0.5-0.5"/><path d="m16 8.9a0.5 0.5 0 0 0-0.5-0.5h-2a0.5 0.5 0 0 0 0 1h2a0.5 0.5 0 0 0 0.5-0.5"/><path d="m12 6.1a0.5 0.5 0 0 0-0.5-0.5h-8a0.5 0.5 0 0 0 0 1h8a0.5 0.5 0 0 0 0.5-0.5"/><path d="m16 6.1a0.5 0.5 0 0 0-0.5-0.5h-2a0.5 0.5 0 0 0 0 1h2a0.5 0.5 0 0 0 0.5-0.5"/><path d="m16 3.3a0.5 0.5 0 0 0-0.5-0.5h-2a0.5 0.5 0 0 0 0 1h2a0.5 0.5 0 0 0 0.5-0.5"/><path d="m12 14.5a0.5 0.5 0 0 0-0.5-0.5h-10a0.5 0.5 0 0 0 0 1h10a0.5 0.5 0 0 0 0.5-0.5"/><path d="m16 0.5a0.5 0.5 0 0 0-0.5-0.5h-2a0.5 0.5 0 0 0 0 1h2a0.5 0.5 0 0 0 0.5-0.5"/></svg>
