<?xml version="1.0" encoding="utf-8"?>
<!-- Generator: Adobe Illustrator 19.1.0, SVG Export Plug-In . SVG Version: 6.00 Build 0)  -->
<svg version="1.1" id="Layer_1" xmlns="http://www.w3.org/2000/svg" xmlns:xlink="http://www.w3.org/1999/xlink" x="0px" y="0px"
	 viewBox="-49 141 512 512" style="enable-background:new -49 141 512 512;" xml:space="preserve">
<g>
	<path d="M301,263.1c0,6.6-6,12.6-12.6,12.6H-25.6c-6.6,0-12.6-6-12.6-12.6V238c0-6.6,6-12.6,12.6-12.6h314.1
		c6.6,0,12.6,6,12.6,12.6V263.1z"/>
	<path d="M379.1,263.1c0,6.6-6,12.6-12.6,12.6h-31.1c-6.6,0-12.6-6-12.6-12.6V238c0-6.6,6-12.6,12.6-12.6h31.1
		c6.6,0,12.6,6,12.6,12.6V263.1z"/>
	<path d="M453.8,263.1c0,6.6-6,12.6-12.6,12.6h-31.1c-6.6,0-12.6-6-12.6-12.6V238c0-6.6,6-12.6,12.6-12.6h31.1
		c6.6,0,12.6,6,12.6,12.6V263.1z"/>
</g>
<g>
	<path d="M301,361c0,6.6-6,12.6-12.6,12.6h-248c-6.6,0-12.6-6-12.6-12.6v-25.1c0-6.6,6-12.6,12.6-12.6h248c6.6,0,12.6,6,12.6,12.6
		V361z"/>
	<path d="M379.1,361c0,6.6-6,12.6-12.6,12.6h-31.1c-6.6,0-12.6-6-12.6-12.6v-25.1c0-6.6,6-12.6,12.6-12.6h31.1
		c6.6,0,12.6,6,12.6,12.6V361z"/>
	<path d="M453.8,361c0,6.6-6,12.6-12.6,12.6h-31.1c-6.6,0-12.6-6-12.6-12.6v-25.1c0-6.6,6-12.6,12.6-12.6h31.1
		c6.6,0,12.6,6,12.6,12.6V361z"/>
</g>
<g>
	<path d="M301,458.2c0,6.6-6,12.6-12.6,12.6H106.6c-6.6,0-12.6-6-12.6-12.6v-25.1c0-6.6,6-12.6,12.6-12.6h181.9
		c6.6,0,12.6,6,12.6,12.6V458.2z"/>
	<path d="M379.1,458.2c0,6.6-6,12.6-12.6,12.6h-31.1c-6.6,0-12.6-6-12.6-12.6v-25.1c0-6.6,6-12.6,12.6-12.6h31.1
		c6.6,0,12.6,6,12.6,12.6V458.2z"/>
	<path d="M453.8,458.2c0,6.6-6,12.6-12.6,12.6h-31.1c-6.6,0-12.6-6-12.6-12.6v-25.1c0-6.6,6-12.6,12.6-12.6h31.1
		c6.6,0,12.6,6,12.6,12.6V458.2z"/>
</g>
<g>
	<path d="M301,556.1c0,6.6-6,12.6-12.6,12.6H-25.6c-6.6,0-12.6-6-12.6-12.6V531c0-6.6,6-12.6,12.6-12.6h314.1
		c6.6,0,12.6,6,12.6,12.6V556.1z"/>
	<path d="M379.1,556.1c0,6.6-6,12.6-12.6,12.6h-31.1c-6.6,0-12.6-6-12.6-12.6V531c0-6.6,6-12.6,12.6-12.6h31.1
		c6.6,0,12.6,6,12.6,12.6V556.1z"/>
	<path d="M453.8,556.1c0,6.6-6,12.6-12.6,12.6h-31.1c-6.6,0-12.6-6-12.6-12.6V531c0-6.6,6-12.6,12.6-12.6h31.1
		c6.6,0,12.6,6,12.6,12.6V556.1z"/>
</g>
</svg>
