<svg xmlns="http://www.w3.org/2000/svg" viewBox="0 0 640 640"><!--!Font Awesome Pro v7.0.0 by @fontawesome - https://fontawesome.com License - https://fontawesome.com/license (Commercial License) Copyright 2025 Fonticons, Inc.--><path d="M112 112C85.5 112 64 133.5 64 160C64 177.8 73.7 193.3 88 201.6L88 448C88 478.9 113.1 504 144 504L198.4 504C206.7 518.3 222.2 528 240 528C266.5 528 288 506.5 288 480C288 453.5 266.5 432 240 432C222.2 432 206.7 441.7 198.4 456L144 456C139.6 456 136 452.4 136 448L136 344L198.4 344C206.7 358.3 222.2 368 240 368C266.5 368 288 346.5 288 320C288 293.5 266.5 272 240 272C222.2 272 206.7 281.7 198.4 296L136 296L136 201.6C150.3 193.3 160 177.8 160 160C160 133.5 138.5 112 112 112zM224 160C224 173.3 234.7 184 248 184L552 184C565.3 184 576 173.3 576 160C576 146.7 565.3 136 552 136L248 136C234.7 136 224 146.7 224 160zM352 320C352 333.3 362.7 344 376 344L552 344C565.3 344 576 333.3 576 320C576 306.7 565.3 296 552 296L376 296C362.7 296 352 306.7 352 320zM352 480C352 493.3 362.7 504 376 504L552 504C565.3 504 576 493.3 576 480C576 466.7 565.3 456 552 456L376 456C362.7 456 352 466.7 352 480z"/></svg>
