<?xml version="1.0" encoding="utf-8"?>
<!-- Generator: Adobe Illustrator 16.0.0, SVG Export Plug-In . SVG Version: 6.00 Build 0)  -->
<!DOCTYPE svg PUBLIC "-//W3C//DTD SVG 1.1//EN" "http://www.w3.org/Graphics/SVG/1.1/DTD/svg11.dtd">
<svg version="1.1" id="Layer_1" xmlns="http://www.w3.org/2000/svg" xmlns:xlink="http://www.w3.org/1999/xlink" x="0px" y="0px"
	 width="512px" height="512px" viewBox="0.5 0.5 512 512" enable-background="new 0.5 0.5 512 512" xml:space="preserve">
<path d="M464.5,192.5h-144v-144c0-7.7-8.3-16-16-16h-64c-7.7,0-16,8.3-16,16v144h-144c-7.7,0-16,8.3-16,16v64c0,7.7,8.301,16,16,16
	h144v144c0,7.7,8,16,16,16h64c7.7,0,16-8.3,16-16v-144h144c7.7,0,16-8.3,16-16v-64C480.5,200.8,472.2,192.5,464.5,192.5z"/>
</svg>
