<svg xmlns="http://www.w3.org/2000/svg" viewBox="0 0 640 640"><!--!Font Awesome Pro v7.0.0 by @fontawesome - https://fontawesome.com License - https://fontawesome.com/license (Commercial License) Copyright 2025 Fonticons, Inc.--><path d="M320 96C443.7 96 544 196.3 544 320C544 443.7 443.7 544 320 544C196.3 544 96 443.7 96 320C96 196.3 196.3 96 320 96zM320 576C461.4 576 576 461.4 576 320C576 178.6 461.4 64 320 64C178.6 64 64 178.6 64 320C64 461.4 178.6 576 320 576zM304 416C304 424.8 311.2 432 320 432C328.8 432 336 424.8 336 416L336 336L416 336C424.8 336 432 328.8 432 320C432 311.2 424.8 304 416 304L336 304L336 224C336 215.2 328.8 208 320 208C311.2 208 304 215.2 304 224L304 304L224 304C215.2 304 208 311.2 208 320C208 328.8 215.2 336 224 336L304 336L304 416z"/></svg>
