<svg xmlns="http://www.w3.org/2000/svg" viewBox="0 0 640 640"><!--!Font Awesome Pro v7.0.0 by @fontawesome - https://fontawesome.com License - https://fontawesome.com/license (Commercial License) Copyright 2025 Fonticons, Inc.--><path d="M336 112C336 103.2 328.8 96 320 96C311.2 96 304 103.2 304 112L304 304L112 304C103.2 304 96 311.2 96 320C96 328.8 103.2 336 112 336L304 336L304 528C304 536.8 311.2 544 320 544C328.8 544 336 536.8 336 528L336 336L528 336C536.8 336 544 328.8 544 320C544 311.2 536.8 304 528 304L336 304L336 112z"/></svg>
