<?xml version="1.0" encoding="utf-8"?>
<!-- Generator: Adobe Illustrator 18.1.0, SVG Export Plug-In . SVG Version: 6.00 Build 0)  -->
<!DOCTYPE svg PUBLIC "-//W3C//DTD SVG 1.1//EN" "http://www.w3.org/Graphics/SVG/1.1/DTD/svg11.dtd">
<svg version="1.1" id="Layer_1" xmlns="http://www.w3.org/2000/svg" xmlns:xlink="http://www.w3.org/1999/xlink" x="0px" y="0px"
	 viewBox="-273 365 64 64" style="enable-background:new -273 365 64 64;" xml:space="preserve">
<path d="M-211,389h-22v-22c0-1.1-0.9-2-2-2h-12c-1.1,0-2,0.9-2,2v22h-22c-1.1,0-2,0.9-2,2v12c0,1.1,0.9,2,2,2h22v22c0,1.1,0.9,2,2,2
	h12c1.1,0,2-0.9,2-2v-22h22c1.1,0,2-0.9,2-2v-12C-209,389.9-209.9,389-211,389z"/>
</svg>
