<svg xmlns="http://www.w3.org/2000/svg" viewBox="0 0 640 640"><!--!Font Awesome Pro v7.0.0 by @fontawesome - https://fontawesome.com License - https://fontawesome.com/license (Commercial License) Copyright 2025 Fonticons, Inc.--><path d="M125.5 82.5C118 77.8 108.1 80 103.4 87.5C78.4 127 64 173.8 64 224C64 274.2 78.4 321 103.4 360.5C108.1 368 118 370.2 125.5 365.5C133 360.8 135.2 350.9 130.5 343.4C108.6 308.9 96 267.9 96 224C96 180.1 108.6 139.1 130.5 104.5C135.2 97 133 87.1 125.5 82.4zM514.5 82.5C507 87.2 504.8 97.1 509.5 104.6C531.3 139.2 544 180.1 544 224.1C544 268.1 531.4 309 509.5 343.6C504.8 351.1 507 361 514.5 365.7C522 370.4 531.9 368.2 536.6 360.7C561.6 321 576 274.2 576 224C576 173.8 561.6 127 536.6 87.5C531.9 80 522 77.8 514.5 82.5zM288 224C288 206.3 302.3 192 320 192C337.7 192 352 206.3 352 224C352 241.7 337.7 256 320 256C302.3 256 288 241.7 288 224zM336 286C363.6 278.9 384 253.8 384 224C384 188.7 355.3 160 320 160C284.7 160 256 188.7 256 224C256 253.8 276.4 278.9 304 286L304 560C304 568.8 311.2 576 320 576C328.8 576 336 568.8 336 560L336 286zM213.5 152.9C218.4 145.6 216.4 135.6 209.1 130.7C201.8 125.8 191.8 127.8 186.9 135.1C169.9 160.5 159.9 191.1 159.9 224C159.9 256.9 169.8 287.5 186.9 312.9C191.8 320.2 201.8 322.2 209.1 317.3C216.4 312.4 218.4 302.4 213.5 295.1C199.9 274.8 192 250.3 192 224C192 197.7 199.9 173.2 213.5 152.9zM453 135.1C448.1 127.8 438.1 125.8 430.8 130.7C423.5 135.6 421.5 145.6 426.4 152.9C440.1 173.2 448 197.7 448 224C448 250.3 440.1 274.8 426.5 295.1C421.6 302.4 423.6 312.4 430.9 317.3C438.2 322.2 448.2 320.2 453.1 312.9C470.1 287.5 480.1 256.9 480.1 224C480.1 191.1 470.2 160.5 453.1 135.1z"/></svg>
