<svg xmlns="http://www.w3.org/2000/svg" viewBox="0 0 640 640"><!--!Font Awesome Pro v7.0.0 by @fontawesome - https://fontawesome.com License - https://fontawesome.com/license (Commercial License) Copyright 2025 Fonticons, Inc.--><path d="M192 78.9C191.4 87.7 198 95.3 206.9 96L214.9 96.6C265.1 100.1 304 141.9 304 192.3L304 304L256 304C247.2 304 240 311.2 240 320C240 328.8 247.2 336 256 336L304 336L304 447.7C304 498.1 265.1 539.9 214.8 543.5L206.8 544.1C198 544.7 191.4 552.3 192 561.1C192.6 569.9 200.3 576.6 209.1 576L217.1 575.4C261.7 572.2 299.6 546.4 320 509.7C340.4 546.4 378.3 572.2 422.9 575.4L430.9 576C439.7 576.6 447.4 570 448 561.2C448.6 552.4 442 544.7 433.2 544.1L425.2 543.5C375 539.9 336 498.1 336 447.7L336 336L384 336C392.8 336 400 328.8 400 320C400 311.2 392.8 304 384 304L336 304L336 192.3C336 141.9 374.9 100.1 425.2 96.5L433.2 95.9C442 95.3 448.6 87.6 448 78.8C447.4 70 439.7 63.4 430.9 64L422.9 64.6C378.3 67.8 340.4 93.6 320 130.3C299.6 93.6 261.7 67.8 217.1 64.6L209.1 64C200.3 63.4 192.7 70 192 78.9z"/></svg>
