<svg xmlns="http://www.w3.org/2000/svg" viewBox="0 0 448 512"><!--! Font Awesome Pro 7.0.0 by @fontawesome - https://fontawesome.com License - https://fontawesome.com/license (Commercial License) Copyright 2025 Fonticons, Inc. --><path fill="currentColor" d="M160 64c0-17.7 14.3-32 32-32l132.1 0c8.5 0 16.6 3.4 22.6 9.4l59.9 59.9c6 6 9.4 14.1 9.4 22.6L416 320c0 17.7-14.3 32-32 32l-192 0c-17.7 0-32-14.3-32-32l0-256zM192 0c-35.3 0-64 28.7-64 64l0 256c0 35.3 28.7 64 64 64l192 0c35.3 0 64-28.7 64-64l0-196.1c0-17-6.7-33.3-18.7-45.3L369.4 18.7C357.4 6.7 341.1 0 324.1 0L192 0zM64 128c-35.3 0-64 28.7-64 64L0 448c0 35.3 28.7 64 64 64l192 0c35.3 0 64-28.7 64-64l0-16-32 0 0 16c0 17.7-14.3 32-32 32L64 480c-17.7 0-32-14.3-32-32l0-256c0-17.7 14.3-32 32-32l16 0 0-32-16 0z"/></svg>
