<?xml version="1.0" standalone="yes"?>
<!-- deprecated -->
<svg xmlns="http://www.w3.org/2000/svg" height="16" style="zoom: 16;" cursor="default" width="16" class="bi bi-scissors" fill="currentColor" viewBox="0 0 16 16"><path d="M12.5,3.5 C13.384001,2.886 14.462,3.426001 15,4.358 L8.774,8 L15,11.642 C14.462,12.574001 13.384,13.114 12.5,12.5 L7.39,8.81 L4.729,10.366 A2.5,2.5 0 1 1 4.092,9.572001 L6.27,8 L4.093,6.428 A2.5,2.5 0 1 1 4.73,5.634 L7.39,7.19 L12.5,3.5 M2.5,6 A1.5,1.5 0 1 0 2.5,3 A1.5,1.5 0 0 0 2.5,6 M2.5,13 A1.5,1.5 0 1 0 2.5,10 A1.5,1.5 0 0 0 2.5,13 "></path></svg>
