<?xml version="1.0" encoding="utf-8"?>
<!-- Generator: Adobe Illustrator 16.0.0, SVG Export Plug-In . SVG Version: 6.00 Build 0)  -->
<!DOCTYPE svg PUBLIC "-//W3C//DTD SVG 1.1//EN" "http://www.w3.org/Graphics/SVG/1.1/DTD/svg11.dtd">
<svg version="1.1" id="Layer_1" xmlns="http://www.w3.org/2000/svg" xmlns:xlink="http://www.w3.org/1999/xlink" x="0px" y="0px"
	 width="512px" height="512px" viewBox="0 0 512 512" enable-background="new 0 0 512 512" xml:space="preserve">
<path d="M274.896,253.091c5.121,0,9.553,1.871,13.296,5.614c3.742,3.743,5.613,8.174,5.613,13.295s-1.871,9.553-5.613,13.295
	c-3.743,3.743-8.175,5.614-13.296,5.614s-9.553-1.871-13.296-5.614c-3.742-3.743-5.613-8.174-5.613-13.295s1.871-9.553,5.613-13.295
	C265.343,254.962,269.774,253.091,274.896,253.091z M363.532,272l149.795,117.591c5.516,3.939,7.978,9.455,7.387,16.545
	c-0.985,6.894-4.432,11.917-10.341,15.068l-37.818,18.909c-2.561,1.379-5.417,2.068-8.568,2.068c-3.349,0-6.401-0.788-9.159-2.363
	L250.964,325.478l-32.5,19.5c-1.576,0.788-2.758,1.28-3.546,1.477c2.758,9.651,3.743,19.205,2.955,28.659
	c-1.379,15.167-6.895,29.693-16.546,43.58c-9.651,13.886-22.651,26.049-39,36.488c-26,16.546-53.28,24.818-81.841,24.818
	c-26.788,0-48.651-7.682-65.591-23.045c-17.728-16.545-25.508-36.932-23.341-61.159c1.379-14.97,6.894-29.447,16.545-43.432
	c9.652-13.985,22.554-26.197,38.705-36.637c26-16.545,53.379-24.818,82.137-24.818c16.348,0,31.22,3.053,44.613,9.159
	c1.772-2.561,3.939-4.728,6.5-6.5L216.1,272l-36.045-21.568c-2.561-1.772-4.728-3.939-6.5-6.5
	c-13.394,6.106-28.266,9.159-44.613,9.159c-28.758,0-56.137-8.272-82.137-24.818C30.653,217.833,17.752,205.621,8.1,191.636
	c-9.651-13.985-15.166-28.462-16.545-43.432c-0.985-11.621,0.542-22.75,4.579-33.386c4.038-10.637,10.292-19.795,18.762-27.478
	C31.638,71.78,53.502,64,80.486,64c28.561,0,55.841,8.273,81.841,24.818c16.349,10.242,29.349,22.356,39,36.341
	s15.167,28.561,16.546,43.727c0.788,9.455-0.197,19.008-2.955,28.659c0.788,0.197,1.97,0.689,3.546,1.478l32.5,19.5l203.863-114.341
	c2.758-1.576,5.811-2.363,9.159-2.363c3.151,0,6.008,0.689,8.568,2.068l37.818,18.909c5.909,3.152,9.355,8.174,10.341,15.068
	c0.591,7.091-1.871,12.606-7.387,16.545L363.532,272z M162.327,195.182c9.061-8.272,11.129-18.909,6.205-31.909
	c-4.925-13-15.364-24.523-31.318-34.568c-18.121-11.621-37.03-17.432-56.728-17.432c-14.576,0-25.704,3.545-33.387,10.636
	c-9.061,8.272-11.128,18.909-6.204,31.909s15.363,24.522,31.318,34.568c18.121,11.621,37.03,17.432,56.728,17.432
	C143.517,205.818,154.646,202.273,162.327,195.182z M137.214,415.295c15.954-10.045,26.394-21.568,31.318-34.568
	c4.924-13,2.855-23.637-6.205-31.909c-7.682-7.091-18.811-10.637-33.386-10.637c-19.697,0-38.606,5.811-56.728,17.432
	c-15.955,10.045-26.395,21.568-31.318,34.568s-2.856,23.637,6.204,31.909c7.683,7.091,18.811,10.637,33.387,10.637
	C100.184,432.728,119.093,426.917,137.214,415.295z M189.805,234.182l28.363,17.137v-3.25c0-7.091,3.25-12.606,9.75-16.546
	l4.137-2.363l-23.341-13.886l-7.682,7.682c-0.591,0.591-1.576,1.674-2.955,3.25s-2.561,2.757-3.545,3.545
	c-0.395,0.394-0.788,0.739-1.183,1.034c-0.394,0.295-0.688,0.542-0.886,0.738L189.805,234.182z M255.986,300.364l28.363,9.455
	l217.455-170.182l-37.818-18.909L237.077,248.068v33.386l-47.272,28.364l2.659,2.363c0.394,0.394,1.083,0.985,2.068,1.773
	c0.788,0.788,1.871,1.97,3.25,3.545s2.462,2.757,3.25,3.545l7.682,7.682L255.986,300.364z M463.986,423.272l37.818-18.909
	L348.168,283.818l-52.295,40.772c-0.395,0.591-1.675,1.28-3.841,2.068L463.986,423.272z"/>
</svg>
