<?xml version="1.0" encoding="utf-8"?>
<!-- Generator: Adobe Illustrator 16.0.0, SVG Export Plug-In . SVG Version: 6.00 Build 0)  -->
<!DOCTYPE svg PUBLIC "-//W3C//DTD SVG 1.1//EN" "http://www.w3.org/Graphics/SVG/1.1/DTD/svg11.dtd">
<svg version="1.1" id="Layer_1" xmlns="http://www.w3.org/2000/svg" xmlns:xlink="http://www.w3.org/1999/xlink" x="0px" y="0px"
	 width="512px" height="512px" viewBox="0.5 0.5 512 512" enable-background="new 0.5 0.5 512 512" xml:space="preserve">
<path d="M502.084,448.399L376.287,322.604c24.037-34.454,36.057-73.716,36.057-116.182c0-28.043-5.609-54.484-16.025-80.125
	s-25.641-47.274-44.068-65.703c-18.43-18.428-40.062-32.851-65.703-44.069C260.908,6.109,234.466,0.5,206.422,0.5
	s-54.485,5.609-80.125,16.025c-25.64,10.417-47.274,25.641-65.703,44.069c-18.429,18.429-32.852,40.062-44.069,65.703
	C6.109,151.938,0.5,178.378,0.5,206.421c0,28.044,5.609,54.485,16.025,80.125c10.417,25.641,25.64,47.274,44.069,65.703
	s40.063,32.852,65.703,44.068c25.64,10.415,52.081,16.024,80.125,16.024c42.466,0,81.727-12.019,116.182-36.055L448.4,501.282
	c7.211,7.211,16.025,11.218,26.441,11.218s19.23-4.007,26.441-11.218c7.211-7.212,11.217-16.025,11.217-26.442
	C512.5,464.425,509.295,455.61,502.084,448.399z M299.367,298.565c-25.641,25.641-56.088,38.461-92.144,38.461
	c-36.057,0-66.504-12.82-92.144-38.461c-25.64-25.64-38.459-56.087-38.459-92.144c0-36.056,12.82-66.503,38.459-92.144
	c25.64-25.64,56.087-38.459,92.144-38.459c36.056,0,66.503,12.82,92.144,38.459c25.641,25.641,38.461,56.088,38.461,92.144
	C337.828,242.478,325.008,272.926,299.367,298.565z"/>
</svg>
