<svg xmlns="http://www.w3.org/2000/svg" viewBox="0 0 640 640"><!--!Font Awesome Pro v7.0.0 by @fontawesome - https://fontawesome.com License - https://fontawesome.com/license (Commercial License) Copyright 2025 Fonticons, Inc.--><path d="M88 136C74.7 136 64 146.7 64 160C64 173.3 74.7 184 88 184L179.7 184C189.9 216.5 220.2 240 256 240C291.8 240 322.1 216.5 332.3 184L552 184C565.3 184 576 173.3 576 160C576 146.7 565.3 136 552 136L332.3 136C322.1 103.5 291.8 80 256 80C220.2 80 189.9 103.5 179.7 136L88 136zM88 296C74.7 296 64 306.7 64 320C64 333.3 74.7 344 88 344L339.7 344C349.9 376.5 380.2 400 416 400C451.8 400 482.1 376.5 492.3 344L552 344C565.3 344 576 333.3 576 320C576 306.7 565.3 296 552 296L492.3 296C482.1 263.5 451.8 240 416 240C380.2 240 349.9 263.5 339.7 296L88 296zM88 456C74.7 456 64 466.7 64 480C64 493.3 74.7 504 88 504L147.7 504C157.9 536.5 188.2 560 224 560C259.8 560 290.1 536.5 300.3 504L552 504C565.3 504 576 493.3 576 480C576 466.7 565.3 456 552 456L300.3 456C290.1 423.5 259.8 400 224 400C188.2 400 157.9 423.5 147.7 456L88 456zM224 512C206.3 512 192 497.7 192 480C192 462.3 206.3 448 224 448C241.7 448 256 462.3 256 480C256 497.7 241.7 512 224 512zM416 352C398.3 352 384 337.7 384 320C384 302.3 398.3 288 416 288C433.7 288 448 302.3 448 320C448 337.7 433.7 352 416 352zM224 160C224 142.3 238.3 128 256 128C273.7 128 288 142.3 288 160C288 177.7 273.7 192 256 192C238.3 192 224 177.7 224 160z"/></svg>
