<svg xmlns="http://www.w3.org/2000/svg" viewBox="0 0 640 640"><!--!Font Awesome Pro v7.0.0 by @fontawesome - https://fontawesome.com License - https://fontawesome.com/license (Commercial License) Copyright 2025 Fonticons, Inc.--><path d="M112 320C112 337.7 126.3 352 144 352C161.7 352 176 337.7 176 320C176 302.3 161.7 288 144 288C126.3 288 112 302.3 112 320zM208 320C208 355.3 179.3 384 144 384C108.7 384 80 355.3 80 320C80 284.7 108.7 256 144 256C179.3 256 208 284.7 208 320zM320 288C302.3 288 288 302.3 288 320C288 337.7 302.3 352 320 352C337.7 352 352 337.7 352 320C352 302.3 337.7 288 320 288zM320 384C284.7 384 256 355.3 256 320C256 284.7 284.7 256 320 256C355.3 256 384 284.7 384 320C384 355.3 355.3 384 320 384zM496 288C478.3 288 464 302.3 464 320C464 337.7 478.3 352 496 352C513.7 352 528 337.7 528 320C528 302.3 513.7 288 496 288zM496 384C460.7 384 432 355.3 432 320C432 284.7 460.7 256 496 256C531.3 256 560 284.7 560 320C560 355.3 531.3 384 496 384z"/></svg>
