<svg xmlns="http://www.w3.org/2000/svg" viewBox="0 0 640 640"><!--!Font Awesome Pro v7.0.0 by @fontawesome - https://fontawesome.com License - https://fontawesome.com/license (Commercial License) Copyright 2025 Fonticons, Inc.--><path d="M320 80C338.3 80 356 82 373.1 85.9C376.4 86.6 378.9 89.4 379.3 92.7C379.7 96 378 99.3 374.9 100.8C309.1 133.6 264 201.5 264 279.9C264 395.4 365.4 488.4 480.1 479.3C483.5 479 486.6 480.9 488 484C489.4 487.1 488.7 490.7 486.2 493C443.1 534.5 384.5 560 320 560C187.5 560 80 452.5 80 320C80 187.5 187.5 80 320 80zM320 64C178.6 64 64 178.6 64 320C64 461.4 178.6 576 320 576C388.8 576 451.3 548.8 497.3 504.6C504.6 497.6 506.7 486.7 502.6 477.5C498.5 468.3 488.9 462.6 478.8 463.4C373.4 471.8 280 386.1 280 280C280 207.9 321.5 145.4 382.1 115.2C391.2 110.7 396.4 100.9 395.2 90.8C394 80.7 386.6 72.5 376.7 70.3C358.4 66.2 339.4 64 320 64z"/></svg>
