<svg xmlns="http://www.w3.org/2000/svg" viewBox="0 0 640 640"><!--!Font Awesome Pro v7.0.0 by @fontawesome - https://fontawesome.com License - https://fontawesome.com/license (Commercial License) Copyright 2025 Fonticons, Inc.--><path d="M320 576C311.2 576 304 568.8 304 560L304 488C304 479.2 311.2 472 320 472C328.8 472 336 479.2 336 488L336 560C336 568.8 328.8 576 320 576zM320 168C311.2 168 304 160.8 304 152L304 80C304 71.2 311.2 64 320 64C328.8 64 336 71.2 336 80L336 152C336 160.8 328.8 168 320 168zM501 501C494.8 507.2 484.6 507.2 478.4 501L427.5 450.1C421.3 443.9 421.3 433.7 427.5 427.5C433.7 421.3 443.9 421.3 450.1 427.5L501 478.4C507.2 484.6 507.2 494.8 501 501zM212.5 212.5C206.3 218.7 196.1 218.7 189.9 212.5L139 161.6C132.8 155.4 132.8 145.2 139 139C145.2 132.8 155.4 132.8 161.6 139L212.5 189.9C218.7 196.1 218.7 206.3 212.5 212.5zM560 336L488 336C479.2 336 472 328.8 472 320C472 311.2 479.2 304 488 304L560 304C568.8 304 576 311.2 576 320C576 328.8 568.8 336 560 336zM152 336L80 336C71.2 336 64 328.8 64 320C64 311.2 71.2 304 80 304L152 304C160.8 304 168 311.2 168 320C168 328.8 160.8 336 152 336zM501 139C507.2 145.2 507.2 155.4 501 161.6L450.1 212.5C443.9 218.7 433.7 218.7 427.5 212.5C421.3 206.3 421.3 196.1 427.5 189.9L478.4 139C484.6 132.8 494.8 132.8 501 139zM212.5 427.5C218.7 433.7 218.7 443.9 212.5 450.1L161.6 501C155.4 507.2 145.2 507.2 139 501C132.8 494.8 132.8 484.6 139 478.4L189.9 427.5C196.1 421.3 206.3 421.3 212.5 427.5zM400 320C400 275.8 364.2 240 320 240C275.8 240 240 275.8 240 320C240 364.2 275.8 400 320 400C364.2 400 400 364.2 400 320zM208 320C208 258.1 258.1 208 320 208C381.9 208 432 258.1 432 320C432 381.9 381.9 432 320 432C258.1 432 208 381.9 208 320z"/></svg>
