<?xml version="1.0" encoding="utf-8"?>
<!-- Generator: Adobe Illustrator 18.1.0, SVG Export Plug-In . SVG Version: 6.00 Build 0)  -->
<!DOCTYPE svg PUBLIC "-//W3C//DTD SVG 1.1//EN" "http://www.w3.org/Graphics/SVG/1.1/DTD/svg11.dtd">
<svg version="1.1" id="Layer_1" xmlns="http://www.w3.org/2000/svg" xmlns:xlink="http://www.w3.org/1999/xlink" x="0px" y="0px"
	 viewBox="-273 365 64 64" style="enable-background:new -273 365 64 64;" xml:space="preserve">
<path d="M-210.6,420.8l-15.7-15.7c3-4.3,4.5-9.2,4.5-14.5c0-3.5-0.7-6.8-2-10c-1.3-3.2-3.2-5.9-5.5-8.2c-2.3-2.3-5-4.1-8.2-5.5
	c-3.2-1.3-6.5-2-10-2c-3.5,0-6.8,0.7-10,2c-3.2,1.3-5.9,3.2-8.2,5.5s-4.1,5-5.5,8.2c-1.3,3.2-2,6.5-2,10s0.7,6.8,2,10
	c1.3,3.2,3.2,5.9,5.5,8.2c2.3,2.3,5,4.1,8.2,5.5c3.2,1.3,6.5,2,10,2c5.3,0,10.2-1.5,14.5-4.5l15.7,15.6c0.9,0.9,2,1.4,3.3,1.4
	c1.3,0,2.4-0.5,3.3-1.4c0.9-0.9,1.4-2,1.4-3.3C-209.3,422.8-209.7,421.7-210.6,420.8z M-235.9,402.1c-3.2,3.2-7,4.8-11.5,4.8
	c-4.5,0-8.3-1.6-11.5-4.8c-3.2-3.2-4.8-7-4.8-11.5c0-4.5,1.6-8.3,4.8-11.5c3.2-3.2,7-4.8,11.5-4.8s8.3,1.6,11.5,4.8
	c3.2,3.2,4.8,7,4.8,11.5C-231.1,395.1-232.7,398.9-235.9,402.1z"/>
</svg>
