<?xml version="1.0" encoding="utf-8"?>
<!-- Generator: Adobe Illustrator 18.1.0, SVG Export Plug-In . SVG Version: 6.00 Build 0)  -->
<!DOCTYPE svg PUBLIC "-//W3C//DTD SVG 1.1//EN" "http://www.w3.org/Graphics/SVG/1.1/DTD/svg11.dtd">
<svg version="1.1" id="Layer_1" xmlns="http://www.w3.org/2000/svg" xmlns:xlink="http://www.w3.org/1999/xlink" x="0px" y="0px"
	 viewBox="-273 365 64 64" style="enable-background:new -273 365 64 64;" xml:space="preserve">
<style type="text/css">
	.st0{fill:#FFFFFF;}
</style>
<polygon class="st0" points="-269,425 -266,417 -261,422 "/>
<path d="M-213.9,409.1c-4.2-6.5-11.3-9.4-16-6.4c-0.4,0.3-0.8,0.6-1.1,0.9l-5-7.8l11.5-18c0.9-1.7,1.3-3.8,0.8-5.9
	c-0.4-2-1.5-3.7-3-4.8l-0.8-0.5l-13.6,21.3l-13.6-21.3l-0.8,0.5c-1.5,1.2-2.6,2.8-3,4.8c-0.5,2.1-0.1,4.1,0.8,5.9l11.5,18l-5,7.8
	c-0.3-0.3-0.7-0.6-1.1-0.9c-4.7-3-11.8-0.1-16,6.4c-4.2,6.5-3.8,14.2,0.9,17.2c4.7,3,11.8,0.1,16-6.4l10.3-16.1l10.3,16.1
	c4.2,6.5,11.3,9.4,16,6.4C-210.1,423.3-209.7,415.6-213.9,409.1z M-256.3,416.6c-1.9,2.9-4.3,4.4-5.9,4.7l0,0
	c-0.5,0.1-1.3,0.2-1.8-0.1c-0.6-0.4-0.9-1.3-1-2.5c-0.1-2,0.6-4.3,1.9-6.4c1.9-2.9,4.3-4.4,5.9-4.7c0.5-0.1,1.3-0.2,1.8,0.1
	c0.6,0.4,0.9,1.3,1,2.5C-254.3,412.2-255,414.5-256.3,416.6L-256.3,416.6z M-241,398.6c-1.1,0-2-0.9-2-2c0-1.1,0.9-2,2-2s2,0.9,2,2
	C-239,397.7-239.9,398.6-241,398.6z M-217,418.7c-0.1,1.2-0.4,2.2-1,2.5c-0.5,0.3-1.2,0.2-1.8,0.1l0,0c-1.6-0.4-4-1.8-5.9-4.7
	c-1.3-2.1-2-4.4-1.9-6.4c0.1-1.2,0.4-2.2,1-2.5c0.5-0.3,1.2-0.2,1.8-0.1c1.6,0.4,4,1.8,5.9,4.7C-217.6,414.4-216.9,416.7-217,418.7
	L-217,418.7z"/>
</svg>
