<?xml version="1.0" encoding="utf-8"?>
<!-- Generator: Adobe Illustrator 18.1.0, SVG Export Plug-In . SVG Version: 6.00 Build 0)  -->
<!DOCTYPE svg PUBLIC "-//W3C//DTD SVG 1.1//EN" "http://www.w3.org/Graphics/SVG/1.1/DTD/svg11.dtd">
<svg version="1.1" id="Layer_1" xmlns="http://www.w3.org/2000/svg" xmlns:xlink="http://www.w3.org/1999/xlink" x="0px" y="0px"
	 viewBox="-273 365 64 64" style="enable-background:new -273 365 64 64;" xml:space="preserve">
<style type="text/css">
	.st0{fill:#FFFFFF;}
</style>
<polygon class="st0" points="-268,424 -265,416 -260.1,421 "/>
<path d="M-262,385v40c0,2.2,1.8,4,4,4h36c2.2,0,4-1.8,4-4v-40H-262z M-250,421h-4v-28h4V421z M-242,421h-4v-28h4V421z M-234,421h-4
	v-28h4V421z M-226,421h-4v-28h4V421z"/>
<path d="M-217,373h-13v-5c0-1.6-1.4-3-3-3h-14c-1.7,0-3,1.4-3,3v5h-13c-1.6,0-3,1.4-3,3v5h52v-5C-214,374.4-215.4,373-217,373z
	 M-234,373h-12v-4h12V373z"/>
</svg>
