<?xml version="1.0" encoding="UTF-8"?>
<svg version="1.1" viewBox="0 0 640 640" xmlns="http://www.w3.org/2000/svg"><path d="m116.45 80.039c-5.1445 0.15625-10.113 2.7734-13.051 7.4609-25 39.5-39.4 86.3-39.4 136.5s14.4 97 39.4 136.5c4.7 7.5 14.6 9.7 22.1 5s9.7-14.6 5-22.1c-21.9-34.5-34.5-75.5-34.5-119.4s12.6-84.9 34.5-119.5c4.7-7.5 2.5-17.4-5-22.1v0.099609c-2.8125-1.7625-5.9621-2.5547-9.0488-2.4609zm407.1 0c-3.0867-0.09375-6.2363 0.69844-9.0488 2.4609-7.5 4.7-9.7 14.6-5 22.1 21.8 34.6 34.5 75.5 34.5 119.5s-12.6 84.9-34.5 119.5c-0.84961 1.3558-1.3966 2.8018-1.8047 4.2695 5.0942 2.2171 10.069 4.7097 14.867 7.5117 4.1457 2.4121 8.1112 5.1111 11.986 7.9336 0.75738-0.78387 1.4483-1.6538 2.0508-2.6152 25-39.7 39.4-86.499 39.4-136.7s-14.4-97-39.4-136.5c-2.9375-4.6875-7.9062-7.3047-13.051-7.4609zm-323.39 47.975c-5.1426 0.03125-10.197 2.5234-13.26 7.0859-17 25.4-27 56-27 88.9s9.9 63.5 27 88.9c4.9 7.3 14.899 9.3004 22.199 4.4004s9.3004-14.901 4.4004-22.201c-13.6-20.3-21.5-44.8-21.5-71.1s7.9-50.8 21.5-71.1c4.9-7.3 2.8996-17.301-4.4004-22.201-2.7375-1.8375-5.8539-2.7043-8.9394-2.6856zm239.58 0c-3.0855-0.01875-6.202 0.84805-8.9394 2.6856-7.3 4.9-9.3004 14.901-4.4004 22.201 13.7 20.3 21.6 44.8 21.6 71.1s-7.9 50.8-21.5 71.1c-4.9 7.3-2.8996 17.301 4.4004 22.201s17.299 2.8996 22.199-4.4004c17-25.4 27-56 27-88.9s-9.9-63.5-27-88.9h-0.09961c-3.0625-4.5625-8.1172-7.0547-13.26-7.0859zm-119.74 31.986c-35.3 0-64 28.7-64 64 0 29.8 20.4 54.9 48 62v274c0 8.8 7.2 16 16 16 7.7214 0 14.205-5.5443 15.68-12.848-2.852-3.8754-5.5805-7.8418-8.0234-11.988-11.932-20.15-18.683-43.304-19.594-66.695-0.93463-22.681 3.6433-45.565 13.26-66.129 4.0332-8.652 8.9894-16.855 14.678-24.516v-107.82c27.6-7.1 48-32.2 48-62 0-35.3-28.7-64-64-64zm0 32c17.7 0 32 14.3 32 32s-14.3 32-32 32-32-14.3-32-32 14.3-32 32-32z"/><path d="m451.32 615.5c75.53 0 136.75-61.215 136.75-136.75 0-75.53-61.215-136.75-136.75-136.75-75.53 0-136.75 61.215-136.75 136.75 0 75.53 61.215 136.75 136.75 136.75zm-47.006-149.57h94.012c7.1044 0 12.82 5.7155 12.82 12.82 0 7.1044-5.7155 12.82-12.82 12.82h-94.012c-7.1043 0-12.82-5.7155-12.82-12.82 0-7.1044 5.7155-12.82 12.82-12.82z" style="stroke-width:.53416"/></svg>
