<?xml version="1.0" encoding="UTF-8" standalone="no"?>
<svg
   viewBox="0 0 640 640"
   version="1.1"
   id="svg1"
   sodipodi:docname="unpublish.svg"
   inkscape:version="1.4 (e7c3feb1, 2024-10-09)"
   xmlns:inkscape="http://www.inkscape.org/namespaces/inkscape"
   xmlns:sodipodi="http://sodipodi.sourceforge.net/DTD/sodipodi-0.dtd"
   xmlns="http://www.w3.org/2000/svg"
   xmlns:svg="http://www.w3.org/2000/svg">
  <defs
     id="defs1" />
  <sodipodi:namedview
     id="namedview1"
     pagecolor="#ffffff"
     bordercolor="#000000"
     borderopacity="0.25"
     inkscape:showpageshadow="2"
     inkscape:pageopacity="0.0"
     inkscape:pagecheckerboard="0"
     inkscape:deskcolor="#d1d1d1"
     inkscape:zoom="0.503125"
     inkscape:cx="383.60248"
     inkscape:cy="320"
     inkscape:window-width="1104"
     inkscape:window-height="591"
     inkscape:window-x="48"
     inkscape:window-y="38"
     inkscape:window-maximized="0"
     inkscape:current-layer="svg1" />
  <!--!Font Awesome Pro v7.0.0 by @fontawesome - https://fontawesome.com License - https://fontawesome.com/license (Commercial License) Copyright 2025 Fonticons, Inc.-->
  <path
     id="path1"
     d="M 124.56055 62.572266 C 116.85937 62.964844 109.46094 67.058594 105.14844 74.121094 C 80.348435 115.12109 66.148438 163.21953 66.148438 214.51953 C 66.148438 265.81953 80.348436 313.91992 105.14844 354.91992 C 112.04844 366.21992 126.74844 369.91953 138.14844 363.01953 C 149.54844 356.11953 153.15 341.41953 146.25 330.01953 C 125.95 296.41953 114.25 256.81953 114.25 214.51953 C 114.25 172.21953 125.94961 132.61992 146.34961 98.919922 C 153.24961 87.619922 149.55 72.819922 138.25 65.919922 L 138.14844 66.019531 C 133.91094 63.432031 129.18125 62.336719 124.56055 62.572266 z M 551.88086 62.572266 C 547.26309 62.336719 542.525 63.432031 538.25 66.019531 C 526.95 72.919531 523.24844 87.619531 530.14844 99.019531 C 550.54844 132.71953 562.25 172.32109 562.25 214.62109 C 562.25 256.92109 550.54844 296.5207 530.14844 330.2207 C 526.04282 336.9444 525.76699 344.88118 528.53516 351.68164 C 535.71518 356.05848 542.53667 361.00951 548.87891 366.5332 C 557.59942 367.16982 566.38686 363.08537 571.25 355.12109 C 596.05 314.12109 610.25 266.0207 610.25 214.7207 C 610.25 163.4207 596.05 115.12109 571.25 74.121094 C 566.9375 67.058594 559.57715 62.964844 551.88086 62.572266 z M 466.77734 108.48047 C 462.15547 108.38203 457.45 109.62031 453.25 112.32031 C 442.05 119.52031 438.84883 134.31953 446.04883 145.51953 C 458.84883 165.41953 466.25 189.11953 466.25 214.51953 C 466.25 239.91953 458.84883 263.61953 446.04883 283.51953 C 438.84883 294.71953 442.15 309.5207 453.25 316.7207 C 464.35 323.9207 479.24922 320.61953 486.44922 309.51953 C 504.04922 282.11953 514.25 249.51953 514.25 214.51953 C 514.25 179.51953 504.04922 146.91953 486.44922 119.51953 C 481.94922 112.51953 474.48047 108.64453 466.77734 108.48047 z M 209.76562 108.50781 C 202.05762 108.69238 194.54883 112.58203 190.04883 119.51953 C 172.44883 146.91953 162.25 179.51953 162.25 214.51953 C 162.25 249.51953 172.44883 282.11953 190.04883 309.51953 C 197.24883 320.71953 212.05 323.9207 223.25 316.7207 C 234.45 309.5207 237.64922 294.71953 230.44922 283.51953 C 217.64922 263.61953 210.25 239.91953 210.25 214.51953 C 210.25 189.11953 217.64922 165.41953 230.44922 145.51953 C 237.64922 134.31953 234.35 119.52031 223.25 112.32031 C 219.0875 109.62031 214.39043 108.39707 209.76562 108.50781 z M 338.25 150.51953 C 302.95 150.51953 274.25 179.21953 274.25 214.51953 C 274.25 238.21953 287.15 258.91992 306.25 269.91992 L 306.25 446.21289 C 307.49673 440.62127 308.9889 435.08352 310.87891 429.67383 C 320.90233 400.74481 340.25136 375.20161 365.19141 357.48047 C 366.85156 356.2918 368.54108 355.14515 370.25 354.0293 L 370.25 269.91992 C 389.35 258.81992 402.25 238.21953 402.25 214.51953 C 402.25 179.21953 373.55 150.51953 338.25 150.51953 z M 306.25 511.62305 L 306.25 534.51953 C 306.25 549.524 316.56816 561.98695 330.48047 565.46484 C 318.9063 549.38115 310.60603 530.95584 306.25 511.62305 z " />
  <path
     d="m 453.29815,617.48448 c 75.53043,0 136.74534,-61.21491 136.74534,-136.74534 0,-75.53044 -61.21491,-136.74535 -136.74534,-136.74535 -75.53044,0 -136.74535,61.21491 -136.74535,136.74535 0,75.53043 61.21491,136.74534 136.74535,136.74534 z M 406.29193,467.91926 h 94.01242 c 7.10435,0 12.81988,5.71552 12.81988,12.81988 0,7.10435 -5.71553,12.81986 -12.81988,12.81986 h -94.01242 c -7.10434,0 -12.81987,-5.71551 -12.81987,-12.81986 0,-7.10436 5.71553,-12.81988 12.81987,-12.81988 z"
     id="path1-9"
     style="stroke-width:0.534162" />
</svg>
