<?xml version="1.0" encoding="UTF-8" standalone="no"?>
<svg
   width="16"
   height="16"
   fill="currentColor"
   class="bi bi-broadcast-pin"
   viewBox="0 0 16 16"
   version="1.1"
   id="svg828"
   sodipodi:docname="unpublish.svg"
   inkscape:version="1.1.2 (b8e25be8, 2022-02-05)"
   xmlns:inkscape="http://www.inkscape.org/namespaces/inkscape"
   xmlns:sodipodi="http://sodipodi.sourceforge.net/DTD/sodipodi-0.dtd"
   xmlns="http://www.w3.org/2000/svg"
   xmlns:svg="http://www.w3.org/2000/svg">
  <path
     id="path824"
     d="M 2.75 2.2070312 A 0.5 0.5 0 0 0 2.5664062 2.21875 A 0.5 0.5 0 0 0 2.34375 2.34375 A 8 8 0 0 0 1.3984375 12.462891 L 2.125 11.757812 A 7 7 0 0 1 3.0507812 3.0507812 A 0.5 0.5 0 0 0 2.75 2.2070312 z M 14.53125 3.3828125 L 13.8125 4.1015625 A 7 7 0 0 1 12.949219 12.949219 A 0.5 0.5 0 0 0 13.65625 13.65625 A 8 8 0 0 0 14.53125 3.3828125 z M 4.8730469 4.3203125 A 0.5006316 0.5006316 0 0 0 4.6875 4.3339844 A 0.5006316 0.5006316 0 0 0 4.4648438 4.4648438 A 5 5 0 0 0 3.5976562 10.332031 L 4.3496094 9.6035156 A 4 4 0 0 1 5.171875 5.171875 A 0.5006316 0.5006316 0 0 0 4.8730469 4.3203125 z M 12.357422 5.5546875 L 11.615234 6.296875 A 4 4 0 0 1 10.828125 10.828125 A 0.5006316 0.5006316 0 1 0 11.535156 11.535156 A 5 5 0 0 0 12.357422 5.5546875 z M 7.8417969 6.0097656 A 2 2 0 0 0 7.4160156 6.0878906 A 2 2 0 0 0 6 8 A 2 2 0 0 0 6 8.0019531 L 8.0488281 6.0175781 A 2 2 0 0 0 7.8417969 6.0097656 z M 9.9082031 8.0019531 L 7.5 10.408203 L 7.5 15.5 A 0.5 0.5 0 0 0 8.5 15.5 L 8.5 9.9375 A 2 2 0 0 0 9.9082031 8.0019531 z " />
  <path
     d="m 13.375,1.875 a 0.53033009,0.53033009 0 0 1 0.75,0.75 l -10.75,10.75 a 0.53033009,0.53033009 0 0 1 -0.75,-0.75 z"
     id="path1006" />
</svg>
