<svg xmlns="http://www.w3.org/2000/svg" viewBox="0 0 640 640"><!--!Font Awesome Pro v7.0.0 by @fontawesome - https://fontawesome.com License - https://fontawesome.com/license (Commercial License) Copyright 2025 Fonticons, Inc.--><path d="M128 160C110.3 160 96 174.3 96 192L96 256L544 256L544 192C544 174.3 529.7 160 512 160L128 160zM96 288L96 448C96 465.7 110.3 480 128 480L512 480C529.7 480 544 465.7 544 448L544 288L96 288zM64 192C64 156.7 92.7 128 128 128L512 128C547.3 128 576 156.7 576 192L576 448C576 483.3 547.3 512 512 512L128 512C92.7 512 64 483.3 64 448L64 192z"/></svg>
