<svg width="16" height="16" viewBox="0 0 16 16" fill="none" xmlns="http://www.w3.org/2000/svg">
<path fill-rule="evenodd" clip-rule="evenodd" d="M8 15.75C12.2802 15.75 15.75 12.2802 15.75 8C15.75 3.71978 12.2802 0.25 8 0.25C3.71978 0.25 0.25 3.71978 0.25 8C0.25 12.2802 3.71978 15.75 8 15.75ZM12.8536 6.35356L7.10356 12.1036C6.90828 12.2988 6.59172 12.2988 6.39644 12.1035L3.14644 8.85353C2.95119 8.65828 2.95119 8.34169 3.14644 8.14644L3.85353 7.43934C4.04881 7.24409 4.36541 7.24409 4.56066 7.43934L6.75 9.62869L11.4393 4.93937C11.6346 4.74409 11.9512 4.74409 12.1465 4.93937L12.8536 5.64647C13.0488 5.84172 13.0488 6.15831 12.8536 6.35356Z" fill="#6FCF97"/>
</svg>
